<svg xmlns="http://www.w3.org/2000/svg" viewBox="0 0 64 64">
  <rect x="0" y="0" width="64" height="64" fill="#ffd8a3" />
  <g transform="translate(1.2, 1.8)" opacity="0.85"><polygon points="12 32.0 18 22.0 28.0 18.0 34.0 28.0 28.0 32.0 18 36.0" fill="#c25a18" stroke="#c25a18" stroke-width="8" stroke-linecap="round" stroke-linejoin="round" opacity="0.75" />
  <polygon points="52 32.0 46 42.0 36.0 46.0 30.0 36.0 36.0 32.0 46 28.0" fill="#c25a18" stroke="#c25a18" stroke-width="8" stroke-linecap="round" stroke-linejoin="round" opacity="0.75" /></g>
  <polygon points="12 32.0 18 22.0 28.0 18.0 34.0 28.0 28.0 32.0 18 36.0" fill="#ffb04a" stroke="#ffb04a" stroke-width="7" stroke-linecap="round" stroke-linejoin="round" />
  <polygon points="52 32.0 46 42.0 36.0 46.0 30.0 36.0 36.0 32.0 46 28.0" fill="#ffb04a" stroke="#ffb04a" stroke-width="7" stroke-linecap="round" stroke-linejoin="round" />
  <g transform="translate(-1, -1.3)"><polygon points="12 32.0 18 22.0 28.0 18.0 34.0 28.0 28.0 32.0 18 36.0" fill="none" stroke="#fff3d2" stroke-width="2.4" stroke-linecap="round" stroke-linejoin="round" opacity="0.6" />
  <polygon points="52 32.0 46 42.0 36.0 46.0 30.0 36.0 36.0 32.0 46 28.0" fill="none" stroke="#fff3d2" stroke-width="2.4" stroke-linecap="round" stroke-linejoin="round" opacity="0.6" /></g>
</svg>
