<svg xmlns="http://www.w3.org/2000/svg" viewBox="0 0 64 64">
  <rect x="0" y="0" width="64" height="64" rx="6" fill="#0d5a2e" /><rect x="2" y="2" width="60" height="60" rx="5" fill="none" stroke="#154d24" stroke-width="1" />
  <polygon points="16 12 42 12 52 22 52 52 16 52" fill="#e8c055" stroke="#e8c055" stroke-width="1.8" stroke-linecap="round" stroke-linejoin="round" />
  <polygon points="42 12 42 22 52 22" fill="#e8c055" stroke="#e8c055" stroke-width="1.8" stroke-linecap="round" stroke-linejoin="round" />
  <line x1="22" y1="30" x2="44" y2="30" stroke="#e8c055" stroke-width="1.8" stroke-linecap="round" stroke-linejoin="round" />
  <line x1="22" y1="38" x2="44" y2="38" stroke="#e8c055" stroke-width="1.8" stroke-linecap="round" stroke-linejoin="round" />
  <line x1="22" y1="46" x2="38" y2="46" stroke="#e8c055" stroke-width="1.8" stroke-linecap="round" stroke-linejoin="round" />
  <circle cx="22" cy="30" r="1.5" fill="#f7d76a" /><circle cx="44" cy="30" r="1.5" fill="#f7d76a" /><circle cx="22" cy="38" r="1.5" fill="#f7d76a" /><circle cx="44" cy="38" r="1.5" fill="#f7d76a" /><circle cx="22" cy="46" r="1.5" fill="#f7d76a" /><circle cx="38" cy="46" r="1.5" fill="#f7d76a" />
  <circle cx="55" cy="9" r="3.2" fill="#ff4a4a" /><circle cx="54" cy="8" r="1.2" fill="#ffdede" />
</svg>
