<svg xmlns="http://www.w3.org/2000/svg" viewBox="0 0 64 64">
  <rect x="0" y="0" width="64" height="64" fill="#fff4b8" />
  <rect x="0" y="0" width="3" height="64" fill="#ffde57" opacity="0.5" /><rect x="0" y="0" width="64" height="3" fill="#ffde57" opacity="0.4" /><rect x="6" y="0" width="3" height="64" fill="#ffde57" opacity="0.5" /><rect x="0" y="6" width="64" height="3" fill="#ffde57" opacity="0.4" /><rect x="12" y="0" width="3" height="64" fill="#ffde57" opacity="0.5" /><rect x="0" y="12" width="64" height="3" fill="#ffde57" opacity="0.4" /><rect x="18" y="0" width="3" height="64" fill="#ffde57" opacity="0.5" /><rect x="0" y="18" width="64" height="3" fill="#ffde57" opacity="0.4" /><rect x="24" y="0" width="3" height="64" fill="#ffde57" opacity="0.5" /><rect x="0" y="24" width="64" height="3" fill="#ffde57" opacity="0.4" /><rect x="30" y="0" width="3" height="64" fill="#ffde57" opacity="0.5" /><rect x="0" y="30" width="64" height="3" fill="#ffde57" opacity="0.4" /><rect x="36" y="0" width="3" height="64" fill="#ffde57" opacity="0.5" /><rect x="0" y="36" width="64" height="3" fill="#ffde57" opacity="0.4" /><rect x="42" y="0" width="3" height="64" fill="#ffde57" opacity="0.5" /><rect x="0" y="42" width="64" height="3" fill="#ffde57" opacity="0.4" /><rect x="48" y="0" width="3" height="64" fill="#ffde57" opacity="0.5" /><rect x="0" y="48" width="64" height="3" fill="#ffde57" opacity="0.4" /><rect x="54" y="0" width="3" height="64" fill="#ffde57" opacity="0.5" /><rect x="0" y="54" width="64" height="3" fill="#ffde57" opacity="0.4" /><rect x="60" y="0" width="3" height="64" fill="#ffde57" opacity="0.5" /><rect x="0" y="60" width="64" height="3" fill="#ffde57" opacity="0.4" />
  <circle cx="32.0" cy="32.0" r="14" fill="none" stroke="#ffb400" stroke-width="5" stroke-linecap="round" stroke-linejoin="round" opacity="0.35" />
  <circle cx="32.0" cy="32.0" r="5" fill="none" stroke="#ffb400" stroke-width="5" stroke-linecap="round" stroke-linejoin="round" opacity="0.35" />
  <rect x="30.0" y="8" width="4" height="6" rx="2" fill="none" stroke="#ffb400" stroke-width="5" stroke-linecap="round" stroke-linejoin="round" opacity="0.35" />
  <rect x="30.0" y="50" width="4" height="6" rx="2" fill="none" stroke="#ffb400" stroke-width="5" stroke-linecap="round" stroke-linejoin="round" opacity="0.35" />
  <rect x="8" y="30.0" width="6" height="4" rx="2" fill="none" stroke="#ffb400" stroke-width="5" stroke-linecap="round" stroke-linejoin="round" opacity="0.35" />
  <rect x="50" y="30.0" width="6" height="4" rx="2" fill="none" stroke="#ffb400" stroke-width="5" stroke-linecap="round" stroke-linejoin="round" opacity="0.35" />
  <polygon points="44.0 18.0 48.0 20.0 44.0 24.0 40.0 20.0" fill="none" stroke="#ffb400" stroke-width="5" stroke-linecap="round" stroke-linejoin="round" opacity="0.35" />
  <polygon points="20.0 18.0 24.0 20.0 20.0 24.0 16.0 20.0" fill="none" stroke="#ffb400" stroke-width="5" stroke-linecap="round" stroke-linejoin="round" opacity="0.35" />
  <polygon points="44.0 46.0 48.0 44.0 44.0 40.0 40.0 44.0" fill="none" stroke="#ffb400" stroke-width="5" stroke-linecap="round" stroke-linejoin="round" opacity="0.35" />
  <polygon points="20.0 46.0 24.0 44.0 20.0 40.0 16.0 44.0" fill="none" stroke="#ffb400" stroke-width="5" stroke-linecap="round" stroke-linejoin="round" opacity="0.35" />
  <circle cx="32.0" cy="32.0" r="14" fill="none" stroke="#d05b1a" stroke-width="3" stroke-linecap="round" stroke-linejoin="round" opacity="0.94" />
  <circle cx="32.0" cy="32.0" r="5" fill="none" stroke="#d05b1a" stroke-width="3" stroke-linecap="round" stroke-linejoin="round" opacity="0.94" />
  <rect x="30.0" y="8" width="4" height="6" rx="2" fill="none" stroke="#d05b1a" stroke-width="3" stroke-linecap="round" stroke-linejoin="round" opacity="0.94" />
  <rect x="30.0" y="50" width="4" height="6" rx="2" fill="none" stroke="#d05b1a" stroke-width="3" stroke-linecap="round" stroke-linejoin="round" opacity="0.94" />
  <rect x="8" y="30.0" width="6" height="4" rx="2" fill="none" stroke="#d05b1a" stroke-width="3" stroke-linecap="round" stroke-linejoin="round" opacity="0.94" />
  <rect x="50" y="30.0" width="6" height="4" rx="2" fill="none" stroke="#d05b1a" stroke-width="3" stroke-linecap="round" stroke-linejoin="round" opacity="0.94" />
  <polygon points="44.0 18.0 48.0 20.0 44.0 24.0 40.0 20.0" fill="none" stroke="#d05b1a" stroke-width="3" stroke-linecap="round" stroke-linejoin="round" opacity="0.94" />
  <polygon points="20.0 18.0 24.0 20.0 20.0 24.0 16.0 20.0" fill="none" stroke="#d05b1a" stroke-width="3" stroke-linecap="round" stroke-linejoin="round" opacity="0.94" />
  <polygon points="44.0 46.0 48.0 44.0 44.0 40.0 40.0 44.0" fill="none" stroke="#d05b1a" stroke-width="3" stroke-linecap="round" stroke-linejoin="round" opacity="0.94" />
  <polygon points="20.0 46.0 24.0 44.0 20.0 40.0 16.0 44.0" fill="none" stroke="#d05b1a" stroke-width="3" stroke-linecap="round" stroke-linejoin="round" opacity="0.94" />
</svg>
