<svg xmlns="http://www.w3.org/2000/svg" viewBox="0 0 1024 1024" width="1024" height="1024" role="img" aria-label="Magic 8-Ball widget preview">
  <defs>
    <radialGradient id="eightBg" cx="31%" cy="18%" r="88%">
      <stop offset="0" stop-color="#8f7dff"/>
      <stop offset="0.44" stop-color="#251747"/>
      <stop offset="1" stop-color="#06030c"/>
    </radialGradient>
    <radialGradient id="eightBall" cx="34%" cy="26%" r="74%">
      <stop offset="0" stop-color="#676071"/>
      <stop offset="0.34" stop-color="#1b1825"/>
      <stop offset="0.72" stop-color="#07060b"/>
      <stop offset="1" stop-color="#010103"/>
    </radialGradient>
    <radialGradient id="eightBadge" cx="38%" cy="30%" r="70%">
      <stop offset="0" stop-color="#ffffff"/>
      <stop offset="0.58" stop-color="#f2f0f7"/>
      <stop offset="1" stop-color="#c9c5d3"/>
    </radialGradient>
    <radialGradient id="eightWindow" cx="50%" cy="36%" r="65%">
      <stop offset="0" stop-color="#112a6f"/>
      <stop offset="0.65" stop-color="#07122e"/>
      <stop offset="1" stop-color="#02030a"/>
    </radialGradient>
    <linearGradient id="eightTriangle" x1="0" y1="0" x2="0" y2="1">
      <stop offset="0" stop-color="#7fb2ff"/>
      <stop offset="0.42" stop-color="#315fd0"/>
      <stop offset="1" stop-color="#16327b"/>
    </linearGradient>
    <filter id="eightShadow" x="-24%" y="-20%" width="148%" height="154%">
      <feDropShadow dx="0" dy="38" stdDeviation="34" flood-color="#000" flood-opacity="0.48"/>
      <feDropShadow dx="0" dy="4" stdDeviation="10" flood-color="#8f7dff" flood-opacity="0.18"/>
    </filter>
  </defs>
  <rect width="1024" height="1024" fill="url(#eightBg)"/>
  <circle cx="164" cy="150" r="224" fill="#fff" opacity="0.12"/>
  <circle cx="836" cy="828" r="280" fill="#7c3aed" opacity="0.2"/>
  <path d="M272 820 C420 904 604 910 760 824" fill="none" stroke="#a78bfa" stroke-width="30" stroke-linecap="round" opacity="0.54"/>
  <g filter="url(#eightShadow)">
    <circle cx="512" cy="520" r="332" fill="url(#eightBall)"/>
    <circle cx="416" cy="342" r="88" fill="#fff" opacity="0.16"/>
    <ellipse cx="376" cy="304" rx="78" ry="44" fill="#fff" opacity="0.1" transform="rotate(-24 376 304)"/>
    <circle cx="512" cy="424" r="118" fill="url(#eightBadge)"/>
    <text x="512" y="475" text-anchor="middle" font-family="Arial Black, Helvetica Neue, Arial, sans-serif" font-size="150" font-weight="900" fill="#111827">8</text>
    <circle cx="512" cy="650" r="156" fill="url(#eightWindow)"/>
    <circle cx="512" cy="650" r="158" fill="none" stroke="#000" stroke-width="16" opacity="0.52"/>
    <path d="M396 590 H628 L512 772 Z" fill="url(#eightTriangle)"/>
    <text x="512" y="648" text-anchor="middle" font-family="Helvetica Neue, Arial, sans-serif" font-size="42" font-weight="800" letter-spacing="3" fill="#eef4ff">ASK</text>
    <text x="512" y="704" text-anchor="middle" font-family="Helvetica Neue, Arial, sans-serif" font-size="34" font-weight="800" letter-spacing="2" fill="#dfe9ff">ODD</text>
  </g>
  <g fill="#fff" opacity="0.56">
    <circle cx="768" cy="190" r="14"/>
    <circle cx="820" cy="250" r="8"/>
    <circle cx="206" cy="744" r="10"/>
  </g>
</svg>
