<svg xmlns="http://www.w3.org/2000/svg" viewBox="0 0 1024 1024" width="1024" height="1024" role="img" aria-label="Botanical Plate Links"><defs><clipPath id="sq"><path d="M 350.06 0 L 673.94 0 C 774.74 0 825.13 0 879.39 17.15 L 879.39 17.15 C 938.62 38.71 985.29 85.38 1006.85 144.61 C 1024 198.87 1024 249.26 1024 350.06 L 1024 673.94 C 1024 774.74 1024 825.13 1006.85 879.39 L 1006.85 879.39 C 985.29 938.62 938.62 985.29 879.39 1006.85 C 825.13 1024 774.74 1024 673.94 1024 L 350.06 1024 C 249.26 1024 198.87 1024 144.61 1006.85 L 144.61 1006.85 C 85.38 985.29 38.71 938.62 17.15 879.39 C 0 825.13 0 774.74 0 673.94 L 0 350.06 C 0 249.26 0 198.87 17.15 144.61 L 17.15 144.61 C 38.71 85.38 85.38 38.71 144.61 17.15 C 198.87 0 249.26 0 350.06 0 Z"/></clipPath><linearGradient id="bgbotanicalplatelinks" x1="0" y1="0" x2="0" y2="1"><stop offset="0" stop-color="#f5edd8"/><stop offset="1" stop-color="#d6c790"/></linearGradient></defs><g clip-path="url(#sq)"><rect width="1024" height="1024" fill="url(#bgbotanicalplatelinks)"/><circle cx="96" cy="96" r="3" fill="#6a8f3b" opacity=".10"/><circle cx="96" cy="212" r="3" fill="#6a8f3b" opacity=".10"/><circle cx="96" cy="328" r="3" fill="#6a8f3b" opacity=".10"/><circle cx="96" cy="444" r="3" fill="#6a8f3b" opacity=".10"/><circle cx="96" cy="560" r="3" fill="#6a8f3b" opacity=".10"/><circle cx="96" cy="676" r="3" fill="#6a8f3b" opacity=".10"/><circle cx="96" cy="792" r="3" fill="#6a8f3b" opacity=".10"/><circle cx="96" cy="908" r="3" fill="#6a8f3b" opacity=".10"/><circle cx="212" cy="96" r="5" fill="#6a8f3b" opacity=".10"/><circle cx="212" cy="212" r="5" fill="#6a8f3b" opacity=".10"/><circle cx="212" cy="328" r="5" fill="#6a8f3b" opacity=".10"/><circle cx="212" cy="444" r="5" fill="#6a8f3b" opacity=".10"/><circle cx="212" cy="560" r="5" fill="#6a8f3b" opacity=".10"/><circle cx="212" cy="676" r="5" fill="#6a8f3b" opacity=".10"/><circle cx="212" cy="792" r="5" fill="#6a8f3b" opacity=".10"/><circle cx="212" cy="908" r="5" fill="#6a8f3b" opacity=".10"/><circle cx="328" cy="96" r="7" fill="#6a8f3b" opacity=".10"/><circle cx="328" cy="212" r="7" fill="#6a8f3b" opacity=".10"/><circle cx="328" cy="328" r="7" fill="#6a8f3b" opacity=".10"/><circle cx="328" cy="444" r="7" fill="#6a8f3b" opacity=".10"/><circle cx="328" cy="560" r="7" fill="#6a8f3b" opacity=".10"/><circle cx="328" cy="676" r="7" fill="#6a8f3b" opacity=".10"/><circle cx="328" cy="792" r="7" fill="#6a8f3b" opacity=".10"/><circle cx="328" cy="908" r="7" fill="#6a8f3b" opacity=".10"/><circle cx="444" cy="96" r="4" fill="#6a8f3b" opacity=".10"/><circle cx="444" cy="212" r="4" fill="#6a8f3b" opacity=".10"/><circle cx="444" cy="328" r="4" fill="#6a8f3b" opacity=".10"/><circle cx="444" cy="444" r="4" fill="#6a8f3b" opacity=".10"/><circle cx="444" cy="560" r="4" fill="#6a8f3b" opacity=".10"/><circle cx="444" cy="676" r="4" fill="#6a8f3b" opacity=".10"/><circle cx="444" cy="792" r="4" fill="#6a8f3b" opacity=".10"/><circle cx="444" cy="908" r="4" fill="#6a8f3b" opacity=".10"/><circle cx="560" cy="96" r="6" fill="#6a8f3b" opacity=".10"/><circle cx="560" cy="212" r="6" fill="#6a8f3b" opacity=".10"/><circle cx="560" cy="328" r="6" fill="#6a8f3b" opacity=".10"/><circle cx="560" cy="444" r="6" fill="#6a8f3b" opacity=".10"/><circle cx="560" cy="560" r="6" fill="#6a8f3b" opacity=".10"/><circle cx="560" cy="676" r="6" fill="#6a8f3b" opacity=".10"/><circle cx="560" cy="792" r="6" fill="#6a8f3b" opacity=".10"/><circle cx="560" cy="908" r="6" fill="#6a8f3b" opacity=".10"/><circle cx="676" cy="96" r="3" fill="#6a8f3b" opacity=".10"/><circle cx="676" cy="212" r="3" fill="#6a8f3b" opacity=".10"/><circle cx="676" cy="328" r="3" fill="#6a8f3b" opacity=".10"/><circle cx="676" cy="444" r="3" fill="#6a8f3b" opacity=".10"/><circle cx="676" cy="560" r="3" fill="#6a8f3b" opacity=".10"/><circle cx="676" cy="676" r="3" fill="#6a8f3b" opacity=".10"/><circle cx="676" cy="792" r="3" fill="#6a8f3b" opacity=".10"/><circle cx="676" cy="908" r="3" fill="#6a8f3b" opacity=".10"/><circle cx="792" cy="96" r="5" fill="#6a8f3b" opacity=".10"/><circle cx="792" cy="212" r="5" fill="#6a8f3b" opacity=".10"/><circle cx="792" cy="328" r="5" fill="#6a8f3b" opacity=".10"/><circle cx="792" cy="444" r="5" fill="#6a8f3b" opacity=".10"/><circle cx="792" cy="560" r="5" fill="#6a8f3b" opacity=".10"/><circle cx="792" cy="676" r="5" fill="#6a8f3b" opacity=".10"/><circle cx="792" cy="792" r="5" fill="#6a8f3b" opacity=".10"/><circle cx="792" cy="908" r="5" fill="#6a8f3b" opacity=".10"/><circle cx="908" cy="96" r="7" fill="#6a8f3b" opacity=".10"/><circle cx="908" cy="212" r="7" fill="#6a8f3b" opacity=".10"/><circle cx="908" cy="328" r="7" fill="#6a8f3b" opacity=".10"/><circle cx="908" cy="444" r="7" fill="#6a8f3b" opacity=".10"/><circle cx="908" cy="560" r="7" fill="#6a8f3b" opacity=".10"/><circle cx="908" cy="676" r="7" fill="#6a8f3b" opacity=".10"/><circle cx="908" cy="792" r="7" fill="#6a8f3b" opacity=".10"/><circle cx="908" cy="908" r="7" fill="#6a8f3b" opacity=".10"/><g transform="rotate(-4 512 512)"><g transform="translate(420 540) rotate(-20)"><rect x="-220.0" y="-90.0" width="440" height="180" rx="90.0" fill="none" stroke="#2d3822" stroke-width="66"/></g><g transform="translate(604 480) rotate(20)"><rect x="-220.0" y="-90.0" width="440" height="180" rx="90.0" fill="none" stroke="#6a8f3b" stroke-width="66"/></g></g><path d="M166 810 C260 620 300 480 230 250" fill="none" stroke="#6a8f3b" stroke-width="18" opacity=".55"/><path d="M220 500 C315 470 350 392 348 320" fill="none" stroke="#6a8f3b" stroke-width="16" opacity=".45"/><g transform="translate(450 170)"><circle cx="0" cy="0" r="14" fill="#6a3d15"/><circle cx="-4" cy="-4" r="4" fill="#f6d27d"/></g><g fill="#8a6028" opacity=".26"><circle cx="208" cy="848" r="10"/><circle cx="238" cy="866" r="6"/><circle cx="824" cy="210" r="8"/></g><rect x="680" y="866" width="168" height="42" rx="6" fill="none" stroke="#2d3822" stroke-width="2" opacity=".35"/><path d="M 696 894 h 140" stroke="#2d3822" stroke-width="2" opacity=".40"/></g></svg>
