<svg xmlns="http://www.w3.org/2000/svg" viewBox="0 0 64 64">
  <rect x="0" y="0" width="64" height="64" fill="#f5ead2" />
  <g transform="translate(1.2, 1.2)"><circle cx="32.0" cy="32.0" r="14" fill="#b6cc72" stroke="#8ea749" stroke-width="4" stroke-linecap="round" stroke-linejoin="round" opacity="0.35" />
  <circle cx="32.0" cy="32.0" r="5" fill="#b6cc72" stroke="#8ea749" stroke-width="4" stroke-linecap="round" stroke-linejoin="round" opacity="0.35" />
  <rect x="30.0" y="8" width="4" height="6" rx="2" fill="#b6cc72" stroke="#8ea749" stroke-width="4" stroke-linecap="round" stroke-linejoin="round" opacity="0.35" />
  <rect x="30.0" y="50" width="4" height="6" rx="2" fill="#b6cc72" stroke="#8ea749" stroke-width="4" stroke-linecap="round" stroke-linejoin="round" opacity="0.35" />
  <rect x="8" y="30.0" width="6" height="4" rx="2" fill="#b6cc72" stroke="#8ea749" stroke-width="4" stroke-linecap="round" stroke-linejoin="round" opacity="0.35" />
  <rect x="50" y="30.0" width="6" height="4" rx="2" fill="#b6cc72" stroke="#8ea749" stroke-width="4" stroke-linecap="round" stroke-linejoin="round" opacity="0.35" />
  <polygon points="44.0 18.0 48.0 20.0 44.0 24.0 40.0 20.0" fill="#b6cc72" stroke="#8ea749" stroke-width="4" stroke-linecap="round" stroke-linejoin="round" opacity="0.35" />
  <polygon points="20.0 18.0 24.0 20.0 20.0 24.0 16.0 20.0" fill="#b6cc72" stroke="#8ea749" stroke-width="4" stroke-linecap="round" stroke-linejoin="round" opacity="0.35" />
  <polygon points="44.0 46.0 48.0 44.0 44.0 40.0 40.0 44.0" fill="#b6cc72" stroke="#8ea749" stroke-width="4" stroke-linecap="round" stroke-linejoin="round" opacity="0.35" />
  <polygon points="20.0 46.0 24.0 44.0 20.0 40.0 16.0 44.0" fill="#b6cc72" stroke="#8ea749" stroke-width="4" stroke-linecap="round" stroke-linejoin="round" opacity="0.35" /></g>
  <circle cx="32.0" cy="32.0" r="14" fill="none" stroke="#3a2a14" stroke-width="1.3" stroke-linecap="round" stroke-linejoin="round" />
  <circle cx="32.0" cy="32.0" r="5" fill="none" stroke="#3a2a14" stroke-width="1.3" stroke-linecap="round" stroke-linejoin="round" />
  <rect x="30.0" y="8" width="4" height="6" rx="2" fill="none" stroke="#3a2a14" stroke-width="1.3" stroke-linecap="round" stroke-linejoin="round" />
  <rect x="30.0" y="50" width="4" height="6" rx="2" fill="none" stroke="#3a2a14" stroke-width="1.3" stroke-linecap="round" stroke-linejoin="round" />
  <rect x="8" y="30.0" width="6" height="4" rx="2" fill="none" stroke="#3a2a14" stroke-width="1.3" stroke-linecap="round" stroke-linejoin="round" />
  <rect x="50" y="30.0" width="6" height="4" rx="2" fill="none" stroke="#3a2a14" stroke-width="1.3" stroke-linecap="round" stroke-linejoin="round" />
  <polygon points="44.0 18.0 48.0 20.0 44.0 24.0 40.0 20.0" fill="none" stroke="#3a2a14" stroke-width="1.3" stroke-linecap="round" stroke-linejoin="round" />
  <polygon points="20.0 18.0 24.0 20.0 20.0 24.0 16.0 20.0" fill="none" stroke="#3a2a14" stroke-width="1.3" stroke-linecap="round" stroke-linejoin="round" />
  <polygon points="44.0 46.0 48.0 44.0 44.0 40.0 40.0 44.0" fill="none" stroke="#3a2a14" stroke-width="1.3" stroke-linecap="round" stroke-linejoin="round" />
  <polygon points="20.0 46.0 24.0 44.0 20.0 40.0 16.0 44.0" fill="none" stroke="#3a2a14" stroke-width="1.3" stroke-linecap="round" stroke-linejoin="round" />
  <line x1="12" y1="58" x2="52" y2="58" stroke="#3a2a14" stroke-width="0.7" opacity="0.55" />
</svg>
