<svg xmlns="http://www.w3.org/2000/svg" viewBox="0 0 64 64">
  <rect x="0" y="0" width="64" height="64" fill="#2a1b0e" />
  <circle cx="32" cy="32" r="28" fill="#e6a84a" /><circle cx="32" cy="32" r="28" fill="none" stroke="#8a5a1e" stroke-width="2.4" /><circle cx="32" cy="32" r="24" fill="none" stroke="#f6d27a" stroke-width="1" opacity="0.8" />
  <g transform="translate(0.6, 0.8)"><circle cx="24.0" cy="24" r="7" fill="#7a4414" stroke="#7a4414" stroke-width="3" stroke-linecap="round" stroke-linejoin="round" />
  <circle cx="40.0" cy="24" r="7" fill="#7a4414" stroke="#7a4414" stroke-width="3" stroke-linecap="round" stroke-linejoin="round" />
  <polygon points="14.0 52 18.0 36 30.0 36 34.0 52" fill="#7a4414" stroke="#7a4414" stroke-width="3" stroke-linecap="round" stroke-linejoin="round" />
  <polygon points="30.0 52 34.0 36 46.0 36 50.0 52" fill="#7a4414" stroke="#7a4414" stroke-width="3" stroke-linecap="round" stroke-linejoin="round" /></g>
  <g transform="translate(-0.4, -0.6)"><circle cx="24.0" cy="24" r="7" fill="none" stroke="#fce79a" stroke-width="1.6" stroke-linecap="round" stroke-linejoin="round" opacity="0.9" />
  <circle cx="40.0" cy="24" r="7" fill="none" stroke="#fce79a" stroke-width="1.6" stroke-linecap="round" stroke-linejoin="round" opacity="0.9" />
  <polygon points="14.0 52 18.0 36 30.0 36 34.0 52" fill="none" stroke="#fce79a" stroke-width="1.6" stroke-linecap="round" stroke-linejoin="round" opacity="0.9" />
  <polygon points="30.0 52 34.0 36 46.0 36 50.0 52" fill="none" stroke="#fce79a" stroke-width="1.6" stroke-linecap="round" stroke-linejoin="round" opacity="0.9" /></g>
</svg>
