<svg xmlns="http://www.w3.org/2000/svg" viewBox="0 0 1024 1024" width="1024" height="1024" role="img" aria-label="Risograph Appearance"><defs><clipPath id="sq"><path d="M 350.06 0 L 673.94 0 C 774.74 0 825.13 0 879.39 17.15 L 879.39 17.15 C 938.62 38.71 985.29 85.38 1006.85 144.61 C 1024 198.87 1024 249.26 1024 350.06 L 1024 673.94 C 1024 774.74 1024 825.13 1006.85 879.39 L 1006.85 879.39 C 985.29 938.62 938.62 985.29 879.39 1006.85 C 825.13 1024 774.74 1024 673.94 1024 L 350.06 1024 C 249.26 1024 198.87 1024 144.61 1006.85 L 144.61 1006.85 C 85.38 985.29 38.71 938.62 17.15 879.39 C 0 825.13 0 774.74 0 673.94 L 0 350.06 C 0 249.26 0 198.87 17.15 144.61 L 17.15 144.61 C 38.71 85.38 85.38 38.71 144.61 17.15 C 198.87 0 249.26 0 350.06 0 Z"/></clipPath><linearGradient id="bgrisographappearance" x1="0" y1="0" x2="0" y2="1"><stop offset="0" stop-color="#f4ecd8"/><stop offset="1" stop-color="#eadfca"/></linearGradient></defs><g clip-path="url(#sq)"><rect width="1024" height="1024" fill="url(#bgrisographappearance)"/><circle cx="96" cy="96" r="3" fill="#6d5c4a" opacity=".12"/><circle cx="96" cy="190" r="3" fill="#6d5c4a" opacity=".12"/><circle cx="96" cy="284" r="3" fill="#6d5c4a" opacity=".12"/><circle cx="96" cy="378" r="3" fill="#6d5c4a" opacity=".12"/><circle cx="96" cy="472" r="3" fill="#6d5c4a" opacity=".12"/><circle cx="96" cy="566" r="3" fill="#6d5c4a" opacity=".12"/><circle cx="96" cy="660" r="3" fill="#6d5c4a" opacity=".12"/><circle cx="96" cy="754" r="3" fill="#6d5c4a" opacity=".12"/><circle cx="96" cy="848" r="3" fill="#6d5c4a" opacity=".12"/><circle cx="96" cy="942" r="3" fill="#6d5c4a" opacity=".12"/><circle cx="190" cy="96" r="5" fill="#6d5c4a" opacity=".12"/><circle cx="190" cy="190" r="5" fill="#6d5c4a" opacity=".12"/><circle cx="190" cy="284" r="5" fill="#6d5c4a" opacity=".12"/><circle cx="190" cy="378" r="5" fill="#6d5c4a" opacity=".12"/><circle cx="190" cy="472" r="5" fill="#6d5c4a" opacity=".12"/><circle cx="190" cy="566" r="5" fill="#6d5c4a" opacity=".12"/><circle cx="190" cy="660" r="5" fill="#6d5c4a" opacity=".12"/><circle cx="190" cy="754" r="5" fill="#6d5c4a" opacity=".12"/><circle cx="190" cy="848" r="5" fill="#6d5c4a" opacity=".12"/><circle cx="190" cy="942" r="5" fill="#6d5c4a" opacity=".12"/><circle cx="284" cy="96" r="7" fill="#6d5c4a" opacity=".12"/><circle cx="284" cy="190" r="7" fill="#6d5c4a" opacity=".12"/><circle cx="284" cy="284" r="7" fill="#6d5c4a" opacity=".12"/><circle cx="284" cy="378" r="7" fill="#6d5c4a" opacity=".12"/><circle cx="284" cy="472" r="7" fill="#6d5c4a" opacity=".12"/><circle cx="284" cy="566" r="7" fill="#6d5c4a" opacity=".12"/><circle cx="284" cy="660" r="7" fill="#6d5c4a" opacity=".12"/><circle cx="284" cy="754" r="7" fill="#6d5c4a" opacity=".12"/><circle cx="284" cy="848" r="7" fill="#6d5c4a" opacity=".12"/><circle cx="284" cy="942" r="7" fill="#6d5c4a" opacity=".12"/><circle cx="378" cy="96" r="4" fill="#6d5c4a" opacity=".12"/><circle cx="378" cy="190" r="4" fill="#6d5c4a" opacity=".12"/><circle cx="378" cy="284" r="4" fill="#6d5c4a" opacity=".12"/><circle cx="378" cy="378" r="4" fill="#6d5c4a" opacity=".12"/><circle cx="378" cy="472" r="4" fill="#6d5c4a" opacity=".12"/><circle cx="378" cy="566" r="4" fill="#6d5c4a" opacity=".12"/><circle cx="378" cy="660" r="4" fill="#6d5c4a" opacity=".12"/><circle cx="378" cy="754" r="4" fill="#6d5c4a" opacity=".12"/><circle cx="378" cy="848" r="4" fill="#6d5c4a" opacity=".12"/><circle cx="378" cy="942" r="4" fill="#6d5c4a" opacity=".12"/><circle cx="472" cy="96" r="6" fill="#6d5c4a" opacity=".12"/><circle cx="472" cy="190" r="6" fill="#6d5c4a" opacity=".12"/><circle cx="472" cy="284" r="6" fill="#6d5c4a" opacity=".12"/><circle cx="472" cy="378" r="6" fill="#6d5c4a" opacity=".12"/><circle cx="472" cy="472" r="6" fill="#6d5c4a" opacity=".12"/><circle cx="472" cy="566" r="6" fill="#6d5c4a" opacity=".12"/><circle cx="472" cy="660" r="6" fill="#6d5c4a" opacity=".12"/><circle cx="472" cy="754" r="6" fill="#6d5c4a" opacity=".12"/><circle cx="472" cy="848" r="6" fill="#6d5c4a" opacity=".12"/><circle cx="472" cy="942" r="6" fill="#6d5c4a" opacity=".12"/><circle cx="566" cy="96" r="3" fill="#6d5c4a" opacity=".12"/><circle cx="566" cy="190" r="3" fill="#6d5c4a" opacity=".12"/><circle cx="566" cy="284" r="3" fill="#6d5c4a" opacity=".12"/><circle cx="566" cy="378" r="3" fill="#6d5c4a" opacity=".12"/><circle cx="566" cy="472" r="3" fill="#6d5c4a" opacity=".12"/><circle cx="566" cy="566" r="3" fill="#6d5c4a" opacity=".12"/><circle cx="566" cy="660" r="3" fill="#6d5c4a" opacity=".12"/><circle cx="566" cy="754" r="3" fill="#6d5c4a" opacity=".12"/><circle cx="566" cy="848" r="3" fill="#6d5c4a" opacity=".12"/><circle cx="566" cy="942" r="3" fill="#6d5c4a" opacity=".12"/><circle cx="660" cy="96" r="5" fill="#6d5c4a" opacity=".12"/><circle cx="660" cy="190" r="5" fill="#6d5c4a" opacity=".12"/><circle cx="660" cy="284" r="5" fill="#6d5c4a" opacity=".12"/><circle cx="660" cy="378" r="5" fill="#6d5c4a" opacity=".12"/><circle cx="660" cy="472" r="5" fill="#6d5c4a" opacity=".12"/><circle cx="660" cy="566" r="5" fill="#6d5c4a" opacity=".12"/><circle cx="660" cy="660" r="5" fill="#6d5c4a" opacity=".12"/><circle cx="660" cy="754" r="5" fill="#6d5c4a" opacity=".12"/><circle cx="660" cy="848" r="5" fill="#6d5c4a" opacity=".12"/><circle cx="660" cy="942" r="5" fill="#6d5c4a" opacity=".12"/><circle cx="754" cy="96" r="7" fill="#6d5c4a" opacity=".12"/><circle cx="754" cy="190" r="7" fill="#6d5c4a" opacity=".12"/><circle cx="754" cy="284" r="7" fill="#6d5c4a" opacity=".12"/><circle cx="754" cy="378" r="7" fill="#6d5c4a" opacity=".12"/><circle cx="754" cy="472" r="7" fill="#6d5c4a" opacity=".12"/><circle cx="754" cy="566" r="7" fill="#6d5c4a" opacity=".12"/><circle cx="754" cy="660" r="7" fill="#6d5c4a" opacity=".12"/><circle cx="754" cy="754" r="7" fill="#6d5c4a" opacity=".12"/><circle cx="754" cy="848" r="7" fill="#6d5c4a" opacity=".12"/><circle cx="754" cy="942" r="7" fill="#6d5c4a" opacity=".12"/><circle cx="848" cy="96" r="4" fill="#6d5c4a" opacity=".12"/><circle cx="848" cy="190" r="4" fill="#6d5c4a" opacity=".12"/><circle cx="848" cy="284" r="4" fill="#6d5c4a" opacity=".12"/><circle cx="848" cy="378" r="4" fill="#6d5c4a" opacity=".12"/><circle cx="848" cy="472" r="4" fill="#6d5c4a" opacity=".12"/><circle cx="848" cy="566" r="4" fill="#6d5c4a" opacity=".12"/><circle cx="848" cy="660" r="4" fill="#6d5c4a" opacity=".12"/><circle cx="848" cy="754" r="4" fill="#6d5c4a" opacity=".12"/><circle cx="848" cy="848" r="4" fill="#6d5c4a" opacity=".12"/><circle cx="848" cy="942" r="4" fill="#6d5c4a" opacity=".12"/><circle cx="942" cy="96" r="6" fill="#6d5c4a" opacity=".12"/><circle cx="942" cy="190" r="6" fill="#6d5c4a" opacity=".12"/><circle cx="942" cy="284" r="6" fill="#6d5c4a" opacity=".12"/><circle cx="942" cy="378" r="6" fill="#6d5c4a" opacity=".12"/><circle cx="942" cy="472" r="6" fill="#6d5c4a" opacity=".12"/><circle cx="942" cy="566" r="6" fill="#6d5c4a" opacity=".12"/><circle cx="942" cy="660" r="6" fill="#6d5c4a" opacity=".12"/><circle cx="942" cy="754" r="6" fill="#6d5c4a" opacity=".12"/><circle cx="942" cy="848" r="6" fill="#6d5c4a" opacity=".12"/><circle cx="942" cy="942" r="6" fill="#6d5c4a" opacity=".12"/><g transform="translate(-16 12)" opacity=".84"><g transform="rotate(-35 512 512)"><rect x="462" y="430" width="100" height="350" rx="50" fill="#14a6cc"/><rect x="410" y="306" width="204" height="144" rx="36" fill="#14a6cc"/><path d="M 414 306 C 424 210 468 136 512 122 C 556 136 600 210 610 306 Z" fill="#14a6cc"/><path d="M 512 170 C 490 216 480 254 478 306" fill="none" stroke="#14a6cc" stroke-width="32" stroke-linecap="round" opacity=".62"/></g></g><g transform="translate(18 -14)" opacity=".86"><g transform="rotate(-35 512 512)"><rect x="462" y="430" width="100" height="350" rx="50" fill="#ff4fa8"/><rect x="410" y="306" width="204" height="144" rx="36" fill="#ff4fa8"/><path d="M 414 306 C 424 210 468 136 512 122 C 556 136 600 210 610 306 Z" fill="#ff4fa8"/><path d="M 512 170 C 490 216 480 254 478 306" fill="none" stroke="#ff4fa8" stroke-width="32" stroke-linecap="round" opacity=".62"/></g></g><rect width="1024" height="1024" fill="#f4ecd8" opacity=".10"/></g></svg>
