<svg xmlns="http://www.w3.org/2000/svg" viewBox="0 0 1024 1024" width="1024" height="1024" role="img" aria-label="Risograph Settings"><defs><clipPath id="sq"><path d="M 350.06 0 L 673.94 0 C 774.74 0 825.13 0 879.39 17.15 L 879.39 17.15 C 938.62 38.71 985.29 85.38 1006.85 144.61 C 1024 198.87 1024 249.26 1024 350.06 L 1024 673.94 C 1024 774.74 1024 825.13 1006.85 879.39 L 1006.85 879.39 C 985.29 938.62 938.62 985.29 879.39 1006.85 C 825.13 1024 774.74 1024 673.94 1024 L 350.06 1024 C 249.26 1024 198.87 1024 144.61 1006.85 L 144.61 1006.85 C 85.38 985.29 38.71 938.62 17.15 879.39 C 0 825.13 0 774.74 0 673.94 L 0 350.06 C 0 249.26 0 198.87 17.15 144.61 L 17.15 144.61 C 38.71 85.38 85.38 38.71 144.61 17.15 C 198.87 0 249.26 0 350.06 0 Z"/></clipPath></defs><g clip-path="url(#sq)"><g transform="translate(-16 12)" opacity=".84"><path d="M 678.30 443.12 L 691.55 499.29 L 771.35 493.64 L 771.35 530.36 L 691.55 524.71 L 678.30 580.88 L 678.30 580.88 L 647.95 629.97 L 708.37 682.40 L 682.40 708.37 L 629.97 647.95 L 580.88 678.30 L 580.88 678.30 L 524.71 691.55 L 530.36 771.35 L 493.64 771.35 L 499.29 691.55 L 443.12 678.30 L 443.12 678.30 L 394.03 647.95 L 341.60 708.37 L 315.63 682.40 L 376.05 629.97 L 345.70 580.88 L 345.70 580.88 L 332.45 524.71 L 252.65 530.36 L 252.65 493.64 L 332.45 499.29 L 345.70 443.12 L 345.70 443.12 L 376.05 394.03 L 315.63 341.60 L 341.60 315.63 L 394.03 376.05 L 443.12 345.70 L 443.12 345.70 L 499.29 332.45 L 493.64 252.65 L 530.36 252.65 L 524.71 332.45 L 580.88 345.70 L 580.88 345.70 L 629.97 376.05 L 682.40 315.63 L 708.37 341.60 L 647.95 394.03 L 678.30 443.12 Z" fill="#14a6cc"/><circle cx="512" cy="512" r="86" fill="#14a6cc"/></g><g transform="translate(18 -14)" opacity=".86"><path d="M 678.30 443.12 L 691.55 499.29 L 771.35 493.64 L 771.35 530.36 L 691.55 524.71 L 678.30 580.88 L 678.30 580.88 L 647.95 629.97 L 708.37 682.40 L 682.40 708.37 L 629.97 647.95 L 580.88 678.30 L 580.88 678.30 L 524.71 691.55 L 530.36 771.35 L 493.64 771.35 L 499.29 691.55 L 443.12 678.30 L 443.12 678.30 L 394.03 647.95 L 341.60 708.37 L 315.63 682.40 L 376.05 629.97 L 345.70 580.88 L 345.70 580.88 L 332.45 524.71 L 252.65 530.36 L 252.65 493.64 L 332.45 499.29 L 345.70 443.12 L 345.70 443.12 L 376.05 394.03 L 315.63 341.60 L 341.60 315.63 L 394.03 376.05 L 443.12 345.70 L 443.12 345.70 L 499.29 332.45 L 493.64 252.65 L 530.36 252.65 L 524.71 332.45 L 580.88 345.70 L 580.88 345.70 L 629.97 376.05 L 682.40 315.63 L 708.37 341.60 L 647.95 394.03 L 678.30 443.12 Z" fill="#ff4fa8"/><circle cx="512" cy="512" r="86" fill="#ff4fa8"/></g><circle cx="96" cy="96" r="3" fill="#111111" opacity=".18"/><circle cx="96" cy="200" r="3" fill="#111111" opacity=".18"/><circle cx="96" cy="304" r="3" fill="#111111" opacity=".18"/><circle cx="96" cy="408" r="3" fill="#111111" opacity=".18"/><circle cx="96" cy="512" r="3" fill="#111111" opacity=".18"/><circle cx="96" cy="616" r="3" fill="#111111" opacity=".18"/><circle cx="96" cy="720" r="3" fill="#111111" opacity=".18"/><circle cx="96" cy="824" r="3" fill="#111111" opacity=".18"/><circle cx="96" cy="928" r="3" fill="#111111" opacity=".18"/><circle cx="200" cy="96" r="5" fill="#111111" opacity=".18"/><circle cx="200" cy="200" r="5" fill="#111111" opacity=".18"/><circle cx="200" cy="304" r="5" fill="#111111" opacity=".18"/><circle cx="200" cy="408" r="5" fill="#111111" opacity=".18"/><circle cx="200" cy="512" r="5" fill="#111111" opacity=".18"/><circle cx="200" cy="616" r="5" fill="#111111" opacity=".18"/><circle cx="200" cy="720" r="5" fill="#111111" opacity=".18"/><circle cx="200" cy="824" r="5" fill="#111111" opacity=".18"/><circle cx="200" cy="928" r="5" fill="#111111" opacity=".18"/><circle cx="304" cy="96" r="7" fill="#111111" opacity=".18"/><circle cx="304" cy="200" r="7" fill="#111111" opacity=".18"/><circle cx="304" cy="304" r="7" fill="#111111" opacity=".18"/><circle cx="304" cy="408" r="7" fill="#111111" opacity=".18"/><circle cx="304" cy="512" r="7" fill="#111111" opacity=".18"/><circle cx="304" cy="616" r="7" fill="#111111" opacity=".18"/><circle cx="304" cy="720" r="7" fill="#111111" opacity=".18"/><circle cx="304" cy="824" r="7" fill="#111111" opacity=".18"/><circle cx="304" cy="928" r="7" fill="#111111" opacity=".18"/><circle cx="408" cy="96" r="4" fill="#111111" opacity=".18"/><circle cx="408" cy="200" r="4" fill="#111111" opacity=".18"/><circle cx="408" cy="304" r="4" fill="#111111" opacity=".18"/><circle cx="408" cy="408" r="4" fill="#111111" opacity=".18"/><circle cx="408" cy="512" r="4" fill="#111111" opacity=".18"/><circle cx="408" cy="616" r="4" fill="#111111" opacity=".18"/><circle cx="408" cy="720" r="4" fill="#111111" opacity=".18"/><circle cx="408" cy="824" r="4" fill="#111111" opacity=".18"/><circle cx="408" cy="928" r="4" fill="#111111" opacity=".18"/><circle cx="512" cy="96" r="6" fill="#111111" opacity=".18"/><circle cx="512" cy="200" r="6" fill="#111111" opacity=".18"/><circle cx="512" cy="304" r="6" fill="#111111" opacity=".18"/><circle cx="512" cy="408" r="6" fill="#111111" opacity=".18"/><circle cx="512" cy="512" r="6" fill="#111111" opacity=".18"/><circle cx="512" cy="616" r="6" fill="#111111" opacity=".18"/><circle cx="512" cy="720" r="6" fill="#111111" opacity=".18"/><circle cx="512" cy="824" r="6" fill="#111111" opacity=".18"/><circle cx="512" cy="928" r="6" fill="#111111" opacity=".18"/><circle cx="616" cy="96" r="3" fill="#111111" opacity=".18"/><circle cx="616" cy="200" r="3" fill="#111111" opacity=".18"/><circle cx="616" cy="304" r="3" fill="#111111" opacity=".18"/><circle cx="616" cy="408" r="3" fill="#111111" opacity=".18"/><circle cx="616" cy="512" r="3" fill="#111111" opacity=".18"/><circle cx="616" cy="616" r="3" fill="#111111" opacity=".18"/><circle cx="616" cy="720" r="3" fill="#111111" opacity=".18"/><circle cx="616" cy="824" r="3" fill="#111111" opacity=".18"/><circle cx="616" cy="928" r="3" fill="#111111" opacity=".18"/><circle cx="720" cy="96" r="5" fill="#111111" opacity=".18"/><circle cx="720" cy="200" r="5" fill="#111111" opacity=".18"/><circle cx="720" cy="304" r="5" fill="#111111" opacity=".18"/><circle cx="720" cy="408" r="5" fill="#111111" opacity=".18"/><circle cx="720" cy="512" r="5" fill="#111111" opacity=".18"/><circle cx="720" cy="616" r="5" fill="#111111" opacity=".18"/><circle cx="720" cy="720" r="5" fill="#111111" opacity=".18"/><circle cx="720" cy="824" r="5" fill="#111111" opacity=".18"/><circle cx="720" cy="928" r="5" fill="#111111" opacity=".18"/><circle cx="824" cy="96" r="7" fill="#111111" opacity=".18"/><circle cx="824" cy="200" r="7" fill="#111111" opacity=".18"/><circle cx="824" cy="304" r="7" fill="#111111" opacity=".18"/><circle cx="824" cy="408" r="7" fill="#111111" opacity=".18"/><circle cx="824" cy="512" r="7" fill="#111111" opacity=".18"/><circle cx="824" cy="616" r="7" fill="#111111" opacity=".18"/><circle cx="824" cy="720" r="7" fill="#111111" opacity=".18"/><circle cx="824" cy="824" r="7" fill="#111111" opacity=".18"/><circle cx="824" cy="928" r="7" fill="#111111" opacity=".18"/><circle cx="928" cy="96" r="4" fill="#111111" opacity=".18"/><circle cx="928" cy="200" r="4" fill="#111111" opacity=".18"/><circle cx="928" cy="304" r="4" fill="#111111" opacity=".18"/><circle cx="928" cy="408" r="4" fill="#111111" opacity=".18"/><circle cx="928" cy="512" r="4" fill="#111111" opacity=".18"/><circle cx="928" cy="616" r="4" fill="#111111" opacity=".18"/><circle cx="928" cy="720" r="4" fill="#111111" opacity=".18"/><circle cx="928" cy="824" r="4" fill="#111111" opacity=".18"/><circle cx="928" cy="928" r="4" fill="#111111" opacity=".18"/></g></svg>
