<svg xmlns="http://www.w3.org/2000/svg" viewBox="0 0 1024 1024" width="1024" height="1024" role="img" aria-label="Tiki Dashboard"><defs><clipPath id="sq"><path d="M 350.06 0 L 673.94 0 C 774.74 0 825.13 0 879.39 17.15 L 879.39 17.15 C 938.62 38.71 985.29 85.38 1006.85 144.61 C 1024 198.87 1024 249.26 1024 350.06 L 1024 673.94 C 1024 774.74 1024 825.13 1006.85 879.39 L 1006.85 879.39 C 985.29 938.62 938.62 985.29 879.39 1006.85 C 825.13 1024 774.74 1024 673.94 1024 L 350.06 1024 C 249.26 1024 198.87 1024 144.61 1006.85 L 144.61 1006.85 C 85.38 985.29 38.71 938.62 17.15 879.39 C 0 825.13 0 774.74 0 673.94 L 0 350.06 C 0 249.26 0 198.87 17.15 144.61 L 17.15 144.61 C 38.71 85.38 85.38 38.71 144.61 17.15 C 198.87 0 249.26 0 350.06 0 Z"/></clipPath><filter id="shtikidashboard" x="-20%" y="-20%" width="140%" height="140%"><feDropShadow dx="0" dy="10" stdDeviation="8" flood-color="#000" flood-opacity=".22"/></filter></defs><g clip-path="url(#sq)"><g filter="url(#shtikidashboard)"><g fill="none" stroke="#5a3218" stroke-width="28" stroke-linecap="round" stroke-linejoin="round"><rect x="182" y="182" width="312" height="312" rx="60" fill="none"/><rect x="530" y="182" width="312" height="312" rx="60" fill="none"/><rect x="182" y="530" width="312" height="312" rx="60" fill="none"/><rect x="530" y="530" width="312" height="312" rx="60" fill="none"/></g><rect x="182" y="182" width="312" height="312" rx="60" fill="#a96a32"/><rect x="530" y="182" width="312" height="312" rx="60" fill="#1d8f8b"/><rect x="182" y="530" width="312" height="312" rx="60" fill="#1d8f8b"/><rect x="530" y="530" width="312" height="312" rx="60" fill="#a96a32"/></g><path d="M300 232 C262 360 328 580 288 802" stroke="#f6dfb4" stroke-width="8" opacity=".22" fill="none"/><path d="M460 232 C422 360 488 580 448 802" stroke="#f6dfb4" stroke-width="8" opacity=".22" fill="none"/><path d="M620 232 C582 360 648 580 608 802" stroke="#f6dfb4" stroke-width="8" opacity=".22" fill="none"/></g></svg>
