<svg xmlns="http://www.w3.org/2000/svg" viewBox="0 0 1024 1024" width="1024" height="1024" role="img" aria-label="Tiki Tools"><defs><clipPath id="sq"><path d="M 350.06 0 L 673.94 0 C 774.74 0 825.13 0 879.39 17.15 L 879.39 17.15 C 938.62 38.71 985.29 85.38 1006.85 144.61 C 1024 198.87 1024 249.26 1024 350.06 L 1024 673.94 C 1024 774.74 1024 825.13 1006.85 879.39 L 1006.85 879.39 C 985.29 938.62 938.62 985.29 879.39 1006.85 C 825.13 1024 774.74 1024 673.94 1024 L 350.06 1024 C 249.26 1024 198.87 1024 144.61 1006.85 L 144.61 1006.85 C 85.38 985.29 38.71 938.62 17.15 879.39 C 0 825.13 0 774.74 0 673.94 L 0 350.06 C 0 249.26 0 198.87 17.15 144.61 L 17.15 144.61 C 38.71 85.38 85.38 38.71 144.61 17.15 C 198.87 0 249.26 0 350.06 0 Z"/></clipPath><linearGradient id="bgtikitools" x1="0" y1="0" x2="0" y2="1"><stop offset="0" stop-color="#8a5426"/><stop offset="1" stop-color="#311808"/></linearGradient></defs><g clip-path="url(#sq)"><rect width="1024" height="1024" fill="url(#bgtikitools)"/><path d="M120 0 C40 260 200 520 120 1024" stroke="#f6dfb4" stroke-width="8" opacity=".10" fill="none"/><path d="M260 0 C180 260 340 520 260 1024" stroke="#f6dfb4" stroke-width="8" opacity=".10" fill="none"/><path d="M400 0 C320 260 480 520 400 1024" stroke="#f6dfb4" stroke-width="8" opacity=".10" fill="none"/><path d="M540 0 C460 260 620 520 540 1024" stroke="#f6dfb4" stroke-width="8" opacity=".10" fill="none"/><path d="M680 0 C600 260 760 520 680 1024" stroke="#f6dfb4" stroke-width="8" opacity=".10" fill="none"/><path d="M820 0 C740 260 900 520 820 1024" stroke="#f6dfb4" stroke-width="8" opacity=".10" fill="none"/><path d="M960 0 C880 260 1040 520 960 1024" stroke="#f6dfb4" stroke-width="8" opacity=".10" fill="none"/><rect x="96" y="96" width="832" height="832" rx="112" fill="none" stroke="#f6dfb4" stroke-width="26" opacity=".32"/><g><g fill="none" stroke="#f6dfb4" stroke-width="38" stroke-linecap="round" stroke-linejoin="round" stroke-dasharray="70 22"><path d="M 322 882 L 562 382 L 682 502 L 442 1002 Q 322 1062 222 942 Q 162 802 322 882 Z" fill="none"/><path d="M 562 382 L 682 262 L 782 262 L 882 362 L 762 482 L 682 502 Z" fill="none"/><circle cx="752" cy="372" r="36" fill="none"/></g><circle cx="820" cy="210" r="34" fill="#c47a3c"/></g></g></svg>
