<svg xmlns="http://www.w3.org/2000/svg" viewBox="0 0 64 64" width="64" height="64" role="img" aria-label="Brutalist Stencil Settings">
<title>Brutalist Stencil Settings</title>
<defs>
  <linearGradient id="bg-brutalist-stencil-settings" x1="10" y1="8" x2="58" y2="60" gradientUnits="userSpaceOnUse"><stop offset="0" stop-color="#e7dfcf"/><stop offset="0.46" stop-color="#5e5a55"/><stop offset="1" stop-color="#171717"/></linearGradient>
  <radialGradient id="glow-brutalist-stencil-settings" cx="22" cy="16" r="44" gradientUnits="userSpaceOnUse"><stop offset="0" stop-color="#fff3df" stop-opacity="0.85"/><stop offset="0.52" stop-color="#ff5f4f" stop-opacity="0.35"/><stop offset="1" stop-color="#171717" stop-opacity="0"/></radialGradient>
  <linearGradient id="glyph-brutalist-stencil-settings" x1="14" y1="14" x2="50" y2="54" gradientUnits="userSpaceOnUse"><stop offset="0" stop-color="#fff3df"/><stop offset="0.48" stop-color="#ff5f4f"/><stop offset="1" stop-color="#f7c948"/></linearGradient>
  <filter id="shadow-brutalist-stencil-settings" x="-20%" y="-20%" width="140%" height="150%"><feDropShadow dx="0" dy="3" stdDeviation="3" flood-color="#000" flood-opacity="0.45"/></filter>
</defs>
<rect x="4" y="4" width="56" height="56" rx="16" fill="url(#bg-brutalist-stencil-settings)"/>
<circle cx="20" cy="16" r="30" fill="url(#glow-brutalist-stencil-settings)"/>
<path d="M10 50 C20 58 42 58 54 42 L54 56 L10 56 Z" fill="#000" opacity="0.18"/>
<path d="M12 10 H42 C50 10 54 15 54 23" fill="none" stroke="#fff" stroke-opacity="0.30" stroke-width="1.4" stroke-linecap="round"/>
<circle cx="51" cy="13" r="3" fill="#f7c948" opacity="0.95"/>
<circle cx="13" cy="51" r="2.4" fill="#ff5f4f" opacity="0.85"/>
<g filter="url(#shadow-brutalist-stencil-settings)"><rect x="30" y="10" width="4" height="9" rx="2" fill="#fff3df" transform="rotate(0 32.0 14.5)"/><rect x="30" y="45" width="4" height="9" rx="2" fill="#f7c948" transform="rotate(0 32.0 49.5)"/><rect x="10" y="30" width="9" height="4" rx="2" fill="#fff3df" transform="rotate(0 14.5 32.0)"/><rect x="45" y="30" width="9" height="4" rx="2" fill="#f7c948" transform="rotate(0 49.5 32.0)"/><rect x="17" y="16" width="7" height="4" rx="2" fill="#fff3df" transform="rotate(-45 20.5 18.0)"/><rect x="40" y="44" width="7" height="4" rx="2" fill="#f7c948" transform="rotate(-45 43.5 46.0)"/><rect x="40" y="16" width="7" height="4" rx="2" fill="#fff3df" transform="rotate(45 43.5 18.0)"/><rect x="17" y="44" width="7" height="4" rx="2" fill="#f7c948" transform="rotate(45 20.5 46.0)"/><circle cx="32" cy="32" r="17" fill="url(#glyph-brutalist-stencil-settings)"/><circle cx="32" cy="32" r="7" fill="#09101a" opacity=".7"/><circle cx="29" cy="29" r="2" fill="#fff3df"/></g>
</svg>
