<svg xmlns="http://www.w3.org/2000/svg" viewBox="0 0 64 64">
  <rect x="0" y="0" width="64" height="64" fill="#ffd8a3" />
  <g transform="translate(1.2, 1.8)" opacity="0.85"><rect x="12" y="14" width="40" height="10" rx="6" fill="#c25a18" stroke="#c25a18" stroke-width="8" stroke-linecap="round" stroke-linejoin="round" opacity="0.75" />
  <rect x="28.0" y="24" width="8" height="8" rx="6" fill="#c25a18" stroke="#c25a18" stroke-width="8" stroke-linecap="round" stroke-linejoin="round" opacity="0.75" />
  <polygon points="22.0 32 42.0 32 38.0 52 26.0 52" fill="#c25a18" stroke="#c25a18" stroke-width="8" stroke-linecap="round" stroke-linejoin="round" opacity="0.75" /></g>
  <rect x="12" y="14" width="40" height="10" rx="6" fill="#ffb04a" stroke="#ffb04a" stroke-width="7" stroke-linecap="round" stroke-linejoin="round" />
  <rect x="28.0" y="24" width="8" height="8" rx="6" fill="#ffb04a" stroke="#ffb04a" stroke-width="7" stroke-linecap="round" stroke-linejoin="round" />
  <polygon points="22.0 32 42.0 32 38.0 52 26.0 52" fill="#ffb04a" stroke="#ffb04a" stroke-width="7" stroke-linecap="round" stroke-linejoin="round" />
  <g transform="translate(-1, -1.3)"><rect x="12" y="14" width="40" height="10" rx="6" fill="none" stroke="#fff3d2" stroke-width="2.4" stroke-linecap="round" stroke-linejoin="round" opacity="0.6" />
  <rect x="28.0" y="24" width="8" height="8" rx="6" fill="none" stroke="#fff3d2" stroke-width="2.4" stroke-linecap="round" stroke-linejoin="round" opacity="0.6" />
  <polygon points="22.0 32 42.0 32 38.0 52 26.0 52" fill="none" stroke="#fff3d2" stroke-width="2.4" stroke-linecap="round" stroke-linejoin="round" opacity="0.6" /></g>
</svg>
