<svg xmlns="http://www.w3.org/2000/svg" viewBox="0 0 1024 1024" width="1024" height="1024" role="img" aria-label="Claymation Comments"><defs><clipPath id="sq"><path d="M 350.06 0 L 673.94 0 C 774.74 0 825.13 0 879.39 17.15 L 879.39 17.15 C 938.62 38.71 985.29 85.38 1006.85 144.61 C 1024 198.87 1024 249.26 1024 350.06 L 1024 673.94 C 1024 774.74 1024 825.13 1006.85 879.39 L 1006.85 879.39 C 985.29 938.62 938.62 985.29 879.39 1006.85 C 825.13 1024 774.74 1024 673.94 1024 L 350.06 1024 C 249.26 1024 198.87 1024 144.61 1006.85 L 144.61 1006.85 C 85.38 985.29 38.71 938.62 17.15 879.39 C 0 825.13 0 774.74 0 673.94 L 0 350.06 C 0 249.26 0 198.87 17.15 144.61 L 17.15 144.61 C 38.71 85.38 85.38 38.71 144.61 17.15 C 198.87 0 249.26 0 350.06 0 Z"/></clipPath><linearGradient id="bgclaymationcomments" x1="0" y1="0" x2="0" y2="1"><stop offset="0" stop-color="#ffd77b"/><stop offset="1" stop-color="#ff8a3a"/></linearGradient><filter id="shclaymationcomments" x="-20%" y="-20%" width="140%" height="140%"><feDropShadow dx="0" dy="22" stdDeviation="18" flood-color="#000" flood-opacity=".26"/></filter><radialGradient id="spclaymationcomments" cx="0.28" cy="0.22" r="0.6"><stop offset="0" stop-color="#ffffff" stop-opacity=".28"/><stop offset="1" stop-color="#ffffff" stop-opacity="0"/></radialGradient></defs><g clip-path="url(#sq)"><rect width="1024" height="1024" fill="url(#bgclaymationcomments)"/><g filter="url(#shclaymationcomments)" transform="rotate(2 512 512)"><path d="M 262 222 L 762 222 Q 842 222 842 302 L 842 652 Q 842 732 762 732 L 322 732 L 262 852 L 362 732 L 262 732 Q 182 732 182 652 L 182 302 Q 182 222 262 222 Z" fill="#fff7e8"/><circle cx="392" cy="472" r="34" fill="#b24a1a"/><circle cx="512" cy="472" r="34" fill="#b24a1a"/><circle cx="632" cy="472" r="34" fill="#b24a1a"/></g><rect width="1024" height="1024" fill="url(#spclaymationcomments)"/><circle cx="96" cy="96" r="3" fill="#ffffff" opacity=".12"/><circle cx="96" cy="256" r="3" fill="#ffffff" opacity=".12"/><circle cx="96" cy="416" r="3" fill="#ffffff" opacity=".12"/><circle cx="96" cy="576" r="3" fill="#ffffff" opacity=".12"/><circle cx="96" cy="736" r="3" fill="#ffffff" opacity=".12"/><circle cx="96" cy="896" r="3" fill="#ffffff" opacity=".12"/><circle cx="256" cy="96" r="5" fill="#ffffff" opacity=".12"/><circle cx="256" cy="256" r="5" fill="#ffffff" opacity=".12"/><circle cx="256" cy="416" r="5" fill="#ffffff" opacity=".12"/><circle cx="256" cy="576" r="5" fill="#ffffff" opacity=".12"/><circle cx="256" cy="736" r="5" fill="#ffffff" opacity=".12"/><circle cx="256" cy="896" r="5" fill="#ffffff" opacity=".12"/><circle cx="416" cy="96" r="7" fill="#ffffff" opacity=".12"/><circle cx="416" cy="256" r="7" fill="#ffffff" opacity=".12"/><circle cx="416" cy="416" r="7" fill="#ffffff" opacity=".12"/><circle cx="416" cy="576" r="7" fill="#ffffff" opacity=".12"/><circle cx="416" cy="736" r="7" fill="#ffffff" opacity=".12"/><circle cx="416" cy="896" r="7" fill="#ffffff" opacity=".12"/><circle cx="576" cy="96" r="4" fill="#ffffff" opacity=".12"/><circle cx="576" cy="256" r="4" fill="#ffffff" opacity=".12"/><circle cx="576" cy="416" r="4" fill="#ffffff" opacity=".12"/><circle cx="576" cy="576" r="4" fill="#ffffff" opacity=".12"/><circle cx="576" cy="736" r="4" fill="#ffffff" opacity=".12"/><circle cx="576" cy="896" r="4" fill="#ffffff" opacity=".12"/><circle cx="736" cy="96" r="6" fill="#ffffff" opacity=".12"/><circle cx="736" cy="256" r="6" fill="#ffffff" opacity=".12"/><circle cx="736" cy="416" r="6" fill="#ffffff" opacity=".12"/><circle cx="736" cy="576" r="6" fill="#ffffff" opacity=".12"/><circle cx="736" cy="736" r="6" fill="#ffffff" opacity=".12"/><circle cx="736" cy="896" r="6" fill="#ffffff" opacity=".12"/><circle cx="896" cy="96" r="3" fill="#ffffff" opacity=".12"/><circle cx="896" cy="256" r="3" fill="#ffffff" opacity=".12"/><circle cx="896" cy="416" r="3" fill="#ffffff" opacity=".12"/><circle cx="896" cy="576" r="3" fill="#ffffff" opacity=".12"/><circle cx="896" cy="736" r="3" fill="#ffffff" opacity=".12"/><circle cx="896" cy="896" r="3" fill="#ffffff" opacity=".12"/></g></svg>
