<svg xmlns="http://www.w3.org/2000/svg" viewBox="0 0 64 64">
  <rect x="0" y="0" width="64" height="64" fill="#ffd8a3" />
  <g transform="translate(1.2, 1.8)" opacity="0.85"><circle cx="24.0" cy="24" r="7" fill="#c25a18" stroke="#c25a18" stroke-width="8" stroke-linecap="round" stroke-linejoin="round" opacity="0.75" />
  <circle cx="40.0" cy="24" r="7" fill="#c25a18" stroke="#c25a18" stroke-width="8" stroke-linecap="round" stroke-linejoin="round" opacity="0.75" />
  <polygon points="14.0 52 18.0 36 30.0 36 34.0 52" fill="#c25a18" stroke="#c25a18" stroke-width="8" stroke-linecap="round" stroke-linejoin="round" opacity="0.75" />
  <polygon points="30.0 52 34.0 36 46.0 36 50.0 52" fill="#c25a18" stroke="#c25a18" stroke-width="8" stroke-linecap="round" stroke-linejoin="round" opacity="0.75" /></g>
  <circle cx="24.0" cy="24" r="7" fill="#ffb04a" stroke="#ffb04a" stroke-width="7" stroke-linecap="round" stroke-linejoin="round" />
  <circle cx="40.0" cy="24" r="7" fill="#ffb04a" stroke="#ffb04a" stroke-width="7" stroke-linecap="round" stroke-linejoin="round" />
  <polygon points="14.0 52 18.0 36 30.0 36 34.0 52" fill="#ffb04a" stroke="#ffb04a" stroke-width="7" stroke-linecap="round" stroke-linejoin="round" />
  <polygon points="30.0 52 34.0 36 46.0 36 50.0 52" fill="#ffb04a" stroke="#ffb04a" stroke-width="7" stroke-linecap="round" stroke-linejoin="round" />
  <g transform="translate(-1, -1.3)"><circle cx="24.0" cy="24" r="7" fill="none" stroke="#fff3d2" stroke-width="2.4" stroke-linecap="round" stroke-linejoin="round" opacity="0.6" />
  <circle cx="40.0" cy="24" r="7" fill="none" stroke="#fff3d2" stroke-width="2.4" stroke-linecap="round" stroke-linejoin="round" opacity="0.6" />
  <polygon points="14.0 52 18.0 36 30.0 36 34.0 52" fill="none" stroke="#fff3d2" stroke-width="2.4" stroke-linecap="round" stroke-linejoin="round" opacity="0.6" />
  <polygon points="30.0 52 34.0 36 46.0 36 50.0 52" fill="none" stroke="#fff3d2" stroke-width="2.4" stroke-linecap="round" stroke-linejoin="round" opacity="0.6" /></g>
</svg>
