<svg xmlns="http://www.w3.org/2000/svg" viewBox="0 0 24 24" width="24" height="24" role="img" aria-label="Posts">
  <title>Posts - Code Rain</title>
  <g fill="none" stroke="#00ff41" stroke-width="1.5" stroke-linecap="round" stroke-linejoin="round">
    <path d="M5 5h11a3 3 0 0 1 3 3v9a2 2 0 0 1-2 2H7a2 2 0 0 1-2-2V5z"/>
    <path d="M19 8a3 3 0 0 0 3-3" />
    <path d="M8 9h8"/>
    <path d="M8 13h8"/>
    <path d="M8 17h5"/>
  </g>
  <g fill="#00ff41">
    <circle cx="8.5" cy="9"  r=".7"/>
    <circle cx="12"  cy="9"  r=".7"/>
    <circle cx="15.5" cy="9" r=".7"/>
    <circle cx="8.5" cy="13" r=".7" opacity=".7"/>
    <circle cx="12"  cy="13" r=".7" opacity=".7"/>
    <circle cx="8.5" cy="17" r=".7" opacity=".5"/>
  </g>
</svg>
