<svg xmlns="http://www.w3.org/2000/svg" viewBox="0 0 1024 1024" width="1024" height="1024" role="img" aria-label="Circuit Bend Appearance"><defs><clipPath id="sq"><path d="M 350.06 0 L 673.94 0 C 774.74 0 825.13 0 879.39 17.15 L 879.39 17.15 C 938.62 38.71 985.29 85.38 1006.85 144.61 C 1024 198.87 1024 249.26 1024 350.06 L 1024 673.94 C 1024 774.74 1024 825.13 1006.85 879.39 L 1006.85 879.39 C 985.29 938.62 938.62 985.29 879.39 1006.85 C 825.13 1024 774.74 1024 673.94 1024 L 350.06 1024 C 249.26 1024 198.87 1024 144.61 1006.85 L 144.61 1006.85 C 85.38 985.29 38.71 938.62 17.15 879.39 C 0 825.13 0 774.74 0 673.94 L 0 350.06 C 0 249.26 0 198.87 17.15 144.61 L 17.15 144.61 C 38.71 85.38 85.38 38.71 144.61 17.15 C 198.87 0 249.26 0 350.06 0 Z"/></clipPath><linearGradient id="bgcircuitbendappearance" x1="0" y1="0" x2="0" y2="1"><stop offset="0" stop-color="#0d4329"/><stop offset="1" stop-color="#03150d"/></linearGradient><filter id="glcircuitbendappearance" x="-30%" y="-30%" width="160%" height="160%"><feDropShadow dx="0" dy="0" stdDeviation="18" flood-color="#2fb37a" flood-opacity=".48"/></filter></defs><g clip-path="url(#sq)"><rect width="1024" height="1024" fill="url(#bgcircuitbendappearance)"/><path d="M 0 0 V 1024 M 0 0 H 1024" stroke="#2fb37a" stroke-width="4" opacity=".12"/><path d="M 128 0 V 1024 M 0 128 H 1024" stroke="#2fb37a" stroke-width="4" opacity=".12"/><path d="M 256 0 V 1024 M 0 256 H 1024" stroke="#2fb37a" stroke-width="4" opacity=".12"/><path d="M 384 0 V 1024 M 0 384 H 1024" stroke="#2fb37a" stroke-width="4" opacity=".12"/><path d="M 512 0 V 1024 M 0 512 H 1024" stroke="#2fb37a" stroke-width="4" opacity=".12"/><path d="M 640 0 V 1024 M 0 640 H 1024" stroke="#2fb37a" stroke-width="4" opacity=".12"/><path d="M 768 0 V 1024 M 0 768 H 1024" stroke="#2fb37a" stroke-width="4" opacity=".12"/><path d="M 896 0 V 1024 M 0 896 H 1024" stroke="#2fb37a" stroke-width="4" opacity=".12"/><path d="M 1024 0 V 1024 M 0 1024 H 1024" stroke="#2fb37a" stroke-width="4" opacity=".12"/><g filter="url(#glcircuitbendappearance)"><g fill="none" stroke="#f4c24c" stroke-width="28" stroke-linecap="round" stroke-linejoin="round"><path d="M 262 862 L 562 402 L 692 532 L 392 992 Z" fill="none"/><path d="M 562 402 L 672 292 L 802 422 L 692 532 Z" fill="none"/><path d="M 672 292 L 822 142 L 942 262 L 802 422 Z" fill="none"/><circle cx="332" cy="302" r="26" fill="none"/><circle cx="412" cy="242" r="18" fill="none"/></g><circle cx="820" cy="210" r="34" fill="#e04a3b"/></g><circle cx="210" cy="210" r="14" fill="#e04a3b"/><circle cx="814" cy="246" r="14" fill="#e04a3b"/><circle cx="240" cy="808" r="14" fill="#e04a3b"/><circle cx="790" cy="780" r="14" fill="#e04a3b"/></g></svg>
