<svg xmlns="http://www.w3.org/2000/svg" viewBox="0 0 64 64">
  <rect x="0" y="0" width="64" height="64" rx="6" fill="#0d5a2e" /><rect x="2" y="2" width="60" height="60" rx="5" fill="none" stroke="#154d24" stroke-width="1" />
  <rect x="12" y="14" width="40" height="36" rx="1" fill="#e8c055" stroke="#e8c055" stroke-width="1.8" stroke-linecap="round" stroke-linejoin="round" />
  <line x1="18" y1="24" x2="46" y2="24" stroke="#e8c055" stroke-width="1.8" stroke-linecap="round" stroke-linejoin="round" />
  <line x1="18" y1="32" x2="46" y2="32" stroke="#e8c055" stroke-width="1.8" stroke-linecap="round" stroke-linejoin="round" />
  <line x1="18" y1="40" x2="42" y2="40" stroke="#e8c055" stroke-width="1.8" stroke-linecap="round" stroke-linejoin="round" />
  <line x1="18" y1="48" x2="38" y2="48" stroke="#e8c055" stroke-width="1.8" stroke-linecap="round" stroke-linejoin="round" />
  <circle cx="18" cy="24" r="1.5" fill="#f7d76a" /><circle cx="46" cy="24" r="1.5" fill="#f7d76a" /><circle cx="18" cy="32" r="1.5" fill="#f7d76a" /><circle cx="46" cy="32" r="1.5" fill="#f7d76a" /><circle cx="18" cy="40" r="1.5" fill="#f7d76a" /><circle cx="42" cy="40" r="1.5" fill="#f7d76a" /><circle cx="18" cy="48" r="1.5" fill="#f7d76a" /><circle cx="38" cy="48" r="1.5" fill="#f7d76a" />
  <circle cx="55" cy="9" r="3.2" fill="#ff4a4a" /><circle cx="54" cy="8" r="1.2" fill="#ffdede" />
</svg>
