<svg xmlns="http://www.w3.org/2000/svg" viewBox="0 0 64 64">
  <rect x="0" y="0" width="64" height="64" rx="6" fill="#0d5a2e" /><rect x="2" y="2" width="60" height="60" rx="5" fill="none" stroke="#154d24" stroke-width="1" />
  <circle cx="32.0" cy="32.0" r="14" fill="#e8c055" stroke="#e8c055" stroke-width="1.8" stroke-linecap="round" stroke-linejoin="round" />
  <circle cx="32.0" cy="32.0" r="5" fill="#e8c055" stroke="#e8c055" stroke-width="1.8" stroke-linecap="round" stroke-linejoin="round" />
  <rect x="30.0" y="8" width="4" height="6" rx="1" fill="#e8c055" stroke="#e8c055" stroke-width="1.8" stroke-linecap="round" stroke-linejoin="round" />
  <rect x="30.0" y="50" width="4" height="6" rx="1" fill="#e8c055" stroke="#e8c055" stroke-width="1.8" stroke-linecap="round" stroke-linejoin="round" />
  <rect x="8" y="30.0" width="6" height="4" rx="1" fill="#e8c055" stroke="#e8c055" stroke-width="1.8" stroke-linecap="round" stroke-linejoin="round" />
  <rect x="50" y="30.0" width="6" height="4" rx="1" fill="#e8c055" stroke="#e8c055" stroke-width="1.8" stroke-linecap="round" stroke-linejoin="round" />
  <polygon points="44.0 18.0 48.0 20.0 44.0 24.0 40.0 20.0" fill="#e8c055" stroke="#e8c055" stroke-width="1.8" stroke-linecap="round" stroke-linejoin="round" />
  <polygon points="20.0 18.0 24.0 20.0 20.0 24.0 16.0 20.0" fill="#e8c055" stroke="#e8c055" stroke-width="1.8" stroke-linecap="round" stroke-linejoin="round" />
  <polygon points="44.0 46.0 48.0 44.0 44.0 40.0 40.0 44.0" fill="#e8c055" stroke="#e8c055" stroke-width="1.8" stroke-linecap="round" stroke-linejoin="round" />
  <polygon points="20.0 46.0 24.0 44.0 20.0 40.0 16.0 44.0" fill="#e8c055" stroke="#e8c055" stroke-width="1.8" stroke-linecap="round" stroke-linejoin="round" />
  
  <circle cx="55" cy="9" r="3.2" fill="#ff4a4a" /><circle cx="54" cy="8" r="1.2" fill="#ffdede" />
</svg>
