<svg xmlns="http://www.w3.org/2000/svg" viewBox="0 0 1024 1024" width="1024" height="1024" role="img" aria-label="Circuit Bend Users"><defs><clipPath id="sq"><path d="M 350.06 0 L 673.94 0 C 774.74 0 825.13 0 879.39 17.15 L 879.39 17.15 C 938.62 38.71 985.29 85.38 1006.85 144.61 C 1024 198.87 1024 249.26 1024 350.06 L 1024 673.94 C 1024 774.74 1024 825.13 1006.85 879.39 L 1006.85 879.39 C 985.29 938.62 938.62 985.29 879.39 1006.85 C 825.13 1024 774.74 1024 673.94 1024 L 350.06 1024 C 249.26 1024 198.87 1024 144.61 1006.85 L 144.61 1006.85 C 85.38 985.29 38.71 938.62 17.15 879.39 C 0 825.13 0 774.74 0 673.94 L 0 350.06 C 0 249.26 0 198.87 17.15 144.61 L 17.15 144.61 C 38.71 85.38 85.38 38.71 144.61 17.15 C 198.87 0 249.26 0 350.06 0 Z"/></clipPath><linearGradient id="bgcircuitbendusers" x1="0" y1="0" x2="0" y2="1"><stop offset="0" stop-color="#0d4329"/><stop offset="1" stop-color="#03150d"/></linearGradient><filter id="glcircuitbendusers" x="-30%" y="-30%" width="160%" height="160%"><feDropShadow dx="0" dy="0" stdDeviation="18" flood-color="#2fb37a" flood-opacity=".48"/></filter></defs><g clip-path="url(#sq)"><rect width="1024" height="1024" fill="url(#bgcircuitbendusers)"/><path d="M 0 0 V 1024 M 0 0 H 1024" stroke="#2fb37a" stroke-width="4" opacity=".12"/><path d="M 128 0 V 1024 M 0 128 H 1024" stroke="#2fb37a" stroke-width="4" opacity=".12"/><path d="M 256 0 V 1024 M 0 256 H 1024" stroke="#2fb37a" stroke-width="4" opacity=".12"/><path d="M 384 0 V 1024 M 0 384 H 1024" stroke="#2fb37a" stroke-width="4" opacity=".12"/><path d="M 512 0 V 1024 M 0 512 H 1024" stroke="#2fb37a" stroke-width="4" opacity=".12"/><path d="M 640 0 V 1024 M 0 640 H 1024" stroke="#2fb37a" stroke-width="4" opacity=".12"/><path d="M 768 0 V 1024 M 0 768 H 1024" stroke="#2fb37a" stroke-width="4" opacity=".12"/><path d="M 896 0 V 1024 M 0 896 H 1024" stroke="#2fb37a" stroke-width="4" opacity=".12"/><path d="M 1024 0 V 1024 M 0 1024 H 1024" stroke="#2fb37a" stroke-width="4" opacity=".12"/><g filter="url(#glcircuitbendusers)"><g fill="none" stroke="#f4c24c" stroke-width="28" stroke-linecap="round" stroke-linejoin="round"><circle cx="624" cy="372" r="82" fill="none"/><path d="M 544 904 Q 544 472 624 472 Q 774 472 774 904 Z" fill="none"/><circle cx="440" cy="382" r="92" fill="none"/><path d="M 260 936 Q 260 484 440 484 Q 620 484 620 936 Z" fill="none"/></g><circle cx="820" cy="210" r="34" fill="#e04a3b"/></g><circle cx="210" cy="210" r="14" fill="#e04a3b"/><circle cx="814" cy="246" r="14" fill="#e04a3b"/><circle cx="240" cy="808" r="14" fill="#e04a3b"/><circle cx="790" cy="780" r="14" fill="#e04a3b"/><circle cx="210" cy="210" r="22" fill="#ff3b2e" opacity=".72"/><circle cx="210" cy="210" r="11" fill="#fff7ea" opacity=".85"/><path d="M 140 560 L 300 560 L 340 520 L 460 520 L 500 560 L 640 560" stroke="#2fb37a" stroke-width="6" fill="none" opacity=".45" stroke-linecap="round"/><circle cx="150" cy="250" r="14" fill="#f4c24c" opacity=".55"/></g></svg>
