<svg xmlns="http://www.w3.org/2000/svg" viewBox="0 0 1024 1024" width="1024" height="1024" role="img" aria-label="Blueprint Media"><defs><clipPath id="sq"><path d="M 350.06 0 L 673.94 0 C 774.74 0 825.13 0 879.39 17.15 L 879.39 17.15 C 938.62 38.71 985.29 85.38 1006.85 144.61 C 1024 198.87 1024 249.26 1024 350.06 L 1024 673.94 C 1024 774.74 1024 825.13 1006.85 879.39 L 1006.85 879.39 C 985.29 938.62 938.62 985.29 879.39 1006.85 C 825.13 1024 774.74 1024 673.94 1024 L 350.06 1024 C 249.26 1024 198.87 1024 144.61 1006.85 L 144.61 1006.85 C 85.38 985.29 38.71 938.62 17.15 879.39 C 0 825.13 0 774.74 0 673.94 L 0 350.06 C 0 249.26 0 198.87 17.15 144.61 L 17.15 144.61 C 38.71 85.38 85.38 38.71 144.61 17.15 C 198.87 0 249.26 0 350.06 0 Z"/></clipPath></defs><g clip-path="url(#sq)"><g fill="none" stroke="#0099e6" stroke-width="24" stroke-linecap="round" stroke-linejoin="round" stroke-dasharray="14 18"><rect x="182" y="242" width="660" height="540" rx="68" fill="none"/><rect x="220" y="280" width="584" height="464" rx="44" fill="none" opacity=".30"/><circle cx="664" cy="392" r="54" fill="none"/><path d="M 248 716 L 440 484 L 542 564 L 564 444 L 776 716 Z" fill="none"/></g><circle cx="820" cy="210" r="34" fill="#c99721"/><path d="M164 860 H860 M164 164 V860" stroke="#0099e6" stroke-width="5" opacity=".32" stroke-dasharray="18 18"/></g></svg>
