<svg xmlns="http://www.w3.org/2000/svg" viewBox="0 0 64 64">
  <rect x="0" y="0" width="64" height="64" fill="#c07840" />
  <path d="M 0 0 C 20 1.4 40 -1.4 64 0" fill="none" stroke="#8e5224" stroke-width="0.5" opacity="0.55" /><path d="M 0 3 C 20 4.4 40 1.6 64 3" fill="none" stroke="#8e5224" stroke-width="0.5" opacity="0.55" /><path d="M 0 6 C 20 7.4 40 4.6 64 6" fill="none" stroke="#8e5224" stroke-width="0.5" opacity="0.55" /><path d="M 0 9 C 20 10.4 40 7.6 64 9" fill="none" stroke="#8e5224" stroke-width="0.5" opacity="0.55" /><path d="M 0 12 C 20 13.4 40 10.6 64 12" fill="none" stroke="#8e5224" stroke-width="0.5" opacity="0.55" /><path d="M 0 15 C 20 16.4 40 13.6 64 15" fill="none" stroke="#8e5224" stroke-width="0.5" opacity="0.55" /><path d="M 0 18 C 20 19.4 40 16.6 64 18" fill="none" stroke="#8e5224" stroke-width="0.5" opacity="0.55" /><path d="M 0 21 C 20 22.4 40 19.6 64 21" fill="none" stroke="#8e5224" stroke-width="0.5" opacity="0.55" /><path d="M 0 24 C 20 25.4 40 22.6 64 24" fill="none" stroke="#8e5224" stroke-width="0.5" opacity="0.55" /><path d="M 0 27 C 20 28.4 40 25.6 64 27" fill="none" stroke="#8e5224" stroke-width="0.5" opacity="0.55" /><path d="M 0 30 C 20 31.4 40 28.6 64 30" fill="none" stroke="#8e5224" stroke-width="0.5" opacity="0.55" /><path d="M 0 33 C 20 34.4 40 31.6 64 33" fill="none" stroke="#8e5224" stroke-width="0.5" opacity="0.55" /><path d="M 0 36 C 20 37.4 40 34.6 64 36" fill="none" stroke="#8e5224" stroke-width="0.5" opacity="0.55" /><path d="M 0 39 C 20 40.4 40 37.6 64 39" fill="none" stroke="#8e5224" stroke-width="0.5" opacity="0.55" /><path d="M 0 42 C 20 43.4 40 40.6 64 42" fill="none" stroke="#8e5224" stroke-width="0.5" opacity="0.55" /><path d="M 0 45 C 20 46.4 40 43.6 64 45" fill="none" stroke="#8e5224" stroke-width="0.5" opacity="0.55" /><path d="M 0 48 C 20 49.4 40 46.6 64 48" fill="none" stroke="#8e5224" stroke-width="0.5" opacity="0.55" /><path d="M 0 51 C 20 52.4 40 49.6 64 51" fill="none" stroke="#8e5224" stroke-width="0.5" opacity="0.55" /><path d="M 0 54 C 20 55.4 40 52.6 64 54" fill="none" stroke="#8e5224" stroke-width="0.5" opacity="0.55" /><path d="M 0 57 C 20 58.4 40 55.6 64 57" fill="none" stroke="#8e5224" stroke-width="0.5" opacity="0.55" /><path d="M 0 60 C 20 61.4 40 58.6 64 60" fill="none" stroke="#8e5224" stroke-width="0.5" opacity="0.55" /><path d="M 0 63 C 20 64.4 40 61.6 64 63" fill="none" stroke="#8e5224" stroke-width="0.5" opacity="0.55" />
  <rect x="3" y="3" width="58" height="58" rx="5" fill="none" stroke="#3c1c08" stroke-width="1.2" opacity="0.7" /><rect x="5" y="5" width="54" height="54" rx="4" fill="none" stroke="#f4d7a5" stroke-width="0.8" opacity="0.55" stroke-dasharray="2 1.5" />
  <circle cx="32.0" cy="32.0" r="4" fill="#3c1c08" stroke="#3c1c08" stroke-width="3" stroke-linecap="round" stroke-linejoin="round" />
  <circle cx="32.0" cy="32.0" r="12" fill="#3c1c08" stroke="#3c1c08" stroke-width="3" stroke-linecap="round" stroke-linejoin="round" />
  <circle cx="32.0" cy="32.0" r="20" fill="#3c1c08" stroke="#3c1c08" stroke-width="3" stroke-linecap="round" stroke-linejoin="round" />
  <g transform="translate(-0.6, -0.8)"><circle cx="32.0" cy="32.0" r="4" fill="none" stroke="#fce3b9" stroke-width="1" stroke-linecap="round" stroke-linejoin="round" opacity="0.65" />
  <circle cx="32.0" cy="32.0" r="12" fill="none" stroke="#fce3b9" stroke-width="1" stroke-linecap="round" stroke-linejoin="round" opacity="0.65" />
  <circle cx="32.0" cy="32.0" r="20" fill="none" stroke="#fce3b9" stroke-width="1" stroke-linecap="round" stroke-linejoin="round" opacity="0.65" /></g>
</svg>
