<svg xmlns="http://www.w3.org/2000/svg" viewBox="0 0 64 64">
  <rect x="0" y="0" width="64" height="64" rx="8" fill="#c23030" />
  <rect x="3" y="3" width="58" height="58" rx="6" fill="none" stroke="#f2f2ea" stroke-width="1" stroke-dasharray="2 2" />
  <polygon points="0 6 14 8 6 12 0 12" fill="#f2c445" />
  <polygon points="12 32.0 18 22.0 28.0 18.0 34.0 28.0 28.0 32.0 18 36.0" fill="#f2eede" stroke="#f2eede" stroke-width="6" stroke-linecap="round" stroke-linejoin="round" />
  <polygon points="52 32.0 46 42.0 36.0 46.0 30.0 36.0 36.0 32.0 46 28.0" fill="#f2eede" stroke="#f2eede" stroke-width="6" stroke-linecap="round" stroke-linejoin="round" />
  <polygon points="12 32.0 18 22.0 28.0 18.0 34.0 28.0 28.0 32.0 18 36.0" fill="none" stroke="#c89a3a" stroke-width="2" stroke-linecap="round" stroke-linejoin="round" opacity="0.75" />
  <polygon points="52 32.0 46 42.0 36.0 46.0 30.0 36.0 36.0 32.0 46 28.0" fill="none" stroke="#c89a3a" stroke-width="2" stroke-linecap="round" stroke-linejoin="round" opacity="0.75" />
</svg>
