<svg xmlns="http://www.w3.org/2000/svg" viewBox="0 0 64 64">
  <rect x="0" y="0" width="64" height="64" rx="8" fill="#c23030" />
  <rect x="3" y="3" width="58" height="58" rx="6" fill="none" stroke="#f2f2ea" stroke-width="1" stroke-dasharray="2 2" />
  <polygon points="0 6 14 8 6 12 0 12" fill="#f2c445" />
  <polygon points="16 12 42 12 52 22 52 52 16 52" fill="#f2eede" stroke="#f2eede" stroke-width="6" stroke-linecap="round" stroke-linejoin="round" />
  <polygon points="42 12 42 22 52 22" fill="#f2eede" stroke="#f2eede" stroke-width="6" stroke-linecap="round" stroke-linejoin="round" />
  <line x1="22" y1="30" x2="44" y2="30" stroke="#f2eede" stroke-width="6" stroke-linecap="round" stroke-linejoin="round" />
  <line x1="22" y1="38" x2="44" y2="38" stroke="#f2eede" stroke-width="6" stroke-linecap="round" stroke-linejoin="round" />
  <line x1="22" y1="46" x2="38" y2="46" stroke="#f2eede" stroke-width="6" stroke-linecap="round" stroke-linejoin="round" />
  <polygon points="16 12 42 12 52 22 52 52 16 52" fill="none" stroke="#c89a3a" stroke-width="2" stroke-linecap="round" stroke-linejoin="round" opacity="0.75" />
  <polygon points="42 12 42 22 52 22" fill="none" stroke="#c89a3a" stroke-width="2" stroke-linecap="round" stroke-linejoin="round" opacity="0.75" />
  <line x1="22" y1="30" x2="44" y2="30" stroke="#c89a3a" stroke-width="2" stroke-linecap="round" stroke-linejoin="round" opacity="0.75" />
  <line x1="22" y1="38" x2="44" y2="38" stroke="#c89a3a" stroke-width="2" stroke-linecap="round" stroke-linejoin="round" opacity="0.75" />
  <line x1="22" y1="46" x2="38" y2="46" stroke="#c89a3a" stroke-width="2" stroke-linecap="round" stroke-linejoin="round" opacity="0.75" />
</svg>
