<svg xmlns="http://www.w3.org/2000/svg" viewBox="0 0 64 64">
  <rect x="0" y="0" width="64" height="64" rx="8" fill="#c23030" />
  <rect x="3" y="3" width="58" height="58" rx="6" fill="none" stroke="#f2f2ea" stroke-width="1" stroke-dasharray="2 2" />
  <polygon points="0 6 14 8 6 12 0 12" fill="#f2c445" />
  <rect x="12" y="14" width="40" height="36" rx="3" fill="#f2eede" stroke="#f2eede" stroke-width="6" stroke-linecap="round" stroke-linejoin="round" />
  <line x1="18" y1="24" x2="46" y2="24" stroke="#f2eede" stroke-width="6" stroke-linecap="round" stroke-linejoin="round" />
  <line x1="18" y1="32" x2="46" y2="32" stroke="#f2eede" stroke-width="6" stroke-linecap="round" stroke-linejoin="round" />
  <line x1="18" y1="40" x2="42" y2="40" stroke="#f2eede" stroke-width="6" stroke-linecap="round" stroke-linejoin="round" />
  <line x1="18" y1="48" x2="38" y2="48" stroke="#f2eede" stroke-width="6" stroke-linecap="round" stroke-linejoin="round" />
  <rect x="12" y="14" width="40" height="36" rx="3" fill="none" stroke="#c89a3a" stroke-width="2" stroke-linecap="round" stroke-linejoin="round" opacity="0.75" />
  <line x1="18" y1="24" x2="46" y2="24" stroke="#c89a3a" stroke-width="2" stroke-linecap="round" stroke-linejoin="round" opacity="0.75" />
  <line x1="18" y1="32" x2="46" y2="32" stroke="#c89a3a" stroke-width="2" stroke-linecap="round" stroke-linejoin="round" opacity="0.75" />
  <line x1="18" y1="40" x2="42" y2="40" stroke="#c89a3a" stroke-width="2" stroke-linecap="round" stroke-linejoin="round" opacity="0.75" />
  <line x1="18" y1="48" x2="38" y2="48" stroke="#c89a3a" stroke-width="2" stroke-linecap="round" stroke-linejoin="round" opacity="0.75" />
</svg>
