<svg xmlns="http://www.w3.org/2000/svg" viewBox="0 0 1024 1024" width="1024" height="1024" role="img" aria-label="Stadium Posts"><defs><clipPath id="sq"><path d="M 350.06 0 L 673.94 0 C 774.74 0 825.13 0 879.39 17.15 L 879.39 17.15 C 938.62 38.71 985.29 85.38 1006.85 144.61 C 1024 198.87 1024 249.26 1024 350.06 L 1024 673.94 C 1024 774.74 1024 825.13 1006.85 879.39 L 1006.85 879.39 C 985.29 938.62 938.62 985.29 879.39 1006.85 C 825.13 1024 774.74 1024 673.94 1024 L 350.06 1024 C 249.26 1024 198.87 1024 144.61 1006.85 L 144.61 1006.85 C 85.38 985.29 38.71 938.62 17.15 879.39 C 0 825.13 0 774.74 0 673.94 L 0 350.06 C 0 249.26 0 198.87 17.15 144.61 L 17.15 144.61 C 38.71 85.38 85.38 38.71 144.61 17.15 C 198.87 0 249.26 0 350.06 0 Z"/></clipPath><linearGradient id="bgstadiumposts" x1="0" y1="0" x2="0" y2="1"><stop offset="0" stop-color="#a62632"/><stop offset="1" stop-color="#610911"/></linearGradient><filter id="shstadiumposts" x="-20%" y="-20%" width="140%" height="140%"><feDropShadow dx="0" dy="12" stdDeviation="10" flood-color="#000" flood-opacity=".25"/></filter></defs><g clip-path="url(#sq)"><rect width="1024" height="1024" fill="url(#bgstadiumposts)"/><path d="M0 768 H1024 V1024 H0 Z" fill="#ffffff" opacity=".08"/><g filter="url(#shstadiumposts)"><path d="M 310 182 L 772 182 L 772 182 L 772 784 Q 772 842 714 842 L 310 842 Q 252 842 252 784 L 252 240 Q 252 182 310 182 Z" fill="#ffd86a"/><rect x="332" y="302" width="360" height="42" rx="21" fill="#ffffff"/><rect x="332" y="402" width="310" height="42" rx="21" fill="#ffffff"/><rect x="332" y="502" width="360" height="42" rx="21" fill="#ffffff"/><rect x="332" y="602" width="250" height="42" rx="21" fill="#ffffff"/><rect x="332" y="702" width="330" height="42" rx="21" fill="#ffffff"/></g><rect x="116" y="116" width="792" height="792" rx="116" fill="none" stroke="#ffffff" stroke-width="18" opacity=".56" stroke-dasharray="22 22"/></g></svg>
