<svg xmlns="http://www.w3.org/2000/svg" viewBox="0 0 1024 1024" width="1024" height="1024" role="img" aria-label="Stadium Profile"><defs><clipPath id="sq"><path d="M 350.06 0 L 673.94 0 C 774.74 0 825.13 0 879.39 17.15 L 879.39 17.15 C 938.62 38.71 985.29 85.38 1006.85 144.61 C 1024 198.87 1024 249.26 1024 350.06 L 1024 673.94 C 1024 774.74 1024 825.13 1006.85 879.39 L 1006.85 879.39 C 985.29 938.62 938.62 985.29 879.39 1006.85 C 825.13 1024 774.74 1024 673.94 1024 L 350.06 1024 C 249.26 1024 198.87 1024 144.61 1006.85 L 144.61 1006.85 C 85.38 985.29 38.71 938.62 17.15 879.39 C 0 825.13 0 774.74 0 673.94 L 0 350.06 C 0 249.26 0 198.87 17.15 144.61 L 17.15 144.61 C 38.71 85.38 85.38 38.71 144.61 17.15 C 198.87 0 249.26 0 350.06 0 Z"/></clipPath><filter id="shstadiumprofile" x="-20%" y="-20%" width="140%" height="140%"><feDropShadow dx="0" dy="12" stdDeviation="10" flood-color="#000" flood-opacity=".25"/></filter></defs><g clip-path="url(#sq)"><g filter="url(#shstadiumprofile)"><g fill="none" stroke="#ffffff" stroke-width="30" stroke-linecap="round" stroke-linejoin="round"><circle cx="512" cy="520" r="282" fill="none"/><circle cx="512" cy="440" r="96" fill="none"/><path d="M 312 802 Q 312 560 512 560 Q 712 560 712 802 Z" fill="none"/></g><circle cx="512" cy="520" r="282" fill="#0b8a35"/><circle cx="512" cy="440" r="96" fill="#ff7a00"/><path d="M 312 802 Q 312 560 512 560 Q 712 560 712 802 Z" fill="#ff7a00"/></g><path d="M260 804 H764" stroke="#ffffff" stroke-width="20" opacity=".72" stroke-dasharray="34 22"/></g></svg>
