<svg xmlns="http://www.w3.org/2000/svg" viewBox="0 0 64 64">
  <rect x="0" y="0" width="64" height="64" rx="8" fill="#c23030" />
  <rect x="3" y="3" width="58" height="58" rx="6" fill="none" stroke="#f2f2ea" stroke-width="1" stroke-dasharray="2 2" />
  <polygon points="0 6 14 8 6 12 0 12" fill="#f2c445" />
  <circle cx="32.0" cy="32.0" r="14" fill="#f2eede" stroke="#f2eede" stroke-width="6" stroke-linecap="round" stroke-linejoin="round" />
  <circle cx="32.0" cy="32.0" r="5" fill="#f2eede" stroke="#f2eede" stroke-width="6" stroke-linecap="round" stroke-linejoin="round" />
  <rect x="30.0" y="8" width="4" height="6" rx="3" fill="#f2eede" stroke="#f2eede" stroke-width="6" stroke-linecap="round" stroke-linejoin="round" />
  <rect x="30.0" y="50" width="4" height="6" rx="3" fill="#f2eede" stroke="#f2eede" stroke-width="6" stroke-linecap="round" stroke-linejoin="round" />
  <rect x="8" y="30.0" width="6" height="4" rx="3" fill="#f2eede" stroke="#f2eede" stroke-width="6" stroke-linecap="round" stroke-linejoin="round" />
  <rect x="50" y="30.0" width="6" height="4" rx="3" fill="#f2eede" stroke="#f2eede" stroke-width="6" stroke-linecap="round" stroke-linejoin="round" />
  <polygon points="44.0 18.0 48.0 20.0 44.0 24.0 40.0 20.0" fill="#f2eede" stroke="#f2eede" stroke-width="6" stroke-linecap="round" stroke-linejoin="round" />
  <polygon points="20.0 18.0 24.0 20.0 20.0 24.0 16.0 20.0" fill="#f2eede" stroke="#f2eede" stroke-width="6" stroke-linecap="round" stroke-linejoin="round" />
  <polygon points="44.0 46.0 48.0 44.0 44.0 40.0 40.0 44.0" fill="#f2eede" stroke="#f2eede" stroke-width="6" stroke-linecap="round" stroke-linejoin="round" />
  <polygon points="20.0 46.0 24.0 44.0 20.0 40.0 16.0 44.0" fill="#f2eede" stroke="#f2eede" stroke-width="6" stroke-linecap="round" stroke-linejoin="round" />
  <circle cx="32.0" cy="32.0" r="14" fill="none" stroke="#c89a3a" stroke-width="2" stroke-linecap="round" stroke-linejoin="round" opacity="0.75" />
  <circle cx="32.0" cy="32.0" r="5" fill="none" stroke="#c89a3a" stroke-width="2" stroke-linecap="round" stroke-linejoin="round" opacity="0.75" />
  <rect x="30.0" y="8" width="4" height="6" rx="3" fill="none" stroke="#c89a3a" stroke-width="2" stroke-linecap="round" stroke-linejoin="round" opacity="0.75" />
  <rect x="30.0" y="50" width="4" height="6" rx="3" fill="none" stroke="#c89a3a" stroke-width="2" stroke-linecap="round" stroke-linejoin="round" opacity="0.75" />
  <rect x="8" y="30.0" width="6" height="4" rx="3" fill="none" stroke="#c89a3a" stroke-width="2" stroke-linecap="round" stroke-linejoin="round" opacity="0.75" />
  <rect x="50" y="30.0" width="6" height="4" rx="3" fill="none" stroke="#c89a3a" stroke-width="2" stroke-linecap="round" stroke-linejoin="round" opacity="0.75" />
  <polygon points="44.0 18.0 48.0 20.0 44.0 24.0 40.0 20.0" fill="none" stroke="#c89a3a" stroke-width="2" stroke-linecap="round" stroke-linejoin="round" opacity="0.75" />
  <polygon points="20.0 18.0 24.0 20.0 20.0 24.0 16.0 20.0" fill="none" stroke="#c89a3a" stroke-width="2" stroke-linecap="round" stroke-linejoin="round" opacity="0.75" />
  <polygon points="44.0 46.0 48.0 44.0 44.0 40.0 40.0 44.0" fill="none" stroke="#c89a3a" stroke-width="2" stroke-linecap="round" stroke-linejoin="round" opacity="0.75" />
  <polygon points="20.0 46.0 24.0 44.0 20.0 40.0 16.0 44.0" fill="none" stroke="#c89a3a" stroke-width="2" stroke-linecap="round" stroke-linejoin="round" opacity="0.75" />
</svg>
