<svg xmlns="http://www.w3.org/2000/svg" viewBox="0 0 64 64">
  <rect x="0" y="0" width="64" height="64" fill="#2a1b0e" />
  <circle cx="32" cy="32" r="28" fill="#e6a84a" /><circle cx="32" cy="32" r="28" fill="none" stroke="#8a5a1e" stroke-width="2.4" /><circle cx="32" cy="32" r="24" fill="none" stroke="#f6d27a" stroke-width="1" opacity="0.8" />
  <g transform="translate(0.6, 0.8)"><polygon points="12 14 52 14 52 42 38 42 32 52 30 42 12 42" fill="#7a4414" stroke="#7a4414" stroke-width="3" stroke-linecap="round" stroke-linejoin="round" />
  <line x1="20" y1="24" x2="44" y2="24" stroke="#7a4414" stroke-width="3" stroke-linecap="round" stroke-linejoin="round" />
  <line x1="20" y1="32" x2="40" y2="32" stroke="#7a4414" stroke-width="3" stroke-linecap="round" stroke-linejoin="round" /></g>
  <g transform="translate(-0.4, -0.6)"><polygon points="12 14 52 14 52 42 38 42 32 52 30 42 12 42" fill="none" stroke="#fce79a" stroke-width="1.6" stroke-linecap="round" stroke-linejoin="round" opacity="0.9" />
  <line x1="20" y1="24" x2="44" y2="24" stroke="#fce79a" stroke-width="1.6" stroke-linecap="round" stroke-linejoin="round" opacity="0.9" />
  <line x1="20" y1="32" x2="40" y2="32" stroke="#fce79a" stroke-width="1.6" stroke-linecap="round" stroke-linejoin="round" opacity="0.9" /></g>
</svg>
