<svg xmlns="http://www.w3.org/2000/svg" viewBox="0 0 1024 1024" width="1024" height="1024" role="img" aria-label="Oddlings Appearance"><defs><clipPath id="sq"><path d="M 350.06 0 L 673.94 0 C 774.74 0 825.13 0 879.39 17.15 L 879.39 17.15 C 938.62 38.71 985.29 85.38 1006.85 144.61 C 1024 198.87 1024 249.26 1024 350.06 L 1024 673.94 C 1024 774.74 1024 825.13 1006.85 879.39 L 1006.85 879.39 C 985.29 938.62 938.62 985.29 879.39 1006.85 C 825.13 1024 774.74 1024 673.94 1024 L 350.06 1024 C 249.26 1024 198.87 1024 144.61 1006.85 L 144.61 1006.85 C 85.38 985.29 38.71 938.62 17.15 879.39 C 0 825.13 0 774.74 0 673.94 L 0 350.06 C 0 249.26 0 198.87 17.15 144.61 L 17.15 144.61 C 38.71 85.38 85.38 38.71 144.61 17.15 C 198.87 0 249.26 0 350.06 0 Z"/></clipPath><linearGradient id="bgoddlingsappearance" x1="0" y1="0" x2="0" y2="1"><stop offset="0" stop-color="#22123d"/><stop offset="1" stop-color="#080212"/></linearGradient><radialGradient id="spoddlingsappearance" cx=".3" cy=".22" r=".65"><stop offset="0" stop-color="#ffffff" stop-opacity=".22"/><stop offset="1" stop-color="#ffffff" stop-opacity="0"/></radialGradient><radialGradient id="gloddlingsappearance" cx=".5" cy=".5" r=".6"><stop offset="0" stop-color="#ff8bc7" stop-opacity=".9"/><stop offset="1" stop-color="#ff8bc7" stop-opacity="0"/></radialGradient><filter id="shoddlingsappearance" x="-20%" y="-20%" width="140%" height="140%"><feDropShadow dx="0" dy="14" stdDeviation="18" flood-color="#000" flood-opacity=".45"/></filter></defs><g clip-path="url(#sq)"><rect width="1024" height="1024" fill="url(#bgoddlingsappearance)"/><g filter="url(#shoddlingsappearance)" transform="rotate(-25 512 560)"><rect x="470" y="220" width="84" height="460" rx="42" fill="#2d0820"/><rect x="452" y="640" width="120" height="72" rx="16" fill="#b8ff5a"/><path d="M 434 700 Q 394 880 512 920 Q 630 880 590 700 Z" fill="#ff8bc7"/></g><path d="M 640 800 Q 700 840 680 900" stroke="#b8ff5a" stroke-width="18" stroke-linecap="round" fill="none"/><path d="M 420 210 Q 380 170 340 180" stroke="#b8ff5a" stroke-width="14" stroke-linecap="round" fill="none"/><g><circle cx="332" cy="180" r="40" fill="#fff7ea"/><circle cx="332" cy="180" r="23" fill="#2d0820"/><circle cx="332" cy="180" r="11" fill="#140420"/><circle cx="318" cy="166" r="6" fill="#fff"/></g><rect width="1024" height="1024" fill="url(#spoddlingsappearance)"/></g></svg>
