<svg xmlns="http://www.w3.org/2000/svg" viewBox="0 0 1024 1024" width="1024" height="1024" role="img" aria-label="Oddlings Comments"><defs><clipPath id="sq"><path d="M 350.06 0 L 673.94 0 C 774.74 0 825.13 0 879.39 17.15 L 879.39 17.15 C 938.62 38.71 985.29 85.38 1006.85 144.61 C 1024 198.87 1024 249.26 1024 350.06 L 1024 673.94 C 1024 774.74 1024 825.13 1006.85 879.39 L 1006.85 879.39 C 985.29 938.62 938.62 985.29 879.39 1006.85 C 825.13 1024 774.74 1024 673.94 1024 L 350.06 1024 C 249.26 1024 198.87 1024 144.61 1006.85 L 144.61 1006.85 C 85.38 985.29 38.71 938.62 17.15 879.39 C 0 825.13 0 774.74 0 673.94 L 0 350.06 C 0 249.26 0 198.87 17.15 144.61 L 17.15 144.61 C 38.71 85.38 85.38 38.71 144.61 17.15 C 198.87 0 249.26 0 350.06 0 Z"/></clipPath><linearGradient id="bgoddlingscomments" x1="0" y1="0" x2="0" y2="1"><stop offset="0" stop-color="#22123d"/><stop offset="1" stop-color="#080212"/></linearGradient><radialGradient id="spoddlingscomments" cx=".3" cy=".22" r=".65"><stop offset="0" stop-color="#ffffff" stop-opacity=".22"/><stop offset="1" stop-color="#ffffff" stop-opacity="0"/></radialGradient><radialGradient id="gloddlingscomments" cx=".5" cy=".5" r=".6"><stop offset="0" stop-color="#38e8ff" stop-opacity=".9"/><stop offset="1" stop-color="#38e8ff" stop-opacity="0"/></radialGradient><filter id="shoddlingscomments" x="-20%" y="-20%" width="140%" height="140%"><feDropShadow dx="0" dy="14" stdDeviation="18" flood-color="#000" flood-opacity=".45"/></filter></defs><g clip-path="url(#sq)"><rect width="1024" height="1024" fill="url(#bgoddlingscomments)"/><g filter="url(#shoddlingscomments)"><path d="M 192 232 Q 192 168 256 168 L 768 168 Q 832 168 832 232 L 832 616 Q 832 680 768 680 L 480 680 L 360 820 L 400 680 L 256 680 Q 192 680 192 616 Z" fill="#38e8ff"/></g><g fill="#082233"><circle cx="360" cy="420" r="36"/><circle cx="512" cy="420" r="36"/><circle cx="664" cy="420" r="36"/></g><path d="M 360 820 L 400 680 L 430 780 Z" fill="#ff5fa8"/><g><circle cx="300" cy="300" r="36" fill="#fff7ea"/><circle cx="300" cy="300" r="20" fill="#082233"/><circle cx="300" cy="300" r="10" fill="#140420"/><circle cx="288" cy="288" r="5" fill="#fff"/></g><rect width="1024" height="1024" fill="url(#spoddlingscomments)"/></g></svg>
