<svg xmlns="http://www.w3.org/2000/svg" viewBox="0 0 1024 1024" width="1024" height="1024" role="img" aria-label="Oddlings Comments"><defs><clipPath id="sq"><path d="M 350.06 0 L 673.94 0 C 774.74 0 825.13 0 879.39 17.15 L 879.39 17.15 C 938.62 38.71 985.29 85.38 1006.85 144.61 C 1024 198.87 1024 249.26 1024 350.06 L 1024 673.94 C 1024 774.74 1024 825.13 1006.85 879.39 L 1006.85 879.39 C 985.29 938.62 938.62 985.29 879.39 1006.85 C 825.13 1024 774.74 1024 673.94 1024 L 350.06 1024 C 249.26 1024 198.87 1024 144.61 1006.85 L 144.61 1006.85 C 85.38 985.29 38.71 938.62 17.15 879.39 C 0 825.13 0 774.74 0 673.94 L 0 350.06 C 0 249.26 0 198.87 17.15 144.61 L 17.15 144.61 C 38.71 85.38 85.38 38.71 144.61 17.15 C 198.87 0 249.26 0 350.06 0 Z"/></clipPath><filter id="shoddlingscomments" x="-20%" y="-20%" width="140%" height="140%"><feDropShadow dx="0" dy="14" stdDeviation="14" flood-color="#000" flood-opacity=".26"/></filter></defs><g clip-path="url(#sq)"><g filter="url(#shoddlingscomments)"><g fill="none" stroke="#28113f" stroke-width="28" stroke-linecap="round" stroke-linejoin="round"><path d="M 262 222 L 762 222 Q 842 222 842 302 L 842 652 Q 842 732 762 732 L 322 732 L 262 852 L 362 732 L 262 732 Q 182 732 182 652 L 182 302 Q 182 222 262 222 Z" fill="none"/><circle cx="392" cy="472" r="34" fill="none"/><circle cx="512" cy="472" r="34" fill="none"/><circle cx="632" cy="472" r="34" fill="none"/></g><path d="M 262 222 L 762 222 Q 842 222 842 302 L 842 652 Q 842 732 762 732 L 322 732 L 262 852 L 362 732 L 262 732 Q 182 732 182 652 L 182 302 Q 182 222 262 222 Z" fill="#1fb7c9"/><circle cx="392" cy="472" r="34" fill="#7a3aa4"/><circle cx="512" cy="472" r="34" fill="#7a3aa4"/><circle cx="632" cy="472" r="34" fill="#7a3aa4"/></g><circle cx="512" cy="430" r="58" fill="#fff"/><circle cx="512" cy="430" r="22" fill="#171027"/><path d="M430 330 L456 250 M594 330 L568 250" stroke="#ff4fa8" stroke-width="18" stroke-linecap="round"/><path d="M470 560 L512 620 L554 560" fill="#fff"/></g></svg>
