<svg xmlns="http://www.w3.org/2000/svg" viewBox="0 0 1024 1024" width="1024" height="1024" role="img" aria-label="Oddlings Fallback"><defs><clipPath id="sq"><path d="M 350.06 0 L 673.94 0 C 774.74 0 825.13 0 879.39 17.15 L 879.39 17.15 C 938.62 38.71 985.29 85.38 1006.85 144.61 C 1024 198.87 1024 249.26 1024 350.06 L 1024 673.94 C 1024 774.74 1024 825.13 1006.85 879.39 L 1006.85 879.39 C 985.29 938.62 938.62 985.29 879.39 1006.85 C 825.13 1024 774.74 1024 673.94 1024 L 350.06 1024 C 249.26 1024 198.87 1024 144.61 1006.85 L 144.61 1006.85 C 85.38 985.29 38.71 938.62 17.15 879.39 C 0 825.13 0 774.74 0 673.94 L 0 350.06 C 0 249.26 0 198.87 17.15 144.61 L 17.15 144.61 C 38.71 85.38 85.38 38.71 144.61 17.15 C 198.87 0 249.26 0 350.06 0 Z"/></clipPath><linearGradient id="bgoddlingsfallback" x1="0" y1="0" x2="0" y2="1"><stop offset="0" stop-color="#22123d"/><stop offset="1" stop-color="#080212"/></linearGradient><radialGradient id="spoddlingsfallback" cx=".3" cy=".22" r=".65"><stop offset="0" stop-color="#ffffff" stop-opacity=".22"/><stop offset="1" stop-color="#ffffff" stop-opacity="0"/></radialGradient><radialGradient id="gloddlingsfallback" cx=".5" cy=".5" r=".6"><stop offset="0" stop-color="#ff5fa8" stop-opacity=".9"/><stop offset="1" stop-color="#ff5fa8" stop-opacity="0"/></radialGradient><filter id="shoddlingsfallback" x="-20%" y="-20%" width="140%" height="140%"><feDropShadow dx="0" dy="14" stdDeviation="18" flood-color="#000" flood-opacity=".45"/></filter></defs><g clip-path="url(#sq)"><rect width="1024" height="1024" fill="url(#bgoddlingsfallback)"/><g filter="url(#shoddlingsfallback)"><path d="M 248 488 Q 236 284 432 228 Q 624 176 760 304 Q 884 432 812 636 Q 740 840 520 856 Q 272 872 248 648 Z" fill="#ff5fa8"/></g><g fill="#fff7ea"><polygon points="396,780 420,830 444,780"/><polygon points="460,790 484,840 508,790"/><polygon points="524,790 548,840 572,790"/><polygon points="588,780 612,830 636,780"/></g><path d="M 620 230 Q 680 170 740 180" stroke="#38e8ff" stroke-width="16" stroke-linecap="round" fill="none"/><circle cx="740" cy="180" r="18" fill="#38e8ff"/><g><circle cx="468" cy="468" r="96" fill="#fff7ea"/><circle cx="468" cy="468" r="55" fill="#14062c"/><circle cx="468" cy="468" r="26" fill="#140420"/><circle cx="435" cy="435" r="15" fill="#fff"/></g><rect width="1024" height="1024" fill="url(#spoddlingsfallback)"/></g></svg>
