<svg xmlns="http://www.w3.org/2000/svg" viewBox="0 0 1024 1024" width="1024" height="1024" role="img" aria-label="Oddlings Links"><defs><clipPath id="sq"><path d="M 350.06 0 L 673.94 0 C 774.74 0 825.13 0 879.39 17.15 L 879.39 17.15 C 938.62 38.71 985.29 85.38 1006.85 144.61 C 1024 198.87 1024 249.26 1024 350.06 L 1024 673.94 C 1024 774.74 1024 825.13 1006.85 879.39 L 1006.85 879.39 C 985.29 938.62 938.62 985.29 879.39 1006.85 C 825.13 1024 774.74 1024 673.94 1024 L 350.06 1024 C 249.26 1024 198.87 1024 144.61 1006.85 L 144.61 1006.85 C 85.38 985.29 38.71 938.62 17.15 879.39 C 0 825.13 0 774.74 0 673.94 L 0 350.06 C 0 249.26 0 198.87 17.15 144.61 L 17.15 144.61 C 38.71 85.38 85.38 38.71 144.61 17.15 C 198.87 0 249.26 0 350.06 0 Z"/></clipPath><linearGradient id="bgoddlingslinks" x1="0" y1="0" x2="0" y2="1"><stop offset="0" stop-color="#22123d"/><stop offset="1" stop-color="#080212"/></linearGradient><radialGradient id="spoddlingslinks" cx=".3" cy=".22" r=".65"><stop offset="0" stop-color="#ffffff" stop-opacity=".22"/><stop offset="1" stop-color="#ffffff" stop-opacity="0"/></radialGradient><radialGradient id="gloddlingslinks" cx=".5" cy=".5" r=".6"><stop offset="0" stop-color="#8bd5ff" stop-opacity=".9"/><stop offset="1" stop-color="#8bd5ff" stop-opacity="0"/></radialGradient><filter id="shoddlingslinks" x="-20%" y="-20%" width="140%" height="140%"><feDropShadow dx="0" dy="14" stdDeviation="18" flood-color="#000" flood-opacity=".45"/></filter></defs><g clip-path="url(#sq)"><rect width="1024" height="1024" fill="url(#bgoddlingslinks)"/><g filter="url(#shoddlingslinks)" stroke="#8bd5ff" stroke-width="72" fill="none" stroke-linejoin="round"><rect x="172" y="372" width="356" height="280" rx="128"/><rect x="496" y="372" width="356" height="280" rx="128"/></g><g><circle cx="288" cy="512" r="38" fill="#fff7ea"/><circle cx="288" cy="512" r="22" fill="#0a1f33"/><circle cx="288" cy="512" r="10" fill="#140420"/><circle cx="275" cy="499" r="6" fill="#fff"/></g><g><circle cx="736" cy="512" r="38" fill="#fff7ea"/><circle cx="736" cy="512" r="22" fill="#0a1f33"/><circle cx="736" cy="512" r="10" fill="#140420"/><circle cx="723" cy="499" r="6" fill="#fff"/></g><circle cx="512" cy="512" r="60" fill="#ffd84a" opacity=".5"/><rect width="1024" height="1024" fill="url(#spoddlingslinks)"/></g></svg>
