<svg xmlns="http://www.w3.org/2000/svg" viewBox="0 0 1024 1024" width="1024" height="1024" role="img" aria-label="Oddlings Media"><defs><clipPath id="sq"><path d="M 350.06 0 L 673.94 0 C 774.74 0 825.13 0 879.39 17.15 L 879.39 17.15 C 938.62 38.71 985.29 85.38 1006.85 144.61 C 1024 198.87 1024 249.26 1024 350.06 L 1024 673.94 C 1024 774.74 1024 825.13 1006.85 879.39 L 1006.85 879.39 C 985.29 938.62 938.62 985.29 879.39 1006.85 C 825.13 1024 774.74 1024 673.94 1024 L 350.06 1024 C 249.26 1024 198.87 1024 144.61 1006.85 L 144.61 1006.85 C 85.38 985.29 38.71 938.62 17.15 879.39 C 0 825.13 0 774.74 0 673.94 L 0 350.06 C 0 249.26 0 198.87 17.15 144.61 L 17.15 144.61 C 38.71 85.38 85.38 38.71 144.61 17.15 C 198.87 0 249.26 0 350.06 0 Z"/></clipPath><linearGradient id="bgoddlingsmedia" x1="0" y1="0" x2="0" y2="1"><stop offset="0" stop-color="#22123d"/><stop offset="1" stop-color="#080212"/></linearGradient><radialGradient id="spoddlingsmedia" cx=".3" cy=".22" r=".65"><stop offset="0" stop-color="#ffffff" stop-opacity=".22"/><stop offset="1" stop-color="#ffffff" stop-opacity="0"/></radialGradient><radialGradient id="gloddlingsmedia" cx=".5" cy=".5" r=".6"><stop offset="0" stop-color="#ffd84a" stop-opacity=".9"/><stop offset="1" stop-color="#ffd84a" stop-opacity="0"/></radialGradient><filter id="shoddlingsmedia" x="-20%" y="-20%" width="140%" height="140%"><feDropShadow dx="0" dy="14" stdDeviation="18" flood-color="#000" flood-opacity=".45"/></filter></defs><g clip-path="url(#sq)"><rect width="1024" height="1024" fill="url(#bgoddlingsmedia)"/><g filter="url(#shoddlingsmedia)"><rect x="168" y="240" width="688" height="544" rx="52" fill="#ffd84a"/><rect x="240" y="312" width="544" height="400" rx="24" fill="#2c1d00"/></g><g fill="#ff5fa8"><circle cx="360" cy="440" r="60"/><polygon points="260,680 440,480 560,620 680,500 780,680"/></g><g><circle cx="240" cy="272" r="22" fill="#fff7ea"/><circle cx="240" cy="272" r="12" fill="#2c1d00"/><circle cx="240" cy="272" r="6" fill="#140420"/><circle cx="233" cy="265" r="3" fill="#fff"/></g><g><circle cx="376" cy="272" r="22" fill="#fff7ea"/><circle cx="376" cy="272" r="12" fill="#2c1d00"/><circle cx="376" cy="272" r="6" fill="#140420"/><circle cx="369" cy="265" r="3" fill="#fff"/></g><g><circle cx="512" cy="272" r="22" fill="#fff7ea"/><circle cx="512" cy="272" r="12" fill="#2c1d00"/><circle cx="512" cy="272" r="6" fill="#140420"/><circle cx="505" cy="265" r="3" fill="#fff"/></g><g><circle cx="648" cy="272" r="22" fill="#fff7ea"/><circle cx="648" cy="272" r="12" fill="#2c1d00"/><circle cx="648" cy="272" r="6" fill="#140420"/><circle cx="641" cy="265" r="3" fill="#fff"/></g><g><circle cx="784" cy="272" r="22" fill="#fff7ea"/><circle cx="784" cy="272" r="12" fill="#2c1d00"/><circle cx="784" cy="272" r="6" fill="#140420"/><circle cx="777" cy="265" r="3" fill="#fff"/></g><g><circle cx="240" cy="752" r="22" fill="#fff7ea"/><circle cx="240" cy="752" r="12" fill="#2c1d00"/><circle cx="240" cy="752" r="6" fill="#140420"/><circle cx="233" cy="745" r="3" fill="#fff"/></g><g><circle cx="376" cy="752" r="22" fill="#fff7ea"/><circle cx="376" cy="752" r="12" fill="#2c1d00"/><circle cx="376" cy="752" r="6" fill="#140420"/><circle cx="369" cy="745" r="3" fill="#fff"/></g><g><circle cx="512" cy="752" r="22" fill="#fff7ea"/><circle cx="512" cy="752" r="12" fill="#2c1d00"/><circle cx="512" cy="752" r="6" fill="#140420"/><circle cx="505" cy="745" r="3" fill="#fff"/></g><g><circle cx="648" cy="752" r="22" fill="#fff7ea"/><circle cx="648" cy="752" r="12" fill="#2c1d00"/><circle cx="648" cy="752" r="6" fill="#140420"/><circle cx="641" cy="745" r="3" fill="#fff"/></g><g><circle cx="784" cy="752" r="22" fill="#fff7ea"/><circle cx="784" cy="752" r="12" fill="#2c1d00"/><circle cx="784" cy="752" r="6" fill="#140420"/><circle cx="777" cy="745" r="3" fill="#fff"/></g><rect width="1024" height="1024" fill="url(#spoddlingsmedia)"/></g></svg>
