<svg xmlns="http://www.w3.org/2000/svg" viewBox="0 0 1024 1024" width="1024" height="1024" role="img" aria-label="Oddlings Pages"><defs><clipPath id="sq"><path d="M 350.06 0 L 673.94 0 C 774.74 0 825.13 0 879.39 17.15 L 879.39 17.15 C 938.62 38.71 985.29 85.38 1006.85 144.61 C 1024 198.87 1024 249.26 1024 350.06 L 1024 673.94 C 1024 774.74 1024 825.13 1006.85 879.39 L 1006.85 879.39 C 985.29 938.62 938.62 985.29 879.39 1006.85 C 825.13 1024 774.74 1024 673.94 1024 L 350.06 1024 C 249.26 1024 198.87 1024 144.61 1006.85 L 144.61 1006.85 C 85.38 985.29 38.71 938.62 17.15 879.39 C 0 825.13 0 774.74 0 673.94 L 0 350.06 C 0 249.26 0 198.87 17.15 144.61 L 17.15 144.61 C 38.71 85.38 85.38 38.71 144.61 17.15 C 198.87 0 249.26 0 350.06 0 Z"/></clipPath><linearGradient id="bgoddlingspages" x1="0" y1="0" x2="0" y2="1"><stop offset="0" stop-color="#22123d"/><stop offset="1" stop-color="#080212"/></linearGradient><radialGradient id="spoddlingspages" cx=".3" cy=".22" r=".65"><stop offset="0" stop-color="#ffffff" stop-opacity=".22"/><stop offset="1" stop-color="#ffffff" stop-opacity="0"/></radialGradient><radialGradient id="gloddlingspages" cx=".5" cy=".5" r=".6"><stop offset="0" stop-color="#b8ff5a" stop-opacity=".9"/><stop offset="1" stop-color="#b8ff5a" stop-opacity="0"/></radialGradient><filter id="shoddlingspages" x="-20%" y="-20%" width="140%" height="140%"><feDropShadow dx="0" dy="14" stdDeviation="18" flood-color="#000" flood-opacity=".45"/></filter></defs><g clip-path="url(#sq)"><rect width="1024" height="1024" fill="url(#bgoddlingspages)"/><g filter="url(#shoddlingspages)"><path d="M 240 180 L 720 180 L 840 300 L 840 844 Q 840 884 800 884 L 280 884 Q 240 884 240 844 Z" fill="#b8ff5a"/><path d="M 720 180 L 840 300 L 720 300 Z" fill="#11240a" opacity=".6"/></g><g stroke="#38e8ff" stroke-width="14" stroke-linecap="round" fill="none"><path d="M 360 180 Q 340 120 300 100"/><path d="M 620 180 Q 640 120 680 100"/></g><circle cx="300" cy="100" r="18" fill="#38e8ff"/><circle cx="680" cy="100" r="18" fill="#38e8ff"/><g stroke="#11240a" stroke-width="26" stroke-linecap="round" opacity=".85"><line x1="300" y1="400" x2="760" y2="400"/><line x1="300" y1="480" x2="700" y2="480"/><line x1="300" y1="560" x2="740" y2="560"/></g><g><circle cx="540" cy="720" r="50" fill="#fff7ea"/><circle cx="540" cy="720" r="28" fill="#11240a"/><circle cx="540" cy="720" r="14" fill="#140420"/><circle cx="523" cy="703" r="8" fill="#fff"/></g><rect width="1024" height="1024" fill="url(#spoddlingspages)"/></g></svg>
