<svg xmlns="http://www.w3.org/2000/svg" viewBox="0 0 1024 1024" width="1024" height="1024" role="img" aria-label="Oddlings Plugins"><defs><clipPath id="sq"><path d="M 350.06 0 L 673.94 0 C 774.74 0 825.13 0 879.39 17.15 L 879.39 17.15 C 938.62 38.71 985.29 85.38 1006.85 144.61 C 1024 198.87 1024 249.26 1024 350.06 L 1024 673.94 C 1024 774.74 1024 825.13 1006.85 879.39 L 1006.85 879.39 C 985.29 938.62 938.62 985.29 879.39 1006.85 C 825.13 1024 774.74 1024 673.94 1024 L 350.06 1024 C 249.26 1024 198.87 1024 144.61 1006.85 L 144.61 1006.85 C 85.38 985.29 38.71 938.62 17.15 879.39 C 0 825.13 0 774.74 0 673.94 L 0 350.06 C 0 249.26 0 198.87 17.15 144.61 L 17.15 144.61 C 38.71 85.38 85.38 38.71 144.61 17.15 C 198.87 0 249.26 0 350.06 0 Z"/></clipPath><linearGradient id="bgoddlingsplugins" x1="0" y1="0" x2="0" y2="1"><stop offset="0" stop-color="#22123d"/><stop offset="1" stop-color="#080212"/></linearGradient><radialGradient id="spoddlingsplugins" cx=".3" cy=".22" r=".65"><stop offset="0" stop-color="#ffffff" stop-opacity=".22"/><stop offset="1" stop-color="#ffffff" stop-opacity="0"/></radialGradient><radialGradient id="gloddlingsplugins" cx=".5" cy=".5" r=".6"><stop offset="0" stop-color="#b266ff" stop-opacity=".9"/><stop offset="1" stop-color="#b266ff" stop-opacity="0"/></radialGradient><filter id="shoddlingsplugins" x="-20%" y="-20%" width="140%" height="140%"><feDropShadow dx="0" dy="14" stdDeviation="18" flood-color="#000" flood-opacity=".45"/></filter></defs><g clip-path="url(#sq)"><rect width="1024" height="1024" fill="url(#bgoddlingsplugins)"/><g filter="url(#shoddlingsplugins)"><rect x="312" y="300" width="400" height="360" rx="56" fill="#b266ff"/><rect x="388" y="200" width="60" height="120" rx="18" fill="#ffd84a"/><rect x="576" y="200" width="60" height="120" rx="18" fill="#ffd84a"/></g><g stroke="#ffd84a" stroke-width="16" stroke-linecap="round" fill="none"><path d="M 340 660 L 300 780"/><path d="M 412 660 L 400 800"/><path d="M 484 660 L 496 800"/><path d="M 556 660 L 580 800"/><path d="M 628 660 L 660 780"/><path d="M 700 660 L 740 760"/></g><g><circle cx="440" cy="440" r="44" fill="#fff7ea"/><circle cx="440" cy="440" r="25" fill="#180a2d"/><circle cx="440" cy="440" r="12" fill="#140420"/><circle cx="425" cy="425" r="7" fill="#fff"/></g><g><circle cx="584" cy="440" r="44" fill="#fff7ea"/><circle cx="584" cy="440" r="25" fill="#180a2d"/><circle cx="584" cy="440" r="12" fill="#140420"/><circle cx="569" cy="425" r="7" fill="#fff"/></g><rect width="1024" height="1024" fill="url(#spoddlingsplugins)"/></g></svg>
