<svg xmlns="http://www.w3.org/2000/svg" viewBox="0 0 1024 1024" width="1024" height="1024" role="img" aria-label="Oddlings Plugins"><defs><clipPath id="sq"><path d="M 350.06 0 L 673.94 0 C 774.74 0 825.13 0 879.39 17.15 L 879.39 17.15 C 938.62 38.71 985.29 85.38 1006.85 144.61 C 1024 198.87 1024 249.26 1024 350.06 L 1024 673.94 C 1024 774.74 1024 825.13 1006.85 879.39 L 1006.85 879.39 C 985.29 938.62 938.62 985.29 879.39 1006.85 C 825.13 1024 774.74 1024 673.94 1024 L 350.06 1024 C 249.26 1024 198.87 1024 144.61 1006.85 L 144.61 1006.85 C 85.38 985.29 38.71 938.62 17.15 879.39 C 0 825.13 0 774.74 0 673.94 L 0 350.06 C 0 249.26 0 198.87 17.15 144.61 L 17.15 144.61 C 38.71 85.38 85.38 38.71 144.61 17.15 C 198.87 0 249.26 0 350.06 0 Z"/></clipPath><filter id="shoddlingsplugins" x="-20%" y="-20%" width="140%" height="140%"><feDropShadow dx="0" dy="14" stdDeviation="14" flood-color="#000" flood-opacity=".26"/></filter></defs><g clip-path="url(#sq)"><g filter="url(#shoddlingsplugins)"><g fill="none" stroke="#28113f" stroke-width="28" stroke-linecap="round" stroke-linejoin="round"><rect x="400" y="202" width="44" height="120" rx="18" fill="none"/><rect x="580" y="202" width="44" height="120" rx="18" fill="none"/><rect x="332" y="322" width="360" height="340" rx="72" fill="none"/><path d="M 512 662 Q 652 782 512 902" fill="none" stroke="none" stroke-width="54" stroke-linecap="round"/></g><rect x="400" y="202" width="44" height="120" rx="18" fill="#7a3aa4"/><rect x="580" y="202" width="44" height="120" rx="18" fill="#7a3aa4"/><rect x="332" y="322" width="360" height="340" rx="72" fill="#1fb7c9"/><path d="M 512 662 Q 652 782 512 902" fill="none" stroke="#1fb7c9" stroke-width="54" stroke-linecap="round"/></g><circle cx="512" cy="430" r="58" fill="#fff"/><circle cx="512" cy="430" r="22" fill="#171027"/><path d="M430 330 L456 250 M594 330 L568 250" stroke="#ff4fa8" stroke-width="18" stroke-linecap="round"/><path d="M470 560 L512 620 L554 560" fill="#fff"/></g></svg>
