<svg xmlns="http://www.w3.org/2000/svg" viewBox="0 0 1024 1024" width="1024" height="1024" role="img" aria-label="Oddlings Posts"><defs><clipPath id="sq"><path d="M 350.06 0 L 673.94 0 C 774.74 0 825.13 0 879.39 17.15 L 879.39 17.15 C 938.62 38.71 985.29 85.38 1006.85 144.61 C 1024 198.87 1024 249.26 1024 350.06 L 1024 673.94 C 1024 774.74 1024 825.13 1006.85 879.39 L 1006.85 879.39 C 985.29 938.62 938.62 985.29 879.39 1006.85 C 825.13 1024 774.74 1024 673.94 1024 L 350.06 1024 C 249.26 1024 198.87 1024 144.61 1006.85 L 144.61 1006.85 C 85.38 985.29 38.71 938.62 17.15 879.39 C 0 825.13 0 774.74 0 673.94 L 0 350.06 C 0 249.26 0 198.87 17.15 144.61 L 17.15 144.61 C 38.71 85.38 85.38 38.71 144.61 17.15 C 198.87 0 249.26 0 350.06 0 Z"/></clipPath><linearGradient id="bgoddlingsposts" x1="0" y1="0" x2="0" y2="1"><stop offset="0" stop-color="#22123d"/><stop offset="1" stop-color="#080212"/></linearGradient><radialGradient id="spoddlingsposts" cx=".3" cy=".22" r=".65"><stop offset="0" stop-color="#ffffff" stop-opacity=".22"/><stop offset="1" stop-color="#ffffff" stop-opacity="0"/></radialGradient><radialGradient id="gloddlingsposts" cx=".5" cy=".5" r=".6"><stop offset="0" stop-color="#ff5fa8" stop-opacity=".9"/><stop offset="1" stop-color="#ff5fa8" stop-opacity="0"/></radialGradient><filter id="shoddlingsposts" x="-20%" y="-20%" width="140%" height="140%"><feDropShadow dx="0" dy="14" stdDeviation="18" flood-color="#000" flood-opacity=".45"/></filter></defs><g clip-path="url(#sq)"><rect width="1024" height="1024" fill="url(#bgoddlingsposts)"/><g filter="url(#shoddlingsposts)"><rect x="268" y="240" width="512" height="624" rx="32" fill="#ffe26a" opacity=".55"/><rect x="232" y="200" width="512" height="624" rx="32" fill="#ffe26a" opacity=".75"/><rect x="192" y="160" width="512" height="624" rx="36" fill="#ff5fa8"/></g><g stroke="#3a0820" stroke-width="28" stroke-linecap="round"><line x1="260" y1="300" x2="620" y2="300"/><line x1="260" y1="380" x2="580" y2="380"/><line x1="260" y1="460" x2="636" y2="460"/><line x1="260" y1="540" x2="520" y2="540"/></g><g fill="#ff5fa8"><polygon points="220,784 260,820 300,784"/><polygon points="320,784 360,820 400,784"/><polygon points="420,784 460,820 500,784"/><polygon points="520,784 560,820 600,784"/><polygon points="620,784 660,820 700,784"/></g><g><circle cx="604" cy="640" r="38" fill="#fff7ea"/><circle cx="604" cy="640" r="22" fill="#3a0820"/><circle cx="604" cy="640" r="10" fill="#140420"/><circle cx="591" cy="627" r="6" fill="#fff"/></g><rect width="1024" height="1024" fill="url(#spoddlingsposts)"/></g></svg>
