<svg xmlns="http://www.w3.org/2000/svg" viewBox="0 0 1024 1024" width="1024" height="1024" role="img" aria-label="Oddlings Settings"><defs><clipPath id="sq"><path d="M 350.06 0 L 673.94 0 C 774.74 0 825.13 0 879.39 17.15 L 879.39 17.15 C 938.62 38.71 985.29 85.38 1006.85 144.61 C 1024 198.87 1024 249.26 1024 350.06 L 1024 673.94 C 1024 774.74 1024 825.13 1006.85 879.39 L 1006.85 879.39 C 985.29 938.62 938.62 985.29 879.39 1006.85 C 825.13 1024 774.74 1024 673.94 1024 L 350.06 1024 C 249.26 1024 198.87 1024 144.61 1006.85 L 144.61 1006.85 C 85.38 985.29 38.71 938.62 17.15 879.39 C 0 825.13 0 774.74 0 673.94 L 0 350.06 C 0 249.26 0 198.87 17.15 144.61 L 17.15 144.61 C 38.71 85.38 85.38 38.71 144.61 17.15 C 198.87 0 249.26 0 350.06 0 Z"/></clipPath><linearGradient id="bgoddlingssettings" x1="0" y1="0" x2="0" y2="1"><stop offset="0" stop-color="#22123d"/><stop offset="1" stop-color="#080212"/></linearGradient><radialGradient id="spoddlingssettings" cx=".3" cy=".22" r=".65"><stop offset="0" stop-color="#ffffff" stop-opacity=".22"/><stop offset="1" stop-color="#ffffff" stop-opacity="0"/></radialGradient><radialGradient id="gloddlingssettings" cx=".5" cy=".5" r=".6"><stop offset="0" stop-color="#ff9d5c" stop-opacity=".9"/><stop offset="1" stop-color="#ff9d5c" stop-opacity="0"/></radialGradient><filter id="shoddlingssettings" x="-20%" y="-20%" width="140%" height="140%"><feDropShadow dx="0" dy="14" stdDeviation="18" flood-color="#000" flood-opacity=".45"/></filter></defs><g clip-path="url(#sq)"><rect width="1024" height="1024" fill="url(#bgoddlingssettings)"/><g filter="url(#shoddlingssettings)"><path d="M 865,442 L 786,566 L 811,712 L 667,744 L 582,865 L 458,786 L 312,811 L 280,667 L 159,582 L 238,458 L 213,312 L 357,280 L 442,159 L 566,238 L 712,213 L 744,357 Z" fill="#ff9d5c"/><circle cx="512" cy="512" r="160" fill="#2b0c02"/></g><ellipse cx="512" cy="512" rx="120" ry="60" fill="#fff7ea"/><ellipse cx="512" cy="512" rx="42" ry="60" fill="#38e8ff"/><ellipse cx="512" cy="512" rx="14" ry="46" fill="#140420"/><rect width="1024" height="1024" fill="url(#spoddlingssettings)"/></g></svg>
