<svg xmlns="http://www.w3.org/2000/svg" viewBox="0 0 1024 1024" width="1024" height="1024" role="img" aria-label="Oddlings Settings"><defs><clipPath id="sq"><path d="M 350.06 0 L 673.94 0 C 774.74 0 825.13 0 879.39 17.15 L 879.39 17.15 C 938.62 38.71 985.29 85.38 1006.85 144.61 C 1024 198.87 1024 249.26 1024 350.06 L 1024 673.94 C 1024 774.74 1024 825.13 1006.85 879.39 L 1006.85 879.39 C 985.29 938.62 938.62 985.29 879.39 1006.85 C 825.13 1024 774.74 1024 673.94 1024 L 350.06 1024 C 249.26 1024 198.87 1024 144.61 1006.85 L 144.61 1006.85 C 85.38 985.29 38.71 938.62 17.15 879.39 C 0 825.13 0 774.74 0 673.94 L 0 350.06 C 0 249.26 0 198.87 17.15 144.61 L 17.15 144.61 C 38.71 85.38 85.38 38.71 144.61 17.15 C 198.87 0 249.26 0 350.06 0 Z"/></clipPath><filter id="shoddlingssettings" x="-20%" y="-20%" width="140%" height="140%"><feDropShadow dx="0" dy="14" stdDeviation="14" flood-color="#000" flood-opacity=".26"/></filter></defs><g clip-path="url(#sq)"><g filter="url(#shoddlingssettings)"><g fill="none" stroke="#28113f" stroke-width="28" stroke-linecap="round" stroke-linejoin="round"><path d="M 678.30 443.12 L 691.55 499.29 L 771.35 493.64 L 771.35 530.36 L 691.55 524.71 L 678.30 580.88 L 678.30 580.88 L 647.95 629.97 L 708.37 682.40 L 682.40 708.37 L 629.97 647.95 L 580.88 678.30 L 580.88 678.30 L 524.71 691.55 L 530.36 771.35 L 493.64 771.35 L 499.29 691.55 L 443.12 678.30 L 443.12 678.30 L 394.03 647.95 L 341.60 708.37 L 315.63 682.40 L 376.05 629.97 L 345.70 580.88 L 345.70 580.88 L 332.45 524.71 L 252.65 530.36 L 252.65 493.64 L 332.45 499.29 L 345.70 443.12 L 345.70 443.12 L 376.05 394.03 L 315.63 341.60 L 341.60 315.63 L 394.03 376.05 L 443.12 345.70 L 443.12 345.70 L 499.29 332.45 L 493.64 252.65 L 530.36 252.65 L 524.71 332.45 L 580.88 345.70 L 580.88 345.70 L 629.97 376.05 L 682.40 315.63 L 708.37 341.60 L 647.95 394.03 L 678.30 443.12 Z" fill="none"/><circle cx="512" cy="512" r="86" fill="none"/></g><path d="M 678.30 443.12 L 691.55 499.29 L 771.35 493.64 L 771.35 530.36 L 691.55 524.71 L 678.30 580.88 L 678.30 580.88 L 647.95 629.97 L 708.37 682.40 L 682.40 708.37 L 629.97 647.95 L 580.88 678.30 L 580.88 678.30 L 524.71 691.55 L 530.36 771.35 L 493.64 771.35 L 499.29 691.55 L 443.12 678.30 L 443.12 678.30 L 394.03 647.95 L 341.60 708.37 L 315.63 682.40 L 376.05 629.97 L 345.70 580.88 L 345.70 580.88 L 332.45 524.71 L 252.65 530.36 L 252.65 493.64 L 332.45 499.29 L 345.70 443.12 L 345.70 443.12 L 376.05 394.03 L 315.63 341.60 L 341.60 315.63 L 394.03 376.05 L 443.12 345.70 L 443.12 345.70 L 499.29 332.45 L 493.64 252.65 L 530.36 252.65 L 524.71 332.45 L 580.88 345.70 L 580.88 345.70 L 629.97 376.05 L 682.40 315.63 L 708.37 341.60 L 647.95 394.03 L 678.30 443.12 Z" fill="#1fb7c9"/><circle cx="512" cy="512" r="86" fill="#7a3aa4"/></g><circle cx="512" cy="430" r="58" fill="#fff"/><circle cx="512" cy="430" r="22" fill="#171027"/><path d="M430 330 L456 250 M594 330 L568 250" stroke="#ff4fa8" stroke-width="18" stroke-linecap="round"/><path d="M470 560 L512 620 L554 560" fill="#fff"/></g></svg>
