<svg xmlns="http://www.w3.org/2000/svg" viewBox="0 0 1024 1024" width="1024" height="1024" role="img" aria-label="Oddlings Tools"><defs><clipPath id="sq"><path d="M 350.06 0 L 673.94 0 C 774.74 0 825.13 0 879.39 17.15 L 879.39 17.15 C 938.62 38.71 985.29 85.38 1006.85 144.61 C 1024 198.87 1024 249.26 1024 350.06 L 1024 673.94 C 1024 774.74 1024 825.13 1006.85 879.39 L 1006.85 879.39 C 985.29 938.62 938.62 985.29 879.39 1006.85 C 825.13 1024 774.74 1024 673.94 1024 L 350.06 1024 C 249.26 1024 198.87 1024 144.61 1006.85 L 144.61 1006.85 C 85.38 985.29 38.71 938.62 17.15 879.39 C 0 825.13 0 774.74 0 673.94 L 0 350.06 C 0 249.26 0 198.87 17.15 144.61 L 17.15 144.61 C 38.71 85.38 85.38 38.71 144.61 17.15 C 198.87 0 249.26 0 350.06 0 Z"/></clipPath><linearGradient id="bgoddlingstools" x1="0" y1="0" x2="0" y2="1"><stop offset="0" stop-color="#22123d"/><stop offset="1" stop-color="#080212"/></linearGradient><radialGradient id="spoddlingstools" cx=".3" cy=".22" r=".65"><stop offset="0" stop-color="#ffffff" stop-opacity=".22"/><stop offset="1" stop-color="#ffffff" stop-opacity="0"/></radialGradient><radialGradient id="gloddlingstools" cx=".5" cy=".5" r=".6"><stop offset="0" stop-color="#5aeacc" stop-opacity=".9"/><stop offset="1" stop-color="#5aeacc" stop-opacity="0"/></radialGradient><filter id="shoddlingstools" x="-20%" y="-20%" width="140%" height="140%"><feDropShadow dx="0" dy="14" stdDeviation="18" flood-color="#000" flood-opacity=".45"/></filter></defs><g clip-path="url(#sq)"><rect width="1024" height="1024" fill="url(#bgoddlingstools)"/><g filter="url(#shoddlingstools)" transform="rotate(-35 512 512)"><rect x="460" y="280" width="104" height="520" rx="44" fill="#5aeacc"/><path d="M 380 220 Q 380 140 512 140 Q 644 140 644 220 L 644 300 Q 644 340 600 340 L 560 340 L 560 380 L 464 380 L 464 340 L 424 340 Q 380 340 380 300 Z" fill="#5aeacc"/><rect x="484" y="180" width="56" height="120" rx="20" fill="#07281f"/></g><g stroke="#ffd84a" stroke-width="14" stroke-linecap="round" fill="none"><path d="M 760 800 Q 800 760 860 780"/><path d="M 720 840 Q 720 900 780 920"/></g><circle cx="860" cy="780" r="16" fill="#ffd84a"/><circle cx="780" cy="920" r="16" fill="#ffd84a"/><g><circle cx="470" cy="540" r="38" fill="#fff7ea"/><circle cx="470" cy="540" r="22" fill="#07281f"/><circle cx="470" cy="540" r="10" fill="#140420"/><circle cx="457" cy="527" r="6" fill="#fff"/></g><rect width="1024" height="1024" fill="url(#spoddlingstools)"/></g></svg>
