<svg xmlns="http://www.w3.org/2000/svg" viewBox="0 0 1024 1024" width="1024" height="1024" role="img" aria-label="Oddlings Users"><defs><clipPath id="sq"><path d="M 350.06 0 L 673.94 0 C 774.74 0 825.13 0 879.39 17.15 L 879.39 17.15 C 938.62 38.71 985.29 85.38 1006.85 144.61 C 1024 198.87 1024 249.26 1024 350.06 L 1024 673.94 C 1024 774.74 1024 825.13 1006.85 879.39 L 1006.85 879.39 C 985.29 938.62 938.62 985.29 879.39 1006.85 C 825.13 1024 774.74 1024 673.94 1024 L 350.06 1024 C 249.26 1024 198.87 1024 144.61 1006.85 L 144.61 1006.85 C 85.38 985.29 38.71 938.62 17.15 879.39 C 0 825.13 0 774.74 0 673.94 L 0 350.06 C 0 249.26 0 198.87 17.15 144.61 L 17.15 144.61 C 38.71 85.38 85.38 38.71 144.61 17.15 C 198.87 0 249.26 0 350.06 0 Z"/></clipPath><linearGradient id="bgoddlingsusers" x1="0" y1="0" x2="0" y2="1"><stop offset="0" stop-color="#22123d"/><stop offset="1" stop-color="#080212"/></linearGradient><radialGradient id="spoddlingsusers" cx=".3" cy=".22" r=".65"><stop offset="0" stop-color="#ffffff" stop-opacity=".22"/><stop offset="1" stop-color="#ffffff" stop-opacity="0"/></radialGradient><radialGradient id="gloddlingsusers" cx=".5" cy=".5" r=".6"><stop offset="0" stop-color="#ffe26a" stop-opacity=".9"/><stop offset="1" stop-color="#ffe26a" stop-opacity="0"/></radialGradient><filter id="shoddlingsusers" x="-20%" y="-20%" width="140%" height="140%"><feDropShadow dx="0" dy="14" stdDeviation="18" flood-color="#000" flood-opacity=".45"/></filter></defs><g clip-path="url(#sq)"><rect width="1024" height="1024" fill="url(#bgoddlingsusers)"/><g filter="url(#shoddlingsusers)"><circle cx="640" cy="500" r="200" fill="#ff5fa8"/><circle cx="384" cy="540" r="220" fill="#ffe26a"/></g><g stroke="#ff5fa8" stroke-width="14" stroke-linecap="round" fill="none"><path d="M 580 320 Q 560 260 600 220"/><path d="M 700 320 Q 720 260 680 220"/></g><circle cx="600" cy="220" r="16" fill="#ff5fa8"/><circle cx="680" cy="220" r="16" fill="#ff5fa8"/><rect x="120" y="816" width="784" height="32" rx="16" fill="#060112" opacity=".6"/><g><circle cx="328" cy="520" r="48" fill="#fff7ea"/><circle cx="328" cy="520" r="27" fill="#2e1b05"/><circle cx="328" cy="520" r="13" fill="#140420"/><circle cx="312" cy="504" r="7" fill="#fff"/></g><g><circle cx="440" cy="520" r="48" fill="#fff7ea"/><circle cx="440" cy="520" r="27" fill="#2e1b05"/><circle cx="440" cy="520" r="13" fill="#140420"/><circle cx="424" cy="504" r="7" fill="#fff"/></g><g><circle cx="604" cy="500" r="40" fill="#fff7ea"/><circle cx="604" cy="500" r="23" fill="#2e1b05"/><circle cx="604" cy="500" r="11" fill="#140420"/><circle cx="590" cy="486" r="6" fill="#fff"/></g><g><circle cx="696" cy="500" r="40" fill="#fff7ea"/><circle cx="696" cy="500" r="23" fill="#2e1b05"/><circle cx="696" cy="500" r="11" fill="#140420"/><circle cx="682" cy="486" r="6" fill="#fff"/></g><rect width="1024" height="1024" fill="url(#spoddlingsusers)"/></g></svg>
