<svg xmlns="http://www.w3.org/2000/svg" viewBox="0 0 64 64">
  <rect x="0" y="0" width="64" height="64" fill="#f4ecd8" />
  <circle cx="1.0" cy="1.0" r="0.35" fill="#c5b89a" opacity="0.35" /><circle cx="8.3" cy="12.1" r="0.35" fill="#c5b89a" opacity="0.35" /><circle cx="15.6" cy="23.2" r="0.35" fill="#c5b89a" opacity="0.35" /><circle cx="22.9" cy="34.3" r="0.35" fill="#c5b89a" opacity="0.35" /><circle cx="30.2" cy="45.4" r="0.35" fill="#c5b89a" opacity="0.35" /><circle cx="37.5" cy="56.5" r="0.35" fill="#c5b89a" opacity="0.35" /><circle cx="44.8" cy="5.599999999999994" r="0.35" fill="#c5b89a" opacity="0.35" /><circle cx="52.1" cy="16.700000000000003" r="0.35" fill="#c5b89a" opacity="0.35" /><circle cx="59.4" cy="27.799999999999997" r="0.35" fill="#c5b89a" opacity="0.35" /><circle cx="4.700000000000003" cy="38.89999999999999" r="0.35" fill="#c5b89a" opacity="0.35" /><circle cx="12.0" cy="50.0" r="0.35" fill="#c5b89a" opacity="0.35" /><circle cx="19.299999999999997" cy="61.099999999999994" r="0.35" fill="#c5b89a" opacity="0.35" /><circle cx="26.599999999999994" cy="10.199999999999989" r="0.35" fill="#c5b89a" opacity="0.35" /><circle cx="33.89999999999999" cy="21.299999999999983" r="0.35" fill="#c5b89a" opacity="0.35" /><circle cx="41.2" cy="32.400000000000006" r="0.35" fill="#c5b89a" opacity="0.35" /><circle cx="48.5" cy="43.5" r="0.35" fill="#c5b89a" opacity="0.35" /><circle cx="55.8" cy="54.599999999999994" r="0.35" fill="#c5b89a" opacity="0.35" /><circle cx="1.0999999999999943" cy="3.6999999999999886" r="0.35" fill="#c5b89a" opacity="0.35" /><circle cx="8.400000000000006" cy="14.799999999999983" r="0.35" fill="#c5b89a" opacity="0.35" /><circle cx="15.699999999999989" cy="25.900000000000006" r="0.35" fill="#c5b89a" opacity="0.35" /><circle cx="23.0" cy="37.0" r="0.35" fill="#c5b89a" opacity="0.35" /><circle cx="30.299999999999983" cy="48.099999999999994" r="0.35" fill="#c5b89a" opacity="0.35" /><circle cx="37.599999999999994" cy="59.19999999999999" r="0.35" fill="#c5b89a" opacity="0.35" /><circle cx="44.900000000000006" cy="8.299999999999983" r="0.35" fill="#c5b89a" opacity="0.35" /><circle cx="52.19999999999999" cy="19.399999999999977" r="0.35" fill="#c5b89a" opacity="0.35" /><circle cx="59.5" cy="30.5" r="0.35" fill="#c5b89a" opacity="0.35" /><circle cx="4.799999999999983" cy="41.599999999999966" r="0.35" fill="#c5b89a" opacity="0.35" /><circle cx="12.099999999999994" cy="52.69999999999999" r="0.35" fill="#c5b89a" opacity="0.35" /><circle cx="19.400000000000006" cy="1.8000000000000114" r="0.35" fill="#c5b89a" opacity="0.35" /><circle cx="26.69999999999999" cy="12.899999999999977" r="0.35" fill="#c5b89a" opacity="0.35" /><circle cx="34.0" cy="24.0" r="0.35" fill="#c5b89a" opacity="0.35" /><circle cx="41.29999999999998" cy="35.099999999999966" r="0.35" fill="#c5b89a" opacity="0.35" /><circle cx="48.599999999999994" cy="46.19999999999999" r="0.35" fill="#c5b89a" opacity="0.35" /><circle cx="55.900000000000006" cy="57.30000000000001" r="0.35" fill="#c5b89a" opacity="0.35" /><circle cx="1.1999999999999886" cy="6.399999999999977" r="0.35" fill="#c5b89a" opacity="0.35" /><circle cx="8.5" cy="17.5" r="0.35" fill="#c5b89a" opacity="0.35" /><circle cx="15.800000000000011" cy="28.599999999999966" r="0.35" fill="#c5b89a" opacity="0.35" /><circle cx="23.099999999999966" cy="39.69999999999999" r="0.35" fill="#c5b89a" opacity="0.35" />
  <g transform="translate(-1.4, 0.4)" opacity="0.85">
    <rect x="12" y="14" width="40" height="36" rx="1" fill="#2ed4e6" stroke="#2ed4e6" stroke-width="3" stroke-linecap="round" stroke-linejoin="round" />
  <line x1="18" y1="24" x2="46" y2="24" stroke="#2ed4e6" stroke-width="3" stroke-linecap="round" stroke-linejoin="round" />
  <line x1="18" y1="32" x2="46" y2="32" stroke="#2ed4e6" stroke-width="3" stroke-linecap="round" stroke-linejoin="round" />
  <line x1="18" y1="40" x2="42" y2="40" stroke="#2ed4e6" stroke-width="3" stroke-linecap="round" stroke-linejoin="round" />
  <line x1="18" y1="48" x2="38" y2="48" stroke="#2ed4e6" stroke-width="3" stroke-linecap="round" stroke-linejoin="round" />
  </g>
  <g transform="translate(1.2, -0.8)" opacity="0.85" style="mix-blend-mode:multiply">
    <rect x="12" y="14" width="40" height="36" rx="1" fill="#ff4fa8" stroke="#ff4fa8" stroke-width="3" stroke-linecap="round" stroke-linejoin="round" />
  <line x1="18" y1="24" x2="46" y2="24" stroke="#ff4fa8" stroke-width="3" stroke-linecap="round" stroke-linejoin="round" />
  <line x1="18" y1="32" x2="46" y2="32" stroke="#ff4fa8" stroke-width="3" stroke-linecap="round" stroke-linejoin="round" />
  <line x1="18" y1="40" x2="42" y2="40" stroke="#ff4fa8" stroke-width="3" stroke-linecap="round" stroke-linejoin="round" />
  <line x1="18" y1="48" x2="38" y2="48" stroke="#ff4fa8" stroke-width="3" stroke-linecap="round" stroke-linejoin="round" />
  </g>
</svg>
