<svg xmlns="http://www.w3.org/2000/svg" viewBox="0 0 1024 1024" width="1024" height="1024" role="img" aria-label="Monoline Pages"><defs><clipPath id="sq"><path d="M 350.06 0 L 673.94 0 C 774.74 0 825.13 0 879.39 17.15 L 879.39 17.15 C 938.62 38.71 985.29 85.38 1006.85 144.61 C 1024 198.87 1024 249.26 1024 350.06 L 1024 673.94 C 1024 774.74 1024 825.13 1006.85 879.39 L 1006.85 879.39 C 985.29 938.62 938.62 985.29 879.39 1006.85 C 825.13 1024 774.74 1024 673.94 1024 L 350.06 1024 C 249.26 1024 198.87 1024 144.61 1006.85 L 144.61 1006.85 C 85.38 985.29 38.71 938.62 17.15 879.39 C 0 825.13 0 774.74 0 673.94 L 0 350.06 C 0 249.26 0 198.87 17.15 144.61 L 17.15 144.61 C 38.71 85.38 85.38 38.71 144.61 17.15 C 198.87 0 249.26 0 350.06 0 Z"/></clipPath><linearGradient id="bgmonolinepages" x1="0" y1="0" x2="1" y2="1"><stop offset="0" stop-color="#14d6ff"/><stop offset="1" stop-color="#4a5cff"/></linearGradient><filter id="shmonolinepages" x="-20%" y="-20%" width="140%" height="140%"><feDropShadow dx="0" dy="18" stdDeviation="10" flood-color="#000" flood-opacity=".22"/></filter></defs><g clip-path="url(#sq)"><rect width="1024" height="1024" fill="url(#bgmonolinepages)"/><circle cx="802" cy="182" r="160" fill="#ffffff" opacity=".18"/><g filter="url(#shmonolinepages)"><g fill="none" stroke="#ffffff" stroke-width="44" stroke-linecap="round" stroke-linejoin="round"><path d="M 310 182 L 630 182 L 772 324 L 772 784 Q 772 842 714 842 L 310 842 Q 252 842 252 784 L 252 240 Q 252 182 310 182 Z" fill="none"/><path d="M 630 182 L 772 324 L 630 324 Z" fill="none" opacity=".62"/><rect x="332" y="362" width="360" height="38" rx="19" fill="none" opacity=".78"/><rect x="332" y="462" width="330" height="38" rx="19" fill="none" opacity=".78"/><rect x="332" y="562" width="280" height="38" rx="19" fill="none" opacity=".78"/></g><circle cx="820" cy="210" r="34" fill="#001f3f"/></g></g></svg>
