<svg xmlns="http://www.w3.org/2000/svg" viewBox="0 0 1024 1024" width="1024" height="1024" role="img" aria-label="Monoline Plugins"><defs><clipPath id="sq"><path d="M 350.06 0 L 673.94 0 C 774.74 0 825.13 0 879.39 17.15 L 879.39 17.15 C 938.62 38.71 985.29 85.38 1006.85 144.61 C 1024 198.87 1024 249.26 1024 350.06 L 1024 673.94 C 1024 774.74 1024 825.13 1006.85 879.39 L 1006.85 879.39 C 985.29 938.62 938.62 985.29 879.39 1006.85 C 825.13 1024 774.74 1024 673.94 1024 L 350.06 1024 C 249.26 1024 198.87 1024 144.61 1006.85 L 144.61 1006.85 C 85.38 985.29 38.71 938.62 17.15 879.39 C 0 825.13 0 774.74 0 673.94 L 0 350.06 C 0 249.26 0 198.87 17.15 144.61 L 17.15 144.61 C 38.71 85.38 85.38 38.71 144.61 17.15 C 198.87 0 249.26 0 350.06 0 Z"/></clipPath><linearGradient id="bgmonolineplugins" x1="0" y1="0" x2="1" y2="1"><stop offset="0" stop-color="#14d6ff"/><stop offset="1" stop-color="#4a5cff"/></linearGradient><filter id="shmonolineplugins" x="-20%" y="-20%" width="140%" height="140%"><feDropShadow dx="0" dy="18" stdDeviation="10" flood-color="#000" flood-opacity=".22"/></filter></defs><g clip-path="url(#sq)"><rect width="1024" height="1024" fill="url(#bgmonolineplugins)"/><circle cx="802" cy="182" r="160" fill="#ffffff" opacity=".18"/><g filter="url(#shmonolineplugins)"><g fill="none" stroke="#ffffff" stroke-width="44" stroke-linecap="round" stroke-linejoin="round"><rect x="400" y="202" width="44" height="120" rx="18" fill="none"/><rect x="580" y="202" width="44" height="120" rx="18" fill="none"/><rect x="332" y="322" width="360" height="340" rx="72" fill="none"/><path d="M 512 662 Q 652 782 512 902" fill="none" stroke="none" stroke-width="54" stroke-linecap="round"/></g><circle cx="820" cy="210" r="34" fill="#001f3f"/></g><rect x="660" y="824" width="220" height="56" rx="10" fill="#ffffff" opacity=".22" transform="rotate(-6 770 852)"/><path d="M 908 116 Q 820 180 760 116 Z" fill="#ffffff" opacity=".38"/></g></svg>
