<svg xmlns="http://www.w3.org/2000/svg" viewBox="0 0 1024 1024" width="1024" height="1024" role="img" aria-label="Monoline Recycle-Bin"><defs><clipPath id="sq"><path d="M 350.06 0 L 673.94 0 C 774.74 0 825.13 0 879.39 17.15 L 879.39 17.15 C 938.62 38.71 985.29 85.38 1006.85 144.61 C 1024 198.87 1024 249.26 1024 350.06 L 1024 673.94 C 1024 774.74 1024 825.13 1006.85 879.39 L 1006.85 879.39 C 985.29 938.62 938.62 985.29 879.39 1006.85 C 825.13 1024 774.74 1024 673.94 1024 L 350.06 1024 C 249.26 1024 198.87 1024 144.61 1006.85 L 144.61 1006.85 C 85.38 985.29 38.71 938.62 17.15 879.39 C 0 825.13 0 774.74 0 673.94 L 0 350.06 C 0 249.26 0 198.87 17.15 144.61 L 17.15 144.61 C 38.71 85.38 85.38 38.71 144.61 17.15 C 198.87 0 249.26 0 350.06 0 Z"/></clipPath><filter id="glmonolinerecyclebin" x="-30%" y="-30%" width="160%" height="160%"><feDropShadow dx="0" dy="0" stdDeviation="18" flood-color="#62b7ff" flood-opacity=".60"/></filter></defs><g clip-path="url(#sq)"><g filter="url(#glmonolinerecyclebin)"><g fill="none" stroke="#fff4df" stroke-width="30" stroke-linecap="round" stroke-linejoin="round"><rect x="332" y="312" width="360" height="500" rx="64" fill="none"/><rect x="292" y="232" width="440" height="92" rx="38" fill="none"/><rect x="424" y="164" width="176" height="72" rx="34" fill="none"/><path d="M 432 400 V 716" stroke="none" stroke-width="34" stroke-linecap="round" opacity=".72"/><path d="M 512 400 V 716" stroke="none" stroke-width="34" stroke-linecap="round" opacity=".72"/><path d="M 592 400 V 716" stroke="none" stroke-width="34" stroke-linecap="round" opacity=".72"/></g><g transform="translate(10 12)"><g fill="none" stroke="#62b7ff" stroke-width="18" stroke-linecap="round" stroke-linejoin="round"><rect x="332" y="312" width="360" height="500" rx="64" fill="none"/><rect x="292" y="232" width="440" height="92" rx="38" fill="none"/><rect x="424" y="164" width="176" height="72" rx="34" fill="none"/><path d="M 432 400 V 716" stroke="none" stroke-width="34" stroke-linecap="round" opacity=".72"/><path d="M 512 400 V 716" stroke="none" stroke-width="34" stroke-linecap="round" opacity=".72"/><path d="M 592 400 V 716" stroke="none" stroke-width="34" stroke-linecap="round" opacity=".72"/></g></g></g><path d="M810 206 L810 260 M783 233 H837" stroke="#ff8cc8" stroke-width="18" stroke-linecap="round"/></g></svg>
