<svg xmlns="http://www.w3.org/2000/svg" viewBox="0 0 1024 1024" width="1024" height="1024" role="img" aria-label="Filament Plugins"><defs><clipPath id="sq"><path d="M 350.06 0 L 673.94 0 C 774.74 0 825.13 0 879.39 17.15 L 879.39 17.15 C 938.62 38.71 985.29 85.38 1006.85 144.61 C 1024 198.87 1024 249.26 1024 350.06 L 1024 673.94 C 1024 774.74 1024 825.13 1006.85 879.39 L 1006.85 879.39 C 985.29 938.62 938.62 985.29 879.39 1006.85 C 825.13 1024 774.74 1024 673.94 1024 L 350.06 1024 C 249.26 1024 198.87 1024 144.61 1006.85 L 144.61 1006.85 C 85.38 985.29 38.71 938.62 17.15 879.39 C 0 825.13 0 774.74 0 673.94 L 0 350.06 C 0 249.26 0 198.87 17.15 144.61 L 17.15 144.61 C 38.71 85.38 85.38 38.71 144.61 17.15 C 198.87 0 249.26 0 350.06 0 Z"/></clipPath><linearGradient id="bgfilamentplugins" x1="0" y1="0" x2="0" y2="1"><stop offset="0" stop-color="#160d22"/><stop offset="1" stop-color="#040206"/></linearGradient><filter id="glfilamentplugins" x="-30%" y="-30%" width="160%" height="160%"><feDropShadow dx="0" dy="0" stdDeviation="18" flood-color="#ffb000" flood-opacity=".82"/></filter><radialGradient id="spfilamentplugins" cx="0.28" cy="0.22" r="0.6"><stop offset="0" stop-color="#ffffff" stop-opacity=".18"/><stop offset="1" stop-color="#ffffff" stop-opacity="0"/></radialGradient></defs><g clip-path="url(#sq)"><rect width="1024" height="1024" fill="url(#bgfilamentplugins)"/><g filter="url(#glfilamentplugins)"><g fill="none" stroke="#ffb000" stroke-width="24" stroke-linecap="round" stroke-linejoin="round"><rect x="400" y="202" width="44" height="120" rx="18" fill="none"/><rect x="580" y="202" width="44" height="120" rx="18" fill="none"/><rect x="332" y="322" width="360" height="340" rx="72" fill="none"/><path d="M 512 662 Q 652 782 512 902" fill="none" stroke="none" stroke-width="54" stroke-linecap="round"/></g><circle cx="820" cy="210" r="34" fill="#ffe7a6"/></g><rect width="1024" height="1024" fill="url(#spfilamentplugins)"/></g></svg>
