<svg xmlns="http://www.w3.org/2000/svg" viewBox="0 0 1024 1024" width="1024" height="1024" role="img" aria-label="Arctic Appearance"><defs><clipPath id="sq"><path d="M 350.06 0 L 673.94 0 C 774.74 0 825.13 0 879.39 17.15 L 879.39 17.15 C 938.62 38.71 985.29 85.38 1006.85 144.61 C 1024 198.87 1024 249.26 1024 350.06 L 1024 673.94 C 1024 774.74 1024 825.13 1006.85 879.39 L 1006.85 879.39 C 985.29 938.62 938.62 985.29 879.39 1006.85 C 825.13 1024 774.74 1024 673.94 1024 L 350.06 1024 C 249.26 1024 198.87 1024 144.61 1006.85 L 144.61 1006.85 C 85.38 985.29 38.71 938.62 17.15 879.39 C 0 825.13 0 774.74 0 673.94 L 0 350.06 C 0 249.26 0 198.87 17.15 144.61 L 17.15 144.61 C 38.71 85.38 85.38 38.71 144.61 17.15 C 198.87 0 249.26 0 350.06 0 Z"/></clipPath><linearGradient id="bgarcticappearance" x1="0" y1="0" x2="0" y2="1"><stop offset="0" stop-color="#f4fcff"/><stop offset="1" stop-color="#74bce2"/></linearGradient><radialGradient id="sparcticappearance" cx="0.28" cy="0.22" r="0.6"><stop offset="0" stop-color="#ffffff" stop-opacity=".38"/><stop offset="1" stop-color="#ffffff" stop-opacity="0"/></radialGradient><filter id="sharcticappearance" x="-20%" y="-20%" width="140%" height="140%"><feDropShadow dx="0" dy="18" stdDeviation="18" flood-color="#000" flood-opacity=".18"/></filter></defs><g clip-path="url(#sq)"><rect width="1024" height="1024" fill="url(#bgarcticappearance)"/><path d="M120 720 L900 250" stroke="#ffffff" stroke-width="38" opacity=".18"/><path d="M160 280 L820 780" stroke="#ffffff" stroke-width="24" opacity=".14"/><g filter="url(#sharcticappearance)"><path d="M 262 862 L 562 402 L 692 532 L 392 992 Z" fill="#ffffff"/><path d="M 562 402 L 672 292 L 802 422 L 692 532 Z" fill="#17415d"/><path d="M 672 292 L 822 142 L 942 262 L 802 422 Z" fill="#ffffff"/><circle cx="332" cy="302" r="26" fill="#7ddcff"/><circle cx="412" cy="242" r="18" fill="#7ddcff"/></g><rect width="1024" height="1024" fill="url(#sparcticappearance)"/></g></svg>
