<svg xmlns="http://www.w3.org/2000/svg" viewBox="0 0 1024 1024" width="1024" height="1024" role="img" aria-label="Arctic Appearance"><defs><clipPath id="sq"><path d="M 350.06 0 L 673.94 0 C 774.74 0 825.13 0 879.39 17.15 L 879.39 17.15 C 938.62 38.71 985.29 85.38 1006.85 144.61 C 1024 198.87 1024 249.26 1024 350.06 L 1024 673.94 C 1024 774.74 1024 825.13 1006.85 879.39 L 1006.85 879.39 C 985.29 938.62 938.62 985.29 879.39 1006.85 C 825.13 1024 774.74 1024 673.94 1024 L 350.06 1024 C 249.26 1024 198.87 1024 144.61 1006.85 L 144.61 1006.85 C 85.38 985.29 38.71 938.62 17.15 879.39 C 0 825.13 0 774.74 0 673.94 L 0 350.06 C 0 249.26 0 198.87 17.15 144.61 L 17.15 144.61 C 38.71 85.38 85.38 38.71 144.61 17.15 C 198.87 0 249.26 0 350.06 0 Z"/></clipPath><filter id="sharcticappearance" x="-20%" y="-20%" width="140%" height="140%"><feDropShadow dx="0" dy="16" stdDeviation="16" flood-color="#000" flood-opacity=".18"/></filter></defs><g clip-path="url(#sq)"><g filter="url(#sharcticappearance)"><g fill="none" stroke="#ffffff" stroke-width="42" stroke-linecap="round" stroke-linejoin="round"><g transform="rotate(-35 512 512)"><rect x="462" y="430" width="100" height="350" rx="50" fill="none"/><rect x="410" y="306" width="204" height="144" rx="36" fill="none"/><path d="M 414 306 C 424 210 468 136 512 122 C 556 136 600 210 610 306 Z" fill="none"/><path d="M 512 170 C 490 216 480 254 478 306" fill="none" stroke="none" stroke-width="32" stroke-linecap="round" opacity=".62"/></g></g><g opacity=".86"><g transform="rotate(-35 512 512)"><rect x="462" y="430" width="100" height="350" rx="50" fill="#9edcff"/><rect x="410" y="306" width="204" height="144" rx="36" fill="#eaffff"/><path d="M 414 306 C 424 210 468 136 512 122 C 556 136 600 210 610 306 Z" fill="#9edcff"/><path d="M 512 170 C 490 216 480 254 478 306" fill="none" stroke="#7ddcff" stroke-width="32" stroke-linecap="round" opacity=".62"/></g></g></g><circle cx="96" cy="96" r="3" fill="#ffffff" opacity=".36"/><circle cx="96" cy="242" r="3" fill="#ffffff" opacity=".36"/><circle cx="96" cy="388" r="3" fill="#ffffff" opacity=".36"/><circle cx="96" cy="534" r="3" fill="#ffffff" opacity=".36"/><circle cx="96" cy="680" r="3" fill="#ffffff" opacity=".36"/><circle cx="96" cy="826" r="3" fill="#ffffff" opacity=".36"/><circle cx="242" cy="96" r="5" fill="#ffffff" opacity=".36"/><circle cx="242" cy="242" r="5" fill="#ffffff" opacity=".36"/><circle cx="242" cy="388" r="5" fill="#ffffff" opacity=".36"/><circle cx="242" cy="534" r="5" fill="#ffffff" opacity=".36"/><circle cx="242" cy="680" r="5" fill="#ffffff" opacity=".36"/><circle cx="242" cy="826" r="5" fill="#ffffff" opacity=".36"/><circle cx="388" cy="96" r="7" fill="#ffffff" opacity=".36"/><circle cx="388" cy="242" r="7" fill="#ffffff" opacity=".36"/><circle cx="388" cy="388" r="7" fill="#ffffff" opacity=".36"/><circle cx="388" cy="534" r="7" fill="#ffffff" opacity=".36"/><circle cx="388" cy="680" r="7" fill="#ffffff" opacity=".36"/><circle cx="388" cy="826" r="7" fill="#ffffff" opacity=".36"/><circle cx="534" cy="96" r="4" fill="#ffffff" opacity=".36"/><circle cx="534" cy="242" r="4" fill="#ffffff" opacity=".36"/><circle cx="534" cy="388" r="4" fill="#ffffff" opacity=".36"/><circle cx="534" cy="534" r="4" fill="#ffffff" opacity=".36"/><circle cx="534" cy="680" r="4" fill="#ffffff" opacity=".36"/><circle cx="534" cy="826" r="4" fill="#ffffff" opacity=".36"/><circle cx="680" cy="96" r="6" fill="#ffffff" opacity=".36"/><circle cx="680" cy="242" r="6" fill="#ffffff" opacity=".36"/><circle cx="680" cy="388" r="6" fill="#ffffff" opacity=".36"/><circle cx="680" cy="534" r="6" fill="#ffffff" opacity=".36"/><circle cx="680" cy="680" r="6" fill="#ffffff" opacity=".36"/><circle cx="680" cy="826" r="6" fill="#ffffff" opacity=".36"/><circle cx="826" cy="96" r="3" fill="#ffffff" opacity=".36"/><circle cx="826" cy="242" r="3" fill="#ffffff" opacity=".36"/><circle cx="826" cy="388" r="3" fill="#ffffff" opacity=".36"/><circle cx="826" cy="534" r="3" fill="#ffffff" opacity=".36"/><circle cx="826" cy="680" r="3" fill="#ffffff" opacity=".36"/><circle cx="826" cy="826" r="3" fill="#ffffff" opacity=".36"/></g></svg>
