<svg xmlns="http://www.w3.org/2000/svg" viewBox="0 0 1024 1024" width="1024" height="1024" role="img" aria-label="Arctic Comments"><defs><clipPath id="sq"><path d="M 350.06 0 L 673.94 0 C 774.74 0 825.13 0 879.39 17.15 L 879.39 17.15 C 938.62 38.71 985.29 85.38 1006.85 144.61 C 1024 198.87 1024 249.26 1024 350.06 L 1024 673.94 C 1024 774.74 1024 825.13 1006.85 879.39 L 1006.85 879.39 C 985.29 938.62 938.62 985.29 879.39 1006.85 C 825.13 1024 774.74 1024 673.94 1024 L 350.06 1024 C 249.26 1024 198.87 1024 144.61 1006.85 L 144.61 1006.85 C 85.38 985.29 38.71 938.62 17.15 879.39 C 0 825.13 0 774.74 0 673.94 L 0 350.06 C 0 249.26 0 198.87 17.15 144.61 L 17.15 144.61 C 38.71 85.38 85.38 38.71 144.61 17.15 C 198.87 0 249.26 0 350.06 0 Z"/></clipPath><filter id="sharcticcomments" x="-20%" y="-20%" width="140%" height="140%"><feDropShadow dx="0" dy="16" stdDeviation="16" flood-color="#000" flood-opacity=".18"/></filter></defs><g clip-path="url(#sq)"><g filter="url(#sharcticcomments)"><g fill="none" stroke="#ffffff" stroke-width="42" stroke-linecap="round" stroke-linejoin="round"><path d="M 262 222 L 762 222 Q 842 222 842 302 L 842 652 Q 842 732 762 732 L 322 732 L 262 852 L 362 732 L 262 732 Q 182 732 182 652 L 182 302 Q 182 222 262 222 Z" fill="none"/><circle cx="392" cy="472" r="34" fill="none"/><circle cx="512" cy="472" r="34" fill="none"/><circle cx="632" cy="472" r="34" fill="none"/></g><g opacity=".86"><path d="M 262 222 L 762 222 Q 842 222 842 302 L 842 652 Q 842 732 762 732 L 322 732 L 262 852 L 362 732 L 262 732 Q 182 732 182 652 L 182 302 Q 182 222 262 222 Z" fill="#9edcff"/><circle cx="392" cy="472" r="34" fill="#eaffff"/><circle cx="512" cy="472" r="34" fill="#eaffff"/><circle cx="632" cy="472" r="34" fill="#eaffff"/></g></g><circle cx="96" cy="96" r="3" fill="#ffffff" opacity=".36"/><circle cx="96" cy="242" r="3" fill="#ffffff" opacity=".36"/><circle cx="96" cy="388" r="3" fill="#ffffff" opacity=".36"/><circle cx="96" cy="534" r="3" fill="#ffffff" opacity=".36"/><circle cx="96" cy="680" r="3" fill="#ffffff" opacity=".36"/><circle cx="96" cy="826" r="3" fill="#ffffff" opacity=".36"/><circle cx="242" cy="96" r="5" fill="#ffffff" opacity=".36"/><circle cx="242" cy="242" r="5" fill="#ffffff" opacity=".36"/><circle cx="242" cy="388" r="5" fill="#ffffff" opacity=".36"/><circle cx="242" cy="534" r="5" fill="#ffffff" opacity=".36"/><circle cx="242" cy="680" r="5" fill="#ffffff" opacity=".36"/><circle cx="242" cy="826" r="5" fill="#ffffff" opacity=".36"/><circle cx="388" cy="96" r="7" fill="#ffffff" opacity=".36"/><circle cx="388" cy="242" r="7" fill="#ffffff" opacity=".36"/><circle cx="388" cy="388" r="7" fill="#ffffff" opacity=".36"/><circle cx="388" cy="534" r="7" fill="#ffffff" opacity=".36"/><circle cx="388" cy="680" r="7" fill="#ffffff" opacity=".36"/><circle cx="388" cy="826" r="7" fill="#ffffff" opacity=".36"/><circle cx="534" cy="96" r="4" fill="#ffffff" opacity=".36"/><circle cx="534" cy="242" r="4" fill="#ffffff" opacity=".36"/><circle cx="534" cy="388" r="4" fill="#ffffff" opacity=".36"/><circle cx="534" cy="534" r="4" fill="#ffffff" opacity=".36"/><circle cx="534" cy="680" r="4" fill="#ffffff" opacity=".36"/><circle cx="534" cy="826" r="4" fill="#ffffff" opacity=".36"/><circle cx="680" cy="96" r="6" fill="#ffffff" opacity=".36"/><circle cx="680" cy="242" r="6" fill="#ffffff" opacity=".36"/><circle cx="680" cy="388" r="6" fill="#ffffff" opacity=".36"/><circle cx="680" cy="534" r="6" fill="#ffffff" opacity=".36"/><circle cx="680" cy="680" r="6" fill="#ffffff" opacity=".36"/><circle cx="680" cy="826" r="6" fill="#ffffff" opacity=".36"/><circle cx="826" cy="96" r="3" fill="#ffffff" opacity=".36"/><circle cx="826" cy="242" r="3" fill="#ffffff" opacity=".36"/><circle cx="826" cy="388" r="3" fill="#ffffff" opacity=".36"/><circle cx="826" cy="534" r="3" fill="#ffffff" opacity=".36"/><circle cx="826" cy="680" r="3" fill="#ffffff" opacity=".36"/><circle cx="826" cy="826" r="3" fill="#ffffff" opacity=".36"/></g></svg>
