<svg xmlns="http://www.w3.org/2000/svg" viewBox="0 0 1024 1024" width="1024" height="1024" role="img" aria-label="Arctic Media"><defs><clipPath id="sq"><path d="M 350.06 0 L 673.94 0 C 774.74 0 825.13 0 879.39 17.15 L 879.39 17.15 C 938.62 38.71 985.29 85.38 1006.85 144.61 C 1024 198.87 1024 249.26 1024 350.06 L 1024 673.94 C 1024 774.74 1024 825.13 1006.85 879.39 L 1006.85 879.39 C 985.29 938.62 938.62 985.29 879.39 1006.85 C 825.13 1024 774.74 1024 673.94 1024 L 350.06 1024 C 249.26 1024 198.87 1024 144.61 1006.85 L 144.61 1006.85 C 85.38 985.29 38.71 938.62 17.15 879.39 C 0 825.13 0 774.74 0 673.94 L 0 350.06 C 0 249.26 0 198.87 17.15 144.61 L 17.15 144.61 C 38.71 85.38 85.38 38.71 144.61 17.15 C 198.87 0 249.26 0 350.06 0 Z"/></clipPath><filter id="sharcticmedia" x="-20%" y="-20%" width="140%" height="140%"><feDropShadow dx="0" dy="16" stdDeviation="16" flood-color="#000" flood-opacity=".18"/></filter></defs><g clip-path="url(#sq)"><g filter="url(#sharcticmedia)"><g fill="none" stroke="#ffffff" stroke-width="42" stroke-linecap="round" stroke-linejoin="round"><rect x="182" y="242" width="660" height="540" rx="68" fill="none"/><rect x="220" y="280" width="584" height="464" rx="44" fill="none" opacity=".30"/><circle cx="664" cy="392" r="54" fill="none"/><path d="M 248 716 L 440 484 L 542 564 L 564 444 L 776 716 Z" fill="none"/></g><g opacity=".86"><rect x="182" y="242" width="660" height="540" rx="68" fill="#9edcff"/><rect x="220" y="280" width="584" height="464" rx="44" fill="#eaffff" opacity=".30"/><circle cx="664" cy="392" r="54" fill="#7ddcff"/><path d="M 248 716 L 440 484 L 542 564 L 564 444 L 776 716 Z" fill="#eaffff"/></g></g><circle cx="96" cy="96" r="3" fill="#ffffff" opacity=".36"/><circle cx="96" cy="242" r="3" fill="#ffffff" opacity=".36"/><circle cx="96" cy="388" r="3" fill="#ffffff" opacity=".36"/><circle cx="96" cy="534" r="3" fill="#ffffff" opacity=".36"/><circle cx="96" cy="680" r="3" fill="#ffffff" opacity=".36"/><circle cx="96" cy="826" r="3" fill="#ffffff" opacity=".36"/><circle cx="242" cy="96" r="5" fill="#ffffff" opacity=".36"/><circle cx="242" cy="242" r="5" fill="#ffffff" opacity=".36"/><circle cx="242" cy="388" r="5" fill="#ffffff" opacity=".36"/><circle cx="242" cy="534" r="5" fill="#ffffff" opacity=".36"/><circle cx="242" cy="680" r="5" fill="#ffffff" opacity=".36"/><circle cx="242" cy="826" r="5" fill="#ffffff" opacity=".36"/><circle cx="388" cy="96" r="7" fill="#ffffff" opacity=".36"/><circle cx="388" cy="242" r="7" fill="#ffffff" opacity=".36"/><circle cx="388" cy="388" r="7" fill="#ffffff" opacity=".36"/><circle cx="388" cy="534" r="7" fill="#ffffff" opacity=".36"/><circle cx="388" cy="680" r="7" fill="#ffffff" opacity=".36"/><circle cx="388" cy="826" r="7" fill="#ffffff" opacity=".36"/><circle cx="534" cy="96" r="4" fill="#ffffff" opacity=".36"/><circle cx="534" cy="242" r="4" fill="#ffffff" opacity=".36"/><circle cx="534" cy="388" r="4" fill="#ffffff" opacity=".36"/><circle cx="534" cy="534" r="4" fill="#ffffff" opacity=".36"/><circle cx="534" cy="680" r="4" fill="#ffffff" opacity=".36"/><circle cx="534" cy="826" r="4" fill="#ffffff" opacity=".36"/><circle cx="680" cy="96" r="6" fill="#ffffff" opacity=".36"/><circle cx="680" cy="242" r="6" fill="#ffffff" opacity=".36"/><circle cx="680" cy="388" r="6" fill="#ffffff" opacity=".36"/><circle cx="680" cy="534" r="6" fill="#ffffff" opacity=".36"/><circle cx="680" cy="680" r="6" fill="#ffffff" opacity=".36"/><circle cx="680" cy="826" r="6" fill="#ffffff" opacity=".36"/><circle cx="826" cy="96" r="3" fill="#ffffff" opacity=".36"/><circle cx="826" cy="242" r="3" fill="#ffffff" opacity=".36"/><circle cx="826" cy="388" r="3" fill="#ffffff" opacity=".36"/><circle cx="826" cy="534" r="3" fill="#ffffff" opacity=".36"/><circle cx="826" cy="680" r="3" fill="#ffffff" opacity=".36"/><circle cx="826" cy="826" r="3" fill="#ffffff" opacity=".36"/></g></svg>
