<svg xmlns="http://www.w3.org/2000/svg" viewBox="0 0 1024 1024" width="1024" height="1024" role="img" aria-label="Tools"><defs><clipPath id="sq"><path d="M 350.06 0 L 673.94 0 C 774.74 0 825.13 0 879.39 17.15 L 879.39 17.15 C 938.62 38.71 985.29 85.38 1006.85 144.61 C 1024 198.87 1024 249.26 1024 350.06 L 1024 673.94 C 1024 774.74 1024 825.13 1006.85 879.39 L 1006.85 879.39 C 985.29 938.62 938.62 985.29 879.39 1006.85 C 825.13 1024 774.74 1024 673.94 1024 L 350.06 1024 C 249.26 1024 198.87 1024 144.61 1006.85 L 144.61 1006.85 C 85.38 985.29 38.71 938.62 17.15 879.39 C 0 825.13 0 774.74 0 673.94 L 0 350.06 C 0 249.26 0 198.87 17.15 144.61 L 17.15 144.61 C 38.71 85.38 85.38 38.71 144.61 17.15 C 198.87 0 249.26 0 350.06 0 Z"/></clipPath><linearGradient id="bgbotanicalplatetools" x1="0" y1="0" x2="0" y2="1"><stop offset="0" stop-color="#f2ecd4"/><stop offset="1" stop-color="#d4c88a"/></linearGradient><filter id="dsbotanicalplatetools" x="-10%" y="-10%" width="120%" height="120%"><feDropShadow dx="0" dy="18" stdDeviation="14" flood-color="#000" flood-opacity="0.22"/></filter></defs><g clip-path="url(#sq)"><rect x="0" y="0" width="1024" height="1024" fill="url(#bgbotanicalplatetools)"/><g filter="url(#dsbotanicalplatetools)"><path d="M 322 702 L 622 422 L 742 542 L 442 822 Q 322 942 222 762 Q 162 582 322 702 Z" fill="#2d3a22"/><path d="M 622 422 L 742 302 L 842 302 L 942 402 L 822 522 L 742 542 Z" fill="#2d3a22"/><circle cx="792" cy="412" r="36" fill="#6a8f3b"/></g></g></svg>
