<svg xmlns="http://www.w3.org/2000/svg" viewBox="0 0 1024 1024" width="1024" height="1024" role="img" aria-label="Hologram Media"><defs><clipPath id="sq"><path d="M 350.06 0 L 673.94 0 C 774.74 0 825.13 0 879.39 17.15 L 879.39 17.15 C 938.62 38.71 985.29 85.38 1006.85 144.61 C 1024 198.87 1024 249.26 1024 350.06 L 1024 673.94 C 1024 774.74 1024 825.13 1006.85 879.39 L 1006.85 879.39 C 985.29 938.62 938.62 985.29 879.39 1006.85 C 825.13 1024 774.74 1024 673.94 1024 L 350.06 1024 C 249.26 1024 198.87 1024 144.61 1006.85 L 144.61 1006.85 C 85.38 985.29 38.71 938.62 17.15 879.39 C 0 825.13 0 774.74 0 673.94 L 0 350.06 C 0 249.26 0 198.87 17.15 144.61 L 17.15 144.61 C 38.71 85.38 85.38 38.71 144.61 17.15 C 198.87 0 249.26 0 350.06 0 Z"/></clipPath><linearGradient id="bghologrammedia" x1="0" y1="0" x2="1" y2="1"><stop offset="0" stop-color="#c8e7ff"/><stop offset="1" stop-color="#ffd1f5"/></linearGradient><radialGradient id="sphologrammedia" cx="0.28" cy="0.22" r="0.6"><stop offset="0" stop-color="#ffffff" stop-opacity=".40"/><stop offset="1" stop-color="#ffffff" stop-opacity="0"/></radialGradient></defs><g clip-path="url(#sq)"><rect width="1024" height="1024" fill="url(#bghologrammedia)"/><path d="M86 778 L778 86 H938 V246 L246 938 H86 Z" fill="#ffffff" opacity=".22"/><g transform="rotate(-8 512 512)"><rect x="182" y="242" width="660" height="540" rx="68" fill="#5a7ea8"/><rect x="220" y="280" width="584" height="464" rx="44" fill="#d45fc9" opacity=".30"/><circle cx="664" cy="392" r="54" fill="#9fd0ff"/><path d="M 248 716 L 440 484 L 542 564 L 564 444 L 776 716 Z" fill="#d45fc9"/></g><rect width="1024" height="1024" fill="url(#sphologrammedia)"/><path d="M766 116 L908 116 L908 258 Z" fill="#ffffff" opacity=".62"/></g></svg>
