<svg xmlns="http://www.w3.org/2000/svg" viewBox="0 0 1024 1024" width="1024" height="1024" role="img" aria-label="Pages"><defs><clipPath id="sq"><path d="M 350.06 0 L 673.94 0 C 774.74 0 825.13 0 879.39 17.15 L 879.39 17.15 C 938.62 38.71 985.29 85.38 1006.85 144.61 C 1024 198.87 1024 249.26 1024 350.06 L 1024 673.94 C 1024 774.74 1024 825.13 1006.85 879.39 L 1006.85 879.39 C 985.29 938.62 938.62 985.29 879.39 1006.85 C 825.13 1024 774.74 1024 673.94 1024 L 350.06 1024 C 249.26 1024 198.87 1024 144.61 1006.85 L 144.61 1006.85 C 85.38 985.29 38.71 938.62 17.15 879.39 C 0 825.13 0 774.74 0 673.94 L 0 350.06 C 0 249.26 0 198.87 17.15 144.61 L 17.15 144.61 C 38.71 85.38 85.38 38.71 144.61 17.15 C 198.87 0 249.26 0 350.06 0 Z"/></clipPath><linearGradient id="bgmonolinepages" x1="0" y1="0" x2="1" y2="1"><stop offset="0" stop-color="#14d6ff"/><stop offset="1" stop-color="#4a5cff"/></linearGradient><radialGradient id="spmonolinepages" cx="0.28" cy="0.22" r="0.55"><stop offset="0" stop-color="#ffffff" stop-opacity="0.35"/><stop offset="1" stop-color="#ffffff" stop-opacity="0"/></radialGradient><filter id="dsmonolinepages" x="-10%" y="-10%" width="120%" height="120%"><feDropShadow dx="0" dy="18" stdDeviation="14" flood-color="#000" flood-opacity="0.22"/></filter></defs><g clip-path="url(#sq)"><rect x="0" y="0" width="1024" height="1024" fill="url(#bgmonolinepages)"/><g filter="url(#dsmonolinepages)"><path d="M 292 182 L 652 182 L 792 322 L 792 782 Q 792 842 732 842 L 292 842 Q 232 842 232 782 L 232 242 Q 232 182 292 182 Z" fill="#ffffff"/><path d="M 652 182 L 792 322 L 652 322 Z" fill="#001f3f" fill-opacity="0.55"/><rect x="302" y="362" width="420" height="36" rx="18" fill="#001f3f"/><rect x="302" y="462" width="420" height="36" rx="18" fill="#001f3f"/><rect x="302" y="562" width="420" height="36" rx="18" fill="#001f3f"/><rect x="302" y="662" width="330" height="36" rx="18" fill="#001f3f"/></g><rect x="0" y="0" width="1024" height="1024" fill="url(#spmonolinepages)"/></g></svg>
