<svg xmlns="http://www.w3.org/2000/svg" viewBox="0 0 1024 1024" width="1024" height="1024" role="img" aria-label="Hologram Appearance"><defs><clipPath id="sq"><path d="M 350.06 0 L 673.94 0 C 774.74 0 825.13 0 879.39 17.15 L 879.39 17.15 C 938.62 38.71 985.29 85.38 1006.85 144.61 C 1024 198.87 1024 249.26 1024 350.06 L 1024 673.94 C 1024 774.74 1024 825.13 1006.85 879.39 L 1006.85 879.39 C 985.29 938.62 938.62 985.29 879.39 1006.85 C 825.13 1024 774.74 1024 673.94 1024 L 350.06 1024 C 249.26 1024 198.87 1024 144.61 1006.85 L 144.61 1006.85 C 85.38 985.29 38.71 938.62 17.15 879.39 C 0 825.13 0 774.74 0 673.94 L 0 350.06 C 0 249.26 0 198.87 17.15 144.61 L 17.15 144.61 C 38.71 85.38 85.38 38.71 144.61 17.15 C 198.87 0 249.26 0 350.06 0 Z"/></clipPath><linearGradient id="bghologramappearance" x1="0" y1="0" x2="1" y2="1"><stop offset="0" stop-color="#9fd0ff"/><stop offset="1" stop-color="#ffb8f2"/></linearGradient><filter id="shhologramappearance" x="-20%" y="-20%" width="140%" height="140%"><feDropShadow dx="0" dy="10" stdDeviation="8" flood-color="#000" flood-opacity=".18"/></filter></defs><g clip-path="url(#sq)"><g filter="url(#shhologramappearance)" transform="rotate(-5 512 512)"><g fill="none" stroke="#ffffff" stroke-width="34" stroke-linecap="round" stroke-linejoin="round"><g transform="rotate(-35 512 512)"><rect x="462" y="430" width="100" height="350" rx="50" fill="none"/><rect x="410" y="306" width="204" height="144" rx="36" fill="none"/><path d="M 414 306 C 424 210 468 136 512 122 C 556 136 600 210 610 306 Z" fill="none"/><path d="M 512 170 C 490 216 480 254 478 306" fill="none" stroke="none" stroke-width="32" stroke-linecap="round" opacity=".62"/></g></g><g transform="rotate(-35 512 512)"><rect x="462" y="430" width="100" height="350" rx="50" fill="url(#bghologramappearance)"/><rect x="410" y="306" width="204" height="144" rx="36" fill="#fff7a8"/><path d="M 414 306 C 424 210 468 136 512 122 C 556 136 600 210 610 306 Z" fill="url(#bghologramappearance)"/><path d="M 512 170 C 490 216 480 254 478 306" fill="none" stroke="#9fd0ff" stroke-width="32" stroke-linecap="round" opacity=".62"/></g></g><path d="M756 162 L884 162 L884 290 Z" fill="#ffffff" opacity=".70"/><circle cx="224" cy="792" r="20" fill="#fff" opacity=".72"/></g></svg>
