<svg xmlns="http://www.w3.org/2000/svg" viewBox="0 0 64 64">
  <defs><linearGradient id="holo" x1="0" y1="0" x2="1" y2="1"><stop offset="0" stop-color="#9fd0ff"/><stop offset="0.33" stop-color="#fea8ff"/><stop offset="0.66" stop-color="#a8ffd9"/><stop offset="1" stop-color="#ffe79a"/></linearGradient><linearGradient id="holoDk" x1="0" y1="0" x2="0" y2="1"><stop offset="0" stop-color="#ffffff" stop-opacity="0.55"/><stop offset="1" stop-color="#ffffff" stop-opacity="0"/></linearGradient></defs>
  <polygon points="16 12 42 12 52 22 52 52 16 52" fill="url(#holo)" stroke="url(#holo)" stroke-width="3.2" stroke-linecap="round" stroke-linejoin="round" />
  <polygon points="42 12 42 22 52 22" fill="url(#holo)" stroke="url(#holo)" stroke-width="3.2" stroke-linecap="round" stroke-linejoin="round" />
  <line x1="22" y1="30" x2="44" y2="30" stroke="url(#holo)" stroke-width="3.2" stroke-linecap="round" stroke-linejoin="round" />
  <line x1="22" y1="38" x2="44" y2="38" stroke="url(#holo)" stroke-width="3.2" stroke-linecap="round" stroke-linejoin="round" />
  <line x1="22" y1="46" x2="38" y2="46" stroke="url(#holo)" stroke-width="3.2" stroke-linecap="round" stroke-linejoin="round" />
  <polygon points="16 12 42 12 52 22 52 52 16 52" fill="none" stroke="url(#holoDk)" stroke-width="1" stroke-linecap="round" stroke-linejoin="round" opacity="0.85" />
  <polygon points="42 12 42 22 52 22" fill="none" stroke="url(#holoDk)" stroke-width="1" stroke-linecap="round" stroke-linejoin="round" opacity="0.85" />
  <line x1="22" y1="30" x2="44" y2="30" stroke="url(#holoDk)" stroke-width="1" stroke-linecap="round" stroke-linejoin="round" opacity="0.85" />
  <line x1="22" y1="38" x2="44" y2="38" stroke="url(#holoDk)" stroke-width="1" stroke-linecap="round" stroke-linejoin="round" opacity="0.85" />
  <line x1="22" y1="46" x2="38" y2="46" stroke="url(#holoDk)" stroke-width="1" stroke-linecap="round" stroke-linejoin="round" opacity="0.85" />
  <path d="M 54 54 L 62 54 L 62 62 Z" fill="#eaf6ff" opacity="0.9" /><path d="M 54 54 L 62 54 L 58 58 Z" fill="#b7d8ef" opacity="0.9" />
</svg>
