<svg xmlns="http://www.w3.org/2000/svg" viewBox="0 0 1024 1024" width="1024" height="1024" role="img" aria-label="Hologram Tools"><defs><clipPath id="sq"><path d="M 350.06 0 L 673.94 0 C 774.74 0 825.13 0 879.39 17.15 L 879.39 17.15 C 938.62 38.71 985.29 85.38 1006.85 144.61 C 1024 198.87 1024 249.26 1024 350.06 L 1024 673.94 C 1024 774.74 1024 825.13 1006.85 879.39 L 1006.85 879.39 C 985.29 938.62 938.62 985.29 879.39 1006.85 C 825.13 1024 774.74 1024 673.94 1024 L 350.06 1024 C 249.26 1024 198.87 1024 144.61 1006.85 L 144.61 1006.85 C 85.38 985.29 38.71 938.62 17.15 879.39 C 0 825.13 0 774.74 0 673.94 L 0 350.06 C 0 249.26 0 198.87 17.15 144.61 L 17.15 144.61 C 38.71 85.38 85.38 38.71 144.61 17.15 C 198.87 0 249.26 0 350.06 0 Z"/></clipPath><linearGradient id="bghologramtools" x1="0" y1="0" x2="1" y2="1"><stop offset="0" stop-color="#c8e7ff"/><stop offset="1" stop-color="#ffd1f5"/></linearGradient><radialGradient id="sphologramtools" cx="0.28" cy="0.22" r="0.6"><stop offset="0" stop-color="#ffffff" stop-opacity=".40"/><stop offset="1" stop-color="#ffffff" stop-opacity="0"/></radialGradient></defs><g clip-path="url(#sq)"><rect width="1024" height="1024" fill="url(#bghologramtools)"/><path d="M86 778 L778 86 H938 V246 L246 938 H86 Z" fill="#ffffff" opacity=".22"/><g transform="rotate(-8 512 512)"><g transform="rotate(38 512 512)"><rect x="474" y="344" width="76" height="440" rx="38" fill="#5a7ea8"/><circle cx="512" cy="812" r="116" fill="#5a7ea8"/><circle cx="512" cy="812" r="46" fill="#d45fc9"/><path d="M 414 274 C 414 172 496 100 598 118 L 526 190 L 588 252 L 662 182 C 694 286 624 374 512 374 C 458 374 414 330 414 274 Z" fill="#5a7ea8"/><circle cx="586" cy="198" r="42" fill="#d45fc9"/></g></g><rect width="1024" height="1024" fill="url(#sphologramtools)"/><path d="M766 116 L908 116 L908 258 Z" fill="#ffffff" opacity=".62"/><path d="M 160 320 Q 400 300 640 330 T 900 320" stroke="#ffffff" stroke-width="2" fill="none" opacity=".45"/><path d="M 908 908 L 908 824 L 830 908 Z" fill="#ffffff" opacity=".56"/></g></svg>
