<svg xmlns="http://www.w3.org/2000/svg" viewBox="0 0 1024 1024" width="1024" height="1024" role="img" aria-label="Media"><defs><clipPath id="sq"><path d="M 350.06 0 L 673.94 0 C 774.74 0 825.13 0 879.39 17.15 L 879.39 17.15 C 938.62 38.71 985.29 85.38 1006.85 144.61 C 1024 198.87 1024 249.26 1024 350.06 L 1024 673.94 C 1024 774.74 1024 825.13 1006.85 879.39 L 1006.85 879.39 C 985.29 938.62 938.62 985.29 879.39 1006.85 C 825.13 1024 774.74 1024 673.94 1024 L 350.06 1024 C 249.26 1024 198.87 1024 144.61 1006.85 L 144.61 1006.85 C 85.38 985.29 38.71 938.62 17.15 879.39 C 0 825.13 0 774.74 0 673.94 L 0 350.06 C 0 249.26 0 198.87 17.15 144.61 L 17.15 144.61 C 38.71 85.38 85.38 38.71 144.61 17.15 C 198.87 0 249.26 0 350.06 0 Z"/></clipPath><linearGradient id="bgclaymationmedia" x1="0" y1="0" x2="0" y2="1"><stop offset="0" stop-color="#ffd87a"/><stop offset="1" stop-color="#ff8a3a"/></linearGradient><radialGradient id="spclaymationmedia" cx="0.28" cy="0.22" r="0.55"><stop offset="0" stop-color="#ffffff" stop-opacity="0.35"/><stop offset="1" stop-color="#ffffff" stop-opacity="0"/></radialGradient><filter id="dsclaymationmedia" x="-10%" y="-10%" width="120%" height="120%"><feDropShadow dx="0" dy="18" stdDeviation="14" flood-color="#000" flood-opacity="0.22"/></filter></defs><g clip-path="url(#sq)"><rect x="0" y="0" width="1024" height="1024" fill="url(#bgclaymationmedia)"/><g filter="url(#dsclaymationmedia)"><rect x="182" y="242" width="660" height="540" rx="64" fill="#ffffff"/><rect x="210" y="270" width="604" height="484" rx="40" fill="#b14a1a" fill-opacity="0.28"/><circle cx="672" cy="392" r="50" fill="#b14a1a"/><path d="M 210 754 L 382 502 L 532 622 L 582 562 L 814 754 Z" fill="#b14a1a"/></g><rect x="0" y="0" width="1024" height="1024" fill="url(#spclaymationmedia)"/></g></svg>
