<svg xmlns="http://www.w3.org/2000/svg" viewBox="0 0 1024 1024" width="1024" height="1024" role="img" aria-label="Sticky Note widget preview">
  <defs>
    <linearGradient id="stickyBg" x1="120" y1="72" x2="900" y2="940" gradientUnits="userSpaceOnUse">
      <stop offset="0" stop-color="#fff7c7"/>
      <stop offset="0.52" stop-color="#ffd96a"/>
      <stop offset="1" stop-color="#ff9f32"/>
    </linearGradient>
    <linearGradient id="stickyPaper" x1="256" y1="176" x2="732" y2="846" gradientUnits="userSpaceOnUse">
      <stop offset="0" stop-color="#fff8c8"/>
      <stop offset="0.6" stop-color="#ffe679"/>
      <stop offset="1" stop-color="#f5bd3c"/>
    </linearGradient>
    <linearGradient id="stickyPeel" x1="650" y1="680" x2="824" y2="850" gradientUnits="userSpaceOnUse">
      <stop offset="0" stop-color="#ffec8d"/>
      <stop offset="0.52" stop-color="#ffc94a"/>
      <stop offset="1" stop-color="#b97014"/>
    </linearGradient>
    <linearGradient id="stickyTape" x1="376" y1="104" x2="596" y2="196" gradientUnits="userSpaceOnUse">
      <stop offset="0" stop-color="#fff5da" stop-opacity="0.82"/>
      <stop offset="1" stop-color="#fff" stop-opacity="0.34"/>
    </linearGradient>
    <filter id="stickyShadow" x="-20%" y="-18%" width="140%" height="150%">
      <feDropShadow dx="0" dy="32" stdDeviation="30" flood-color="#7c4300" flood-opacity="0.28"/>
      <feDropShadow dx="0" dy="6" stdDeviation="8" flood-color="#5e3500" flood-opacity="0.16"/>
    </filter>
  </defs>
  <rect width="1024" height="1024" fill="url(#stickyBg)"/>
  <circle cx="156" cy="150" r="226" fill="#fff" opacity="0.26"/>
  <circle cx="878" cy="874" r="286" fill="#a14d00" opacity="0.12"/>
  <g filter="url(#stickyShadow)" transform="rotate(-6 512 512)">
    <path d="M244 166 H790 V698 L636 858 H244 Z" fill="url(#stickyPaper)"/>
    <path d="M636 698 H790 L636 858 Z" fill="url(#stickyPeel)"/>
    <path d="M636 698 L790 698 L636 858 Z" fill="#794200" opacity="0.14"/>
    <path d="M244 166 H790 V236 H244 Z" fill="#fff7bd" opacity="0.34"/>
    <rect x="392" y="106" width="220" height="98" rx="16" fill="url(#stickyTape)" transform="rotate(4 502 155)"/>
    <path d="M340 368 C424 342 526 350 686 322" fill="none" stroke="#6f4914" stroke-width="34" stroke-linecap="round" opacity="0.72"/>
    <path d="M338 488 C446 464 548 476 664 446" fill="none" stroke="#6f4914" stroke-width="30" stroke-linecap="round" opacity="0.62"/>
    <path d="M338 606 C420 590 500 592 586 568" fill="none" stroke="#6f4914" stroke-width="30" stroke-linecap="round" opacity="0.52"/>
    <path d="M338 716 C400 708 458 704 526 684" fill="none" stroke="#6f4914" stroke-width="24" stroke-linecap="round" opacity="0.36"/>
  </g>
  <g fill="#fff" opacity="0.42">
    <circle cx="806" cy="164" r="18"/>
    <circle cx="858" cy="214" r="9"/>
    <circle cx="168" cy="768" r="12"/>
  </g>
</svg>
