<svg xmlns="http://www.w3.org/2000/svg" viewBox="0 0 1024 1024" width="1024" height="1024" role="img" aria-label="Cross-Stitch Dashboard"><defs><clipPath id="sq"><path d="M 350.06 0 L 673.94 0 C 774.74 0 825.13 0 879.39 17.15 L 879.39 17.15 C 938.62 38.71 985.29 85.38 1006.85 144.61 C 1024 198.87 1024 249.26 1024 350.06 L 1024 673.94 C 1024 774.74 1024 825.13 1006.85 879.39 L 1006.85 879.39 C 985.29 938.62 938.62 985.29 879.39 1006.85 C 825.13 1024 774.74 1024 673.94 1024 L 350.06 1024 C 249.26 1024 198.87 1024 144.61 1006.85 L 144.61 1006.85 C 85.38 985.29 38.71 938.62 17.15 879.39 C 0 825.13 0 774.74 0 673.94 L 0 350.06 C 0 249.26 0 198.87 17.15 144.61 L 17.15 144.61 C 38.71 85.38 85.38 38.71 144.61 17.15 C 198.87 0 249.26 0 350.06 0 Z"/></clipPath></defs><g clip-path="url(#sq)"><path d="M 247.0 247.0 L 281.0 281.0 M 281.0 247.0 L 247.0 281.0" stroke="#e87ca7" stroke-width="8" stroke-linecap="round"/><path d="M 247.0 293.0 L 281.0 327.0 M 281.0 293.0 L 247.0 327.0" stroke="#4a4a6a" stroke-width="8" stroke-linecap="round"/><path d="M 247.0 339.0 L 281.0 373.0 M 281.0 339.0 L 247.0 373.0" stroke="#e87ca7" stroke-width="8" stroke-linecap="round"/><path d="M 293.0 247.0 L 327.0 281.0 M 327.0 247.0 L 293.0 281.0" stroke="#4a4a6a" stroke-width="8" stroke-linecap="round"/><path d="M 293.0 293.0 L 327.0 327.0 M 327.0 293.0 L 293.0 327.0" stroke="#e87ca7" stroke-width="8" stroke-linecap="round"/><path d="M 293.0 339.0 L 327.0 373.0 M 327.0 339.0 L 293.0 373.0" stroke="#4a4a6a" stroke-width="8" stroke-linecap="round"/><path d="M 339.0 247.0 L 373.0 281.0 M 373.0 247.0 L 339.0 281.0" stroke="#e87ca7" stroke-width="8" stroke-linecap="round"/><path d="M 339.0 293.0 L 373.0 327.0 M 373.0 293.0 L 339.0 327.0" stroke="#4a4a6a" stroke-width="8" stroke-linecap="round"/><path d="M 339.0 339.0 L 373.0 373.0 M 373.0 339.0 L 339.0 373.0" stroke="#e87ca7" stroke-width="8" stroke-linecap="round"/><path d="M 547.0 247.0 L 581.0 281.0 M 581.0 247.0 L 547.0 281.0" stroke="#4a4a6a" stroke-width="8" stroke-linecap="round"/><path d="M 547.0 293.0 L 581.0 327.0 M 581.0 293.0 L 547.0 327.0" stroke="#e87ca7" stroke-width="8" stroke-linecap="round"/><path d="M 547.0 339.0 L 581.0 373.0 M 581.0 339.0 L 547.0 373.0" stroke="#4a4a6a" stroke-width="8" stroke-linecap="round"/><path d="M 593.0 247.0 L 627.0 281.0 M 627.0 247.0 L 593.0 281.0" stroke="#e87ca7" stroke-width="8" stroke-linecap="round"/><path d="M 593.0 293.0 L 627.0 327.0 M 627.0 293.0 L 593.0 327.0" stroke="#4a4a6a" stroke-width="8" stroke-linecap="round"/><path d="M 593.0 339.0 L 627.0 373.0 M 627.0 339.0 L 593.0 373.0" stroke="#e87ca7" stroke-width="8" stroke-linecap="round"/><path d="M 639.0 247.0 L 673.0 281.0 M 673.0 247.0 L 639.0 281.0" stroke="#4a4a6a" stroke-width="8" stroke-linecap="round"/><path d="M 639.0 293.0 L 673.0 327.0 M 673.0 293.0 L 639.0 327.0" stroke="#e87ca7" stroke-width="8" stroke-linecap="round"/><path d="M 639.0 339.0 L 673.0 373.0 M 673.0 339.0 L 639.0 373.0" stroke="#4a4a6a" stroke-width="8" stroke-linecap="round"/><path d="M 247.0 547.0 L 281.0 581.0 M 281.0 547.0 L 247.0 581.0" stroke="#e87ca7" stroke-width="8" stroke-linecap="round"/><path d="M 247.0 593.0 L 281.0 627.0 M 281.0 593.0 L 247.0 627.0" stroke="#4a4a6a" stroke-width="8" stroke-linecap="round"/><path d="M 247.0 639.0 L 281.0 673.0 M 281.0 639.0 L 247.0 673.0" stroke="#e87ca7" stroke-width="8" stroke-linecap="round"/><path d="M 293.0 547.0 L 327.0 581.0 M 327.0 547.0 L 293.0 581.0" stroke="#4a4a6a" stroke-width="8" stroke-linecap="round"/><path d="M 293.0 593.0 L 327.0 627.0 M 327.0 593.0 L 293.0 627.0" stroke="#e87ca7" stroke-width="8" stroke-linecap="round"/><path d="M 293.0 639.0 L 327.0 673.0 M 327.0 639.0 L 293.0 673.0" stroke="#4a4a6a" stroke-width="8" stroke-linecap="round"/><path d="M 339.0 547.0 L 373.0 581.0 M 373.0 547.0 L 339.0 581.0" stroke="#e87ca7" stroke-width="8" stroke-linecap="round"/><path d="M 339.0 593.0 L 373.0 627.0 M 373.0 593.0 L 339.0 627.0" stroke="#4a4a6a" stroke-width="8" stroke-linecap="round"/><path d="M 339.0 639.0 L 373.0 673.0 M 373.0 639.0 L 339.0 673.0" stroke="#e87ca7" stroke-width="8" stroke-linecap="round"/><path d="M 547.0 547.0 L 581.0 581.0 M 581.0 547.0 L 547.0 581.0" stroke="#4a4a6a" stroke-width="8" stroke-linecap="round"/><path d="M 547.0 593.0 L 581.0 627.0 M 581.0 593.0 L 547.0 627.0" stroke="#e87ca7" stroke-width="8" stroke-linecap="round"/><path d="M 547.0 639.0 L 581.0 673.0 M 581.0 639.0 L 547.0 673.0" stroke="#4a4a6a" stroke-width="8" stroke-linecap="round"/><path d="M 593.0 547.0 L 627.0 581.0 M 627.0 547.0 L 593.0 581.0" stroke="#e87ca7" stroke-width="8" stroke-linecap="round"/><path d="M 593.0 593.0 L 627.0 627.0 M 627.0 593.0 L 593.0 627.0" stroke="#4a4a6a" stroke-width="8" stroke-linecap="round"/><path d="M 593.0 639.0 L 627.0 673.0 M 627.0 639.0 L 593.0 673.0" stroke="#e87ca7" stroke-width="8" stroke-linecap="round"/><path d="M 639.0 547.0 L 673.0 581.0 M 673.0 547.0 L 639.0 581.0" stroke="#4a4a6a" stroke-width="8" stroke-linecap="round"/><path d="M 639.0 593.0 L 673.0 627.0 M 673.0 593.0 L 639.0 627.0" stroke="#e87ca7" stroke-width="8" stroke-linecap="round"/><path d="M 639.0 639.0 L 673.0 673.0 M 673.0 639.0 L 639.0 673.0" stroke="#4a4a6a" stroke-width="8" stroke-linecap="round"/><path d="M228 824 H796" stroke="#8b725d" stroke-width="10" opacity=".18" stroke-dasharray="16 18"/></g></svg>
