<svg xmlns="http://www.w3.org/2000/svg" viewBox="0 0 64 64">
  <rect x="0" y="0" width="64" height="64" fill="#f3e6cf" />
  <line x1="0" y1="0" x2="64" y2="0" stroke="#d9c59f" stroke-width="0.3" opacity="0.55" /><line x1="0" y1="0" x2="0" y2="64" stroke="#d9c59f" stroke-width="0.3" opacity="0.4" /><line x1="0" y1="2" x2="64" y2="2" stroke="#d9c59f" stroke-width="0.3" opacity="0.55" /><line x1="2" y1="0" x2="2" y2="64" stroke="#d9c59f" stroke-width="0.3" opacity="0.4" /><line x1="0" y1="4" x2="64" y2="4" stroke="#d9c59f" stroke-width="0.3" opacity="0.55" /><line x1="4" y1="0" x2="4" y2="64" stroke="#d9c59f" stroke-width="0.3" opacity="0.4" /><line x1="0" y1="6" x2="64" y2="6" stroke="#d9c59f" stroke-width="0.3" opacity="0.55" /><line x1="6" y1="0" x2="6" y2="64" stroke="#d9c59f" stroke-width="0.3" opacity="0.4" /><line x1="0" y1="8" x2="64" y2="8" stroke="#d9c59f" stroke-width="0.3" opacity="0.55" /><line x1="8" y1="0" x2="8" y2="64" stroke="#d9c59f" stroke-width="0.3" opacity="0.4" /><line x1="0" y1="10" x2="64" y2="10" stroke="#d9c59f" stroke-width="0.3" opacity="0.55" /><line x1="10" y1="0" x2="10" y2="64" stroke="#d9c59f" stroke-width="0.3" opacity="0.4" /><line x1="0" y1="12" x2="64" y2="12" stroke="#d9c59f" stroke-width="0.3" opacity="0.55" /><line x1="12" y1="0" x2="12" y2="64" stroke="#d9c59f" stroke-width="0.3" opacity="0.4" /><line x1="0" y1="14" x2="64" y2="14" stroke="#d9c59f" stroke-width="0.3" opacity="0.55" /><line x1="14" y1="0" x2="14" y2="64" stroke="#d9c59f" stroke-width="0.3" opacity="0.4" /><line x1="0" y1="16" x2="64" y2="16" stroke="#d9c59f" stroke-width="0.3" opacity="0.55" /><line x1="16" y1="0" x2="16" y2="64" stroke="#d9c59f" stroke-width="0.3" opacity="0.4" /><line x1="0" y1="18" x2="64" y2="18" stroke="#d9c59f" stroke-width="0.3" opacity="0.55" /><line x1="18" y1="0" x2="18" y2="64" stroke="#d9c59f" stroke-width="0.3" opacity="0.4" /><line x1="0" y1="20" x2="64" y2="20" stroke="#d9c59f" stroke-width="0.3" opacity="0.55" /><line x1="20" y1="0" x2="20" y2="64" stroke="#d9c59f" stroke-width="0.3" opacity="0.4" /><line x1="0" y1="22" x2="64" y2="22" stroke="#d9c59f" stroke-width="0.3" opacity="0.55" /><line x1="22" y1="0" x2="22" y2="64" stroke="#d9c59f" stroke-width="0.3" opacity="0.4" /><line x1="0" y1="24" x2="64" y2="24" stroke="#d9c59f" stroke-width="0.3" opacity="0.55" /><line x1="24" y1="0" x2="24" y2="64" stroke="#d9c59f" stroke-width="0.3" opacity="0.4" /><line x1="0" y1="26" x2="64" y2="26" stroke="#d9c59f" stroke-width="0.3" opacity="0.55" /><line x1="26" y1="0" x2="26" y2="64" stroke="#d9c59f" stroke-width="0.3" opacity="0.4" /><line x1="0" y1="28" x2="64" y2="28" stroke="#d9c59f" stroke-width="0.3" opacity="0.55" /><line x1="28" y1="0" x2="28" y2="64" stroke="#d9c59f" stroke-width="0.3" opacity="0.4" /><line x1="0" y1="30" x2="64" y2="30" stroke="#d9c59f" stroke-width="0.3" opacity="0.55" /><line x1="30" y1="0" x2="30" y2="64" stroke="#d9c59f" stroke-width="0.3" opacity="0.4" /><line x1="0" y1="32" x2="64" y2="32" stroke="#d9c59f" stroke-width="0.3" opacity="0.55" /><line x1="32" y1="0" x2="32" y2="64" stroke="#d9c59f" stroke-width="0.3" opacity="0.4" /><line x1="0" y1="34" x2="64" y2="34" stroke="#d9c59f" stroke-width="0.3" opacity="0.55" /><line x1="34" y1="0" x2="34" y2="64" stroke="#d9c59f" stroke-width="0.3" opacity="0.4" /><line x1="0" y1="36" x2="64" y2="36" stroke="#d9c59f" stroke-width="0.3" opacity="0.55" /><line x1="36" y1="0" x2="36" y2="64" stroke="#d9c59f" stroke-width="0.3" opacity="0.4" /><line x1="0" y1="38" x2="64" y2="38" stroke="#d9c59f" stroke-width="0.3" opacity="0.55" /><line x1="38" y1="0" x2="38" y2="64" stroke="#d9c59f" stroke-width="0.3" opacity="0.4" /><line x1="0" y1="40" x2="64" y2="40" stroke="#d9c59f" stroke-width="0.3" opacity="0.55" /><line x1="40" y1="0" x2="40" y2="64" stroke="#d9c59f" stroke-width="0.3" opacity="0.4" /><line x1="0" y1="42" x2="64" y2="42" stroke="#d9c59f" stroke-width="0.3" opacity="0.55" /><line x1="42" y1="0" x2="42" y2="64" stroke="#d9c59f" stroke-width="0.3" opacity="0.4" /><line x1="0" y1="44" x2="64" y2="44" stroke="#d9c59f" stroke-width="0.3" opacity="0.55" /><line x1="44" y1="0" x2="44" y2="64" stroke="#d9c59f" stroke-width="0.3" opacity="0.4" /><line x1="0" y1="46" x2="64" y2="46" stroke="#d9c59f" stroke-width="0.3" opacity="0.55" /><line x1="46" y1="0" x2="46" y2="64" stroke="#d9c59f" stroke-width="0.3" opacity="0.4" /><line x1="0" y1="48" x2="64" y2="48" stroke="#d9c59f" stroke-width="0.3" opacity="0.55" /><line x1="48" y1="0" x2="48" y2="64" stroke="#d9c59f" stroke-width="0.3" opacity="0.4" /><line x1="0" y1="50" x2="64" y2="50" stroke="#d9c59f" stroke-width="0.3" opacity="0.55" /><line x1="50" y1="0" x2="50" y2="64" stroke="#d9c59f" stroke-width="0.3" opacity="0.4" /><line x1="0" y1="52" x2="64" y2="52" stroke="#d9c59f" stroke-width="0.3" opacity="0.55" /><line x1="52" y1="0" x2="52" y2="64" stroke="#d9c59f" stroke-width="0.3" opacity="0.4" /><line x1="0" y1="54" x2="64" y2="54" stroke="#d9c59f" stroke-width="0.3" opacity="0.55" /><line x1="54" y1="0" x2="54" y2="64" stroke="#d9c59f" stroke-width="0.3" opacity="0.4" /><line x1="0" y1="56" x2="64" y2="56" stroke="#d9c59f" stroke-width="0.3" opacity="0.55" /><line x1="56" y1="0" x2="56" y2="64" stroke="#d9c59f" stroke-width="0.3" opacity="0.4" /><line x1="0" y1="58" x2="64" y2="58" stroke="#d9c59f" stroke-width="0.3" opacity="0.55" /><line x1="58" y1="0" x2="58" y2="64" stroke="#d9c59f" stroke-width="0.3" opacity="0.4" /><line x1="0" y1="60" x2="64" y2="60" stroke="#d9c59f" stroke-width="0.3" opacity="0.55" /><line x1="60" y1="0" x2="60" y2="64" stroke="#d9c59f" stroke-width="0.3" opacity="0.4" /><line x1="0" y1="62" x2="64" y2="62" stroke="#d9c59f" stroke-width="0.3" opacity="0.55" /><line x1="62" y1="0" x2="62" y2="64" stroke="#d9c59f" stroke-width="0.3" opacity="0.4" />
  <line x1="34.4" y1="30.4" x2="37.6" y2="33.6" stroke="#e87ca7" stroke-width="1.4" stroke-linecap="round" /><line x1="34.4" y1="33.6" x2="37.6" y2="30.4" stroke="#e87ca7" stroke-width="1.4" stroke-linecap="round" /><line x1="32.4" y1="33.864101615137756" x2="35.6" y2="37.06410161513776" stroke="#e87ca7" stroke-width="1.4" stroke-linecap="round" /><line x1="32.4" y1="37.06410161513776" x2="35.6" y2="33.864101615137756" stroke="#e87ca7" stroke-width="1.4" stroke-linecap="round" /><line x1="28.4" y1="33.864101615137756" x2="31.6" y2="37.06410161513776" stroke="#e87ca7" stroke-width="1.4" stroke-linecap="round" /><line x1="28.4" y1="37.06410161513776" x2="31.6" y2="33.864101615137756" stroke="#e87ca7" stroke-width="1.4" stroke-linecap="round" /><line x1="26.4" y1="30.4" x2="29.6" y2="33.6" stroke="#e87ca7" stroke-width="1.4" stroke-linecap="round" /><line x1="26.4" y1="33.6" x2="29.6" y2="30.4" stroke="#e87ca7" stroke-width="1.4" stroke-linecap="round" /><line x1="28.4" y1="26.935898384862245" x2="31.6" y2="30.135898384862248" stroke="#e87ca7" stroke-width="1.4" stroke-linecap="round" /><line x1="28.4" y1="30.135898384862248" x2="31.6" y2="26.935898384862245" stroke="#e87ca7" stroke-width="1.4" stroke-linecap="round" /><line x1="32.4" y1="26.935898384862245" x2="35.6" y2="30.135898384862248" stroke="#e87ca7" stroke-width="1.4" stroke-linecap="round" /><line x1="32.4" y1="30.135898384862248" x2="35.6" y2="26.935898384862245" stroke="#e87ca7" stroke-width="1.4" stroke-linecap="round" /><line x1="42.4" y1="30.4" x2="45.6" y2="33.6" stroke="#e87ca7" stroke-width="1.4" stroke-linecap="round" /><line x1="42.4" y1="33.6" x2="45.6" y2="30.4" stroke="#e87ca7" stroke-width="1.4" stroke-linecap="round" /><line x1="41.6763114494309" y1="34.50424171990802" x2="44.8763114494309" y2="37.704241719908026" stroke="#e87ca7" stroke-width="1.4" stroke-linecap="round" /><line x1="41.6763114494309" y1="37.704241719908026" x2="44.8763114494309" y2="34.50424171990802" stroke="#e87ca7" stroke-width="1.4" stroke-linecap="round" /><line x1="39.59253331742774" y1="38.11345131623847" x2="42.79253331742774" y2="41.31345131623847" stroke="#e87ca7" stroke-width="1.4" stroke-linecap="round" /><line x1="39.59253331742774" y1="41.31345131623847" x2="42.79253331742774" y2="38.11345131623847" stroke="#e87ca7" stroke-width="1.4" stroke-linecap="round" /><line x1="36.4" y1="40.79230484541326" x2="39.6" y2="43.992304845413265" stroke="#e87ca7" stroke-width="1.4" stroke-linecap="round" /><line x1="36.4" y1="43.992304845413265" x2="39.6" y2="40.79230484541326" stroke="#e87ca7" stroke-width="1.4" stroke-linecap="round" /><line x1="32.48377813200317" y1="42.21769303614649" x2="35.68377813200317" y2="45.417693036146495" stroke="#e87ca7" stroke-width="1.4" stroke-linecap="round" /><line x1="32.48377813200317" y1="45.417693036146495" x2="35.68377813200317" y2="42.21769303614649" stroke="#e87ca7" stroke-width="1.4" stroke-linecap="round" /><line x1="28.316221867996834" y1="42.21769303614649" x2="31.516221867996837" y2="45.417693036146495" stroke="#e87ca7" stroke-width="1.4" stroke-linecap="round" /><line x1="28.316221867996834" y1="45.417693036146495" x2="31.516221867996837" y2="42.21769303614649" stroke="#e87ca7" stroke-width="1.4" stroke-linecap="round" /><line x1="24.4" y1="40.79230484541326" x2="27.6" y2="43.992304845413265" stroke="#e87ca7" stroke-width="1.4" stroke-linecap="round" /><line x1="24.4" y1="43.992304845413265" x2="27.6" y2="40.79230484541326" stroke="#e87ca7" stroke-width="1.4" stroke-linecap="round" /><line x1="21.207466682572264" y1="38.113451316238475" x2="24.407466682572267" y2="41.31345131623848" stroke="#e87ca7" stroke-width="1.4" stroke-linecap="round" /><line x1="21.207466682572264" y1="41.31345131623848" x2="24.407466682572267" y2="38.113451316238475" stroke="#e87ca7" stroke-width="1.4" stroke-linecap="round" /><line x1="19.1236885505691" y1="34.50424171990802" x2="22.323688550569102" y2="37.704241719908026" stroke="#e87ca7" stroke-width="1.4" stroke-linecap="round" /><line x1="19.1236885505691" y1="37.704241719908026" x2="22.323688550569102" y2="34.50424171990802" stroke="#e87ca7" stroke-width="1.4" stroke-linecap="round" /><line x1="18.4" y1="30.4" x2="21.6" y2="33.6" stroke="#e87ca7" stroke-width="1.4" stroke-linecap="round" /><line x1="18.4" y1="33.6" x2="21.6" y2="30.4" stroke="#e87ca7" stroke-width="1.4" stroke-linecap="round" /><line x1="19.1236885505691" y1="26.295758280091974" x2="22.323688550569102" y2="29.495758280091977" stroke="#e87ca7" stroke-width="1.4" stroke-linecap="round" /><line x1="19.1236885505691" y1="29.495758280091977" x2="22.323688550569102" y2="26.295758280091974" stroke="#e87ca7" stroke-width="1.4" stroke-linecap="round" /><line x1="21.20746668257226" y1="22.68654868376153" x2="24.407466682572263" y2="25.886548683761532" stroke="#e87ca7" stroke-width="1.4" stroke-linecap="round" /><line x1="21.20746668257226" y1="25.886548683761532" x2="24.407466682572263" y2="22.68654868376153" stroke="#e87ca7" stroke-width="1.4" stroke-linecap="round" /><line x1="24.39999999999999" y1="20.007695154586738" x2="27.599999999999994" y2="23.20769515458674" stroke="#e87ca7" stroke-width="1.4" stroke-linecap="round" /><line x1="24.39999999999999" y1="23.20769515458674" x2="27.599999999999994" y2="20.007695154586738" stroke="#e87ca7" stroke-width="1.4" stroke-linecap="round" /><line x1="28.316221867996834" y1="18.582306963853505" x2="31.516221867996837" y2="21.782306963853507" stroke="#e87ca7" stroke-width="1.4" stroke-linecap="round" /><line x1="28.316221867996834" y1="21.782306963853507" x2="31.516221867996837" y2="18.582306963853505" stroke="#e87ca7" stroke-width="1.4" stroke-linecap="round" /><line x1="32.48377813200316" y1="18.5823069638535" x2="35.68377813200316" y2="21.782306963853504" stroke="#e87ca7" stroke-width="1.4" stroke-linecap="round" /><line x1="32.48377813200316" y1="21.782306963853504" x2="35.68377813200316" y2="18.5823069638535" stroke="#e87ca7" stroke-width="1.4" stroke-linecap="round" /><line x1="36.4" y1="20.007695154586735" x2="39.6" y2="23.207695154586737" stroke="#e87ca7" stroke-width="1.4" stroke-linecap="round" /><line x1="36.4" y1="23.207695154586737" x2="39.6" y2="20.007695154586735" stroke="#e87ca7" stroke-width="1.4" stroke-linecap="round" /><line x1="39.59253331742773" y1="22.686548683761522" x2="42.79253331742773" y2="25.886548683761525" stroke="#e87ca7" stroke-width="1.4" stroke-linecap="round" /><line x1="39.59253331742773" y1="25.886548683761525" x2="42.79253331742773" y2="22.686548683761522" stroke="#e87ca7" stroke-width="1.4" stroke-linecap="round" /><line x1="41.6763114494309" y1="26.295758280091967" x2="44.8763114494309" y2="29.49575828009197" stroke="#e87ca7" stroke-width="1.4" stroke-linecap="round" /><line x1="41.6763114494309" y1="29.49575828009197" x2="44.8763114494309" y2="26.295758280091967" stroke="#e87ca7" stroke-width="1.4" stroke-linecap="round" /><line x1="50.4" y1="30.4" x2="53.6" y2="33.6" stroke="#e87ca7" stroke-width="1.4" stroke-linecap="round" /><line x1="50.4" y1="33.6" x2="53.6" y2="30.4" stroke="#e87ca7" stroke-width="1.4" stroke-linecap="round" /><line x1="49.99059882504989" y1="34.4259704017732" x2="53.19059882504989" y2="37.6259704017732" stroke="#e87ca7" stroke-width="1.4" stroke-linecap="round" /><line x1="49.99059882504989" y1="37.6259704017732" x2="53.19059882504989" y2="34.4259704017732" stroke="#e87ca7" stroke-width="1.4" stroke-linecap="round" /><line x1="48.77915623240461" y1="38.28711710226637" x2="51.97915623240461" y2="41.487117102266375" stroke="#e87ca7" stroke-width="1.4" stroke-linecap="round" /><line x1="48.77915623240461" y1="41.487117102266375" x2="51.97915623240461" y2="38.28711710226637" stroke="#e87ca7" stroke-width="1.4" stroke-linecap="round" /><line x1="46.81526882414553" y1="41.825364301895846" x2="50.01526882414553" y2="45.02536430189585" stroke="#e87ca7" stroke-width="1.4" stroke-linecap="round" /><line x1="46.81526882414553" y1="45.02536430189585" x2="50.01526882414553" y2="41.825364301895846" stroke="#e87ca7" stroke-width="1.4" stroke-linecap="round" /><line x1="44.17933838151373" y1="44.8958557445824" x2="47.37933838151373" y2="48.0958557445824" stroke="#e87ca7" stroke-width="1.4" stroke-linecap="round" /><line x1="44.17933838151373" y1="48.0958557445824" x2="47.37933838151373" y2="44.8958557445824" stroke="#e87ca7" stroke-width="1.4" stroke-linecap="round" /><line x1="40.97928020653925" y1="47.37288514989502" x2="44.179280206539254" y2="50.57288514989502" stroke="#e87ca7" stroke-width="1.4" stroke-linecap="round" /><line x1="40.97928020653925" y1="50.57288514989502" x2="44.179280206539254" y2="47.37288514989502" stroke="#e87ca7" stroke-width="1.4" stroke-linecap="round" /><line x1="37.346105056896405" y1="49.1550426429416" x2="40.54610505689641" y2="52.355042642941605" stroke="#e87ca7" stroke-width="1.4" stroke-linecap="round" /><line x1="37.346105056896405" y1="52.355042642941605" x2="40.54610505689641" y2="49.1550426429416" stroke="#e87ca7" stroke-width="1.4" stroke-linecap="round" /><line x1="33.42855555009153" y1="50.169366486562225" x2="36.628555550091534" y2="53.36936648656223" stroke="#e87ca7" stroke-width="1.4" stroke-linecap="round" /><line x1="33.42855555009153" y1="53.36936648656223" x2="36.628555550091534" y2="50.169366486562225" stroke="#e87ca7" stroke-width="1.4" stroke-linecap="round" /><line x1="29.387016623225747" y1="50.374330143421055" x2="32.58701662322575" y2="53.57433014342106" stroke="#e87ca7" stroke-width="1.4" stroke-linecap="round" /><line x1="29.387016623225747" y1="53.57433014342106" x2="32.58701662322575" y2="50.374330143421055" stroke="#e87ca7" stroke-width="1.4" stroke-linecap="round" /><line x1="25.386949354825585" y1="49.76154237732408" x2="28.586949354825588" y2="52.961542377324086" stroke="#e87ca7" stroke-width="1.4" stroke-linecap="round" /><line x1="25.386949354825585" y1="52.961542377324086" x2="28.586949354825588" y2="49.76154237732408" stroke="#e87ca7" stroke-width="1.4" stroke-linecap="round" /><line x1="21.59211696884731" y1="48.35609079141483" x2="24.792116968847314" y2="51.55609079141483" stroke="#e87ca7" stroke-width="1.4" stroke-linecap="round" /><line x1="21.59211696884731" y1="51.55609079141483" x2="24.792116968847314" y2="48.35609079141483" stroke="#e87ca7" stroke-width="1.4" stroke-linecap="round" /><line x1="18.157880349046742" y1="46.21551473875397" x2="21.357880349046745" y2="49.41551473875397" stroke="#e87ca7" stroke-width="1.4" stroke-linecap="round" /><line x1="18.157880349046742" y1="49.41551473875397" x2="21.357880349046745" y2="46.21551473875397" stroke="#e87ca7" stroke-width="1.4" stroke-linecap="round" /><line x1="15.224837546144181" y1="43.427449654444445" x2="18.424837546144182" y2="46.62744965444445" stroke="#e87ca7" stroke-width="1.4" stroke-linecap="round" /><line x1="15.224837546144181" y1="46.62744965444445" x2="18.424837546144182" y2="43.427449654444445" stroke="#e87ca7" stroke-width="1.4" stroke-linecap="round" /><line x1="12.91306767710836" y1="40.10603925062162" x2="16.11306767710836" y2="43.30603925062162" stroke="#e87ca7" stroke-width="1.4" stroke-linecap="round" /><line x1="12.91306767710836" y1="43.30603925062162" x2="16.11306767710836" y2="40.10603925062162" stroke="#e87ca7" stroke-width="1.4" stroke-linecap="round" /><line x1="11.317214871999022" y1="36.38726245946716" x2="14.517214871999021" y2="39.58726245946716" stroke="#e87ca7" stroke-width="1.4" stroke-linecap="round" /><line x1="11.317214871999022" y1="39.58726245946716" x2="14.517214871999021" y2="36.38726245946716" stroke="#e87ca7" stroke-width="1.4" stroke-linecap="round" /><line x1="10.502613532162096" y1="32.42336643974864" x2="13.702613532162095" y2="35.623366439748644" stroke="#e87ca7" stroke-width="1.4" stroke-linecap="round" /><line x1="10.502613532162096" y1="35.623366439748644" x2="13.702613532162095" y2="32.42336643974864" stroke="#e87ca7" stroke-width="1.4" stroke-linecap="round" /><line x1="10.502613532162096" y1="28.376633560251356" x2="13.702613532162095" y2="31.57663356025136" stroke="#e87ca7" stroke-width="1.4" stroke-linecap="round" /><line x1="10.502613532162096" y1="31.57663356025136" x2="13.702613532162095" y2="28.376633560251356" stroke="#e87ca7" stroke-width="1.4" stroke-linecap="round" /><line x1="11.317214871999019" y1="24.412737540532852" x2="14.517214871999018" y2="27.612737540532855" stroke="#e87ca7" stroke-width="1.4" stroke-linecap="round" /><line x1="11.317214871999019" y1="27.612737540532855" x2="14.517214871999018" y2="24.412737540532852" stroke="#e87ca7" stroke-width="1.4" stroke-linecap="round" /><line x1="12.91306767710836" y1="20.693960749378377" x2="16.11306767710836" y2="23.89396074937838" stroke="#e87ca7" stroke-width="1.4" stroke-linecap="round" /><line x1="12.91306767710836" y1="23.89396074937838" x2="16.11306767710836" y2="20.693960749378377" stroke="#e87ca7" stroke-width="1.4" stroke-linecap="round" /><line x1="15.224837546144178" y1="17.37255034555556" x2="18.42483754614418" y2="20.572550345555563" stroke="#e87ca7" stroke-width="1.4" stroke-linecap="round" /><line x1="15.224837546144178" y1="20.572550345555563" x2="18.42483754614418" y2="17.37255034555556" stroke="#e87ca7" stroke-width="1.4" stroke-linecap="round" /><line x1="18.157880349046746" y1="14.584485261246028" x2="21.35788034904675" y2="17.78448526124603" stroke="#e87ca7" stroke-width="1.4" stroke-linecap="round" /><line x1="18.157880349046746" y1="17.78448526124603" x2="21.35788034904675" y2="14.584485261246028" stroke="#e87ca7" stroke-width="1.4" stroke-linecap="round" /><line x1="21.5921169688473" y1="12.443909208585174" x2="24.792116968847303" y2="15.643909208585173" stroke="#e87ca7" stroke-width="1.4" stroke-linecap="round" /><line x1="21.5921169688473" y1="15.643909208585173" x2="24.792116968847303" y2="12.443909208585174" stroke="#e87ca7" stroke-width="1.4" stroke-linecap="round" /><line x1="25.38694935482559" y1="11.038457622675915" x2="28.58694935482559" y2="14.238457622675915" stroke="#e87ca7" stroke-width="1.4" stroke-linecap="round" /><line x1="25.38694935482559" y1="14.238457622675915" x2="28.58694935482559" y2="11.038457622675915" stroke="#e87ca7" stroke-width="1.4" stroke-linecap="round" /><line x1="29.387016623225744" y1="10.425669856578944" x2="32.58701662322574" y2="13.625669856578943" stroke="#e87ca7" stroke-width="1.4" stroke-linecap="round" /><line x1="29.387016623225744" y1="13.625669856578943" x2="32.58701662322574" y2="10.425669856578944" stroke="#e87ca7" stroke-width="1.4" stroke-linecap="round" /><line x1="33.42855555009153" y1="10.630633513437774" x2="36.628555550091534" y2="13.830633513437773" stroke="#e87ca7" stroke-width="1.4" stroke-linecap="round" /><line x1="33.42855555009153" y1="13.830633513437773" x2="36.628555550091534" y2="10.630633513437774" stroke="#e87ca7" stroke-width="1.4" stroke-linecap="round" /><line x1="37.346105056896384" y1="11.644957357058386" x2="40.54610505689639" y2="14.844957357058385" stroke="#e87ca7" stroke-width="1.4" stroke-linecap="round" /><line x1="37.346105056896384" y1="14.844957357058385" x2="40.54610505689639" y2="11.644957357058386" stroke="#e87ca7" stroke-width="1.4" stroke-linecap="round" /><line x1="40.97928020653925" y1="13.42711485010498" x2="44.179280206539254" y2="16.62711485010498" stroke="#e87ca7" stroke-width="1.4" stroke-linecap="round" /><line x1="40.97928020653925" y1="16.62711485010498" x2="44.179280206539254" y2="13.42711485010498" stroke="#e87ca7" stroke-width="1.4" stroke-linecap="round" /><line x1="44.17933838151373" y1="15.9041442554176" x2="47.37933838151373" y2="19.1041442554176" stroke="#e87ca7" stroke-width="1.4" stroke-linecap="round" /><line x1="44.17933838151373" y1="19.1041442554176" x2="47.37933838151373" y2="15.9041442554176" stroke="#e87ca7" stroke-width="1.4" stroke-linecap="round" /><line x1="46.81526882414553" y1="18.97463569810415" x2="50.01526882414553" y2="22.174635698104154" stroke="#e87ca7" stroke-width="1.4" stroke-linecap="round" /><line x1="46.81526882414553" y1="22.174635698104154" x2="50.01526882414553" y2="18.97463569810415" stroke="#e87ca7" stroke-width="1.4" stroke-linecap="round" /><line x1="48.77915623240461" y1="22.512882897733625" x2="51.97915623240461" y2="25.71288289773363" stroke="#e87ca7" stroke-width="1.4" stroke-linecap="round" /><line x1="48.77915623240461" y1="25.71288289773363" x2="51.97915623240461" y2="22.512882897733625" stroke="#e87ca7" stroke-width="1.4" stroke-linecap="round" /><line x1="49.99059882504989" y1="26.37402959822679" x2="53.19059882504989" y2="29.574029598226794" stroke="#e87ca7" stroke-width="1.4" stroke-linecap="round" /><line x1="49.99059882504989" y1="29.574029598226794" x2="53.19059882504989" y2="26.37402959822679" stroke="#e87ca7" stroke-width="1.4" stroke-linecap="round" />
</svg>
