<svg xmlns="http://www.w3.org/2000/svg" viewBox="0 0 1024 1024" width="1024" height="1024" role="img" aria-label="Cross-Stitch Media"><defs><clipPath id="sq"><path d="M 350.06 0 L 673.94 0 C 774.74 0 825.13 0 879.39 17.15 L 879.39 17.15 C 938.62 38.71 985.29 85.38 1006.85 144.61 C 1024 198.87 1024 249.26 1024 350.06 L 1024 673.94 C 1024 774.74 1024 825.13 1006.85 879.39 L 1006.85 879.39 C 985.29 938.62 938.62 985.29 879.39 1006.85 C 825.13 1024 774.74 1024 673.94 1024 L 350.06 1024 C 249.26 1024 198.87 1024 144.61 1006.85 L 144.61 1006.85 C 85.38 985.29 38.71 938.62 17.15 879.39 C 0 825.13 0 774.74 0 673.94 L 0 350.06 C 0 249.26 0 198.87 17.15 144.61 L 17.15 144.61 C 38.71 85.38 85.38 38.71 144.61 17.15 C 198.87 0 249.26 0 350.06 0 Z"/></clipPath></defs><g clip-path="url(#sq)"><path d="M 633.0 313.0 L 667.0 347.0 M 667.0 313.0 L 633.0 347.0" stroke="#e87ca7" stroke-width="8" stroke-linecap="round"/><path d="M 683.0 313.0 L 717.0 347.0 M 717.0 313.0 L 683.0 347.0" stroke="#4a4a6a" stroke-width="8" stroke-linecap="round"/><path d="M 658.0 363.0 L 692.0 397.0 M 692.0 363.0 L 658.0 397.0" stroke="#e87ca7" stroke-width="8" stroke-linecap="round"/><path d="M 293.0 653.0 L 327.0 687.0 M 327.0 653.0 L 293.0 687.0" stroke="#4a4a6a" stroke-width="8" stroke-linecap="round"/><path d="M 363.0 583.0 L 397.0 617.0 M 397.0 583.0 L 363.0 617.0" stroke="#e87ca7" stroke-width="8" stroke-linecap="round"/><path d="M 433.0 653.0 L 467.0 687.0 M 467.0 653.0 L 433.0 687.0" stroke="#4a4a6a" stroke-width="8" stroke-linecap="round"/><path d="M 523.0 553.0 L 557.0 587.0 M 557.0 553.0 L 523.0 587.0" stroke="#e87ca7" stroke-width="8" stroke-linecap="round"/><path d="M 623.0 653.0 L 657.0 687.0 M 657.0 653.0 L 623.0 687.0" stroke="#4a4a6a" stroke-width="8" stroke-linecap="round"/><path d="M228 824 H796" stroke="#8b725d" stroke-width="10" opacity=".18" stroke-dasharray="16 18"/></g></svg>
