<svg xmlns="http://www.w3.org/2000/svg" viewBox="0 0 1024 1024" width="1024" height="1024" role="img" aria-label="Cross-Stitch Profile"><defs><clipPath id="sq"><path d="M 350.06 0 L 673.94 0 C 774.74 0 825.13 0 879.39 17.15 L 879.39 17.15 C 938.62 38.71 985.29 85.38 1006.85 144.61 C 1024 198.87 1024 249.26 1024 350.06 L 1024 673.94 C 1024 774.74 1024 825.13 1006.85 879.39 L 1006.85 879.39 C 985.29 938.62 938.62 985.29 879.39 1006.85 C 825.13 1024 774.74 1024 673.94 1024 L 350.06 1024 C 249.26 1024 198.87 1024 144.61 1006.85 L 144.61 1006.85 C 85.38 985.29 38.71 938.62 17.15 879.39 C 0 825.13 0 774.74 0 673.94 L 0 350.06 C 0 249.26 0 198.87 17.15 144.61 L 17.15 144.61 C 38.71 85.38 85.38 38.71 144.61 17.15 C 198.87 0 249.26 0 350.06 0 Z"/></clipPath><linearGradient id="bgcrossstitchprofile" x1="0" y1="0" x2="0" y2="1"><stop offset="0" stop-color="#f6e7d7"/><stop offset="1" stop-color="#d9c1a4"/></linearGradient></defs><g clip-path="url(#sq)"><rect width="1024" height="1024" fill="url(#bgcrossstitchprofile)"/><path d="M 0 0 V 1024 M 0 0 H 1024" stroke="#8b725d" stroke-width="4" opacity=".10"/><path d="M 48 0 V 1024 M 0 48 H 1024" stroke="#8b725d" stroke-width="4" opacity=".10"/><path d="M 96 0 V 1024 M 0 96 H 1024" stroke="#8b725d" stroke-width="4" opacity=".10"/><path d="M 144 0 V 1024 M 0 144 H 1024" stroke="#8b725d" stroke-width="4" opacity=".10"/><path d="M 192 0 V 1024 M 0 192 H 1024" stroke="#8b725d" stroke-width="4" opacity=".10"/><path d="M 240 0 V 1024 M 0 240 H 1024" stroke="#8b725d" stroke-width="4" opacity=".10"/><path d="M 288 0 V 1024 M 0 288 H 1024" stroke="#8b725d" stroke-width="4" opacity=".10"/><path d="M 336 0 V 1024 M 0 336 H 1024" stroke="#8b725d" stroke-width="4" opacity=".10"/><path d="M 384 0 V 1024 M 0 384 H 1024" stroke="#8b725d" stroke-width="4" opacity=".10"/><path d="M 432 0 V 1024 M 0 432 H 1024" stroke="#8b725d" stroke-width="4" opacity=".10"/><path d="M 480 0 V 1024 M 0 480 H 1024" stroke="#8b725d" stroke-width="4" opacity=".10"/><path d="M 528 0 V 1024 M 0 528 H 1024" stroke="#8b725d" stroke-width="4" opacity=".10"/><path d="M 576 0 V 1024 M 0 576 H 1024" stroke="#8b725d" stroke-width="4" opacity=".10"/><path d="M 624 0 V 1024 M 0 624 H 1024" stroke="#8b725d" stroke-width="4" opacity=".10"/><path d="M 672 0 V 1024 M 0 672 H 1024" stroke="#8b725d" stroke-width="4" opacity=".10"/><path d="M 720 0 V 1024 M 0 720 H 1024" stroke="#8b725d" stroke-width="4" opacity=".10"/><path d="M 768 0 V 1024 M 0 768 H 1024" stroke="#8b725d" stroke-width="4" opacity=".10"/><path d="M 816 0 V 1024 M 0 816 H 1024" stroke="#8b725d" stroke-width="4" opacity=".10"/><path d="M 864 0 V 1024 M 0 864 H 1024" stroke="#8b725d" stroke-width="4" opacity=".10"/><path d="M 912 0 V 1024 M 0 912 H 1024" stroke="#8b725d" stroke-width="4" opacity=".10"/><path d="M 960 0 V 1024 M 0 960 H 1024" stroke="#8b725d" stroke-width="4" opacity=".10"/><path d="M 1008 0 V 1024 M 0 1008 H 1024" stroke="#8b725d" stroke-width="4" opacity=".10"/><path d="M 495.0 373.0 L 529.0 407.0 M 529.0 373.0 L 495.0 407.0" stroke="#e87ca7" stroke-width="8" stroke-linecap="round"/><path d="M 433.0 573.0 L 467.0 607.0 M 467.0 573.0 L 433.0 607.0" stroke="#4a4a6a" stroke-width="8" stroke-linecap="round"/><path d="M 495.0 543.0 L 529.0 577.0 M 529.0 543.0 L 495.0 577.0" stroke="#e87ca7" stroke-width="8" stroke-linecap="round"/><path d="M 557.0 573.0 L 591.0 607.0 M 591.0 573.0 L 557.0 607.0" stroke="#4a4a6a" stroke-width="8" stroke-linecap="round"/><path d="M 413.0 663.0 L 447.0 697.0 M 447.0 663.0 L 413.0 697.0" stroke="#e87ca7" stroke-width="8" stroke-linecap="round"/><path d="M 495.0 683.0 L 529.0 717.0 M 529.0 683.0 L 495.0 717.0" stroke="#4a4a6a" stroke-width="8" stroke-linecap="round"/><path d="M 577.0 663.0 L 611.0 697.0 M 611.0 663.0 L 577.0 697.0" stroke="#e87ca7" stroke-width="8" stroke-linecap="round"/><rect x="116" y="116" width="792" height="792" rx="92" fill="none" stroke="#8b725d" stroke-width="12" opacity=".22" stroke-dasharray="18 18"/></g></svg>
