<svg xmlns="http://www.w3.org/2000/svg" viewBox="0 0 1024 1024" width="1024" height="1024" role="img" aria-label="Cross-Stitch Recycle-Bin"><defs><clipPath id="sq"><path d="M 350.06 0 L 673.94 0 C 774.74 0 825.13 0 879.39 17.15 L 879.39 17.15 C 938.62 38.71 985.29 85.38 1006.85 144.61 C 1024 198.87 1024 249.26 1024 350.06 L 1024 673.94 C 1024 774.74 1024 825.13 1006.85 879.39 L 1006.85 879.39 C 985.29 938.62 938.62 985.29 879.39 1006.85 C 825.13 1024 774.74 1024 673.94 1024 L 350.06 1024 C 249.26 1024 198.87 1024 144.61 1006.85 L 144.61 1006.85 C 85.38 985.29 38.71 938.62 17.15 879.39 C 0 825.13 0 774.74 0 673.94 L 0 350.06 C 0 249.26 0 198.87 17.15 144.61 L 17.15 144.61 C 38.71 85.38 85.38 38.71 144.61 17.15 C 198.87 0 249.26 0 350.06 0 Z"/></clipPath></defs><g clip-path="url(#sq)"><path d="M 383.0 293.0 L 417.0 327.0 M 417.0 293.0 L 383.0 327.0" stroke="#e87ca7" stroke-width="8" stroke-linecap="round"/><path d="M 463.0 293.0 L 497.0 327.0 M 497.0 293.0 L 463.0 327.0" stroke="#4a4a6a" stroke-width="8" stroke-linecap="round"/><path d="M 543.0 293.0 L 577.0 327.0 M 577.0 293.0 L 543.0 327.0" stroke="#e87ca7" stroke-width="8" stroke-linecap="round"/><path d="M 623.0 293.0 L 657.0 327.0 M 657.0 293.0 L 623.0 327.0" stroke="#4a4a6a" stroke-width="8" stroke-linecap="round"/><path d="M 383.0 373.0 L 417.0 407.0 M 417.0 373.0 L 383.0 407.0" stroke="#e87ca7" stroke-width="8" stroke-linecap="round"/><path d="M 463.0 373.0 L 497.0 407.0 M 497.0 373.0 L 463.0 407.0" stroke="#4a4a6a" stroke-width="8" stroke-linecap="round"/><path d="M 543.0 373.0 L 577.0 407.0 M 577.0 373.0 L 543.0 407.0" stroke="#e87ca7" stroke-width="8" stroke-linecap="round"/><path d="M 623.0 373.0 L 657.0 407.0 M 657.0 373.0 L 623.0 407.0" stroke="#4a4a6a" stroke-width="8" stroke-linecap="round"/><path d="M 383.0 453.0 L 417.0 487.0 M 417.0 453.0 L 383.0 487.0" stroke="#e87ca7" stroke-width="8" stroke-linecap="round"/><path d="M 463.0 453.0 L 497.0 487.0 M 497.0 453.0 L 463.0 487.0" stroke="#4a4a6a" stroke-width="8" stroke-linecap="round"/><path d="M 543.0 453.0 L 577.0 487.0 M 577.0 453.0 L 543.0 487.0" stroke="#e87ca7" stroke-width="8" stroke-linecap="round"/><path d="M 623.0 453.0 L 657.0 487.0 M 657.0 453.0 L 623.0 487.0" stroke="#4a4a6a" stroke-width="8" stroke-linecap="round"/><path d="M 383.0 533.0 L 417.0 567.0 M 417.0 533.0 L 383.0 567.0" stroke="#e87ca7" stroke-width="8" stroke-linecap="round"/><path d="M 463.0 533.0 L 497.0 567.0 M 497.0 533.0 L 463.0 567.0" stroke="#4a4a6a" stroke-width="8" stroke-linecap="round"/><path d="M 543.0 533.0 L 577.0 567.0 M 577.0 533.0 L 543.0 567.0" stroke="#e87ca7" stroke-width="8" stroke-linecap="round"/><path d="M 623.0 533.0 L 657.0 567.0 M 657.0 533.0 L 623.0 567.0" stroke="#4a4a6a" stroke-width="8" stroke-linecap="round"/><path d="M 383.0 613.0 L 417.0 647.0 M 417.0 613.0 L 383.0 647.0" stroke="#e87ca7" stroke-width="8" stroke-linecap="round"/><path d="M 463.0 613.0 L 497.0 647.0 M 497.0 613.0 L 463.0 647.0" stroke="#4a4a6a" stroke-width="8" stroke-linecap="round"/><path d="M 543.0 613.0 L 577.0 647.0 M 577.0 613.0 L 543.0 647.0" stroke="#e87ca7" stroke-width="8" stroke-linecap="round"/><path d="M 623.0 613.0 L 657.0 647.0 M 657.0 613.0 L 623.0 647.0" stroke="#4a4a6a" stroke-width="8" stroke-linecap="round"/><path d="M 383.0 693.0 L 417.0 727.0 M 417.0 693.0 L 383.0 727.0" stroke="#e87ca7" stroke-width="8" stroke-linecap="round"/><path d="M 463.0 693.0 L 497.0 727.0 M 497.0 693.0 L 463.0 727.0" stroke="#4a4a6a" stroke-width="8" stroke-linecap="round"/><path d="M 543.0 693.0 L 577.0 727.0 M 577.0 693.0 L 543.0 727.0" stroke="#e87ca7" stroke-width="8" stroke-linecap="round"/><path d="M 623.0 693.0 L 657.0 727.0 M 657.0 693.0 L 623.0 727.0" stroke="#4a4a6a" stroke-width="8" stroke-linecap="round"/><path d="M 343.0 243.0 L 377.0 277.0 M 377.0 243.0 L 343.0 277.0" stroke="#e87ca7" stroke-width="8" stroke-linecap="round"/><path d="M 423.0 203.0 L 457.0 237.0 M 457.0 203.0 L 423.0 237.0" stroke="#4a4a6a" stroke-width="8" stroke-linecap="round"/><path d="M 495.0 193.0 L 529.0 227.0 M 529.0 193.0 L 495.0 227.0" stroke="#e87ca7" stroke-width="8" stroke-linecap="round"/><path d="M 567.0 203.0 L 601.0 237.0 M 601.0 203.0 L 567.0 237.0" stroke="#4a4a6a" stroke-width="8" stroke-linecap="round"/><path d="M 647.0 243.0 L 681.0 277.0 M 681.0 243.0 L 647.0 277.0" stroke="#e87ca7" stroke-width="8" stroke-linecap="round"/><path d="M228 824 H796" stroke="#8b725d" stroke-width="10" opacity=".18" stroke-dasharray="16 18"/></g></svg>
