<svg xmlns="http://www.w3.org/2000/svg" viewBox="0 0 1024 1024" width="1024" height="1024" role="img" aria-label="Cross-Stitch Tools"><defs><clipPath id="sq"><path d="M 350.06 0 L 673.94 0 C 774.74 0 825.13 0 879.39 17.15 L 879.39 17.15 C 938.62 38.71 985.29 85.38 1006.85 144.61 C 1024 198.87 1024 249.26 1024 350.06 L 1024 673.94 C 1024 774.74 1024 825.13 1006.85 879.39 L 1006.85 879.39 C 985.29 938.62 938.62 985.29 879.39 1006.85 C 825.13 1024 774.74 1024 673.94 1024 L 350.06 1024 C 249.26 1024 198.87 1024 144.61 1006.85 L 144.61 1006.85 C 85.38 985.29 38.71 938.62 17.15 879.39 C 0 825.13 0 774.74 0 673.94 L 0 350.06 C 0 249.26 0 198.87 17.15 144.61 L 17.15 144.61 C 38.71 85.38 85.38 38.71 144.61 17.15 C 198.87 0 249.26 0 350.06 0 Z"/></clipPath></defs><g clip-path="url(#sq)"><path d="M 313.0 713.0 L 347.0 747.0 M 347.0 713.0 L 313.0 747.0" stroke="#e87ca7" stroke-width="8" stroke-linecap="round"/><path d="M 393.0 633.0 L 427.0 667.0 M 427.0 633.0 L 393.0 667.0" stroke="#4a4a6a" stroke-width="8" stroke-linecap="round"/><path d="M 473.0 553.0 L 507.0 587.0 M 507.0 553.0 L 473.0 587.0" stroke="#e87ca7" stroke-width="8" stroke-linecap="round"/><path d="M 553.0 473.0 L 587.0 507.0 M 587.0 473.0 L 553.0 507.0" stroke="#4a4a6a" stroke-width="8" stroke-linecap="round"/><path d="M 633.0 393.0 L 667.0 427.0 M 667.0 393.0 L 633.0 427.0" stroke="#e87ca7" stroke-width="8" stroke-linecap="round"/><path d="M 683.0 283.0 L 717.0 317.0 M 717.0 283.0 L 683.0 317.0" stroke="#4a4a6a" stroke-width="8" stroke-linecap="round"/><path d="M 743.0 233.0 L 777.0 267.0 M 777.0 233.0 L 743.0 267.0" stroke="#e87ca7" stroke-width="8" stroke-linecap="round"/><path d="M 743.0 333.0 L 777.0 367.0 M 777.0 333.0 L 743.0 367.0" stroke="#4a4a6a" stroke-width="8" stroke-linecap="round"/><path d="M228 824 H796" stroke="#8b725d" stroke-width="10" opacity=".18" stroke-dasharray="16 18"/></g></svg>
