<svg xmlns="http://www.w3.org/2000/svg" viewBox="0 0 1024 1024" width="1024" height="1024" role="img" aria-label="Cross-Stitch Users"><defs><clipPath id="sq"><path d="M 350.06 0 L 673.94 0 C 774.74 0 825.13 0 879.39 17.15 L 879.39 17.15 C 938.62 38.71 985.29 85.38 1006.85 144.61 C 1024 198.87 1024 249.26 1024 350.06 L 1024 673.94 C 1024 774.74 1024 825.13 1006.85 879.39 L 1006.85 879.39 C 985.29 938.62 938.62 985.29 879.39 1006.85 C 825.13 1024 774.74 1024 673.94 1024 L 350.06 1024 C 249.26 1024 198.87 1024 144.61 1006.85 L 144.61 1006.85 C 85.38 985.29 38.71 938.62 17.15 879.39 C 0 825.13 0 774.74 0 673.94 L 0 350.06 C 0 249.26 0 198.87 17.15 144.61 L 17.15 144.61 C 38.71 85.38 85.38 38.71 144.61 17.15 C 198.87 0 249.26 0 350.06 0 Z"/></clipPath></defs><g clip-path="url(#sq)"><path d="M 423.0 333.0 L 457.0 367.0 M 457.0 333.0 L 423.0 367.0" stroke="#e87ca7" stroke-width="8" stroke-linecap="round"/><path d="M 593.0 323.0 L 627.0 357.0 M 627.0 323.0 L 593.0 357.0" stroke="#4a4a6a" stroke-width="8" stroke-linecap="round"/><path d="M 343.0 593.0 L 377.0 627.0 M 377.0 593.0 L 343.0 627.0" stroke="#e87ca7" stroke-width="8" stroke-linecap="round"/><path d="M 423.0 553.0 L 457.0 587.0 M 457.0 553.0 L 423.0 587.0" stroke="#4a4a6a" stroke-width="8" stroke-linecap="round"/><path d="M 503.0 593.0 L 537.0 627.0 M 537.0 593.0 L 503.0 627.0" stroke="#e87ca7" stroke-width="8" stroke-linecap="round"/><path d="M 608.0 573.0 L 642.0 607.0 M 642.0 573.0 L 608.0 607.0" stroke="#4a4a6a" stroke-width="8" stroke-linecap="round"/><path d="M 683.0 613.0 L 717.0 647.0 M 717.0 613.0 L 683.0 647.0" stroke="#e87ca7" stroke-width="8" stroke-linecap="round"/><path d="M228 824 H796" stroke="#8b725d" stroke-width="10" opacity=".18" stroke-dasharray="16 18"/></g></svg>
