<svg xmlns="http://www.w3.org/2000/svg" viewBox="0 0 1024 1024" width="1024" height="1024" role="img" aria-label="Eyeball Avenue Comments"><defs><clipPath id="sq"><path d="M 350.06 0 L 673.94 0 C 774.74 0 825.13 0 879.39 17.15 L 879.39 17.15 C 938.62 38.71 985.29 85.38 1006.85 144.61 C 1024 198.87 1024 249.26 1024 350.06 L 1024 673.94 C 1024 774.74 1024 825.13 1006.85 879.39 L 1006.85 879.39 C 985.29 938.62 938.62 985.29 879.39 1006.85 C 825.13 1024 774.74 1024 673.94 1024 L 350.06 1024 C 249.26 1024 198.87 1024 144.61 1006.85 L 144.61 1006.85 C 85.38 985.29 38.71 938.62 17.15 879.39 C 0 825.13 0 774.74 0 673.94 L 0 350.06 C 0 249.26 0 198.87 17.15 144.61 L 17.15 144.61 C 38.71 85.38 85.38 38.71 144.61 17.15 C 198.87 0 249.26 0 350.06 0 Z"/></clipPath><linearGradient id="bgeyeballavenuecomments" x1="0" y1="0" x2="0" y2="1"><stop offset="0" stop-color="#23084d"/><stop offset="1" stop-color="#8d2bdd"/></linearGradient><filter id="sheyeballavenuecomments" x="-20%" y="-20%" width="140%" height="140%"><feDropShadow dx="0" dy="14" stdDeviation="16" flood-color="#000" flood-opacity=".30"/></filter><radialGradient id="speyeballavenuecomments" cx="0.28" cy="0.22" r="0.6"><stop offset="0" stop-color="#ffffff" stop-opacity=".26"/><stop offset="1" stop-color="#ffffff" stop-opacity="0"/></radialGradient></defs><g clip-path="url(#sq)"><rect width="1024" height="1024" fill="url(#bgeyeballavenuecomments)"/><ellipse cx="512" cy="512" rx="400" ry="284" fill="#ffffff"/><circle cx="512" cy="512" r="182" fill="#38d7ff"/><circle cx="512" cy="512" r="82" fill="#150320"/><g filter="url(#sheyeballavenuecomments)" transform="translate(512 512) scale(.54) translate(-512 -512)"><path d="M 262 222 L 762 222 Q 842 222 842 302 L 842 652 Q 842 732 762 732 L 322 732 L 262 852 L 362 732 L 262 732 Q 182 732 182 652 L 182 302 Q 182 222 262 222 Z" fill="#ff4fa8"/><circle cx="392" cy="472" r="34" fill="#ffffff"/><circle cx="512" cy="472" r="34" fill="#ffffff"/><circle cx="632" cy="472" r="34" fill="#ffffff"/></g><rect width="1024" height="1024" fill="url(#speyeballavenuecomments)"/><path d="M 524 488 Q 508 512 524 540 Q 540 512 524 488 Z" fill="#ffffff" opacity=".65"/><g stroke="#ff4fa8" stroke-width="4" fill="none" opacity=".58"><path d="M 200 512 Q 260 492 310 510 Q 340 520 360 500"/><path d="M 820 512 Q 770 500 728 520 Q 700 534 680 516"/></g></g></svg>
