<svg xmlns="http://www.w3.org/2000/svg" viewBox="0 0 64 64" width="64" height="64" role="img" aria-label="Eyeball Avenue Links">
<title>Eyeball Avenue Links</title>
<defs>
  <linearGradient id="bg-eyeball-avenue-links" x1="10" y1="8" x2="58" y2="60" gradientUnits="userSpaceOnUse"><stop offset="0" stop-color="#ff80bf"/><stop offset="0.46" stop-color="#6637d6"/><stop offset="1" stop-color="#16051f"/></linearGradient>
  <radialGradient id="glow-eyeball-avenue-links" cx="22" cy="16" r="44" gradientUnits="userSpaceOnUse"><stop offset="0" stop-color="#fff7f2" stop-opacity="0.85"/><stop offset="0.52" stop-color="#b35cff" stop-opacity="0.35"/><stop offset="1" stop-color="#16051f" stop-opacity="0"/></radialGradient>
  <linearGradient id="glyph-eyeball-avenue-links" x1="14" y1="14" x2="50" y2="54" gradientUnits="userSpaceOnUse"><stop offset="0" stop-color="#fff7f2"/><stop offset="0.48" stop-color="#b35cff"/><stop offset="1" stop-color="#34f5c5"/></linearGradient>
  <filter id="shadow-eyeball-avenue-links" x="-20%" y="-20%" width="140%" height="150%"><feDropShadow dx="0" dy="3" stdDeviation="3" flood-color="#000" flood-opacity="0.45"/></filter>
</defs>
<rect x="4" y="4" width="56" height="56" rx="16" fill="url(#bg-eyeball-avenue-links)"/>
<circle cx="20" cy="16" r="30" fill="url(#glow-eyeball-avenue-links)"/>
<path d="M10 50 C20 58 42 58 54 42 L54 56 L10 56 Z" fill="#000" opacity="0.18"/>
<path d="M12 10 H42 C50 10 54 15 54 23" fill="none" stroke="#fff" stroke-opacity="0.30" stroke-width="1.4" stroke-linecap="round"/>
<circle cx="51" cy="13" r="3" fill="#34f5c5" opacity="0.95"/>
<circle cx="13" cy="51" r="2.4" fill="#b35cff" opacity="0.85"/>
<g filter="url(#shadow-eyeball-avenue-links)"><path d="M26 22l-6 6a9 9 0 0 0 13 13l5-5" fill="none" stroke="#fff7f2" stroke-width="8" stroke-linecap="round"/><path d="M38 42l6-6a9 9 0 0 0-13-13l-5 5" fill="none" stroke="#b35cff" stroke-width="8" stroke-linecap="round"/><path d="M26 38l12-12" stroke="#34f5c5" stroke-width="5" stroke-linecap="round"/></g>
<g filter="url(#shadow-eyeball-avenue-links)"><ellipse cx="32" cy="32" rx="18" ry="11" fill="#fff8ef"/><circle cx="32" cy="32" r="8" fill="#b35cff"/><circle cx="32" cy="32" r="4" fill="#070711"/><circle cx="29" cy="29" r="2" fill="#fff"/></g>
</svg>
