<svg xmlns="http://www.w3.org/2000/svg" viewBox="0 0 1024 1024" width="1024" height="1024" role="img" aria-label="Arcade Tokens Comments"><defs><clipPath id="sq"><path d="M 350.06 0 L 673.94 0 C 774.74 0 825.13 0 879.39 17.15 L 879.39 17.15 C 938.62 38.71 985.29 85.38 1006.85 144.61 C 1024 198.87 1024 249.26 1024 350.06 L 1024 673.94 C 1024 774.74 1024 825.13 1006.85 879.39 L 1006.85 879.39 C 985.29 938.62 938.62 985.29 879.39 1006.85 C 825.13 1024 774.74 1024 673.94 1024 L 350.06 1024 C 249.26 1024 198.87 1024 144.61 1006.85 L 144.61 1006.85 C 85.38 985.29 38.71 938.62 17.15 879.39 C 0 825.13 0 774.74 0 673.94 L 0 350.06 C 0 249.26 0 198.87 17.15 144.61 L 17.15 144.61 C 38.71 85.38 85.38 38.71 144.61 17.15 C 198.87 0 249.26 0 350.06 0 Z"/></clipPath><linearGradient id="bgarcadetokenscomments" x1="0" y1="0" x2="0" y2="1"><stop offset="0" stop-color="#6d3c12"/><stop offset="1" stop-color="#f4c66d"/></linearGradient><filter id="sharcadetokenscomments" x="-20%" y="-20%" width="140%" height="140%"><feDropShadow dx="0" dy="10" stdDeviation="10" flood-color="#000" flood-opacity=".35"/></filter></defs><g clip-path="url(#sq)"><rect width="1024" height="1024" fill="url(#bgarcadetokenscomments)"/><circle cx="512" cy="512" r="372" fill="#b07a2a"/><circle cx="512" cy="512" r="318" fill="#f6d27d" opacity=".72"/><circle cx="512" cy="512" r="372" fill="none" stroke="#fff3bf" stroke-width="28" opacity=".6"/><g filter="url(#sharcadetokenscomments)" transform="translate(512 512) scale(.74) translate(-512 -512)"><path d="M 262 222 L 762 222 Q 842 222 842 302 L 842 652 Q 842 732 762 732 L 322 732 L 262 852 L 362 732 L 262 732 Q 182 732 182 652 L 182 302 Q 182 222 262 222 Z" fill="#7a4a17"/><circle cx="392" cy="472" r="34" fill="#fff1b8"/><circle cx="512" cy="472" r="34" fill="#fff1b8"/><circle cx="632" cy="472" r="34" fill="#fff1b8"/></g><circle cx="248" cy="248" r="22" fill="#fff1b8" opacity=".45"/><circle cx="776" cy="776" r="22" fill="#5b310f" opacity=".35"/></g></svg>
