<svg xmlns="http://www.w3.org/2000/svg" viewBox="0 0 1024 1024" width="1024" height="1024" role="img" aria-label="Arcade Tokens Fallback"><defs><clipPath id="sq"><path d="M 350.06 0 L 673.94 0 C 774.74 0 825.13 0 879.39 17.15 L 879.39 17.15 C 938.62 38.71 985.29 85.38 1006.85 144.61 C 1024 198.87 1024 249.26 1024 350.06 L 1024 673.94 C 1024 774.74 1024 825.13 1006.85 879.39 L 1006.85 879.39 C 985.29 938.62 938.62 985.29 879.39 1006.85 C 825.13 1024 774.74 1024 673.94 1024 L 350.06 1024 C 249.26 1024 198.87 1024 144.61 1006.85 L 144.61 1006.85 C 85.38 985.29 38.71 938.62 17.15 879.39 C 0 825.13 0 774.74 0 673.94 L 0 350.06 C 0 249.26 0 198.87 17.15 144.61 L 17.15 144.61 C 38.71 85.38 85.38 38.71 144.61 17.15 C 198.87 0 249.26 0 350.06 0 Z"/></clipPath><filter id="sharcadetokensfallback" x="-20%" y="-20%" width="140%" height="140%"><feDropShadow dx="0" dy="12" stdDeviation="10" flood-color="#000" flood-opacity=".28"/></filter></defs><g clip-path="url(#sq)"><g transform="translate(512 512) scale(1.42) translate(-512 -512)"><g filter="url(#sharcadetokensfallback)"><g fill="none" stroke="#e2a31a" stroke-width="62" stroke-linecap="round" stroke-linejoin="round"><circle cx="512" cy="512" r="260" fill="none" stroke="none" stroke-width="34" opacity=".46"/><circle cx="512" cy="512" r="178" fill="none" stroke="none" stroke-width="44" opacity=".72"/><circle cx="512" cy="512" r="84" fill="none"/></g><g transform="translate(512 512) scale(.84) translate(-512 -512)"><circle cx="512" cy="512" r="260" fill="none" stroke="#f43b31" stroke-width="34" opacity=".46"/><circle cx="512" cy="512" r="178" fill="none" stroke="#f43b31" stroke-width="44" opacity=".72"/><circle cx="512" cy="512" r="84" fill="#1366d8"/></g></g><circle cx="806" cy="218" r="26" fill="#ffe58b"/><circle cx="226" cy="798" r="18" fill="#2ac45f"/></g></g></svg>
