<svg xmlns="http://www.w3.org/2000/svg" viewBox="0 0 64 64">
  <rect x="0" y="0" width="64" height="64" fill="#2a1b0e" />
  <circle cx="32" cy="32" r="28" fill="#e6a84a" /><circle cx="32" cy="32" r="28" fill="none" stroke="#8a5a1e" stroke-width="2.4" /><circle cx="32" cy="32" r="24" fill="none" stroke="#f6d27a" stroke-width="1" opacity="0.8" />
  <g transform="translate(0.6, 0.8)"><polygon points="16 12 42 12 52 22 52 52 16 52" fill="#7a4414" stroke="#7a4414" stroke-width="3" stroke-linecap="round" stroke-linejoin="round" />
  <polygon points="42 12 42 22 52 22" fill="#7a4414" stroke="#7a4414" stroke-width="3" stroke-linecap="round" stroke-linejoin="round" />
  <line x1="22" y1="30" x2="44" y2="30" stroke="#7a4414" stroke-width="3" stroke-linecap="round" stroke-linejoin="round" />
  <line x1="22" y1="38" x2="44" y2="38" stroke="#7a4414" stroke-width="3" stroke-linecap="round" stroke-linejoin="round" />
  <line x1="22" y1="46" x2="38" y2="46" stroke="#7a4414" stroke-width="3" stroke-linecap="round" stroke-linejoin="round" /></g>
  <g transform="translate(-0.4, -0.6)"><polygon points="16 12 42 12 52 22 52 52 16 52" fill="none" stroke="#fce79a" stroke-width="1.6" stroke-linecap="round" stroke-linejoin="round" opacity="0.9" />
  <polygon points="42 12 42 22 52 22" fill="none" stroke="#fce79a" stroke-width="1.6" stroke-linecap="round" stroke-linejoin="round" opacity="0.9" />
  <line x1="22" y1="30" x2="44" y2="30" stroke="#fce79a" stroke-width="1.6" stroke-linecap="round" stroke-linejoin="round" opacity="0.9" />
  <line x1="22" y1="38" x2="44" y2="38" stroke="#fce79a" stroke-width="1.6" stroke-linecap="round" stroke-linejoin="round" opacity="0.9" />
  <line x1="22" y1="46" x2="38" y2="46" stroke="#fce79a" stroke-width="1.6" stroke-linecap="round" stroke-linejoin="round" opacity="0.9" /></g>
</svg>
