<svg xmlns="http://www.w3.org/2000/svg" viewBox="0 0 64 64">
  <rect x="0" y="0" width="64" height="64" fill="#2a1b0e" />
  <circle cx="32" cy="32" r="28" fill="#e6a84a" /><circle cx="32" cy="32" r="28" fill="none" stroke="#8a5a1e" stroke-width="2.4" /><circle cx="32" cy="32" r="24" fill="none" stroke="#f6d27a" stroke-width="1" opacity="0.8" />
  <g transform="translate(0.6, 0.8)"><rect x="20.0" y="12" width="24" height="18" rx="2" fill="#7a4414" stroke="#7a4414" stroke-width="3" stroke-linecap="round" stroke-linejoin="round" />
  <line x1="26.0" y1="8" x2="26.0" y2="14" stroke="#7a4414" stroke-width="3" stroke-linecap="round" stroke-linejoin="round" />
  <line x1="38.0" y1="8" x2="38.0" y2="14" stroke="#7a4414" stroke-width="3" stroke-linecap="round" stroke-linejoin="round" />
  <rect x="24.0" y="30" width="16" height="10" rx="2" fill="#7a4414" stroke="#7a4414" stroke-width="3" stroke-linecap="round" stroke-linejoin="round" />
  <line x1="32.0" y1="40" x2="32.0" y2="52" stroke="#7a4414" stroke-width="3" stroke-linecap="round" stroke-linejoin="round" /></g>
  <g transform="translate(-0.4, -0.6)"><rect x="20.0" y="12" width="24" height="18" rx="2" fill="none" stroke="#fce79a" stroke-width="1.6" stroke-linecap="round" stroke-linejoin="round" opacity="0.9" />
  <line x1="26.0" y1="8" x2="26.0" y2="14" stroke="#fce79a" stroke-width="1.6" stroke-linecap="round" stroke-linejoin="round" opacity="0.9" />
  <line x1="38.0" y1="8" x2="38.0" y2="14" stroke="#fce79a" stroke-width="1.6" stroke-linecap="round" stroke-linejoin="round" opacity="0.9" />
  <rect x="24.0" y="30" width="16" height="10" rx="2" fill="none" stroke="#fce79a" stroke-width="1.6" stroke-linecap="round" stroke-linejoin="round" opacity="0.9" />
  <line x1="32.0" y1="40" x2="32.0" y2="52" stroke="#fce79a" stroke-width="1.6" stroke-linecap="round" stroke-linejoin="round" opacity="0.9" /></g>
</svg>
