<svg xmlns="http://www.w3.org/2000/svg" viewBox="0 0 1024 1024" width="1024" height="1024" role="img" aria-label="Arcade Tokens Profile"><defs><clipPath id="sq"><path d="M 350.06 0 L 673.94 0 C 774.74 0 825.13 0 879.39 17.15 L 879.39 17.15 C 938.62 38.71 985.29 85.38 1006.85 144.61 C 1024 198.87 1024 249.26 1024 350.06 L 1024 673.94 C 1024 774.74 1024 825.13 1006.85 879.39 L 1006.85 879.39 C 985.29 938.62 938.62 985.29 879.39 1006.85 C 825.13 1024 774.74 1024 673.94 1024 L 350.06 1024 C 249.26 1024 198.87 1024 144.61 1006.85 L 144.61 1006.85 C 85.38 985.29 38.71 938.62 17.15 879.39 C 0 825.13 0 774.74 0 673.94 L 0 350.06 C 0 249.26 0 198.87 17.15 144.61 L 17.15 144.61 C 38.71 85.38 85.38 38.71 144.61 17.15 C 198.87 0 249.26 0 350.06 0 Z"/></clipPath><linearGradient id="bgarcadetokensprofile" x1="0" y1="0" x2="0" y2="1"><stop offset="0" stop-color="#6d3c12"/><stop offset="1" stop-color="#f4c66d"/></linearGradient><filter id="sharcadetokensprofile" x="-20%" y="-20%" width="140%" height="140%"><feDropShadow dx="0" dy="10" stdDeviation="10" flood-color="#000" flood-opacity=".35"/></filter></defs><g clip-path="url(#sq)"><rect width="1024" height="1024" fill="url(#bgarcadetokensprofile)"/><circle cx="512" cy="512" r="372" fill="#b07a2a"/><circle cx="512" cy="512" r="318" fill="#f6d27d" opacity=".72"/><circle cx="512" cy="512" r="372" fill="none" stroke="#fff3bf" stroke-width="28" opacity=".6"/><g filter="url(#sharcadetokensprofile)" transform="translate(512 512) scale(.74) translate(-512 -512)"><circle cx="512" cy="520" r="282" fill="#7a4a17"/><circle cx="512" cy="440" r="96" fill="#fff1b8"/><path d="M 312 802 Q 312 560 512 560 Q 712 560 712 802 Z" fill="#fff1b8"/></g><circle cx="248" cy="248" r="22" fill="#fff1b8" opacity=".45"/><circle cx="776" cy="776" r="22" fill="#5b310f" opacity=".35"/><g transform="rotate(90 512 512)" opacity=".55"><path d="M 300 640 L 420 520 L 560 580" stroke="#5b310f" stroke-width="6" fill="none" stroke-linecap="round"/></g><path d="M 688 332 L 760 298 L 744 370 Z" fill="#fff1b8" opacity=".38"/></g></svg>
