<svg xmlns="http://www.w3.org/2000/svg" viewBox="0 0 64 64">
  <rect x="0" y="0" width="64" height="64" fill="#2a1b0e" />
  <circle cx="32" cy="32" r="28" fill="#e6a84a" /><circle cx="32" cy="32" r="28" fill="none" stroke="#8a5a1e" stroke-width="2.4" /><circle cx="32" cy="32" r="24" fill="none" stroke="#f6d27a" stroke-width="1" opacity="0.8" />
  <g transform="translate(0.6, 0.8)"><circle cx="32.0" cy="32.0" r="14" fill="#7a4414" stroke="#7a4414" stroke-width="3" stroke-linecap="round" stroke-linejoin="round" />
  <circle cx="32.0" cy="32.0" r="5" fill="#7a4414" stroke="#7a4414" stroke-width="3" stroke-linecap="round" stroke-linejoin="round" />
  <rect x="30.0" y="8" width="4" height="6" rx="2" fill="#7a4414" stroke="#7a4414" stroke-width="3" stroke-linecap="round" stroke-linejoin="round" />
  <rect x="30.0" y="50" width="4" height="6" rx="2" fill="#7a4414" stroke="#7a4414" stroke-width="3" stroke-linecap="round" stroke-linejoin="round" />
  <rect x="8" y="30.0" width="6" height="4" rx="2" fill="#7a4414" stroke="#7a4414" stroke-width="3" stroke-linecap="round" stroke-linejoin="round" />
  <rect x="50" y="30.0" width="6" height="4" rx="2" fill="#7a4414" stroke="#7a4414" stroke-width="3" stroke-linecap="round" stroke-linejoin="round" />
  <polygon points="44.0 18.0 48.0 20.0 44.0 24.0 40.0 20.0" fill="#7a4414" stroke="#7a4414" stroke-width="3" stroke-linecap="round" stroke-linejoin="round" />
  <polygon points="20.0 18.0 24.0 20.0 20.0 24.0 16.0 20.0" fill="#7a4414" stroke="#7a4414" stroke-width="3" stroke-linecap="round" stroke-linejoin="round" />
  <polygon points="44.0 46.0 48.0 44.0 44.0 40.0 40.0 44.0" fill="#7a4414" stroke="#7a4414" stroke-width="3" stroke-linecap="round" stroke-linejoin="round" />
  <polygon points="20.0 46.0 24.0 44.0 20.0 40.0 16.0 44.0" fill="#7a4414" stroke="#7a4414" stroke-width="3" stroke-linecap="round" stroke-linejoin="round" /></g>
  <g transform="translate(-0.4, -0.6)"><circle cx="32.0" cy="32.0" r="14" fill="none" stroke="#fce79a" stroke-width="1.6" stroke-linecap="round" stroke-linejoin="round" opacity="0.9" />
  <circle cx="32.0" cy="32.0" r="5" fill="none" stroke="#fce79a" stroke-width="1.6" stroke-linecap="round" stroke-linejoin="round" opacity="0.9" />
  <rect x="30.0" y="8" width="4" height="6" rx="2" fill="none" stroke="#fce79a" stroke-width="1.6" stroke-linecap="round" stroke-linejoin="round" opacity="0.9" />
  <rect x="30.0" y="50" width="4" height="6" rx="2" fill="none" stroke="#fce79a" stroke-width="1.6" stroke-linecap="round" stroke-linejoin="round" opacity="0.9" />
  <rect x="8" y="30.0" width="6" height="4" rx="2" fill="none" stroke="#fce79a" stroke-width="1.6" stroke-linecap="round" stroke-linejoin="round" opacity="0.9" />
  <rect x="50" y="30.0" width="6" height="4" rx="2" fill="none" stroke="#fce79a" stroke-width="1.6" stroke-linecap="round" stroke-linejoin="round" opacity="0.9" />
  <polygon points="44.0 18.0 48.0 20.0 44.0 24.0 40.0 20.0" fill="none" stroke="#fce79a" stroke-width="1.6" stroke-linecap="round" stroke-linejoin="round" opacity="0.9" />
  <polygon points="20.0 18.0 24.0 20.0 20.0 24.0 16.0 20.0" fill="none" stroke="#fce79a" stroke-width="1.6" stroke-linecap="round" stroke-linejoin="round" opacity="0.9" />
  <polygon points="44.0 46.0 48.0 44.0 44.0 40.0 40.0 44.0" fill="none" stroke="#fce79a" stroke-width="1.6" stroke-linecap="round" stroke-linejoin="round" opacity="0.9" />
  <polygon points="20.0 46.0 24.0 44.0 20.0 40.0 16.0 44.0" fill="none" stroke="#fce79a" stroke-width="1.6" stroke-linecap="round" stroke-linejoin="round" opacity="0.9" /></g>
</svg>
