<svg xmlns="http://www.w3.org/2000/svg" viewBox="0 0 64 64">
  <rect x="0" y="0" width="64" height="64" fill="#f3e6cf" />
  <line x1="0" y1="0" x2="64" y2="0" stroke="#d9c59f" stroke-width="0.3" opacity="0.55" /><line x1="0" y1="0" x2="0" y2="64" stroke="#d9c59f" stroke-width="0.3" opacity="0.4" /><line x1="0" y1="2" x2="64" y2="2" stroke="#d9c59f" stroke-width="0.3" opacity="0.55" /><line x1="2" y1="0" x2="2" y2="64" stroke="#d9c59f" stroke-width="0.3" opacity="0.4" /><line x1="0" y1="4" x2="64" y2="4" stroke="#d9c59f" stroke-width="0.3" opacity="0.55" /><line x1="4" y1="0" x2="4" y2="64" stroke="#d9c59f" stroke-width="0.3" opacity="0.4" /><line x1="0" y1="6" x2="64" y2="6" stroke="#d9c59f" stroke-width="0.3" opacity="0.55" /><line x1="6" y1="0" x2="6" y2="64" stroke="#d9c59f" stroke-width="0.3" opacity="0.4" /><line x1="0" y1="8" x2="64" y2="8" stroke="#d9c59f" stroke-width="0.3" opacity="0.55" /><line x1="8" y1="0" x2="8" y2="64" stroke="#d9c59f" stroke-width="0.3" opacity="0.4" /><line x1="0" y1="10" x2="64" y2="10" stroke="#d9c59f" stroke-width="0.3" opacity="0.55" /><line x1="10" y1="0" x2="10" y2="64" stroke="#d9c59f" stroke-width="0.3" opacity="0.4" /><line x1="0" y1="12" x2="64" y2="12" stroke="#d9c59f" stroke-width="0.3" opacity="0.55" /><line x1="12" y1="0" x2="12" y2="64" stroke="#d9c59f" stroke-width="0.3" opacity="0.4" /><line x1="0" y1="14" x2="64" y2="14" stroke="#d9c59f" stroke-width="0.3" opacity="0.55" /><line x1="14" y1="0" x2="14" y2="64" stroke="#d9c59f" stroke-width="0.3" opacity="0.4" /><line x1="0" y1="16" x2="64" y2="16" stroke="#d9c59f" stroke-width="0.3" opacity="0.55" /><line x1="16" y1="0" x2="16" y2="64" stroke="#d9c59f" stroke-width="0.3" opacity="0.4" /><line x1="0" y1="18" x2="64" y2="18" stroke="#d9c59f" stroke-width="0.3" opacity="0.55" /><line x1="18" y1="0" x2="18" y2="64" stroke="#d9c59f" stroke-width="0.3" opacity="0.4" /><line x1="0" y1="20" x2="64" y2="20" stroke="#d9c59f" stroke-width="0.3" opacity="0.55" /><line x1="20" y1="0" x2="20" y2="64" stroke="#d9c59f" stroke-width="0.3" opacity="0.4" /><line x1="0" y1="22" x2="64" y2="22" stroke="#d9c59f" stroke-width="0.3" opacity="0.55" /><line x1="22" y1="0" x2="22" y2="64" stroke="#d9c59f" stroke-width="0.3" opacity="0.4" /><line x1="0" y1="24" x2="64" y2="24" stroke="#d9c59f" stroke-width="0.3" opacity="0.55" /><line x1="24" y1="0" x2="24" y2="64" stroke="#d9c59f" stroke-width="0.3" opacity="0.4" /><line x1="0" y1="26" x2="64" y2="26" stroke="#d9c59f" stroke-width="0.3" opacity="0.55" /><line x1="26" y1="0" x2="26" y2="64" stroke="#d9c59f" stroke-width="0.3" opacity="0.4" /><line x1="0" y1="28" x2="64" y2="28" stroke="#d9c59f" stroke-width="0.3" opacity="0.55" /><line x1="28" y1="0" x2="28" y2="64" stroke="#d9c59f" stroke-width="0.3" opacity="0.4" /><line x1="0" y1="30" x2="64" y2="30" stroke="#d9c59f" stroke-width="0.3" opacity="0.55" /><line x1="30" y1="0" x2="30" y2="64" stroke="#d9c59f" stroke-width="0.3" opacity="0.4" /><line x1="0" y1="32" x2="64" y2="32" stroke="#d9c59f" stroke-width="0.3" opacity="0.55" /><line x1="32" y1="0" x2="32" y2="64" stroke="#d9c59f" stroke-width="0.3" opacity="0.4" /><line x1="0" y1="34" x2="64" y2="34" stroke="#d9c59f" stroke-width="0.3" opacity="0.55" /><line x1="34" y1="0" x2="34" y2="64" stroke="#d9c59f" stroke-width="0.3" opacity="0.4" /><line x1="0" y1="36" x2="64" y2="36" stroke="#d9c59f" stroke-width="0.3" opacity="0.55" /><line x1="36" y1="0" x2="36" y2="64" stroke="#d9c59f" stroke-width="0.3" opacity="0.4" /><line x1="0" y1="38" x2="64" y2="38" stroke="#d9c59f" stroke-width="0.3" opacity="0.55" /><line x1="38" y1="0" x2="38" y2="64" stroke="#d9c59f" stroke-width="0.3" opacity="0.4" /><line x1="0" y1="40" x2="64" y2="40" stroke="#d9c59f" stroke-width="0.3" opacity="0.55" /><line x1="40" y1="0" x2="40" y2="64" stroke="#d9c59f" stroke-width="0.3" opacity="0.4" /><line x1="0" y1="42" x2="64" y2="42" stroke="#d9c59f" stroke-width="0.3" opacity="0.55" /><line x1="42" y1="0" x2="42" y2="64" stroke="#d9c59f" stroke-width="0.3" opacity="0.4" /><line x1="0" y1="44" x2="64" y2="44" stroke="#d9c59f" stroke-width="0.3" opacity="0.55" /><line x1="44" y1="0" x2="44" y2="64" stroke="#d9c59f" stroke-width="0.3" opacity="0.4" /><line x1="0" y1="46" x2="64" y2="46" stroke="#d9c59f" stroke-width="0.3" opacity="0.55" /><line x1="46" y1="0" x2="46" y2="64" stroke="#d9c59f" stroke-width="0.3" opacity="0.4" /><line x1="0" y1="48" x2="64" y2="48" stroke="#d9c59f" stroke-width="0.3" opacity="0.55" /><line x1="48" y1="0" x2="48" y2="64" stroke="#d9c59f" stroke-width="0.3" opacity="0.4" /><line x1="0" y1="50" x2="64" y2="50" stroke="#d9c59f" stroke-width="0.3" opacity="0.55" /><line x1="50" y1="0" x2="50" y2="64" stroke="#d9c59f" stroke-width="0.3" opacity="0.4" /><line x1="0" y1="52" x2="64" y2="52" stroke="#d9c59f" stroke-width="0.3" opacity="0.55" /><line x1="52" y1="0" x2="52" y2="64" stroke="#d9c59f" stroke-width="0.3" opacity="0.4" /><line x1="0" y1="54" x2="64" y2="54" stroke="#d9c59f" stroke-width="0.3" opacity="0.55" /><line x1="54" y1="0" x2="54" y2="64" stroke="#d9c59f" stroke-width="0.3" opacity="0.4" /><line x1="0" y1="56" x2="64" y2="56" stroke="#d9c59f" stroke-width="0.3" opacity="0.55" /><line x1="56" y1="0" x2="56" y2="64" stroke="#d9c59f" stroke-width="0.3" opacity="0.4" /><line x1="0" y1="58" x2="64" y2="58" stroke="#d9c59f" stroke-width="0.3" opacity="0.55" /><line x1="58" y1="0" x2="58" y2="64" stroke="#d9c59f" stroke-width="0.3" opacity="0.4" /><line x1="0" y1="60" x2="64" y2="60" stroke="#d9c59f" stroke-width="0.3" opacity="0.55" /><line x1="60" y1="0" x2="60" y2="64" stroke="#d9c59f" stroke-width="0.3" opacity="0.4" /><line x1="0" y1="62" x2="64" y2="62" stroke="#d9c59f" stroke-width="0.3" opacity="0.55" /><line x1="62" y1="0" x2="62" y2="64" stroke="#d9c59f" stroke-width="0.3" opacity="0.4" />
  <line x1="10.4" y1="30.4" x2="13.6" y2="33.6" stroke="#e87ca7" stroke-width="1.4" stroke-linecap="round" /><line x1="10.4" y1="33.6" x2="13.6" y2="30.4" stroke="#e87ca7" stroke-width="1.4" stroke-linecap="round" /><line x1="13.4" y1="25.4" x2="16.6" y2="28.6" stroke="#e87ca7" stroke-width="1.4" stroke-linecap="round" /><line x1="13.4" y1="28.6" x2="16.6" y2="25.4" stroke="#e87ca7" stroke-width="1.4" stroke-linecap="round" /><line x1="16.4" y1="20.4" x2="19.6" y2="23.6" stroke="#e87ca7" stroke-width="1.4" stroke-linecap="round" /><line x1="16.4" y1="23.6" x2="19.6" y2="20.4" stroke="#e87ca7" stroke-width="1.4" stroke-linecap="round" /><line x1="16.4" y1="20.4" x2="19.6" y2="23.6" stroke="#e87ca7" stroke-width="1.4" stroke-linecap="round" /><line x1="16.4" y1="23.6" x2="19.6" y2="20.4" stroke="#e87ca7" stroke-width="1.4" stroke-linecap="round" /><line x1="21.4" y1="18.4" x2="24.6" y2="21.6" stroke="#e87ca7" stroke-width="1.4" stroke-linecap="round" /><line x1="21.4" y1="21.6" x2="24.6" y2="18.4" stroke="#e87ca7" stroke-width="1.4" stroke-linecap="round" /><line x1="26.4" y1="16.4" x2="29.6" y2="19.6" stroke="#e87ca7" stroke-width="1.4" stroke-linecap="round" /><line x1="26.4" y1="19.6" x2="29.6" y2="16.4" stroke="#e87ca7" stroke-width="1.4" stroke-linecap="round" /><line x1="26.4" y1="16.4" x2="29.6" y2="19.6" stroke="#e87ca7" stroke-width="1.4" stroke-linecap="round" /><line x1="26.4" y1="19.6" x2="29.6" y2="16.4" stroke="#e87ca7" stroke-width="1.4" stroke-linecap="round" /><line x1="29.4" y1="21.4" x2="32.6" y2="24.6" stroke="#e87ca7" stroke-width="1.4" stroke-linecap="round" /><line x1="29.4" y1="24.6" x2="32.6" y2="21.4" stroke="#e87ca7" stroke-width="1.4" stroke-linecap="round" /><line x1="32.4" y1="26.4" x2="35.6" y2="29.6" stroke="#e87ca7" stroke-width="1.4" stroke-linecap="round" /><line x1="32.4" y1="29.6" x2="35.6" y2="26.4" stroke="#e87ca7" stroke-width="1.4" stroke-linecap="round" /><line x1="32.4" y1="26.4" x2="35.6" y2="29.6" stroke="#e87ca7" stroke-width="1.4" stroke-linecap="round" /><line x1="32.4" y1="29.6" x2="35.6" y2="26.4" stroke="#e87ca7" stroke-width="1.4" stroke-linecap="round" /><line x1="29.4" y1="28.4" x2="32.6" y2="31.6" stroke="#e87ca7" stroke-width="1.4" stroke-linecap="round" /><line x1="29.4" y1="31.6" x2="32.6" y2="28.4" stroke="#e87ca7" stroke-width="1.4" stroke-linecap="round" /><line x1="26.4" y1="30.4" x2="29.6" y2="33.6" stroke="#e87ca7" stroke-width="1.4" stroke-linecap="round" /><line x1="26.4" y1="33.6" x2="29.6" y2="30.4" stroke="#e87ca7" stroke-width="1.4" stroke-linecap="round" /><line x1="26.4" y1="30.4" x2="29.6" y2="33.6" stroke="#e87ca7" stroke-width="1.4" stroke-linecap="round" /><line x1="26.4" y1="33.6" x2="29.6" y2="30.4" stroke="#e87ca7" stroke-width="1.4" stroke-linecap="round" /><line x1="21.4" y1="32.4" x2="24.6" y2="35.6" stroke="#e87ca7" stroke-width="1.4" stroke-linecap="round" /><line x1="21.4" y1="35.6" x2="24.6" y2="32.4" stroke="#e87ca7" stroke-width="1.4" stroke-linecap="round" /><line x1="16.4" y1="34.4" x2="19.6" y2="37.6" stroke="#e87ca7" stroke-width="1.4" stroke-linecap="round" /><line x1="16.4" y1="37.6" x2="19.6" y2="34.4" stroke="#e87ca7" stroke-width="1.4" stroke-linecap="round" /><line x1="16.4" y1="34.4" x2="19.6" y2="37.6" stroke="#e87ca7" stroke-width="1.4" stroke-linecap="round" /><line x1="16.4" y1="37.6" x2="19.6" y2="34.4" stroke="#e87ca7" stroke-width="1.4" stroke-linecap="round" /><line x1="13.4" y1="32.4" x2="16.6" y2="35.6" stroke="#e87ca7" stroke-width="1.4" stroke-linecap="round" /><line x1="13.4" y1="35.6" x2="16.6" y2="32.4" stroke="#e87ca7" stroke-width="1.4" stroke-linecap="round" /><line x1="10.4" y1="30.4" x2="13.6" y2="33.6" stroke="#e87ca7" stroke-width="1.4" stroke-linecap="round" /><line x1="10.4" y1="33.6" x2="13.6" y2="30.4" stroke="#e87ca7" stroke-width="1.4" stroke-linecap="round" /><line x1="50.4" y1="30.4" x2="53.6" y2="33.6" stroke="#e87ca7" stroke-width="1.4" stroke-linecap="round" /><line x1="50.4" y1="33.6" x2="53.6" y2="30.4" stroke="#e87ca7" stroke-width="1.4" stroke-linecap="round" /><line x1="47.4" y1="35.4" x2="50.6" y2="38.6" stroke="#e87ca7" stroke-width="1.4" stroke-linecap="round" /><line x1="47.4" y1="38.6" x2="50.6" y2="35.4" stroke="#e87ca7" stroke-width="1.4" stroke-linecap="round" /><line x1="44.4" y1="40.4" x2="47.6" y2="43.6" stroke="#e87ca7" stroke-width="1.4" stroke-linecap="round" /><line x1="44.4" y1="43.6" x2="47.6" y2="40.4" stroke="#e87ca7" stroke-width="1.4" stroke-linecap="round" /><line x1="44.4" y1="40.4" x2="47.6" y2="43.6" stroke="#e87ca7" stroke-width="1.4" stroke-linecap="round" /><line x1="44.4" y1="43.6" x2="47.6" y2="40.4" stroke="#e87ca7" stroke-width="1.4" stroke-linecap="round" /><line x1="39.4" y1="42.4" x2="42.6" y2="45.6" stroke="#e87ca7" stroke-width="1.4" stroke-linecap="round" /><line x1="39.4" y1="45.6" x2="42.6" y2="42.4" stroke="#e87ca7" stroke-width="1.4" stroke-linecap="round" /><line x1="34.4" y1="44.4" x2="37.6" y2="47.6" stroke="#e87ca7" stroke-width="1.4" stroke-linecap="round" /><line x1="34.4" y1="47.6" x2="37.6" y2="44.4" stroke="#e87ca7" stroke-width="1.4" stroke-linecap="round" /><line x1="34.4" y1="44.4" x2="37.6" y2="47.6" stroke="#e87ca7" stroke-width="1.4" stroke-linecap="round" /><line x1="34.4" y1="47.6" x2="37.6" y2="44.4" stroke="#e87ca7" stroke-width="1.4" stroke-linecap="round" /><line x1="31.4" y1="39.4" x2="34.6" y2="42.6" stroke="#e87ca7" stroke-width="1.4" stroke-linecap="round" /><line x1="31.4" y1="42.6" x2="34.6" y2="39.4" stroke="#e87ca7" stroke-width="1.4" stroke-linecap="round" /><line x1="28.4" y1="34.4" x2="31.6" y2="37.6" stroke="#e87ca7" stroke-width="1.4" stroke-linecap="round" /><line x1="28.4" y1="37.6" x2="31.6" y2="34.4" stroke="#e87ca7" stroke-width="1.4" stroke-linecap="round" /><line x1="28.4" y1="34.4" x2="31.6" y2="37.6" stroke="#e87ca7" stroke-width="1.4" stroke-linecap="round" /><line x1="28.4" y1="37.6" x2="31.6" y2="34.4" stroke="#e87ca7" stroke-width="1.4" stroke-linecap="round" /><line x1="31.4" y1="32.4" x2="34.6" y2="35.6" stroke="#e87ca7" stroke-width="1.4" stroke-linecap="round" /><line x1="31.4" y1="35.6" x2="34.6" y2="32.4" stroke="#e87ca7" stroke-width="1.4" stroke-linecap="round" /><line x1="34.4" y1="30.4" x2="37.6" y2="33.6" stroke="#e87ca7" stroke-width="1.4" stroke-linecap="round" /><line x1="34.4" y1="33.6" x2="37.6" y2="30.4" stroke="#e87ca7" stroke-width="1.4" stroke-linecap="round" /><line x1="34.4" y1="30.4" x2="37.6" y2="33.6" stroke="#e87ca7" stroke-width="1.4" stroke-linecap="round" /><line x1="34.4" y1="33.6" x2="37.6" y2="30.4" stroke="#e87ca7" stroke-width="1.4" stroke-linecap="round" /><line x1="39.4" y1="28.4" x2="42.6" y2="31.6" stroke="#e87ca7" stroke-width="1.4" stroke-linecap="round" /><line x1="39.4" y1="31.6" x2="42.6" y2="28.4" stroke="#e87ca7" stroke-width="1.4" stroke-linecap="round" /><line x1="44.4" y1="26.4" x2="47.6" y2="29.6" stroke="#e87ca7" stroke-width="1.4" stroke-linecap="round" /><line x1="44.4" y1="29.6" x2="47.6" y2="26.4" stroke="#e87ca7" stroke-width="1.4" stroke-linecap="round" /><line x1="44.4" y1="26.4" x2="47.6" y2="29.6" stroke="#e87ca7" stroke-width="1.4" stroke-linecap="round" /><line x1="44.4" y1="29.6" x2="47.6" y2="26.4" stroke="#e87ca7" stroke-width="1.4" stroke-linecap="round" /><line x1="47.4" y1="28.4" x2="50.6" y2="31.6" stroke="#e87ca7" stroke-width="1.4" stroke-linecap="round" /><line x1="47.4" y1="31.6" x2="50.6" y2="28.4" stroke="#e87ca7" stroke-width="1.4" stroke-linecap="round" /><line x1="50.4" y1="30.4" x2="53.6" y2="33.6" stroke="#e87ca7" stroke-width="1.4" stroke-linecap="round" /><line x1="50.4" y1="33.6" x2="53.6" y2="30.4" stroke="#e87ca7" stroke-width="1.4" stroke-linecap="round" />
</svg>
