<svg xmlns="http://www.w3.org/2000/svg" viewBox="0 0 64 64">
  <rect x="0" y="0" width="64" height="64" fill="#f3e6cf" />
  <line x1="0" y1="0" x2="64" y2="0" stroke="#d9c59f" stroke-width="0.3" opacity="0.55" /><line x1="0" y1="0" x2="0" y2="64" stroke="#d9c59f" stroke-width="0.3" opacity="0.4" /><line x1="0" y1="2" x2="64" y2="2" stroke="#d9c59f" stroke-width="0.3" opacity="0.55" /><line x1="2" y1="0" x2="2" y2="64" stroke="#d9c59f" stroke-width="0.3" opacity="0.4" /><line x1="0" y1="4" x2="64" y2="4" stroke="#d9c59f" stroke-width="0.3" opacity="0.55" /><line x1="4" y1="0" x2="4" y2="64" stroke="#d9c59f" stroke-width="0.3" opacity="0.4" /><line x1="0" y1="6" x2="64" y2="6" stroke="#d9c59f" stroke-width="0.3" opacity="0.55" /><line x1="6" y1="0" x2="6" y2="64" stroke="#d9c59f" stroke-width="0.3" opacity="0.4" /><line x1="0" y1="8" x2="64" y2="8" stroke="#d9c59f" stroke-width="0.3" opacity="0.55" /><line x1="8" y1="0" x2="8" y2="64" stroke="#d9c59f" stroke-width="0.3" opacity="0.4" /><line x1="0" y1="10" x2="64" y2="10" stroke="#d9c59f" stroke-width="0.3" opacity="0.55" /><line x1="10" y1="0" x2="10" y2="64" stroke="#d9c59f" stroke-width="0.3" opacity="0.4" /><line x1="0" y1="12" x2="64" y2="12" stroke="#d9c59f" stroke-width="0.3" opacity="0.55" /><line x1="12" y1="0" x2="12" y2="64" stroke="#d9c59f" stroke-width="0.3" opacity="0.4" /><line x1="0" y1="14" x2="64" y2="14" stroke="#d9c59f" stroke-width="0.3" opacity="0.55" /><line x1="14" y1="0" x2="14" y2="64" stroke="#d9c59f" stroke-width="0.3" opacity="0.4" /><line x1="0" y1="16" x2="64" y2="16" stroke="#d9c59f" stroke-width="0.3" opacity="0.55" /><line x1="16" y1="0" x2="16" y2="64" stroke="#d9c59f" stroke-width="0.3" opacity="0.4" /><line x1="0" y1="18" x2="64" y2="18" stroke="#d9c59f" stroke-width="0.3" opacity="0.55" /><line x1="18" y1="0" x2="18" y2="64" stroke="#d9c59f" stroke-width="0.3" opacity="0.4" /><line x1="0" y1="20" x2="64" y2="20" stroke="#d9c59f" stroke-width="0.3" opacity="0.55" /><line x1="20" y1="0" x2="20" y2="64" stroke="#d9c59f" stroke-width="0.3" opacity="0.4" /><line x1="0" y1="22" x2="64" y2="22" stroke="#d9c59f" stroke-width="0.3" opacity="0.55" /><line x1="22" y1="0" x2="22" y2="64" stroke="#d9c59f" stroke-width="0.3" opacity="0.4" /><line x1="0" y1="24" x2="64" y2="24" stroke="#d9c59f" stroke-width="0.3" opacity="0.55" /><line x1="24" y1="0" x2="24" y2="64" stroke="#d9c59f" stroke-width="0.3" opacity="0.4" /><line x1="0" y1="26" x2="64" y2="26" stroke="#d9c59f" stroke-width="0.3" opacity="0.55" /><line x1="26" y1="0" x2="26" y2="64" stroke="#d9c59f" stroke-width="0.3" opacity="0.4" /><line x1="0" y1="28" x2="64" y2="28" stroke="#d9c59f" stroke-width="0.3" opacity="0.55" /><line x1="28" y1="0" x2="28" y2="64" stroke="#d9c59f" stroke-width="0.3" opacity="0.4" /><line x1="0" y1="30" x2="64" y2="30" stroke="#d9c59f" stroke-width="0.3" opacity="0.55" /><line x1="30" y1="0" x2="30" y2="64" stroke="#d9c59f" stroke-width="0.3" opacity="0.4" /><line x1="0" y1="32" x2="64" y2="32" stroke="#d9c59f" stroke-width="0.3" opacity="0.55" /><line x1="32" y1="0" x2="32" y2="64" stroke="#d9c59f" stroke-width="0.3" opacity="0.4" /><line x1="0" y1="34" x2="64" y2="34" stroke="#d9c59f" stroke-width="0.3" opacity="0.55" /><line x1="34" y1="0" x2="34" y2="64" stroke="#d9c59f" stroke-width="0.3" opacity="0.4" /><line x1="0" y1="36" x2="64" y2="36" stroke="#d9c59f" stroke-width="0.3" opacity="0.55" /><line x1="36" y1="0" x2="36" y2="64" stroke="#d9c59f" stroke-width="0.3" opacity="0.4" /><line x1="0" y1="38" x2="64" y2="38" stroke="#d9c59f" stroke-width="0.3" opacity="0.55" /><line x1="38" y1="0" x2="38" y2="64" stroke="#d9c59f" stroke-width="0.3" opacity="0.4" /><line x1="0" y1="40" x2="64" y2="40" stroke="#d9c59f" stroke-width="0.3" opacity="0.55" /><line x1="40" y1="0" x2="40" y2="64" stroke="#d9c59f" stroke-width="0.3" opacity="0.4" /><line x1="0" y1="42" x2="64" y2="42" stroke="#d9c59f" stroke-width="0.3" opacity="0.55" /><line x1="42" y1="0" x2="42" y2="64" stroke="#d9c59f" stroke-width="0.3" opacity="0.4" /><line x1="0" y1="44" x2="64" y2="44" stroke="#d9c59f" stroke-width="0.3" opacity="0.55" /><line x1="44" y1="0" x2="44" y2="64" stroke="#d9c59f" stroke-width="0.3" opacity="0.4" /><line x1="0" y1="46" x2="64" y2="46" stroke="#d9c59f" stroke-width="0.3" opacity="0.55" /><line x1="46" y1="0" x2="46" y2="64" stroke="#d9c59f" stroke-width="0.3" opacity="0.4" /><line x1="0" y1="48" x2="64" y2="48" stroke="#d9c59f" stroke-width="0.3" opacity="0.55" /><line x1="48" y1="0" x2="48" y2="64" stroke="#d9c59f" stroke-width="0.3" opacity="0.4" /><line x1="0" y1="50" x2="64" y2="50" stroke="#d9c59f" stroke-width="0.3" opacity="0.55" /><line x1="50" y1="0" x2="50" y2="64" stroke="#d9c59f" stroke-width="0.3" opacity="0.4" /><line x1="0" y1="52" x2="64" y2="52" stroke="#d9c59f" stroke-width="0.3" opacity="0.55" /><line x1="52" y1="0" x2="52" y2="64" stroke="#d9c59f" stroke-width="0.3" opacity="0.4" /><line x1="0" y1="54" x2="64" y2="54" stroke="#d9c59f" stroke-width="0.3" opacity="0.55" /><line x1="54" y1="0" x2="54" y2="64" stroke="#d9c59f" stroke-width="0.3" opacity="0.4" /><line x1="0" y1="56" x2="64" y2="56" stroke="#d9c59f" stroke-width="0.3" opacity="0.55" /><line x1="56" y1="0" x2="56" y2="64" stroke="#d9c59f" stroke-width="0.3" opacity="0.4" /><line x1="0" y1="58" x2="64" y2="58" stroke="#d9c59f" stroke-width="0.3" opacity="0.55" /><line x1="58" y1="0" x2="58" y2="64" stroke="#d9c59f" stroke-width="0.3" opacity="0.4" /><line x1="0" y1="60" x2="64" y2="60" stroke="#d9c59f" stroke-width="0.3" opacity="0.55" /><line x1="60" y1="0" x2="60" y2="64" stroke="#d9c59f" stroke-width="0.3" opacity="0.4" /><line x1="0" y1="62" x2="64" y2="62" stroke="#d9c59f" stroke-width="0.3" opacity="0.55" /><line x1="62" y1="0" x2="62" y2="64" stroke="#d9c59f" stroke-width="0.3" opacity="0.4" />
  <line x1="44.4" y1="30.4" x2="47.6" y2="33.6" stroke="#e87ca7" stroke-width="1.4" stroke-linecap="round" /><line x1="44.4" y1="33.6" x2="47.6" y2="30.4" stroke="#e87ca7" stroke-width="1.4" stroke-linecap="round" /><line x1="43.77801928100597" y1="34.526572441752656" x2="46.97801928100597" y2="37.72657244175266" stroke="#e87ca7" stroke-width="1.4" stroke-linecap="round" /><line x1="43.77801928100597" y1="37.72657244175266" x2="46.97801928100597" y2="34.526572441752656" stroke="#e87ca7" stroke-width="1.4" stroke-linecap="round" /><line x1="41.96734284042393" y1="38.28648081289071" x2="45.167342840423935" y2="41.48648081289071" stroke="#e87ca7" stroke-width="1.4" stroke-linecap="round" /><line x1="41.96734284042393" y1="41.48648081289071" x2="45.167342840423935" y2="38.28648081289071" stroke="#e87ca7" stroke-width="1.4" stroke-linecap="round" /><line x1="39.12885722602227" y1="41.34564075455241" x2="42.32885722602227" y2="44.545640754552416" stroke="#e87ca7" stroke-width="1.4" stroke-linecap="round" /><line x1="39.12885722602227" y1="44.545640754552416" x2="42.32885722602227" y2="41.34564075455241" stroke="#e87ca7" stroke-width="1.4" stroke-linecap="round" /><line x1="35.51477434112953" y1="43.43223248101886" x2="38.714774341129534" y2="46.63223248101886" stroke="#e87ca7" stroke-width="1.4" stroke-linecap="round" /><line x1="35.51477434112953" y1="46.63223248101886" x2="38.714774341129534" y2="43.43223248101886" stroke="#e87ca7" stroke-width="1.4" stroke-linecap="round" /><line x1="31.446221310209943" y1="44.36085316053652" x2="34.646221310209945" y2="47.560853160536524" stroke="#e87ca7" stroke-width="1.4" stroke-linecap="round" /><line x1="31.446221310209943" y1="47.560853160536524" x2="34.646221310209945" y2="44.36085316053652" stroke="#e87ca7" stroke-width="1.4" stroke-linecap="round" /><line x1="27.284706924611598" y1="44.04899077054553" x2="30.4847069246116" y2="47.24899077054553" stroke="#e87ca7" stroke-width="1.4" stroke-linecap="round" /><line x1="27.284706924611598" y1="47.24899077054553" x2="30.4847069246116" y2="44.04899077054553" stroke="#e87ca7" stroke-width="1.4" stroke-linecap="round" /><line x1="23.400000000000002" y1="42.524355652982145" x2="26.600000000000005" y2="45.72435565298215" stroke="#e87ca7" stroke-width="1.4" stroke-linecap="round" /><line x1="23.400000000000002" y1="45.72435565298215" x2="26.600000000000005" y2="42.524355652982145" stroke="#e87ca7" stroke-width="1.4" stroke-linecap="round" /><line x1="20.137273794382434" y1="39.92241832879287" x2="23.337273794382437" y2="43.122418328792875" stroke="#e87ca7" stroke-width="1.4" stroke-linecap="round" /><line x1="20.137273794382434" y1="43.122418328792875" x2="23.337273794382437" y2="39.92241832879287" stroke="#e87ca7" stroke-width="1.4" stroke-linecap="round" /><line x1="17.786435849366132" y1="36.47437234764581" x2="20.986435849366135" y2="39.674372347645814" stroke="#e87ca7" stroke-width="1.4" stroke-linecap="round" /><line x1="17.786435849366132" y1="39.674372347645814" x2="20.986435849366135" y2="36.47437234764581" stroke="#e87ca7" stroke-width="1.4" stroke-linecap="round" /><line x1="16.5563684328482" y1="32.48659172646644" x2="19.756368432848202" y2="35.686591726466446" stroke="#e87ca7" stroke-width="1.4" stroke-linecap="round" /><line x1="16.5563684328482" y1="35.686591726466446" x2="19.756368432848202" y2="32.48659172646644" stroke="#e87ca7" stroke-width="1.4" stroke-linecap="round" /><line x1="16.5563684328482" y1="28.313408273533557" x2="19.756368432848202" y2="31.51340827353356" stroke="#e87ca7" stroke-width="1.4" stroke-linecap="round" /><line x1="16.5563684328482" y1="31.51340827353356" x2="19.756368432848202" y2="28.313408273533557" stroke="#e87ca7" stroke-width="1.4" stroke-linecap="round" /><line x1="17.78643584936613" y1="24.325627652354186" x2="20.98643584936613" y2="27.52562765235419" stroke="#e87ca7" stroke-width="1.4" stroke-linecap="round" /><line x1="17.78643584936613" y1="27.52562765235419" x2="20.98643584936613" y2="24.325627652354186" stroke="#e87ca7" stroke-width="1.4" stroke-linecap="round" /><line x1="20.13727379438243" y1="20.877581671207125" x2="23.337273794382433" y2="24.077581671207128" stroke="#e87ca7" stroke-width="1.4" stroke-linecap="round" /><line x1="20.13727379438243" y1="24.077581671207128" x2="23.337273794382433" y2="20.877581671207125" stroke="#e87ca7" stroke-width="1.4" stroke-linecap="round" /><line x1="23.39999999999999" y1="18.27564434701786" x2="26.599999999999994" y2="21.475644347017862" stroke="#e87ca7" stroke-width="1.4" stroke-linecap="round" /><line x1="23.39999999999999" y1="21.475644347017862" x2="26.599999999999994" y2="18.27564434701786" stroke="#e87ca7" stroke-width="1.4" stroke-linecap="round" /><line x1="27.284706924611594" y1="16.751009229454468" x2="30.484706924611597" y2="19.95100922945447" stroke="#e87ca7" stroke-width="1.4" stroke-linecap="round" /><line x1="27.284706924611594" y1="19.95100922945447" x2="30.484706924611597" y2="16.751009229454468" stroke="#e87ca7" stroke-width="1.4" stroke-linecap="round" /><line x1="31.44622131020993" y1="16.439146839463476" x2="34.64622131020993" y2="19.63914683946348" stroke="#e87ca7" stroke-width="1.4" stroke-linecap="round" /><line x1="31.44622131020993" y1="19.63914683946348" x2="34.64622131020993" y2="16.439146839463476" stroke="#e87ca7" stroke-width="1.4" stroke-linecap="round" /><line x1="35.514774341129524" y1="17.367767518981136" x2="38.71477434112953" y2="20.56776751898114" stroke="#e87ca7" stroke-width="1.4" stroke-linecap="round" /><line x1="35.514774341129524" y1="20.56776751898114" x2="38.71477434112953" y2="17.367767518981136" stroke="#e87ca7" stroke-width="1.4" stroke-linecap="round" /><line x1="39.12885722602227" y1="19.45435924544758" x2="42.32885722602227" y2="22.654359245447584" stroke="#e87ca7" stroke-width="1.4" stroke-linecap="round" /><line x1="39.12885722602227" y1="22.654359245447584" x2="42.32885722602227" y2="19.45435924544758" stroke="#e87ca7" stroke-width="1.4" stroke-linecap="round" /><line x1="41.96734284042393" y1="22.513519187109292" x2="45.167342840423935" y2="25.713519187109295" stroke="#e87ca7" stroke-width="1.4" stroke-linecap="round" /><line x1="41.96734284042393" y1="25.713519187109295" x2="45.167342840423935" y2="22.513519187109292" stroke="#e87ca7" stroke-width="1.4" stroke-linecap="round" /><line x1="43.77801928100597" y1="26.273427558247334" x2="46.97801928100597" y2="29.473427558247337" stroke="#e87ca7" stroke-width="1.4" stroke-linecap="round" /><line x1="43.77801928100597" y1="29.473427558247337" x2="46.97801928100597" y2="26.273427558247334" stroke="#e87ca7" stroke-width="1.4" stroke-linecap="round" /><line x1="35.4" y1="30.4" x2="38.6" y2="33.6" stroke="#e87ca7" stroke-width="1.4" stroke-linecap="round" /><line x1="35.4" y1="33.6" x2="38.6" y2="30.4" stroke="#e87ca7" stroke-width="1.4" stroke-linecap="round" /><line x1="33.517449009293664" y1="34.30915741234015" x2="36.71744900929367" y2="37.50915741234015" stroke="#e87ca7" stroke-width="1.4" stroke-linecap="round" /><line x1="33.517449009293664" y1="37.50915741234015" x2="36.71744900929367" y2="34.30915741234015" stroke="#e87ca7" stroke-width="1.4" stroke-linecap="round" /><line x1="29.287395330218427" y1="35.274639560909115" x2="32.487395330218426" y2="38.47463956090912" stroke="#e87ca7" stroke-width="1.4" stroke-linecap="round" /><line x1="29.287395330218427" y1="38.47463956090912" x2="32.487395330218426" y2="35.274639560909115" stroke="#e87ca7" stroke-width="1.4" stroke-linecap="round" /><line x1="25.8951556604879" y1="32.56941869558779" x2="29.095155660487904" y2="35.769418695587795" stroke="#e87ca7" stroke-width="1.4" stroke-linecap="round" /><line x1="25.8951556604879" y1="35.769418695587795" x2="29.095155660487904" y2="32.56941869558779" stroke="#e87ca7" stroke-width="1.4" stroke-linecap="round" /><line x1="25.8951556604879" y1="28.23058130441221" x2="29.095155660487904" y2="31.43058130441221" stroke="#e87ca7" stroke-width="1.4" stroke-linecap="round" /><line x1="25.8951556604879" y1="31.43058130441221" x2="29.095155660487904" y2="28.23058130441221" stroke="#e87ca7" stroke-width="1.4" stroke-linecap="round" /><line x1="29.287395330218427" y1="25.525360439090882" x2="32.487395330218426" y2="28.725360439090885" stroke="#e87ca7" stroke-width="1.4" stroke-linecap="round" /><line x1="29.287395330218427" y1="28.725360439090885" x2="32.487395330218426" y2="25.525360439090882" stroke="#e87ca7" stroke-width="1.4" stroke-linecap="round" /><line x1="33.517449009293664" y1="26.49084258765985" x2="36.71744900929367" y2="29.69084258765985" stroke="#e87ca7" stroke-width="1.4" stroke-linecap="round" /><line x1="33.517449009293664" y1="29.69084258765985" x2="36.71744900929367" y2="26.49084258765985" stroke="#e87ca7" stroke-width="1.4" stroke-linecap="round" /><line x1="28.4" y1="6.4" x2="31.6" y2="9.6" stroke="#e87ca7" stroke-width="1.4" stroke-linecap="round" /><line x1="28.4" y1="9.6" x2="31.6" y2="6.4" stroke="#e87ca7" stroke-width="1.4" stroke-linecap="round" /><line x1="30.4" y1="6.4" x2="33.6" y2="9.6" stroke="#e87ca7" stroke-width="1.4" stroke-linecap="round" /><line x1="30.4" y1="9.6" x2="33.6" y2="6.4" stroke="#e87ca7" stroke-width="1.4" stroke-linecap="round" /><line x1="32.4" y1="6.4" x2="35.6" y2="9.6" stroke="#e87ca7" stroke-width="1.4" stroke-linecap="round" /><line x1="32.4" y1="9.6" x2="35.6" y2="6.4" stroke="#e87ca7" stroke-width="1.4" stroke-linecap="round" /><line x1="32.4" y1="6.4" x2="35.6" y2="9.6" stroke="#e87ca7" stroke-width="1.4" stroke-linecap="round" /><line x1="32.4" y1="9.6" x2="35.6" y2="6.4" stroke="#e87ca7" stroke-width="1.4" stroke-linecap="round" /><line x1="32.4" y1="9.4" x2="35.6" y2="12.6" stroke="#e87ca7" stroke-width="1.4" stroke-linecap="round" /><line x1="32.4" y1="12.6" x2="35.6" y2="9.4" stroke="#e87ca7" stroke-width="1.4" stroke-linecap="round" /><line x1="32.4" y1="12.4" x2="35.6" y2="15.6" stroke="#e87ca7" stroke-width="1.4" stroke-linecap="round" /><line x1="32.4" y1="15.6" x2="35.6" y2="12.4" stroke="#e87ca7" stroke-width="1.4" stroke-linecap="round" /><line x1="32.4" y1="12.4" x2="35.6" y2="15.6" stroke="#e87ca7" stroke-width="1.4" stroke-linecap="round" /><line x1="32.4" y1="15.6" x2="35.6" y2="12.4" stroke="#e87ca7" stroke-width="1.4" stroke-linecap="round" /><line x1="30.4" y1="12.4" x2="33.6" y2="15.6" stroke="#e87ca7" stroke-width="1.4" stroke-linecap="round" /><line x1="30.4" y1="15.6" x2="33.6" y2="12.4" stroke="#e87ca7" stroke-width="1.4" stroke-linecap="round" /><line x1="28.4" y1="12.4" x2="31.6" y2="15.6" stroke="#e87ca7" stroke-width="1.4" stroke-linecap="round" /><line x1="28.4" y1="15.6" x2="31.6" y2="12.4" stroke="#e87ca7" stroke-width="1.4" stroke-linecap="round" /><line x1="28.4" y1="12.4" x2="31.6" y2="15.6" stroke="#e87ca7" stroke-width="1.4" stroke-linecap="round" /><line x1="28.4" y1="15.6" x2="31.6" y2="12.4" stroke="#e87ca7" stroke-width="1.4" stroke-linecap="round" /><line x1="28.4" y1="9.4" x2="31.6" y2="12.6" stroke="#e87ca7" stroke-width="1.4" stroke-linecap="round" /><line x1="28.4" y1="12.6" x2="31.6" y2="9.4" stroke="#e87ca7" stroke-width="1.4" stroke-linecap="round" /><line x1="28.4" y1="6.4" x2="31.6" y2="9.6" stroke="#e87ca7" stroke-width="1.4" stroke-linecap="round" /><line x1="28.4" y1="9.6" x2="31.6" y2="6.4" stroke="#e87ca7" stroke-width="1.4" stroke-linecap="round" /><line x1="28.4" y1="48.4" x2="31.6" y2="51.6" stroke="#e87ca7" stroke-width="1.4" stroke-linecap="round" /><line x1="28.4" y1="51.6" x2="31.6" y2="48.4" stroke="#e87ca7" stroke-width="1.4" stroke-linecap="round" /><line x1="30.4" y1="48.4" x2="33.6" y2="51.6" stroke="#e87ca7" stroke-width="1.4" stroke-linecap="round" /><line x1="30.4" y1="51.6" x2="33.6" y2="48.4" stroke="#e87ca7" stroke-width="1.4" stroke-linecap="round" /><line x1="32.4" y1="48.4" x2="35.6" y2="51.6" stroke="#e87ca7" stroke-width="1.4" stroke-linecap="round" /><line x1="32.4" y1="51.6" x2="35.6" y2="48.4" stroke="#e87ca7" stroke-width="1.4" stroke-linecap="round" /><line x1="32.4" y1="48.4" x2="35.6" y2="51.6" stroke="#e87ca7" stroke-width="1.4" stroke-linecap="round" /><line x1="32.4" y1="51.6" x2="35.6" y2="48.4" stroke="#e87ca7" stroke-width="1.4" stroke-linecap="round" /><line x1="32.4" y1="51.4" x2="35.6" y2="54.6" stroke="#e87ca7" stroke-width="1.4" stroke-linecap="round" /><line x1="32.4" y1="54.6" x2="35.6" y2="51.4" stroke="#e87ca7" stroke-width="1.4" stroke-linecap="round" /><line x1="32.4" y1="54.4" x2="35.6" y2="57.6" stroke="#e87ca7" stroke-width="1.4" stroke-linecap="round" /><line x1="32.4" y1="57.6" x2="35.6" y2="54.4" stroke="#e87ca7" stroke-width="1.4" stroke-linecap="round" /><line x1="32.4" y1="54.4" x2="35.6" y2="57.6" stroke="#e87ca7" stroke-width="1.4" stroke-linecap="round" /><line x1="32.4" y1="57.6" x2="35.6" y2="54.4" stroke="#e87ca7" stroke-width="1.4" stroke-linecap="round" /><line x1="30.4" y1="54.4" x2="33.6" y2="57.6" stroke="#e87ca7" stroke-width="1.4" stroke-linecap="round" /><line x1="30.4" y1="57.6" x2="33.6" y2="54.4" stroke="#e87ca7" stroke-width="1.4" stroke-linecap="round" /><line x1="28.4" y1="54.4" x2="31.6" y2="57.6" stroke="#e87ca7" stroke-width="1.4" stroke-linecap="round" /><line x1="28.4" y1="57.6" x2="31.6" y2="54.4" stroke="#e87ca7" stroke-width="1.4" stroke-linecap="round" /><line x1="28.4" y1="54.4" x2="31.6" y2="57.6" stroke="#e87ca7" stroke-width="1.4" stroke-linecap="round" /><line x1="28.4" y1="57.6" x2="31.6" y2="54.4" stroke="#e87ca7" stroke-width="1.4" stroke-linecap="round" /><line x1="28.4" y1="51.4" x2="31.6" y2="54.6" stroke="#e87ca7" stroke-width="1.4" stroke-linecap="round" /><line x1="28.4" y1="54.6" x2="31.6" y2="51.4" stroke="#e87ca7" stroke-width="1.4" stroke-linecap="round" /><line x1="28.4" y1="48.4" x2="31.6" y2="51.6" stroke="#e87ca7" stroke-width="1.4" stroke-linecap="round" /><line x1="28.4" y1="51.6" x2="31.6" y2="48.4" stroke="#e87ca7" stroke-width="1.4" stroke-linecap="round" /><line x1="6.4" y1="28.4" x2="9.6" y2="31.6" stroke="#e87ca7" stroke-width="1.4" stroke-linecap="round" /><line x1="6.4" y1="31.6" x2="9.6" y2="28.4" stroke="#e87ca7" stroke-width="1.4" stroke-linecap="round" /><line x1="9.4" y1="28.4" x2="12.6" y2="31.6" stroke="#e87ca7" stroke-width="1.4" stroke-linecap="round" /><line x1="9.4" y1="31.6" x2="12.6" y2="28.4" stroke="#e87ca7" stroke-width="1.4" stroke-linecap="round" /><line x1="12.4" y1="28.4" x2="15.6" y2="31.6" stroke="#e87ca7" stroke-width="1.4" stroke-linecap="round" /><line x1="12.4" y1="31.6" x2="15.6" y2="28.4" stroke="#e87ca7" stroke-width="1.4" stroke-linecap="round" /><line x1="12.4" y1="28.4" x2="15.6" y2="31.6" stroke="#e87ca7" stroke-width="1.4" stroke-linecap="round" /><line x1="12.4" y1="31.6" x2="15.6" y2="28.4" stroke="#e87ca7" stroke-width="1.4" stroke-linecap="round" /><line x1="12.4" y1="30.4" x2="15.6" y2="33.6" stroke="#e87ca7" stroke-width="1.4" stroke-linecap="round" /><line x1="12.4" y1="33.6" x2="15.6" y2="30.4" stroke="#e87ca7" stroke-width="1.4" stroke-linecap="round" /><line x1="12.4" y1="32.4" x2="15.6" y2="35.6" stroke="#e87ca7" stroke-width="1.4" stroke-linecap="round" /><line x1="12.4" y1="35.6" x2="15.6" y2="32.4" stroke="#e87ca7" stroke-width="1.4" stroke-linecap="round" /><line x1="12.4" y1="32.4" x2="15.6" y2="35.6" stroke="#e87ca7" stroke-width="1.4" stroke-linecap="round" /><line x1="12.4" y1="35.6" x2="15.6" y2="32.4" stroke="#e87ca7" stroke-width="1.4" stroke-linecap="round" /><line x1="9.4" y1="32.4" x2="12.6" y2="35.6" stroke="#e87ca7" stroke-width="1.4" stroke-linecap="round" /><line x1="9.4" y1="35.6" x2="12.6" y2="32.4" stroke="#e87ca7" stroke-width="1.4" stroke-linecap="round" /><line x1="6.4" y1="32.4" x2="9.6" y2="35.6" stroke="#e87ca7" stroke-width="1.4" stroke-linecap="round" /><line x1="6.4" y1="35.6" x2="9.6" y2="32.4" stroke="#e87ca7" stroke-width="1.4" stroke-linecap="round" /><line x1="6.4" y1="32.4" x2="9.6" y2="35.6" stroke="#e87ca7" stroke-width="1.4" stroke-linecap="round" /><line x1="6.4" y1="35.6" x2="9.6" y2="32.4" stroke="#e87ca7" stroke-width="1.4" stroke-linecap="round" /><line x1="6.4" y1="30.4" x2="9.6" y2="33.6" stroke="#e87ca7" stroke-width="1.4" stroke-linecap="round" /><line x1="6.4" y1="33.6" x2="9.6" y2="30.4" stroke="#e87ca7" stroke-width="1.4" stroke-linecap="round" /><line x1="6.4" y1="28.4" x2="9.6" y2="31.6" stroke="#e87ca7" stroke-width="1.4" stroke-linecap="round" /><line x1="6.4" y1="31.6" x2="9.6" y2="28.4" stroke="#e87ca7" stroke-width="1.4" stroke-linecap="round" /><line x1="48.4" y1="28.4" x2="51.6" y2="31.6" stroke="#e87ca7" stroke-width="1.4" stroke-linecap="round" /><line x1="48.4" y1="31.6" x2="51.6" y2="28.4" stroke="#e87ca7" stroke-width="1.4" stroke-linecap="round" /><line x1="51.4" y1="28.4" x2="54.6" y2="31.6" stroke="#e87ca7" stroke-width="1.4" stroke-linecap="round" /><line x1="51.4" y1="31.6" x2="54.6" y2="28.4" stroke="#e87ca7" stroke-width="1.4" stroke-linecap="round" /><line x1="54.4" y1="28.4" x2="57.6" y2="31.6" stroke="#e87ca7" stroke-width="1.4" stroke-linecap="round" /><line x1="54.4" y1="31.6" x2="57.6" y2="28.4" stroke="#e87ca7" stroke-width="1.4" stroke-linecap="round" /><line x1="54.4" y1="28.4" x2="57.6" y2="31.6" stroke="#e87ca7" stroke-width="1.4" stroke-linecap="round" /><line x1="54.4" y1="31.6" x2="57.6" y2="28.4" stroke="#e87ca7" stroke-width="1.4" stroke-linecap="round" /><line x1="54.4" y1="30.4" x2="57.6" y2="33.6" stroke="#e87ca7" stroke-width="1.4" stroke-linecap="round" /><line x1="54.4" y1="33.6" x2="57.6" y2="30.4" stroke="#e87ca7" stroke-width="1.4" stroke-linecap="round" /><line x1="54.4" y1="32.4" x2="57.6" y2="35.6" stroke="#e87ca7" stroke-width="1.4" stroke-linecap="round" /><line x1="54.4" y1="35.6" x2="57.6" y2="32.4" stroke="#e87ca7" stroke-width="1.4" stroke-linecap="round" /><line x1="54.4" y1="32.4" x2="57.6" y2="35.6" stroke="#e87ca7" stroke-width="1.4" stroke-linecap="round" /><line x1="54.4" y1="35.6" x2="57.6" y2="32.4" stroke="#e87ca7" stroke-width="1.4" stroke-linecap="round" /><line x1="51.4" y1="32.4" x2="54.6" y2="35.6" stroke="#e87ca7" stroke-width="1.4" stroke-linecap="round" /><line x1="51.4" y1="35.6" x2="54.6" y2="32.4" stroke="#e87ca7" stroke-width="1.4" stroke-linecap="round" /><line x1="48.4" y1="32.4" x2="51.6" y2="35.6" stroke="#e87ca7" stroke-width="1.4" stroke-linecap="round" /><line x1="48.4" y1="35.6" x2="51.6" y2="32.4" stroke="#e87ca7" stroke-width="1.4" stroke-linecap="round" /><line x1="48.4" y1="32.4" x2="51.6" y2="35.6" stroke="#e87ca7" stroke-width="1.4" stroke-linecap="round" /><line x1="48.4" y1="35.6" x2="51.6" y2="32.4" stroke="#e87ca7" stroke-width="1.4" stroke-linecap="round" /><line x1="48.4" y1="30.4" x2="51.6" y2="33.6" stroke="#e87ca7" stroke-width="1.4" stroke-linecap="round" /><line x1="48.4" y1="33.6" x2="51.6" y2="30.4" stroke="#e87ca7" stroke-width="1.4" stroke-linecap="round" /><line x1="48.4" y1="28.4" x2="51.6" y2="31.6" stroke="#e87ca7" stroke-width="1.4" stroke-linecap="round" /><line x1="48.4" y1="31.6" x2="51.6" y2="28.4" stroke="#e87ca7" stroke-width="1.4" stroke-linecap="round" /><line x1="42.4" y1="16.4" x2="45.6" y2="19.6" stroke="#e87ca7" stroke-width="1.4" stroke-linecap="round" /><line x1="42.4" y1="19.6" x2="45.6" y2="16.4" stroke="#e87ca7" stroke-width="1.4" stroke-linecap="round" /><line x1="44.4" y1="17.4" x2="47.6" y2="20.6" stroke="#e87ca7" stroke-width="1.4" stroke-linecap="round" /><line x1="44.4" y1="20.6" x2="47.6" y2="17.4" stroke="#e87ca7" stroke-width="1.4" stroke-linecap="round" /><line x1="46.4" y1="18.4" x2="49.6" y2="21.6" stroke="#e87ca7" stroke-width="1.4" stroke-linecap="round" /><line x1="46.4" y1="21.6" x2="49.6" y2="18.4" stroke="#e87ca7" stroke-width="1.4" stroke-linecap="round" /><line x1="46.4" y1="18.4" x2="49.6" y2="21.6" stroke="#e87ca7" stroke-width="1.4" stroke-linecap="round" /><line x1="46.4" y1="21.6" x2="49.6" y2="18.4" stroke="#e87ca7" stroke-width="1.4" stroke-linecap="round" /><line x1="44.4" y1="20.4" x2="47.6" y2="23.6" stroke="#e87ca7" stroke-width="1.4" stroke-linecap="round" /><line x1="44.4" y1="23.6" x2="47.6" y2="20.4" stroke="#e87ca7" stroke-width="1.4" stroke-linecap="round" /><line x1="42.4" y1="22.4" x2="45.6" y2="25.6" stroke="#e87ca7" stroke-width="1.4" stroke-linecap="round" /><line x1="42.4" y1="25.6" x2="45.6" y2="22.4" stroke="#e87ca7" stroke-width="1.4" stroke-linecap="round" /><line x1="42.4" y1="22.4" x2="45.6" y2="25.6" stroke="#e87ca7" stroke-width="1.4" stroke-linecap="round" /><line x1="42.4" y1="25.6" x2="45.6" y2="22.4" stroke="#e87ca7" stroke-width="1.4" stroke-linecap="round" /><line x1="40.4" y1="20.4" x2="43.6" y2="23.6" stroke="#e87ca7" stroke-width="1.4" stroke-linecap="round" /><line x1="40.4" y1="23.6" x2="43.6" y2="20.4" stroke="#e87ca7" stroke-width="1.4" stroke-linecap="round" /><line x1="38.4" y1="18.4" x2="41.6" y2="21.6" stroke="#e87ca7" stroke-width="1.4" stroke-linecap="round" /><line x1="38.4" y1="21.6" x2="41.6" y2="18.4" stroke="#e87ca7" stroke-width="1.4" stroke-linecap="round" /><line x1="38.4" y1="18.4" x2="41.6" y2="21.6" stroke="#e87ca7" stroke-width="1.4" stroke-linecap="round" /><line x1="38.4" y1="21.6" x2="41.6" y2="18.4" stroke="#e87ca7" stroke-width="1.4" stroke-linecap="round" /><line x1="40.4" y1="17.4" x2="43.6" y2="20.6" stroke="#e87ca7" stroke-width="1.4" stroke-linecap="round" /><line x1="40.4" y1="20.6" x2="43.6" y2="17.4" stroke="#e87ca7" stroke-width="1.4" stroke-linecap="round" /><line x1="42.4" y1="16.4" x2="45.6" y2="19.6" stroke="#e87ca7" stroke-width="1.4" stroke-linecap="round" /><line x1="42.4" y1="19.6" x2="45.6" y2="16.4" stroke="#e87ca7" stroke-width="1.4" stroke-linecap="round" /><line x1="18.4" y1="16.4" x2="21.6" y2="19.6" stroke="#e87ca7" stroke-width="1.4" stroke-linecap="round" /><line x1="18.4" y1="19.6" x2="21.6" y2="16.4" stroke="#e87ca7" stroke-width="1.4" stroke-linecap="round" /><line x1="20.4" y1="17.4" x2="23.6" y2="20.6" stroke="#e87ca7" stroke-width="1.4" stroke-linecap="round" /><line x1="20.4" y1="20.6" x2="23.6" y2="17.4" stroke="#e87ca7" stroke-width="1.4" stroke-linecap="round" /><line x1="22.4" y1="18.4" x2="25.6" y2="21.6" stroke="#e87ca7" stroke-width="1.4" stroke-linecap="round" /><line x1="22.4" y1="21.6" x2="25.6" y2="18.4" stroke="#e87ca7" stroke-width="1.4" stroke-linecap="round" /><line x1="22.4" y1="18.4" x2="25.6" y2="21.6" stroke="#e87ca7" stroke-width="1.4" stroke-linecap="round" /><line x1="22.4" y1="21.6" x2="25.6" y2="18.4" stroke="#e87ca7" stroke-width="1.4" stroke-linecap="round" /><line x1="20.4" y1="20.4" x2="23.6" y2="23.6" stroke="#e87ca7" stroke-width="1.4" stroke-linecap="round" /><line x1="20.4" y1="23.6" x2="23.6" y2="20.4" stroke="#e87ca7" stroke-width="1.4" stroke-linecap="round" /><line x1="18.4" y1="22.4" x2="21.6" y2="25.6" stroke="#e87ca7" stroke-width="1.4" stroke-linecap="round" /><line x1="18.4" y1="25.6" x2="21.6" y2="22.4" stroke="#e87ca7" stroke-width="1.4" stroke-linecap="round" /><line x1="18.4" y1="22.4" x2="21.6" y2="25.6" stroke="#e87ca7" stroke-width="1.4" stroke-linecap="round" /><line x1="18.4" y1="25.6" x2="21.6" y2="22.4" stroke="#e87ca7" stroke-width="1.4" stroke-linecap="round" /><line x1="16.4" y1="20.4" x2="19.6" y2="23.6" stroke="#e87ca7" stroke-width="1.4" stroke-linecap="round" /><line x1="16.4" y1="23.6" x2="19.6" y2="20.4" stroke="#e87ca7" stroke-width="1.4" stroke-linecap="round" /><line x1="14.4" y1="18.4" x2="17.6" y2="21.6" stroke="#e87ca7" stroke-width="1.4" stroke-linecap="round" /><line x1="14.4" y1="21.6" x2="17.6" y2="18.4" stroke="#e87ca7" stroke-width="1.4" stroke-linecap="round" /><line x1="14.4" y1="18.4" x2="17.6" y2="21.6" stroke="#e87ca7" stroke-width="1.4" stroke-linecap="round" /><line x1="14.4" y1="21.6" x2="17.6" y2="18.4" stroke="#e87ca7" stroke-width="1.4" stroke-linecap="round" /><line x1="16.4" y1="17.4" x2="19.6" y2="20.6" stroke="#e87ca7" stroke-width="1.4" stroke-linecap="round" /><line x1="16.4" y1="20.6" x2="19.6" y2="17.4" stroke="#e87ca7" stroke-width="1.4" stroke-linecap="round" /><line x1="18.4" y1="16.4" x2="21.6" y2="19.6" stroke="#e87ca7" stroke-width="1.4" stroke-linecap="round" /><line x1="18.4" y1="19.6" x2="21.6" y2="16.4" stroke="#e87ca7" stroke-width="1.4" stroke-linecap="round" /><line x1="42.4" y1="44.4" x2="45.6" y2="47.6" stroke="#e87ca7" stroke-width="1.4" stroke-linecap="round" /><line x1="42.4" y1="47.6" x2="45.6" y2="44.4" stroke="#e87ca7" stroke-width="1.4" stroke-linecap="round" /><line x1="44.4" y1="43.4" x2="47.6" y2="46.6" stroke="#e87ca7" stroke-width="1.4" stroke-linecap="round" /><line x1="44.4" y1="46.6" x2="47.6" y2="43.4" stroke="#e87ca7" stroke-width="1.4" stroke-linecap="round" /><line x1="46.4" y1="42.4" x2="49.6" y2="45.6" stroke="#e87ca7" stroke-width="1.4" stroke-linecap="round" /><line x1="46.4" y1="45.6" x2="49.6" y2="42.4" stroke="#e87ca7" stroke-width="1.4" stroke-linecap="round" /><line x1="46.4" y1="42.4" x2="49.6" y2="45.6" stroke="#e87ca7" stroke-width="1.4" stroke-linecap="round" /><line x1="46.4" y1="45.6" x2="49.6" y2="42.4" stroke="#e87ca7" stroke-width="1.4" stroke-linecap="round" /><line x1="44.4" y1="40.4" x2="47.6" y2="43.6" stroke="#e87ca7" stroke-width="1.4" stroke-linecap="round" /><line x1="44.4" y1="43.6" x2="47.6" y2="40.4" stroke="#e87ca7" stroke-width="1.4" stroke-linecap="round" /><line x1="42.4" y1="38.4" x2="45.6" y2="41.6" stroke="#e87ca7" stroke-width="1.4" stroke-linecap="round" /><line x1="42.4" y1="41.6" x2="45.6" y2="38.4" stroke="#e87ca7" stroke-width="1.4" stroke-linecap="round" /><line x1="42.4" y1="38.4" x2="45.6" y2="41.6" stroke="#e87ca7" stroke-width="1.4" stroke-linecap="round" /><line x1="42.4" y1="41.6" x2="45.6" y2="38.4" stroke="#e87ca7" stroke-width="1.4" stroke-linecap="round" /><line x1="40.4" y1="40.4" x2="43.6" y2="43.6" stroke="#e87ca7" stroke-width="1.4" stroke-linecap="round" /><line x1="40.4" y1="43.6" x2="43.6" y2="40.4" stroke="#e87ca7" stroke-width="1.4" stroke-linecap="round" /><line x1="38.4" y1="42.4" x2="41.6" y2="45.6" stroke="#e87ca7" stroke-width="1.4" stroke-linecap="round" /><line x1="38.4" y1="45.6" x2="41.6" y2="42.4" stroke="#e87ca7" stroke-width="1.4" stroke-linecap="round" /><line x1="38.4" y1="42.4" x2="41.6" y2="45.6" stroke="#e87ca7" stroke-width="1.4" stroke-linecap="round" /><line x1="38.4" y1="45.6" x2="41.6" y2="42.4" stroke="#e87ca7" stroke-width="1.4" stroke-linecap="round" /><line x1="40.4" y1="43.4" x2="43.6" y2="46.6" stroke="#e87ca7" stroke-width="1.4" stroke-linecap="round" /><line x1="40.4" y1="46.6" x2="43.6" y2="43.4" stroke="#e87ca7" stroke-width="1.4" stroke-linecap="round" /><line x1="42.4" y1="44.4" x2="45.6" y2="47.6" stroke="#e87ca7" stroke-width="1.4" stroke-linecap="round" /><line x1="42.4" y1="47.6" x2="45.6" y2="44.4" stroke="#e87ca7" stroke-width="1.4" stroke-linecap="round" /><line x1="18.4" y1="44.4" x2="21.6" y2="47.6" stroke="#e87ca7" stroke-width="1.4" stroke-linecap="round" /><line x1="18.4" y1="47.6" x2="21.6" y2="44.4" stroke="#e87ca7" stroke-width="1.4" stroke-linecap="round" /><line x1="20.4" y1="43.4" x2="23.6" y2="46.6" stroke="#e87ca7" stroke-width="1.4" stroke-linecap="round" /><line x1="20.4" y1="46.6" x2="23.6" y2="43.4" stroke="#e87ca7" stroke-width="1.4" stroke-linecap="round" /><line x1="22.4" y1="42.4" x2="25.6" y2="45.6" stroke="#e87ca7" stroke-width="1.4" stroke-linecap="round" /><line x1="22.4" y1="45.6" x2="25.6" y2="42.4" stroke="#e87ca7" stroke-width="1.4" stroke-linecap="round" /><line x1="22.4" y1="42.4" x2="25.6" y2="45.6" stroke="#e87ca7" stroke-width="1.4" stroke-linecap="round" /><line x1="22.4" y1="45.6" x2="25.6" y2="42.4" stroke="#e87ca7" stroke-width="1.4" stroke-linecap="round" /><line x1="20.4" y1="40.4" x2="23.6" y2="43.6" stroke="#e87ca7" stroke-width="1.4" stroke-linecap="round" /><line x1="20.4" y1="43.6" x2="23.6" y2="40.4" stroke="#e87ca7" stroke-width="1.4" stroke-linecap="round" /><line x1="18.4" y1="38.4" x2="21.6" y2="41.6" stroke="#e87ca7" stroke-width="1.4" stroke-linecap="round" /><line x1="18.4" y1="41.6" x2="21.6" y2="38.4" stroke="#e87ca7" stroke-width="1.4" stroke-linecap="round" /><line x1="18.4" y1="38.4" x2="21.6" y2="41.6" stroke="#e87ca7" stroke-width="1.4" stroke-linecap="round" /><line x1="18.4" y1="41.6" x2="21.6" y2="38.4" stroke="#e87ca7" stroke-width="1.4" stroke-linecap="round" /><line x1="16.4" y1="40.4" x2="19.6" y2="43.6" stroke="#e87ca7" stroke-width="1.4" stroke-linecap="round" /><line x1="16.4" y1="43.6" x2="19.6" y2="40.4" stroke="#e87ca7" stroke-width="1.4" stroke-linecap="round" /><line x1="14.4" y1="42.4" x2="17.6" y2="45.6" stroke="#e87ca7" stroke-width="1.4" stroke-linecap="round" /><line x1="14.4" y1="45.6" x2="17.6" y2="42.4" stroke="#e87ca7" stroke-width="1.4" stroke-linecap="round" /><line x1="14.4" y1="42.4" x2="17.6" y2="45.6" stroke="#e87ca7" stroke-width="1.4" stroke-linecap="round" /><line x1="14.4" y1="45.6" x2="17.6" y2="42.4" stroke="#e87ca7" stroke-width="1.4" stroke-linecap="round" /><line x1="16.4" y1="43.4" x2="19.6" y2="46.6" stroke="#e87ca7" stroke-width="1.4" stroke-linecap="round" /><line x1="16.4" y1="46.6" x2="19.6" y2="43.4" stroke="#e87ca7" stroke-width="1.4" stroke-linecap="round" /><line x1="18.4" y1="44.4" x2="21.6" y2="47.6" stroke="#e87ca7" stroke-width="1.4" stroke-linecap="round" /><line x1="18.4" y1="47.6" x2="21.6" y2="44.4" stroke="#e87ca7" stroke-width="1.4" stroke-linecap="round" />
</svg>
