<svg xmlns="http://www.w3.org/2000/svg" style="display:none">
  <symbol id="g-wallpaper" viewBox="0 0 24 24">
    <rect x="3" y="4" width="18" height="16" rx="4"/>
    <path d="M6.5 16.5 10 12.8l2.2 2.1 3.3-4.2 2.7 5.8"/>
    <circle cx="8.5" cy="8.5" r="1.3"/>
  </symbol>
  <symbol id="g-icons" viewBox="0 0 24 24">
    <rect x="4" y="4" width="6.5" height="6.5" rx="2"/>
    <rect x="13.5" y="4" width="6.5" height="6.5" rx="2"/>
    <rect x="4" y="13.5" width="6.5" height="6.5" rx="2"/>
    <rect x="13.5" y="13.5" width="6.5" height="6.5" rx="2"/>
    <path d="M7.2 7.2h.1M16.8 7.2h.1M7.2 16.8h.1M16.8 16.8h.1"/>
  </symbol>
  <symbol id="g-cursors" viewBox="0 0 24 24">
    <path d="M5 3.8 18.8 12 13 13.4l3.1 5.4-2.7 1.5-3.1-5.3-4.2 4.2Z"/>
    <path d="M15.8 5.4h3M17.7 8.2h2.1M18.5 15.3h2.4" opacity=".55"/>
  </symbol>
  <symbol id="g-widgets" viewBox="0 0 24 24">
    <path d="M8 5.2h8l2.6 2.6v10.1a2 2 0 0 1-2 2H7.4a2 2 0 0 1-2-2V7.8Z"/>
    <path d="M8.1 5.4 12 2.7l3.9 2.7M8.5 11.2h7M8.5 15h4.8"/>
    <circle cx="12" cy="7.4" r="1.1"/>
  </symbol>
  <symbol id="g-apps" viewBox="0 0 24 24">
    <rect x="4" y="4" width="16" height="16" rx="5"/>
    <circle cx="9" cy="10" r="1.2"/>
    <circle cx="15" cy="10" r="1.2"/>
    <path d="M8.5 15c1.9 1.4 5.1 1.4 7 0"/>
  </symbol>
  <symbol id="g-install" viewBox="0 0 24 24">
    <path d="M12 3v10"/>
    <path d="m8 9 4 4 4-4"/>
    <path d="M5 15.5c1.2 3 2.9 4.5 7 4.5s5.8-1.5 7-4.5"/>
    <path d="M7.2 16.4h9.6"/>
  </symbol>
  <symbol id="g-settings" viewBox="0 0 24 24">
    <circle cx="12" cy="12" r="3.1"/>
    <path d="M12 3.8v2.1M12 18.1v2.1M5.8 5.8l1.5 1.5M16.7 16.7l1.5 1.5M3.8 12h2.1M18.1 12h2.1M5.8 18.2l1.5-1.5M16.7 7.3l1.5-1.5"/>
  </symbol>
  <symbol id="g-about" viewBox="0 0 24 24">
    <path d="M3.5 12s3-5.2 8.5-5.2 8.5 5.2 8.5 5.2-3 5.2-8.5 5.2S3.5 12 3.5 12Z"/>
    <circle cx="12" cy="12" r="3.2"/>
    <circle cx="13.2" cy="10.8" r=".8"/>
  </symbol>
</svg>
