<svg xmlns="http://www.w3.org/2000/svg" viewBox="0 0 1024 1024" width="1024" height="1024" role="img" aria-label="Blueprint Settings"><defs><clipPath id="sq"><path d="M 350.06 0 L 673.94 0 C 774.74 0 825.13 0 879.39 17.15 L 879.39 17.15 C 938.62 38.71 985.29 85.38 1006.85 144.61 C 1024 198.87 1024 249.26 1024 350.06 L 1024 673.94 C 1024 774.74 1024 825.13 1006.85 879.39 L 1006.85 879.39 C 985.29 938.62 938.62 985.29 879.39 1006.85 C 825.13 1024 774.74 1024 673.94 1024 L 350.06 1024 C 249.26 1024 198.87 1024 144.61 1006.85 L 144.61 1006.85 C 85.38 985.29 38.71 938.62 17.15 879.39 C 0 825.13 0 774.74 0 673.94 L 0 350.06 C 0 249.26 0 198.87 17.15 144.61 L 17.15 144.61 C 38.71 85.38 85.38 38.71 144.61 17.15 C 198.87 0 249.26 0 350.06 0 Z"/></clipPath><linearGradient id="bgblueprintsettings" x1="0" y1="0" x2="0" y2="1"><stop offset="0" stop-color="#0b3763"/><stop offset="1" stop-color="#04182c"/></linearGradient></defs><g clip-path="url(#sq)"><rect width="1024" height="1024" fill="url(#bgblueprintsettings)"/><path d="M 0 0 V 1024 M 0 0 H 1024" stroke="#74d7ff" stroke-width="4" opacity=".16"/><path d="M 86 0 V 1024 M 0 86 H 1024" stroke="#74d7ff" stroke-width="4" opacity=".16"/><path d="M 172 0 V 1024 M 0 172 H 1024" stroke="#74d7ff" stroke-width="4" opacity=".16"/><path d="M 258 0 V 1024 M 0 258 H 1024" stroke="#74d7ff" stroke-width="4" opacity=".16"/><path d="M 344 0 V 1024 M 0 344 H 1024" stroke="#74d7ff" stroke-width="4" opacity=".16"/><path d="M 430 0 V 1024 M 0 430 H 1024" stroke="#74d7ff" stroke-width="4" opacity=".16"/><path d="M 516 0 V 1024 M 0 516 H 1024" stroke="#74d7ff" stroke-width="4" opacity=".16"/><path d="M 602 0 V 1024 M 0 602 H 1024" stroke="#74d7ff" stroke-width="4" opacity=".16"/><path d="M 688 0 V 1024 M 0 688 H 1024" stroke="#74d7ff" stroke-width="4" opacity=".16"/><path d="M 774 0 V 1024 M 0 774 H 1024" stroke="#74d7ff" stroke-width="4" opacity=".16"/><path d="M 860 0 V 1024 M 0 860 H 1024" stroke="#74d7ff" stroke-width="4" opacity=".16"/><path d="M 946 0 V 1024 M 0 946 H 1024" stroke="#74d7ff" stroke-width="4" opacity=".16"/><path d="M96 830 H928 M190 96 V928" stroke="#f0c96a" stroke-width="8" opacity=".55"/><g fill="none" stroke="#7ee4ff" stroke-width="26" stroke-linecap="round" stroke-linejoin="round" stroke-dasharray="12 18"><path d="M 678.30 443.12 L 691.55 499.29 L 771.35 493.64 L 771.35 530.36 L 691.55 524.71 L 678.30 580.88 L 678.30 580.88 L 647.95 629.97 L 708.37 682.40 L 682.40 708.37 L 629.97 647.95 L 580.88 678.30 L 580.88 678.30 L 524.71 691.55 L 530.36 771.35 L 493.64 771.35 L 499.29 691.55 L 443.12 678.30 L 443.12 678.30 L 394.03 647.95 L 341.60 708.37 L 315.63 682.40 L 376.05 629.97 L 345.70 580.88 L 345.70 580.88 L 332.45 524.71 L 252.65 530.36 L 252.65 493.64 L 332.45 499.29 L 345.70 443.12 L 345.70 443.12 L 376.05 394.03 L 315.63 341.60 L 341.60 315.63 L 394.03 376.05 L 443.12 345.70 L 443.12 345.70 L 499.29 332.45 L 493.64 252.65 L 530.36 252.65 L 524.71 332.45 L 580.88 345.70 L 580.88 345.70 L 629.97 376.05 L 682.40 315.63 L 708.37 341.60 L 647.95 394.03 L 678.30 443.12 Z" fill="none"/><circle cx="512" cy="512" r="86" fill="none"/></g><circle cx="820" cy="210" r="34" fill="#f0c96a"/><path d="M116 116 H252 M116 116 V252" stroke="#f0c96a" stroke-width="10" stroke-linecap="round"/></g></svg>
