<svg xmlns="http://www.w3.org/2000/svg" viewBox="0 0 1024 1024" width="1024" height="1024" role="img" aria-label="Brutalist Stencil Tools"><defs><clipPath id="sq"><path d="M 350.06 0 L 673.94 0 C 774.74 0 825.13 0 879.39 17.15 L 879.39 17.15 C 938.62 38.71 985.29 85.38 1006.85 144.61 C 1024 198.87 1024 249.26 1024 350.06 L 1024 673.94 C 1024 774.74 1024 825.13 1006.85 879.39 L 1006.85 879.39 C 985.29 938.62 938.62 985.29 879.39 1006.85 C 825.13 1024 774.74 1024 673.94 1024 L 350.06 1024 C 249.26 1024 198.87 1024 144.61 1006.85 L 144.61 1006.85 C 85.38 985.29 38.71 938.62 17.15 879.39 C 0 825.13 0 774.74 0 673.94 L 0 350.06 C 0 249.26 0 198.87 17.15 144.61 L 17.15 144.61 C 38.71 85.38 85.38 38.71 144.61 17.15 C 198.87 0 249.26 0 350.06 0 Z"/></clipPath></defs><g clip-path="url(#sq)"><g transform="skewX(-6) translate(52 0)"><g transform="rotate(38 512 512)"><rect x="474" y="344" width="76" height="440" rx="38" fill="#111111"/><circle cx="512" cy="812" r="116" fill="#111111"/><circle cx="512" cy="812" r="46" fill="#ffffff"/><path d="M 414 274 C 414 172 496 100 598 118 L 526 190 L 588 252 L 662 182 C 694 286 624 374 512 374 C 458 374 414 330 414 274 Z" fill="#111111"/><circle cx="586" cy="198" r="42" fill="#ffffff"/></g></g><rect x="716" y="716" width="98" height="98" fill="#e84a2a" transform="rotate(-8 765 765)"/></g></svg>
