<svg xmlns="http://www.w3.org/2000/svg" viewBox="0 0 1024 1024" width="1024" height="1024" role="img" aria-label="Brutalist Stencil Users"><defs><clipPath id="sq"><path d="M 350.06 0 L 673.94 0 C 774.74 0 825.13 0 879.39 17.15 L 879.39 17.15 C 938.62 38.71 985.29 85.38 1006.85 144.61 C 1024 198.87 1024 249.26 1024 350.06 L 1024 673.94 C 1024 774.74 1024 825.13 1006.85 879.39 L 1006.85 879.39 C 985.29 938.62 938.62 985.29 879.39 1006.85 C 825.13 1024 774.74 1024 673.94 1024 L 350.06 1024 C 249.26 1024 198.87 1024 144.61 1006.85 L 144.61 1006.85 C 85.38 985.29 38.71 938.62 17.15 879.39 C 0 825.13 0 774.74 0 673.94 L 0 350.06 C 0 249.26 0 198.87 17.15 144.61 L 17.15 144.61 C 38.71 85.38 85.38 38.71 144.61 17.15 C 198.87 0 249.26 0 350.06 0 Z"/></clipPath><linearGradient id="bgbrutaliststencilusers" x1="0" y1="0" x2="1" y2="1"><stop offset="0" stop-color="#ffdf3d"/><stop offset="1" stop-color="#ff5f4f"/></linearGradient></defs><g clip-path="url(#sq)"><rect width="1024" height="1024" fill="url(#bgbrutaliststencilusers)"/><path d="M0 816 H1024 V1024 H0 Z" fill="#111" opacity=".16"/><path d="M180 0 L-80 1024" stroke="#111" stroke-width="34" opacity=".10"/><path d="M360 0 L100 1024" stroke="#111" stroke-width="34" opacity=".10"/><path d="M540 0 L280 1024" stroke="#111" stroke-width="34" opacity=".10"/><path d="M720 0 L460 1024" stroke="#111" stroke-width="34" opacity=".10"/><path d="M900 0 L640 1024" stroke="#111" stroke-width="34" opacity=".10"/><path d="M1080 0 L820 1024" stroke="#111" stroke-width="34" opacity=".10"/><path d="M1260 0 L1000 1024" stroke="#111" stroke-width="34" opacity=".10"/><g transform="skewX(-6) translate(52 0)"><circle cx="624" cy="372" r="82" fill="#ffffff"/><path d="M 544 904 Q 544 472 624 472 Q 774 472 774 904 Z" fill="#ffffff"/><circle cx="440" cy="382" r="92" fill="#111111"/><path d="M 260 936 Q 260 484 440 484 Q 620 484 620 936 Z" fill="#111111"/></g><path d="M112 120 H912" stroke="#111" stroke-width="24" opacity=".22" stroke-dasharray="42 28"/><path d="M 0 0 L 210 0 L 180 60 L 120 40 L 60 90 L 0 50 Z" fill="#ffffff" opacity=".24"/></g></svg>
