<svg xmlns="http://www.w3.org/2000/svg" viewBox="0 0 64 64" width="64" height="64" role="img" aria-label="Filament Plugins">
<title>Filament Plugins</title>
<defs>
  <linearGradient id="bg-filament-plugins" x1="10" y1="8" x2="58" y2="60" gradientUnits="userSpaceOnUse"><stop offset="0" stop-color="#ff8a00"/><stop offset="0.46" stop-color="#4726a6"/><stop offset="1" stop-color="#080812"/></linearGradient>
  <radialGradient id="glow-filament-plugins" cx="22" cy="16" r="44" gradientUnits="userSpaceOnUse"><stop offset="0" stop-color="#fff2c4" stop-opacity="0.85"/><stop offset="0.52" stop-color="#ffb000" stop-opacity="0.35"/><stop offset="1" stop-color="#080812" stop-opacity="0"/></radialGradient>
  <linearGradient id="glyph-filament-plugins" x1="14" y1="14" x2="50" y2="54" gradientUnits="userSpaceOnUse"><stop offset="0" stop-color="#fff2c4"/><stop offset="0.48" stop-color="#ffb000"/><stop offset="1" stop-color="#00e5ff"/></linearGradient>
  <filter id="shadow-filament-plugins" x="-20%" y="-20%" width="140%" height="150%"><feDropShadow dx="0" dy="3" stdDeviation="3" flood-color="#000" flood-opacity="0.45"/></filter>
</defs>
<rect x="4" y="4" width="56" height="56" rx="16" fill="url(#bg-filament-plugins)"/>
<circle cx="20" cy="16" r="30" fill="url(#glow-filament-plugins)"/>
<path d="M10 50 C20 58 42 58 54 42 L54 56 L10 56 Z" fill="#000" opacity="0.18"/>
<path d="M12 10 H42 C50 10 54 15 54 23" fill="none" stroke="#fff" stroke-opacity="0.30" stroke-width="1.4" stroke-linecap="round"/>
<circle cx="51" cy="13" r="3" fill="#00e5ff" opacity="0.95"/>
<circle cx="13" cy="51" r="2.4" fill="#ffb000" opacity="0.85"/>
<g filter="url(#shadow-filament-plugins)"><path d="M21 15h9v9h7v-9h9v14h-7v8a11 11 0 0 1-22 0v-8h-7V15h9v9h2z" fill="url(#glyph-filament-plugins)"/><path d="M25 45c3 5 11 5 14 0" fill="none" stroke="#09101a" stroke-width="2.4" stroke-linecap="round" opacity=".55"/><path d="M31 31l-4 7h7l-3 8 8-11h-7l3-4z" fill="#00e5ff"/></g>
</svg>
