<svg xmlns="http://www.w3.org/2000/svg" viewBox="0 0 1024 1024" width="1024" height="1024" role="img" aria-label="Brutalist Stencil icon set preview"><defs><linearGradient id="bgbrutaliststencil" x1="0" y1="0" x2="1" y2="1"><stop offset="0" stop-color="#ffdcd8"/><stop offset="1" stop-color="#ca4c44"/></linearGradient></defs><rect width="1024" height="1024" fill="url(#bgbrutaliststencil)"/><circle cx="128" cy="120" r="210" fill="#fff" opacity=".24"/><circle cx="918" cy="884" r="260" fill="#ff5f4f" opacity=".20"/><g transform="rotate(-5 188 224)"><svg xmlns="http://www.w3.org/2000/svg" viewBox="0 0 1024 1024" width="560" height="560" x="-92" y="-56" aria-hidden="true"><defs><clipPath id="sq"><path d="M 350.06 0 L 673.94 0 C 774.74 0 825.13 0 879.39 17.15 L 879.39 17.15 C 938.62 38.71 985.29 85.38 1006.85 144.61 C 1024 198.87 1024 249.26 1024 350.06 L 1024 673.94 C 1024 774.74 1024 825.13 1006.85 879.39 L 1006.85 879.39 C 985.29 938.62 938.62 985.29 879.39 1006.85 C 825.13 1024 774.74 1024 673.94 1024 L 350.06 1024 C 249.26 1024 198.87 1024 144.61 1006.85 L 144.61 1006.85 C 85.38 985.29 38.71 938.62 17.15 879.39 C 0 825.13 0 774.74 0 673.94 L 0 350.06 C 0 249.26 0 198.87 17.15 144.61 L 17.15 144.61 C 38.71 85.38 85.38 38.71 144.61 17.15 C 198.87 0 249.26 0 350.06 0 Z" /></clipPath><linearGradient id="bgbrutaliststencildashboard" x1="0" y1="0" x2="1" y2="1"><stop offset="0" stop-color="#ffdf3d" /><stop offset="1" stop-color="#ff5f4f" /></linearGradient></defs><g clip-path="url(#sq)"><rect width="1024" height="1024" fill="url(#bgbrutaliststencildashboard)" /><path d="M0 816 H1024 V1024 H0 Z" fill="#111" opacity=".16" /><path d="M180 0 L-80 1024" stroke="#111" stroke-width="34" opacity=".10" /><path d="M360 0 L100 1024" stroke="#111" stroke-width="34" opacity=".10" /><path d="M540 0 L280 1024" stroke="#111" stroke-width="34" opacity=".10" /><path d="M720 0 L460 1024" stroke="#111" stroke-width="34" opacity=".10" /><path d="M900 0 L640 1024" stroke="#111" stroke-width="34" opacity=".10" /><path d="M1080 0 L820 1024" stroke="#111" stroke-width="34" opacity=".10" /><path d="M1260 0 L1000 1024" stroke="#111" stroke-width="34" opacity=".10" /><g transform="skewX(-6) translate(52 0)"><rect x="182" y="182" width="312" height="312" rx="60" fill="#111111" /><rect x="530" y="182" width="312" height="312" rx="60" fill="#ffffff" /><rect x="182" y="530" width="312" height="312" rx="60" fill="#ffffff" /><rect x="530" y="530" width="312" height="312" rx="60" fill="#111111" /></g><path d="M112 120 H912" stroke="#111" stroke-width="24" opacity=".22" stroke-dasharray="42 28" /><path d="M 0 0 L 210 0 L 180 60 L 120 40 L 60 90 L 0 50 Z" fill="#ffffff" opacity=".24" /></g></svg></g><g transform="rotate(4 836 224)"><svg xmlns="http://www.w3.org/2000/svg" viewBox="0 0 1024 1024" width="560" height="560" x="556" y="-56" aria-hidden="true"><defs><clipPath id="sq"><path d="M 350.06 0 L 673.94 0 C 774.74 0 825.13 0 879.39 17.15 L 879.39 17.15 C 938.62 38.71 985.29 85.38 1006.85 144.61 C 1024 198.87 1024 249.26 1024 350.06 L 1024 673.94 C 1024 774.74 1024 825.13 1006.85 879.39 L 1006.85 879.39 C 985.29 938.62 938.62 985.29 879.39 1006.85 C 825.13 1024 774.74 1024 673.94 1024 L 350.06 1024 C 249.26 1024 198.87 1024 144.61 1006.85 L 144.61 1006.85 C 85.38 985.29 38.71 938.62 17.15 879.39 C 0 825.13 0 774.74 0 673.94 L 0 350.06 C 0 249.26 0 198.87 17.15 144.61 L 17.15 144.61 C 38.71 85.38 85.38 38.71 144.61 17.15 C 198.87 0 249.26 0 350.06 0 Z" /></clipPath><linearGradient id="bgbrutaliststencilposts" x1="0" y1="0" x2="1" y2="1"><stop offset="0" stop-color="#ffdf3d" /><stop offset="1" stop-color="#ff5f4f" /></linearGradient></defs><g clip-path="url(#sq)"><rect width="1024" height="1024" fill="url(#bgbrutaliststencilposts)" /><path d="M0 816 H1024 V1024 H0 Z" fill="#111" opacity=".16" /><path d="M180 0 L-80 1024" stroke="#111" stroke-width="34" opacity=".10" /><path d="M360 0 L100 1024" stroke="#111" stroke-width="34" opacity=".10" /><path d="M540 0 L280 1024" stroke="#111" stroke-width="34" opacity=".10" /><path d="M720 0 L460 1024" stroke="#111" stroke-width="34" opacity=".10" /><path d="M900 0 L640 1024" stroke="#111" stroke-width="34" opacity=".10" /><path d="M1080 0 L820 1024" stroke="#111" stroke-width="34" opacity=".10" /><path d="M1260 0 L1000 1024" stroke="#111" stroke-width="34" opacity=".10" /><g transform="skewX(-6) translate(52 0)"><path d="M 310 182 L 772 182 L 772 182 L 772 784 Q 772 842 714 842 L 310 842 Q 252 842 252 784 L 252 240 Q 252 182 310 182 Z" fill="#111111" /><rect x="332" y="302" width="360" height="42" rx="21" fill="#ffffff" /><rect x="332" y="402" width="310" height="42" rx="21" fill="#ffffff" /><rect x="332" y="502" width="360" height="42" rx="21" fill="#ffffff" /><rect x="332" y="602" width="250" height="42" rx="21" fill="#ffffff" /><rect x="332" y="702" width="330" height="42" rx="21" fill="#ffffff" /></g><path d="M112 120 H912" stroke="#111" stroke-width="24" opacity=".22" stroke-dasharray="42 28" /><path d="M 1024 1024 L 820 1024 L 860 960 L 930 980 L 1010 920 L 1024 990 Z" fill="#ffffff" opacity=".24" /></g></svg></g><g transform="rotate(4 188 832)"><svg xmlns="http://www.w3.org/2000/svg" viewBox="0 0 1024 1024" width="560" height="560" x="-92" y="552" aria-hidden="true"><defs><clipPath id="sq"><path d="M 350.06 0 L 673.94 0 C 774.74 0 825.13 0 879.39 17.15 L 879.39 17.15 C 938.62 38.71 985.29 85.38 1006.85 144.61 C 1024 198.87 1024 249.26 1024 350.06 L 1024 673.94 C 1024 774.74 1024 825.13 1006.85 879.39 L 1006.85 879.39 C 985.29 938.62 938.62 985.29 879.39 1006.85 C 825.13 1024 774.74 1024 673.94 1024 L 350.06 1024 C 249.26 1024 198.87 1024 144.61 1006.85 L 144.61 1006.85 C 85.38 985.29 38.71 938.62 17.15 879.39 C 0 825.13 0 774.74 0 673.94 L 0 350.06 C 0 249.26 0 198.87 17.15 144.61 L 17.15 144.61 C 38.71 85.38 85.38 38.71 144.61 17.15 C 198.87 0 249.26 0 350.06 0 Z" /></clipPath><linearGradient id="bgbrutaliststencilpages" x1="0" y1="0" x2="1" y2="1"><stop offset="0" stop-color="#ffdf3d" /><stop offset="1" stop-color="#ff5f4f" /></linearGradient></defs><g clip-path="url(#sq)"><rect width="1024" height="1024" fill="url(#bgbrutaliststencilpages)" /><path d="M0 816 H1024 V1024 H0 Z" fill="#111" opacity=".16" /><path d="M180 0 L-80 1024" stroke="#111" stroke-width="34" opacity=".10" /><path d="M360 0 L100 1024" stroke="#111" stroke-width="34" opacity=".10" /><path d="M540 0 L280 1024" stroke="#111" stroke-width="34" opacity=".10" /><path d="M720 0 L460 1024" stroke="#111" stroke-width="34" opacity=".10" /><path d="M900 0 L640 1024" stroke="#111" stroke-width="34" opacity=".10" /><path d="M1080 0 L820 1024" stroke="#111" stroke-width="34" opacity=".10" /><path d="M1260 0 L1000 1024" stroke="#111" stroke-width="34" opacity=".10" /><g transform="skewX(-6) translate(52 0)"><path d="M 310 182 L 630 182 L 772 324 L 772 784 Q 772 842 714 842 L 310 842 Q 252 842 252 784 L 252 240 Q 252 182 310 182 Z" fill="#111111" /><path d="M 630 182 L 772 324 L 630 324 Z" fill="#ffffff" opacity=".62" /><rect x="332" y="362" width="360" height="38" rx="19" fill="#ffffff" opacity=".78" /><rect x="332" y="462" width="330" height="38" rx="19" fill="#ffffff" opacity=".78" /><rect x="332" y="562" width="280" height="38" rx="19" fill="#ffffff" opacity=".78" /></g><path d="M112 120 H912" stroke="#111" stroke-width="24" opacity=".22" stroke-dasharray="42 28" /><path d="M 0 0 L 210 0 L 180 60 L 120 40 L 60 90 L 0 50 Z" fill="#ffffff" opacity=".24" /></g></svg></g><g transform="rotate(-5 836 832)"><svg xmlns="http://www.w3.org/2000/svg" viewBox="0 0 1024 1024" width="560" height="560" x="556" y="552" aria-hidden="true"><defs><clipPath id="sq"><path d="M 350.06 0 L 673.94 0 C 774.74 0 825.13 0 879.39 17.15 L 879.39 17.15 C 938.62 38.71 985.29 85.38 1006.85 144.61 C 1024 198.87 1024 249.26 1024 350.06 L 1024 673.94 C 1024 774.74 1024 825.13 1006.85 879.39 L 1006.85 879.39 C 985.29 938.62 938.62 985.29 879.39 1006.85 C 825.13 1024 774.74 1024 673.94 1024 L 350.06 1024 C 249.26 1024 198.87 1024 144.61 1006.85 L 144.61 1006.85 C 85.38 985.29 38.71 938.62 17.15 879.39 C 0 825.13 0 774.74 0 673.94 L 0 350.06 C 0 249.26 0 198.87 17.15 144.61 L 17.15 144.61 C 38.71 85.38 85.38 38.71 144.61 17.15 C 198.87 0 249.26 0 350.06 0 Z" /></clipPath><linearGradient id="bgbrutaliststencilmedia" x1="0" y1="0" x2="1" y2="1"><stop offset="0" stop-color="#ffdf3d" /><stop offset="1" stop-color="#ff5f4f" /></linearGradient></defs><g clip-path="url(#sq)"><rect width="1024" height="1024" fill="url(#bgbrutaliststencilmedia)" /><path d="M0 816 H1024 V1024 H0 Z" fill="#111" opacity=".16" /><path d="M180 0 L-80 1024" stroke="#111" stroke-width="34" opacity=".10" /><path d="M360 0 L100 1024" stroke="#111" stroke-width="34" opacity=".10" /><path d="M540 0 L280 1024" stroke="#111" stroke-width="34" opacity=".10" /><path d="M720 0 L460 1024" stroke="#111" stroke-width="34" opacity=".10" /><path d="M900 0 L640 1024" stroke="#111" stroke-width="34" opacity=".10" /><path d="M1080 0 L820 1024" stroke="#111" stroke-width="34" opacity=".10" /><path d="M1260 0 L1000 1024" stroke="#111" stroke-width="34" opacity=".10" /><g transform="skewX(-6) translate(52 0)"><rect x="182" y="242" width="660" height="540" rx="68" fill="#111111" /><rect x="220" y="280" width="584" height="464" rx="44" fill="#ffffff" opacity=".30" /><circle cx="664" cy="392" r="54" fill="#ffffff" /><path d="M 248 716 L 440 484 L 542 564 L 564 444 L 776 716 Z" fill="#ffffff" /></g><path d="M112 120 H912" stroke="#111" stroke-width="24" opacity=".22" stroke-dasharray="42 28" /><path d="M 0 0 L 210 0 L 180 60 L 120 40 L 60 90 L 0 50 Z" fill="#ffffff" opacity=".24" /></g></svg></g></svg>
