<svg xmlns="http://www.w3.org/2000/svg" viewBox="0 0 1024 1024" width="1024" height="1024" role="img" aria-label="Circuit Bend icon set preview"><defs><radialGradient id="glowcircuitbend" cx=".28" cy=".18" r=".72"><stop offset="0" stop-color="#54c192" stop-opacity=".32"/><stop offset=".58" stop-color="#2fb37a" stop-opacity=".08"/><stop offset="1" stop-color="#2fb37a" stop-opacity="0"/></radialGradient><filter id="liftcircuitbend" x="-30%" y="-30%" width="160%" height="160%"><feDropShadow dx="0" dy="20" stdDeviation="24" flood-color="#000" flood-opacity=".52"/><feDropShadow dx="0" dy="0" stdDeviation="10" flood-color="#fff" flood-opacity=".13"/></filter></defs><rect width="1024" height="1024" fill="#080511"/><rect width="1024" height="1024" fill="url(#glowcircuitbend)"/><g filter="url(#liftcircuitbend)"><g transform="rotate(-5 188 188)"><svg xmlns="http://www.w3.org/2000/svg" viewBox="0 0 1024 1024" width="560" height="560" x="-92" y="-92" aria-hidden="true"><defs><clipPath id="sq"><path d="M 350.06 0 L 673.94 0 C 774.74 0 825.13 0 879.39 17.15 L 879.39 17.15 C 938.62 38.71 985.29 85.38 1006.85 144.61 C 1024 198.87 1024 249.26 1024 350.06 L 1024 673.94 C 1024 774.74 1024 825.13 1006.85 879.39 L 1006.85 879.39 C 985.29 938.62 938.62 985.29 879.39 1006.85 C 825.13 1024 774.74 1024 673.94 1024 L 350.06 1024 C 249.26 1024 198.87 1024 144.61 1006.85 L 144.61 1006.85 C 85.38 985.29 38.71 938.62 17.15 879.39 C 0 825.13 0 774.74 0 673.94 L 0 350.06 C 0 249.26 0 198.87 17.15 144.61 L 17.15 144.61 C 38.71 85.38 85.38 38.71 144.61 17.15 C 198.87 0 249.26 0 350.06 0 Z" /></clipPath><filter id="glcircuitbenddashboard" x="-30%" y="-30%" width="160%" height="160%"><feDropShadow dx="0" dy="0" stdDeviation="18" flood-color="#2fb37a" flood-opacity=".42" /></filter></defs><g clip-path="url(#sq)"><g filter="url(#glcircuitbenddashboard)"><g fill="none" stroke="#f4c24c" stroke-width="28" stroke-linecap="round" stroke-linejoin="round"><rect x="182" y="182" width="312" height="312" rx="60" fill="none" /><rect x="530" y="182" width="312" height="312" rx="60" fill="none" /><rect x="182" y="530" width="312" height="312" rx="60" fill="none" /><rect x="530" y="530" width="312" height="312" rx="60" fill="none" /></g><g opacity=".82"><rect x="182" y="182" width="312" height="312" rx="60" fill="#063d2a" /><rect x="530" y="182" width="312" height="312" rx="60" fill="#063d2a" /><rect x="182" y="530" width="312" height="312" rx="60" fill="#063d2a" /><rect x="530" y="530" width="312" height="312" rx="60" fill="#063d2a" /></g></g><circle cx="210" cy="210" r="14" fill="#4cff6a" /><circle cx="814" cy="246" r="14" fill="#40a8ff" /><circle cx="240" cy="808" r="14" fill="#4cff6a" /><circle cx="790" cy="780" r="14" fill="#40a8ff" /></g></svg></g><g transform="rotate(4 836 188)"><svg xmlns="http://www.w3.org/2000/svg" viewBox="0 0 1024 1024" width="560" height="560" x="556" y="-92" aria-hidden="true"><defs><clipPath id="sq"><path d="M 350.06 0 L 673.94 0 C 774.74 0 825.13 0 879.39 17.15 L 879.39 17.15 C 938.62 38.71 985.29 85.38 1006.85 144.61 C 1024 198.87 1024 249.26 1024 350.06 L 1024 673.94 C 1024 774.74 1024 825.13 1006.85 879.39 L 1006.85 879.39 C 985.29 938.62 938.62 985.29 879.39 1006.85 C 825.13 1024 774.74 1024 673.94 1024 L 350.06 1024 C 249.26 1024 198.87 1024 144.61 1006.85 L 144.61 1006.85 C 85.38 985.29 38.71 938.62 17.15 879.39 C 0 825.13 0 774.74 0 673.94 L 0 350.06 C 0 249.26 0 198.87 17.15 144.61 L 17.15 144.61 C 38.71 85.38 85.38 38.71 144.61 17.15 C 198.87 0 249.26 0 350.06 0 Z" /></clipPath><filter id="glcircuitbendposts" x="-30%" y="-30%" width="160%" height="160%"><feDropShadow dx="0" dy="0" stdDeviation="18" flood-color="#2fb37a" flood-opacity=".42" /></filter></defs><g clip-path="url(#sq)"><g filter="url(#glcircuitbendposts)"><g fill="none" stroke="#f4c24c" stroke-width="28" stroke-linecap="round" stroke-linejoin="round"><path d="M 310 182 L 772 182 L 772 182 L 772 784 Q 772 842 714 842 L 310 842 Q 252 842 252 784 L 252 240 Q 252 182 310 182 Z" fill="none" /><rect x="332" y="302" width="360" height="42" rx="21" fill="none" /><rect x="332" y="402" width="310" height="42" rx="21" fill="none" /><rect x="332" y="502" width="360" height="42" rx="21" fill="none" /><rect x="332" y="602" width="250" height="42" rx="21" fill="none" /><rect x="332" y="702" width="330" height="42" rx="21" fill="none" /></g><g opacity=".82"><path d="M 310 182 L 772 182 L 772 182 L 772 784 Q 772 842 714 842 L 310 842 Q 252 842 252 784 L 252 240 Q 252 182 310 182 Z" fill="#063d2a" /><rect x="332" y="302" width="360" height="42" rx="21" fill="#063d2a" /><rect x="332" y="402" width="310" height="42" rx="21" fill="#063d2a" /><rect x="332" y="502" width="360" height="42" rx="21" fill="#063d2a" /><rect x="332" y="602" width="250" height="42" rx="21" fill="#063d2a" /><rect x="332" y="702" width="330" height="42" rx="21" fill="#063d2a" /></g></g><circle cx="210" cy="210" r="14" fill="#4cff6a" /><circle cx="814" cy="246" r="14" fill="#40a8ff" /><circle cx="240" cy="808" r="14" fill="#4cff6a" /><circle cx="790" cy="780" r="14" fill="#40a8ff" /></g></svg></g><g transform="rotate(4 188 836)"><svg xmlns="http://www.w3.org/2000/svg" viewBox="0 0 1024 1024" width="560" height="560" x="-92" y="556" aria-hidden="true"><defs><clipPath id="sq"><path d="M 350.06 0 L 673.94 0 C 774.74 0 825.13 0 879.39 17.15 L 879.39 17.15 C 938.62 38.71 985.29 85.38 1006.85 144.61 C 1024 198.87 1024 249.26 1024 350.06 L 1024 673.94 C 1024 774.74 1024 825.13 1006.85 879.39 L 1006.85 879.39 C 985.29 938.62 938.62 985.29 879.39 1006.85 C 825.13 1024 774.74 1024 673.94 1024 L 350.06 1024 C 249.26 1024 198.87 1024 144.61 1006.85 L 144.61 1006.85 C 85.38 985.29 38.71 938.62 17.15 879.39 C 0 825.13 0 774.74 0 673.94 L 0 350.06 C 0 249.26 0 198.87 17.15 144.61 L 17.15 144.61 C 38.71 85.38 85.38 38.71 144.61 17.15 C 198.87 0 249.26 0 350.06 0 Z" /></clipPath><filter id="glcircuitbendpages" x="-30%" y="-30%" width="160%" height="160%"><feDropShadow dx="0" dy="0" stdDeviation="18" flood-color="#2fb37a" flood-opacity=".42" /></filter></defs><g clip-path="url(#sq)"><g filter="url(#glcircuitbendpages)"><g fill="none" stroke="#f4c24c" stroke-width="28" stroke-linecap="round" stroke-linejoin="round"><path d="M 310 182 L 630 182 L 772 324 L 772 784 Q 772 842 714 842 L 310 842 Q 252 842 252 784 L 252 240 Q 252 182 310 182 Z" fill="none" /><path d="M 630 182 L 772 324 L 630 324 Z" fill="none" opacity=".62" /><rect x="332" y="362" width="360" height="38" rx="19" fill="none" opacity=".78" /><rect x="332" y="462" width="330" height="38" rx="19" fill="none" opacity=".78" /><rect x="332" y="562" width="280" height="38" rx="19" fill="none" opacity=".78" /></g><g opacity=".82"><path d="M 310 182 L 630 182 L 772 324 L 772 784 Q 772 842 714 842 L 310 842 Q 252 842 252 784 L 252 240 Q 252 182 310 182 Z" fill="#063d2a" /><path d="M 630 182 L 772 324 L 630 324 Z" fill="#063d2a" opacity=".62" /><rect x="332" y="362" width="360" height="38" rx="19" fill="#063d2a" opacity=".78" /><rect x="332" y="462" width="330" height="38" rx="19" fill="#063d2a" opacity=".78" /><rect x="332" y="562" width="280" height="38" rx="19" fill="#063d2a" opacity=".78" /></g></g><circle cx="210" cy="210" r="14" fill="#4cff6a" /><circle cx="814" cy="246" r="14" fill="#40a8ff" /><circle cx="240" cy="808" r="14" fill="#4cff6a" /><circle cx="790" cy="780" r="14" fill="#40a8ff" /></g></svg></g><g transform="rotate(-5 836 836)"><svg xmlns="http://www.w3.org/2000/svg" viewBox="0 0 1024 1024" width="560" height="560" x="556" y="556" aria-hidden="true"><defs><clipPath id="sq"><path d="M 350.06 0 L 673.94 0 C 774.74 0 825.13 0 879.39 17.15 L 879.39 17.15 C 938.62 38.71 985.29 85.38 1006.85 144.61 C 1024 198.87 1024 249.26 1024 350.06 L 1024 673.94 C 1024 774.74 1024 825.13 1006.85 879.39 L 1006.85 879.39 C 985.29 938.62 938.62 985.29 879.39 1006.85 C 825.13 1024 774.74 1024 673.94 1024 L 350.06 1024 C 249.26 1024 198.87 1024 144.61 1006.85 L 144.61 1006.85 C 85.38 985.29 38.71 938.62 17.15 879.39 C 0 825.13 0 774.74 0 673.94 L 0 350.06 C 0 249.26 0 198.87 17.15 144.61 L 17.15 144.61 C 38.71 85.38 85.38 38.71 144.61 17.15 C 198.87 0 249.26 0 350.06 0 Z" /></clipPath><filter id="glcircuitbendmedia" x="-30%" y="-30%" width="160%" height="160%"><feDropShadow dx="0" dy="0" stdDeviation="18" flood-color="#2fb37a" flood-opacity=".42" /></filter></defs><g clip-path="url(#sq)"><g filter="url(#glcircuitbendmedia)"><g fill="none" stroke="#f4c24c" stroke-width="28" stroke-linecap="round" stroke-linejoin="round"><rect x="182" y="242" width="660" height="540" rx="68" fill="none" /><rect x="220" y="280" width="584" height="464" rx="44" fill="none" opacity=".30" /><circle cx="664" cy="392" r="54" fill="none" /><path d="M 248 716 L 440 484 L 542 564 L 564 444 L 776 716 Z" fill="none" /></g><g opacity=".82"><rect x="182" y="242" width="660" height="540" rx="68" fill="#063d2a" /><rect x="220" y="280" width="584" height="464" rx="44" fill="#063d2a" opacity=".30" /><circle cx="664" cy="392" r="54" fill="#063d2a" /><path d="M 248 716 L 440 484 L 542 564 L 564 444 L 776 716 Z" fill="#063d2a" /></g></g><circle cx="210" cy="210" r="14" fill="#4cff6a" /><circle cx="814" cy="246" r="14" fill="#40a8ff" /><circle cx="240" cy="808" r="14" fill="#4cff6a" /><circle cx="790" cy="780" r="14" fill="#40a8ff" /></g></svg></g></g></svg>
