<svg xmlns="http://www.w3.org/2000/svg" viewBox="0 0 1024 1024" width="1024" height="1024" role="img" aria-label="Cross-Stitch icon set preview"><defs><linearGradient id="bgcrossstitch" x1="0" y1="0" x2="1" y2="1"><stop offset="0" stop-color="#fae2ec"/><stop offset="1" stop-color="#b86389"/></linearGradient></defs><rect width="1024" height="1024" fill="url(#bgcrossstitch)"/><circle cx="128" cy="120" r="210" fill="#fff" opacity=".24"/><circle cx="918" cy="884" r="260" fill="#e87ca7" opacity=".20"/><g transform="rotate(-5 188 224)"><svg xmlns="http://www.w3.org/2000/svg" viewBox="0 0 1024 1024" width="560" height="560" x="-92" y="-56" aria-hidden="true"><defs><clipPath id="sq"><path d="M 350.06 0 L 673.94 0 C 774.74 0 825.13 0 879.39 17.15 L 879.39 17.15 C 938.62 38.71 985.29 85.38 1006.85 144.61 C 1024 198.87 1024 249.26 1024 350.06 L 1024 673.94 C 1024 774.74 1024 825.13 1006.85 879.39 L 1006.85 879.39 C 985.29 938.62 938.62 985.29 879.39 1006.85 C 825.13 1024 774.74 1024 673.94 1024 L 350.06 1024 C 249.26 1024 198.87 1024 144.61 1006.85 L 144.61 1006.85 C 85.38 985.29 38.71 938.62 17.15 879.39 C 0 825.13 0 774.74 0 673.94 L 0 350.06 C 0 249.26 0 198.87 17.15 144.61 L 17.15 144.61 C 38.71 85.38 85.38 38.71 144.61 17.15 C 198.87 0 249.26 0 350.06 0 Z" /></clipPath><linearGradient id="bgcrossstitchdashboard" x1="0" y1="0" x2="0" y2="1"><stop offset="0" stop-color="#f6e7d7" /><stop offset="1" stop-color="#d9c1a4" /></linearGradient></defs><g clip-path="url(#sq)"><rect width="1024" height="1024" fill="url(#bgcrossstitchdashboard)" /><path d="M 0 0 V 1024 M 0 0 H 1024" stroke="#8b725d" stroke-width="4" opacity=".10" /><path d="M 48 0 V 1024 M 0 48 H 1024" stroke="#8b725d" stroke-width="4" opacity=".10" /><path d="M 96 0 V 1024 M 0 96 H 1024" stroke="#8b725d" stroke-width="4" opacity=".10" /><path d="M 144 0 V 1024 M 0 144 H 1024" stroke="#8b725d" stroke-width="4" opacity=".10" /><path d="M 192 0 V 1024 M 0 192 H 1024" stroke="#8b725d" stroke-width="4" opacity=".10" /><path d="M 240 0 V 1024 M 0 240 H 1024" stroke="#8b725d" stroke-width="4" opacity=".10" /><path d="M 288 0 V 1024 M 0 288 H 1024" stroke="#8b725d" stroke-width="4" opacity=".10" /><path d="M 336 0 V 1024 M 0 336 H 1024" stroke="#8b725d" stroke-width="4" opacity=".10" /><path d="M 384 0 V 1024 M 0 384 H 1024" stroke="#8b725d" stroke-width="4" opacity=".10" /><path d="M 432 0 V 1024 M 0 432 H 1024" stroke="#8b725d" stroke-width="4" opacity=".10" /><path d="M 480 0 V 1024 M 0 480 H 1024" stroke="#8b725d" stroke-width="4" opacity=".10" /><path d="M 528 0 V 1024 M 0 528 H 1024" stroke="#8b725d" stroke-width="4" opacity=".10" /><path d="M 576 0 V 1024 M 0 576 H 1024" stroke="#8b725d" stroke-width="4" opacity=".10" /><path d="M 624 0 V 1024 M 0 624 H 1024" stroke="#8b725d" stroke-width="4" opacity=".10" /><path d="M 672 0 V 1024 M 0 672 H 1024" stroke="#8b725d" stroke-width="4" opacity=".10" /><path d="M 720 0 V 1024 M 0 720 H 1024" stroke="#8b725d" stroke-width="4" opacity=".10" /><path d="M 768 0 V 1024 M 0 768 H 1024" stroke="#8b725d" stroke-width="4" opacity=".10" /><path d="M 816 0 V 1024 M 0 816 H 1024" stroke="#8b725d" stroke-width="4" opacity=".10" /><path d="M 864 0 V 1024 M 0 864 H 1024" stroke="#8b725d" stroke-width="4" opacity=".10" /><path d="M 912 0 V 1024 M 0 912 H 1024" stroke="#8b725d" stroke-width="4" opacity=".10" /><path d="M 960 0 V 1024 M 0 960 H 1024" stroke="#8b725d" stroke-width="4" opacity=".10" /><path d="M 1008 0 V 1024 M 0 1008 H 1024" stroke="#8b725d" stroke-width="4" opacity=".10" /><path d="M 247.0 247.0 L 281.0 281.0 M 281.0 247.0 L 247.0 281.0" stroke="#e87ca7" stroke-width="8" stroke-linecap="round" /><path d="M 247.0 293.0 L 281.0 327.0 M 281.0 293.0 L 247.0 327.0" stroke="#4a4a6a" stroke-width="8" stroke-linecap="round" /><path d="M 247.0 339.0 L 281.0 373.0 M 281.0 339.0 L 247.0 373.0" stroke="#e87ca7" stroke-width="8" stroke-linecap="round" /><path d="M 293.0 247.0 L 327.0 281.0 M 327.0 247.0 L 293.0 281.0" stroke="#4a4a6a" stroke-width="8" stroke-linecap="round" /><path d="M 293.0 293.0 L 327.0 327.0 M 327.0 293.0 L 293.0 327.0" stroke="#e87ca7" stroke-width="8" stroke-linecap="round" /><path d="M 293.0 339.0 L 327.0 373.0 M 327.0 339.0 L 293.0 373.0" stroke="#4a4a6a" stroke-width="8" stroke-linecap="round" /><path d="M 339.0 247.0 L 373.0 281.0 M 373.0 247.0 L 339.0 281.0" stroke="#e87ca7" stroke-width="8" stroke-linecap="round" /><path d="M 339.0 293.0 L 373.0 327.0 M 373.0 293.0 L 339.0 327.0" stroke="#4a4a6a" stroke-width="8" stroke-linecap="round" /><path d="M 339.0 339.0 L 373.0 373.0 M 373.0 339.0 L 339.0 373.0" stroke="#e87ca7" stroke-width="8" stroke-linecap="round" /><path d="M 547.0 247.0 L 581.0 281.0 M 581.0 247.0 L 547.0 281.0" stroke="#4a4a6a" stroke-width="8" stroke-linecap="round" /><path d="M 547.0 293.0 L 581.0 327.0 M 581.0 293.0 L 547.0 327.0" stroke="#e87ca7" stroke-width="8" stroke-linecap="round" /><path d="M 547.0 339.0 L 581.0 373.0 M 581.0 339.0 L 547.0 373.0" stroke="#4a4a6a" stroke-width="8" stroke-linecap="round" /><path d="M 593.0 247.0 L 627.0 281.0 M 627.0 247.0 L 593.0 281.0" stroke="#e87ca7" stroke-width="8" stroke-linecap="round" /><path d="M 593.0 293.0 L 627.0 327.0 M 627.0 293.0 L 593.0 327.0" stroke="#4a4a6a" stroke-width="8" stroke-linecap="round" /><path d="M 593.0 339.0 L 627.0 373.0 M 627.0 339.0 L 593.0 373.0" stroke="#e87ca7" stroke-width="8" stroke-linecap="round" /><path d="M 639.0 247.0 L 673.0 281.0 M 673.0 247.0 L 639.0 281.0" stroke="#4a4a6a" stroke-width="8" stroke-linecap="round" /><path d="M 639.0 293.0 L 673.0 327.0 M 673.0 293.0 L 639.0 327.0" stroke="#e87ca7" stroke-width="8" stroke-linecap="round" /><path d="M 639.0 339.0 L 673.0 373.0 M 673.0 339.0 L 639.0 373.0" stroke="#4a4a6a" stroke-width="8" stroke-linecap="round" /><path d="M 247.0 547.0 L 281.0 581.0 M 281.0 547.0 L 247.0 581.0" stroke="#e87ca7" stroke-width="8" stroke-linecap="round" /><path d="M 247.0 593.0 L 281.0 627.0 M 281.0 593.0 L 247.0 627.0" stroke="#4a4a6a" stroke-width="8" stroke-linecap="round" /><path d="M 247.0 639.0 L 281.0 673.0 M 281.0 639.0 L 247.0 673.0" stroke="#e87ca7" stroke-width="8" stroke-linecap="round" /><path d="M 293.0 547.0 L 327.0 581.0 M 327.0 547.0 L 293.0 581.0" stroke="#4a4a6a" stroke-width="8" stroke-linecap="round" /><path d="M 293.0 593.0 L 327.0 627.0 M 327.0 593.0 L 293.0 627.0" stroke="#e87ca7" stroke-width="8" stroke-linecap="round" /><path d="M 293.0 639.0 L 327.0 673.0 M 327.0 639.0 L 293.0 673.0" stroke="#4a4a6a" stroke-width="8" stroke-linecap="round" /><path d="M 339.0 547.0 L 373.0 581.0 M 373.0 547.0 L 339.0 581.0" stroke="#e87ca7" stroke-width="8" stroke-linecap="round" /><path d="M 339.0 593.0 L 373.0 627.0 M 373.0 593.0 L 339.0 627.0" stroke="#4a4a6a" stroke-width="8" stroke-linecap="round" /><path d="M 339.0 639.0 L 373.0 673.0 M 373.0 639.0 L 339.0 673.0" stroke="#e87ca7" stroke-width="8" stroke-linecap="round" /><path d="M 547.0 547.0 L 581.0 581.0 M 581.0 547.0 L 547.0 581.0" stroke="#4a4a6a" stroke-width="8" stroke-linecap="round" /><path d="M 547.0 593.0 L 581.0 627.0 M 581.0 593.0 L 547.0 627.0" stroke="#e87ca7" stroke-width="8" stroke-linecap="round" /><path d="M 547.0 639.0 L 581.0 673.0 M 581.0 639.0 L 547.0 673.0" stroke="#4a4a6a" stroke-width="8" stroke-linecap="round" /><path d="M 593.0 547.0 L 627.0 581.0 M 627.0 547.0 L 593.0 581.0" stroke="#e87ca7" stroke-width="8" stroke-linecap="round" /><path d="M 593.0 593.0 L 627.0 627.0 M 627.0 593.0 L 593.0 627.0" stroke="#4a4a6a" stroke-width="8" stroke-linecap="round" /><path d="M 593.0 639.0 L 627.0 673.0 M 627.0 639.0 L 593.0 673.0" stroke="#e87ca7" stroke-width="8" stroke-linecap="round" /><path d="M 639.0 547.0 L 673.0 581.0 M 673.0 547.0 L 639.0 581.0" stroke="#4a4a6a" stroke-width="8" stroke-linecap="round" /><path d="M 639.0 593.0 L 673.0 627.0 M 673.0 593.0 L 639.0 627.0" stroke="#e87ca7" stroke-width="8" stroke-linecap="round" /><path d="M 639.0 639.0 L 673.0 673.0 M 673.0 639.0 L 639.0 673.0" stroke="#4a4a6a" stroke-width="8" stroke-linecap="round" /><rect x="116" y="116" width="792" height="792" rx="92" fill="none" stroke="#8b725d" stroke-width="12" opacity=".22" stroke-dasharray="18 18" /><rect x="560" y="860" width="44" height="16" rx="4" fill="#f6e7d7" /><g stroke="#b08a66" stroke-width="4" opacity=".7" stroke-linecap="round"><path d="M 932 132 l 28 -20" /><path d="M 942 150 l 30 -8" /><path d="M 950 172 l 36 -2" /></g></g></svg></g><g transform="rotate(4 836 224)"><svg xmlns="http://www.w3.org/2000/svg" viewBox="0 0 1024 1024" width="560" height="560" x="556" y="-56" aria-hidden="true"><defs><clipPath id="sq"><path d="M 350.06 0 L 673.94 0 C 774.74 0 825.13 0 879.39 17.15 L 879.39 17.15 C 938.62 38.71 985.29 85.38 1006.85 144.61 C 1024 198.87 1024 249.26 1024 350.06 L 1024 673.94 C 1024 774.74 1024 825.13 1006.85 879.39 L 1006.85 879.39 C 985.29 938.62 938.62 985.29 879.39 1006.85 C 825.13 1024 774.74 1024 673.94 1024 L 350.06 1024 C 249.26 1024 198.87 1024 144.61 1006.85 L 144.61 1006.85 C 85.38 985.29 38.71 938.62 17.15 879.39 C 0 825.13 0 774.74 0 673.94 L 0 350.06 C 0 249.26 0 198.87 17.15 144.61 L 17.15 144.61 C 38.71 85.38 85.38 38.71 144.61 17.15 C 198.87 0 249.26 0 350.06 0 Z" /></clipPath><linearGradient id="bgcrossstitchposts" x1="0" y1="0" x2="0" y2="1"><stop offset="0" stop-color="#f6e7d7" /><stop offset="1" stop-color="#d9c1a4" /></linearGradient></defs><g clip-path="url(#sq)"><rect width="1024" height="1024" fill="url(#bgcrossstitchposts)" /><path d="M 0 0 V 1024 M 0 0 H 1024" stroke="#8b725d" stroke-width="4" opacity=".10" /><path d="M 48 0 V 1024 M 0 48 H 1024" stroke="#8b725d" stroke-width="4" opacity=".10" /><path d="M 96 0 V 1024 M 0 96 H 1024" stroke="#8b725d" stroke-width="4" opacity=".10" /><path d="M 144 0 V 1024 M 0 144 H 1024" stroke="#8b725d" stroke-width="4" opacity=".10" /><path d="M 192 0 V 1024 M 0 192 H 1024" stroke="#8b725d" stroke-width="4" opacity=".10" /><path d="M 240 0 V 1024 M 0 240 H 1024" stroke="#8b725d" stroke-width="4" opacity=".10" /><path d="M 288 0 V 1024 M 0 288 H 1024" stroke="#8b725d" stroke-width="4" opacity=".10" /><path d="M 336 0 V 1024 M 0 336 H 1024" stroke="#8b725d" stroke-width="4" opacity=".10" /><path d="M 384 0 V 1024 M 0 384 H 1024" stroke="#8b725d" stroke-width="4" opacity=".10" /><path d="M 432 0 V 1024 M 0 432 H 1024" stroke="#8b725d" stroke-width="4" opacity=".10" /><path d="M 480 0 V 1024 M 0 480 H 1024" stroke="#8b725d" stroke-width="4" opacity=".10" /><path d="M 528 0 V 1024 M 0 528 H 1024" stroke="#8b725d" stroke-width="4" opacity=".10" /><path d="M 576 0 V 1024 M 0 576 H 1024" stroke="#8b725d" stroke-width="4" opacity=".10" /><path d="M 624 0 V 1024 M 0 624 H 1024" stroke="#8b725d" stroke-width="4" opacity=".10" /><path d="M 672 0 V 1024 M 0 672 H 1024" stroke="#8b725d" stroke-width="4" opacity=".10" /><path d="M 720 0 V 1024 M 0 720 H 1024" stroke="#8b725d" stroke-width="4" opacity=".10" /><path d="M 768 0 V 1024 M 0 768 H 1024" stroke="#8b725d" stroke-width="4" opacity=".10" /><path d="M 816 0 V 1024 M 0 816 H 1024" stroke="#8b725d" stroke-width="4" opacity=".10" /><path d="M 864 0 V 1024 M 0 864 H 1024" stroke="#8b725d" stroke-width="4" opacity=".10" /><path d="M 912 0 V 1024 M 0 912 H 1024" stroke="#8b725d" stroke-width="4" opacity=".10" /><path d="M 960 0 V 1024 M 0 960 H 1024" stroke="#8b725d" stroke-width="4" opacity=".10" /><path d="M 1008 0 V 1024 M 0 1008 H 1024" stroke="#8b725d" stroke-width="4" opacity=".10" /><path d="M 323.0 283.0 L 357.0 317.0 M 357.0 283.0 L 323.0 317.0" stroke="#e87ca7" stroke-width="8" stroke-linecap="round" /><path d="M 393.0 283.0 L 427.0 317.0 M 427.0 283.0 L 393.0 317.0" stroke="#4a4a6a" stroke-width="8" stroke-linecap="round" /><path d="M 463.0 283.0 L 497.0 317.0 M 497.0 283.0 L 463.0 317.0" stroke="#e87ca7" stroke-width="8" stroke-linecap="round" /><path d="M 533.0 283.0 L 567.0 317.0 M 567.0 283.0 L 533.0 317.0" stroke="#4a4a6a" stroke-width="8" stroke-linecap="round" /><path d="M 603.0 283.0 L 637.0 317.0 M 637.0 283.0 L 603.0 317.0" stroke="#e87ca7" stroke-width="8" stroke-linecap="round" /><path d="M 673.0 283.0 L 707.0 317.0 M 707.0 283.0 L 673.0 317.0" stroke="#4a4a6a" stroke-width="8" stroke-linecap="round" /><path d="M 323.0 373.0 L 357.0 407.0 M 357.0 373.0 L 323.0 407.0" stroke="#e87ca7" stroke-width="8" stroke-linecap="round" /><path d="M 393.0 373.0 L 427.0 407.0 M 427.0 373.0 L 393.0 407.0" stroke="#4a4a6a" stroke-width="8" stroke-linecap="round" /><path d="M 463.0 373.0 L 497.0 407.0 M 497.0 373.0 L 463.0 407.0" stroke="#e87ca7" stroke-width="8" stroke-linecap="round" /><path d="M 533.0 373.0 L 567.0 407.0 M 567.0 373.0 L 533.0 407.0" stroke="#4a4a6a" stroke-width="8" stroke-linecap="round" /><path d="M 603.0 373.0 L 637.0 407.0 M 637.0 373.0 L 603.0 407.0" stroke="#e87ca7" stroke-width="8" stroke-linecap="round" /><path d="M 673.0 373.0 L 707.0 407.0 M 707.0 373.0 L 673.0 407.0" stroke="#4a4a6a" stroke-width="8" stroke-linecap="round" /><path d="M 323.0 463.0 L 357.0 497.0 M 357.0 463.0 L 323.0 497.0" stroke="#e87ca7" stroke-width="8" stroke-linecap="round" /><path d="M 393.0 463.0 L 427.0 497.0 M 427.0 463.0 L 393.0 497.0" stroke="#4a4a6a" stroke-width="8" stroke-linecap="round" /><path d="M 463.0 463.0 L 497.0 497.0 M 497.0 463.0 L 463.0 497.0" stroke="#e87ca7" stroke-width="8" stroke-linecap="round" /><path d="M 533.0 463.0 L 567.0 497.0 M 567.0 463.0 L 533.0 497.0" stroke="#4a4a6a" stroke-width="8" stroke-linecap="round" /><path d="M 603.0 463.0 L 637.0 497.0 M 637.0 463.0 L 603.0 497.0" stroke="#e87ca7" stroke-width="8" stroke-linecap="round" /><path d="M 673.0 463.0 L 707.0 497.0 M 707.0 463.0 L 673.0 497.0" stroke="#4a4a6a" stroke-width="8" stroke-linecap="round" /><path d="M 323.0 553.0 L 357.0 587.0 M 357.0 553.0 L 323.0 587.0" stroke="#e87ca7" stroke-width="8" stroke-linecap="round" /><path d="M 393.0 553.0 L 427.0 587.0 M 427.0 553.0 L 393.0 587.0" stroke="#4a4a6a" stroke-width="8" stroke-linecap="round" /><path d="M 463.0 553.0 L 497.0 587.0 M 497.0 553.0 L 463.0 587.0" stroke="#e87ca7" stroke-width="8" stroke-linecap="round" /><path d="M 533.0 553.0 L 567.0 587.0 M 567.0 553.0 L 533.0 587.0" stroke="#4a4a6a" stroke-width="8" stroke-linecap="round" /><path d="M 603.0 553.0 L 637.0 587.0 M 637.0 553.0 L 603.0 587.0" stroke="#e87ca7" stroke-width="8" stroke-linecap="round" /><path d="M 673.0 553.0 L 707.0 587.0 M 707.0 553.0 L 673.0 587.0" stroke="#4a4a6a" stroke-width="8" stroke-linecap="round" /><path d="M 323.0 643.0 L 357.0 677.0 M 357.0 643.0 L 323.0 677.0" stroke="#e87ca7" stroke-width="8" stroke-linecap="round" /><path d="M 393.0 643.0 L 427.0 677.0 M 427.0 643.0 L 393.0 677.0" stroke="#4a4a6a" stroke-width="8" stroke-linecap="round" /><path d="M 463.0 643.0 L 497.0 677.0 M 497.0 643.0 L 463.0 677.0" stroke="#e87ca7" stroke-width="8" stroke-linecap="round" /><path d="M 533.0 643.0 L 567.0 677.0 M 567.0 643.0 L 533.0 677.0" stroke="#4a4a6a" stroke-width="8" stroke-linecap="round" /><path d="M 603.0 643.0 L 637.0 677.0 M 637.0 643.0 L 603.0 677.0" stroke="#e87ca7" stroke-width="8" stroke-linecap="round" /><rect x="116" y="116" width="792" height="792" rx="92" fill="none" stroke="#8b725d" stroke-width="12" opacity=".22" stroke-dasharray="18 18" /><rect x="480" y="860" width="44" height="16" rx="4" fill="#f6e7d7" /><g stroke="#b08a66" stroke-width="4" opacity=".7" stroke-linecap="round"><path d="M 932 132 l 28 -20" /><path d="M 942 150 l 30 -8" /><path d="M 950 172 l 36 -2" /></g></g></svg></g><g transform="rotate(4 188 832)"><svg xmlns="http://www.w3.org/2000/svg" viewBox="0 0 1024 1024" width="560" height="560" x="-92" y="552" aria-hidden="true"><defs><clipPath id="sq"><path d="M 350.06 0 L 673.94 0 C 774.74 0 825.13 0 879.39 17.15 L 879.39 17.15 C 938.62 38.71 985.29 85.38 1006.85 144.61 C 1024 198.87 1024 249.26 1024 350.06 L 1024 673.94 C 1024 774.74 1024 825.13 1006.85 879.39 L 1006.85 879.39 C 985.29 938.62 938.62 985.29 879.39 1006.85 C 825.13 1024 774.74 1024 673.94 1024 L 350.06 1024 C 249.26 1024 198.87 1024 144.61 1006.85 L 144.61 1006.85 C 85.38 985.29 38.71 938.62 17.15 879.39 C 0 825.13 0 774.74 0 673.94 L 0 350.06 C 0 249.26 0 198.87 17.15 144.61 L 17.15 144.61 C 38.71 85.38 85.38 38.71 144.61 17.15 C 198.87 0 249.26 0 350.06 0 Z" /></clipPath><linearGradient id="bgcrossstitchpages" x1="0" y1="0" x2="0" y2="1"><stop offset="0" stop-color="#f6e7d7" /><stop offset="1" stop-color="#d9c1a4" /></linearGradient></defs><g clip-path="url(#sq)"><rect width="1024" height="1024" fill="url(#bgcrossstitchpages)" /><path d="M 0 0 V 1024 M 0 0 H 1024" stroke="#8b725d" stroke-width="4" opacity=".10" /><path d="M 48 0 V 1024 M 0 48 H 1024" stroke="#8b725d" stroke-width="4" opacity=".10" /><path d="M 96 0 V 1024 M 0 96 H 1024" stroke="#8b725d" stroke-width="4" opacity=".10" /><path d="M 144 0 V 1024 M 0 144 H 1024" stroke="#8b725d" stroke-width="4" opacity=".10" /><path d="M 192 0 V 1024 M 0 192 H 1024" stroke="#8b725d" stroke-width="4" opacity=".10" /><path d="M 240 0 V 1024 M 0 240 H 1024" stroke="#8b725d" stroke-width="4" opacity=".10" /><path d="M 288 0 V 1024 M 0 288 H 1024" stroke="#8b725d" stroke-width="4" opacity=".10" /><path d="M 336 0 V 1024 M 0 336 H 1024" stroke="#8b725d" stroke-width="4" opacity=".10" /><path d="M 384 0 V 1024 M 0 384 H 1024" stroke="#8b725d" stroke-width="4" opacity=".10" /><path d="M 432 0 V 1024 M 0 432 H 1024" stroke="#8b725d" stroke-width="4" opacity=".10" /><path d="M 480 0 V 1024 M 0 480 H 1024" stroke="#8b725d" stroke-width="4" opacity=".10" /><path d="M 528 0 V 1024 M 0 528 H 1024" stroke="#8b725d" stroke-width="4" opacity=".10" /><path d="M 576 0 V 1024 M 0 576 H 1024" stroke="#8b725d" stroke-width="4" opacity=".10" /><path d="M 624 0 V 1024 M 0 624 H 1024" stroke="#8b725d" stroke-width="4" opacity=".10" /><path d="M 672 0 V 1024 M 0 672 H 1024" stroke="#8b725d" stroke-width="4" opacity=".10" /><path d="M 720 0 V 1024 M 0 720 H 1024" stroke="#8b725d" stroke-width="4" opacity=".10" /><path d="M 768 0 V 1024 M 0 768 H 1024" stroke="#8b725d" stroke-width="4" opacity=".10" /><path d="M 816 0 V 1024 M 0 816 H 1024" stroke="#8b725d" stroke-width="4" opacity=".10" /><path d="M 864 0 V 1024 M 0 864 H 1024" stroke="#8b725d" stroke-width="4" opacity=".10" /><path d="M 912 0 V 1024 M 0 912 H 1024" stroke="#8b725d" stroke-width="4" opacity=".10" /><path d="M 960 0 V 1024 M 0 960 H 1024" stroke="#8b725d" stroke-width="4" opacity=".10" /><path d="M 1008 0 V 1024 M 0 1008 H 1024" stroke="#8b725d" stroke-width="4" opacity=".10" /><path d="M 323.0 283.0 L 357.0 317.0 M 357.0 283.0 L 323.0 317.0" stroke="#e87ca7" stroke-width="8" stroke-linecap="round" /><path d="M 393.0 283.0 L 427.0 317.0 M 427.0 283.0 L 393.0 317.0" stroke="#4a4a6a" stroke-width="8" stroke-linecap="round" /><path d="M 463.0 283.0 L 497.0 317.0 M 497.0 283.0 L 463.0 317.0" stroke="#e87ca7" stroke-width="8" stroke-linecap="round" /><path d="M 533.0 283.0 L 567.0 317.0 M 567.0 283.0 L 533.0 317.0" stroke="#4a4a6a" stroke-width="8" stroke-linecap="round" /><path d="M 603.0 283.0 L 637.0 317.0 M 637.0 283.0 L 603.0 317.0" stroke="#e87ca7" stroke-width="8" stroke-linecap="round" /><path d="M 673.0 283.0 L 707.0 317.0 M 707.0 283.0 L 673.0 317.0" stroke="#4a4a6a" stroke-width="8" stroke-linecap="round" /><path d="M 323.0 373.0 L 357.0 407.0 M 357.0 373.0 L 323.0 407.0" stroke="#e87ca7" stroke-width="8" stroke-linecap="round" /><path d="M 393.0 373.0 L 427.0 407.0 M 427.0 373.0 L 393.0 407.0" stroke="#4a4a6a" stroke-width="8" stroke-linecap="round" /><path d="M 463.0 373.0 L 497.0 407.0 M 497.0 373.0 L 463.0 407.0" stroke="#e87ca7" stroke-width="8" stroke-linecap="round" /><path d="M 533.0 373.0 L 567.0 407.0 M 567.0 373.0 L 533.0 407.0" stroke="#4a4a6a" stroke-width="8" stroke-linecap="round" /><path d="M 603.0 373.0 L 637.0 407.0 M 637.0 373.0 L 603.0 407.0" stroke="#e87ca7" stroke-width="8" stroke-linecap="round" /><path d="M 673.0 373.0 L 707.0 407.0 M 707.0 373.0 L 673.0 407.0" stroke="#4a4a6a" stroke-width="8" stroke-linecap="round" /><path d="M 323.0 463.0 L 357.0 497.0 M 357.0 463.0 L 323.0 497.0" stroke="#e87ca7" stroke-width="8" stroke-linecap="round" /><path d="M 393.0 463.0 L 427.0 497.0 M 427.0 463.0 L 393.0 497.0" stroke="#4a4a6a" stroke-width="8" stroke-linecap="round" /><path d="M 463.0 463.0 L 497.0 497.0 M 497.0 463.0 L 463.0 497.0" stroke="#e87ca7" stroke-width="8" stroke-linecap="round" /><path d="M 533.0 463.0 L 567.0 497.0 M 567.0 463.0 L 533.0 497.0" stroke="#4a4a6a" stroke-width="8" stroke-linecap="round" /><path d="M 603.0 463.0 L 637.0 497.0 M 637.0 463.0 L 603.0 497.0" stroke="#e87ca7" stroke-width="8" stroke-linecap="round" /><path d="M 673.0 463.0 L 707.0 497.0 M 707.0 463.0 L 673.0 497.0" stroke="#4a4a6a" stroke-width="8" stroke-linecap="round" /><path d="M 323.0 553.0 L 357.0 587.0 M 357.0 553.0 L 323.0 587.0" stroke="#e87ca7" stroke-width="8" stroke-linecap="round" /><path d="M 393.0 553.0 L 427.0 587.0 M 427.0 553.0 L 393.0 587.0" stroke="#4a4a6a" stroke-width="8" stroke-linecap="round" /><path d="M 463.0 553.0 L 497.0 587.0 M 497.0 553.0 L 463.0 587.0" stroke="#e87ca7" stroke-width="8" stroke-linecap="round" /><path d="M 533.0 553.0 L 567.0 587.0 M 567.0 553.0 L 533.0 587.0" stroke="#4a4a6a" stroke-width="8" stroke-linecap="round" /><path d="M 603.0 553.0 L 637.0 587.0 M 637.0 553.0 L 603.0 587.0" stroke="#e87ca7" stroke-width="8" stroke-linecap="round" /><path d="M 673.0 553.0 L 707.0 587.0 M 707.0 553.0 L 673.0 587.0" stroke="#4a4a6a" stroke-width="8" stroke-linecap="round" /><path d="M 323.0 643.0 L 357.0 677.0 M 357.0 643.0 L 323.0 677.0" stroke="#e87ca7" stroke-width="8" stroke-linecap="round" /><path d="M 393.0 643.0 L 427.0 677.0 M 427.0 643.0 L 393.0 677.0" stroke="#4a4a6a" stroke-width="8" stroke-linecap="round" /><path d="M 463.0 643.0 L 497.0 677.0 M 497.0 643.0 L 463.0 677.0" stroke="#e87ca7" stroke-width="8" stroke-linecap="round" /><path d="M 533.0 643.0 L 567.0 677.0 M 567.0 643.0 L 533.0 677.0" stroke="#4a4a6a" stroke-width="8" stroke-linecap="round" /><path d="M 603.0 643.0 L 637.0 677.0 M 637.0 643.0 L 603.0 677.0" stroke="#e87ca7" stroke-width="8" stroke-linecap="round" /><path d="M 663.0 223.0 L 697.0 257.0 M 697.0 223.0 L 663.0 257.0" stroke="#4a4a6a" stroke-width="8" stroke-linecap="round" /><path d="M 718.0 278.0 L 752.0 312.0 M 752.0 278.0 L 718.0 312.0" stroke="#e87ca7" stroke-width="8" stroke-linecap="round" /><path d="M 663.0 278.0 L 697.0 312.0 M 697.0 278.0 L 663.0 312.0" stroke="#4a4a6a" stroke-width="8" stroke-linecap="round" /><rect x="116" y="116" width="792" height="792" rx="92" fill="none" stroke="#8b725d" stroke-width="12" opacity=".22" stroke-dasharray="18 18" /><rect x="400" y="860" width="44" height="16" rx="4" fill="#f6e7d7" /><g stroke="#b08a66" stroke-width="4" opacity=".7" stroke-linecap="round"><path d="M 932 132 l 28 -20" /><path d="M 942 150 l 30 -8" /><path d="M 950 172 l 36 -2" /></g></g></svg></g><g transform="rotate(-5 836 832)"><svg xmlns="http://www.w3.org/2000/svg" viewBox="0 0 1024 1024" width="560" height="560" x="556" y="552" aria-hidden="true"><defs><clipPath id="sq"><path d="M 350.06 0 L 673.94 0 C 774.74 0 825.13 0 879.39 17.15 L 879.39 17.15 C 938.62 38.71 985.29 85.38 1006.85 144.61 C 1024 198.87 1024 249.26 1024 350.06 L 1024 673.94 C 1024 774.74 1024 825.13 1006.85 879.39 L 1006.85 879.39 C 985.29 938.62 938.62 985.29 879.39 1006.85 C 825.13 1024 774.74 1024 673.94 1024 L 350.06 1024 C 249.26 1024 198.87 1024 144.61 1006.85 L 144.61 1006.85 C 85.38 985.29 38.71 938.62 17.15 879.39 C 0 825.13 0 774.74 0 673.94 L 0 350.06 C 0 249.26 0 198.87 17.15 144.61 L 17.15 144.61 C 38.71 85.38 85.38 38.71 144.61 17.15 C 198.87 0 249.26 0 350.06 0 Z" /></clipPath><linearGradient id="bgcrossstitchmedia" x1="0" y1="0" x2="0" y2="1"><stop offset="0" stop-color="#f6e7d7" /><stop offset="1" stop-color="#d9c1a4" /></linearGradient></defs><g clip-path="url(#sq)"><rect width="1024" height="1024" fill="url(#bgcrossstitchmedia)" /><path d="M 0 0 V 1024 M 0 0 H 1024" stroke="#8b725d" stroke-width="4" opacity=".10" /><path d="M 48 0 V 1024 M 0 48 H 1024" stroke="#8b725d" stroke-width="4" opacity=".10" /><path d="M 96 0 V 1024 M 0 96 H 1024" stroke="#8b725d" stroke-width="4" opacity=".10" /><path d="M 144 0 V 1024 M 0 144 H 1024" stroke="#8b725d" stroke-width="4" opacity=".10" /><path d="M 192 0 V 1024 M 0 192 H 1024" stroke="#8b725d" stroke-width="4" opacity=".10" /><path d="M 240 0 V 1024 M 0 240 H 1024" stroke="#8b725d" stroke-width="4" opacity=".10" /><path d="M 288 0 V 1024 M 0 288 H 1024" stroke="#8b725d" stroke-width="4" opacity=".10" /><path d="M 336 0 V 1024 M 0 336 H 1024" stroke="#8b725d" stroke-width="4" opacity=".10" /><path d="M 384 0 V 1024 M 0 384 H 1024" stroke="#8b725d" stroke-width="4" opacity=".10" /><path d="M 432 0 V 1024 M 0 432 H 1024" stroke="#8b725d" stroke-width="4" opacity=".10" /><path d="M 480 0 V 1024 M 0 480 H 1024" stroke="#8b725d" stroke-width="4" opacity=".10" /><path d="M 528 0 V 1024 M 0 528 H 1024" stroke="#8b725d" stroke-width="4" opacity=".10" /><path d="M 576 0 V 1024 M 0 576 H 1024" stroke="#8b725d" stroke-width="4" opacity=".10" /><path d="M 624 0 V 1024 M 0 624 H 1024" stroke="#8b725d" stroke-width="4" opacity=".10" /><path d="M 672 0 V 1024 M 0 672 H 1024" stroke="#8b725d" stroke-width="4" opacity=".10" /><path d="M 720 0 V 1024 M 0 720 H 1024" stroke="#8b725d" stroke-width="4" opacity=".10" /><path d="M 768 0 V 1024 M 0 768 H 1024" stroke="#8b725d" stroke-width="4" opacity=".10" /><path d="M 816 0 V 1024 M 0 816 H 1024" stroke="#8b725d" stroke-width="4" opacity=".10" /><path d="M 864 0 V 1024 M 0 864 H 1024" stroke="#8b725d" stroke-width="4" opacity=".10" /><path d="M 912 0 V 1024 M 0 912 H 1024" stroke="#8b725d" stroke-width="4" opacity=".10" /><path d="M 960 0 V 1024 M 0 960 H 1024" stroke="#8b725d" stroke-width="4" opacity=".10" /><path d="M 1008 0 V 1024 M 0 1008 H 1024" stroke="#8b725d" stroke-width="4" opacity=".10" /><path d="M 633.0 313.0 L 667.0 347.0 M 667.0 313.0 L 633.0 347.0" stroke="#e87ca7" stroke-width="8" stroke-linecap="round" /><path d="M 683.0 313.0 L 717.0 347.0 M 717.0 313.0 L 683.0 347.0" stroke="#4a4a6a" stroke-width="8" stroke-linecap="round" /><path d="M 658.0 363.0 L 692.0 397.0 M 692.0 363.0 L 658.0 397.0" stroke="#e87ca7" stroke-width="8" stroke-linecap="round" /><path d="M 293.0 653.0 L 327.0 687.0 M 327.0 653.0 L 293.0 687.0" stroke="#4a4a6a" stroke-width="8" stroke-linecap="round" /><path d="M 363.0 583.0 L 397.0 617.0 M 397.0 583.0 L 363.0 617.0" stroke="#e87ca7" stroke-width="8" stroke-linecap="round" /><path d="M 433.0 653.0 L 467.0 687.0 M 467.0 653.0 L 433.0 687.0" stroke="#4a4a6a" stroke-width="8" stroke-linecap="round" /><path d="M 523.0 553.0 L 557.0 587.0 M 557.0 553.0 L 523.0 587.0" stroke="#e87ca7" stroke-width="8" stroke-linecap="round" /><path d="M 623.0 653.0 L 657.0 687.0 M 657.0 653.0 L 623.0 687.0" stroke="#4a4a6a" stroke-width="8" stroke-linecap="round" /><rect x="116" y="116" width="792" height="792" rx="92" fill="none" stroke="#8b725d" stroke-width="12" opacity=".22" stroke-dasharray="18 18" /><rect x="320" y="860" width="44" height="16" rx="4" fill="#f6e7d7" /><g stroke="#b08a66" stroke-width="4" opacity=".7" stroke-linecap="round"><path d="M 932 132 l 28 -20" /><path d="M 942 150 l 30 -8" /><path d="M 950 172 l 36 -2" /></g></g></svg></g></svg>
