<svg xmlns="http://www.w3.org/2000/svg" viewBox="0 0 1024 1024" width="1024" height="1024" role="img" aria-label="Hologram icon set preview"><defs><linearGradient id="bghologram" x1="0" y1="0" x2="1" y2="1"><stop offset="0" stop-color="#eaf5ff"/><stop offset="1" stop-color="#7fa4cd"/></linearGradient></defs><rect width="1024" height="1024" fill="url(#bghologram)"/><circle cx="128" cy="120" r="210" fill="#fff" opacity=".24"/><circle cx="918" cy="884" r="260" fill="#9fd0ff" opacity=".20"/><g transform="rotate(-5 188 224)"><svg xmlns="http://www.w3.org/2000/svg" viewBox="0 0 1024 1024" width="560" height="560" x="-92" y="-56" aria-hidden="true"><defs><clipPath id="sq"><path d="M 350.06 0 L 673.94 0 C 774.74 0 825.13 0 879.39 17.15 L 879.39 17.15 C 938.62 38.71 985.29 85.38 1006.85 144.61 C 1024 198.87 1024 249.26 1024 350.06 L 1024 673.94 C 1024 774.74 1024 825.13 1006.85 879.39 L 1006.85 879.39 C 985.29 938.62 938.62 985.29 879.39 1006.85 C 825.13 1024 774.74 1024 673.94 1024 L 350.06 1024 C 249.26 1024 198.87 1024 144.61 1006.85 L 144.61 1006.85 C 85.38 985.29 38.71 938.62 17.15 879.39 C 0 825.13 0 774.74 0 673.94 L 0 350.06 C 0 249.26 0 198.87 17.15 144.61 L 17.15 144.61 C 38.71 85.38 85.38 38.71 144.61 17.15 C 198.87 0 249.26 0 350.06 0 Z" /></clipPath><linearGradient id="bghologramdashboard" x1="0" y1="0" x2="1" y2="1"><stop offset="0" stop-color="#c8e7ff" /><stop offset="1" stop-color="#ffd1f5" /></linearGradient><radialGradient id="sphologramdashboard" cx="0.28" cy="0.22" r="0.6"><stop offset="0" stop-color="#ffffff" stop-opacity=".40" /><stop offset="1" stop-color="#ffffff" stop-opacity="0" /></radialGradient></defs><g clip-path="url(#sq)"><rect width="1024" height="1024" fill="url(#bghologramdashboard)" /><path d="M86 778 L778 86 H938 V246 L246 938 H86 Z" fill="#ffffff" opacity=".22" /><g transform="rotate(-8 512 512)"><rect x="182" y="182" width="312" height="312" rx="60" fill="#5a7ea8" /><rect x="530" y="182" width="312" height="312" rx="60" fill="#d45fc9" /><rect x="182" y="530" width="312" height="312" rx="60" fill="#d45fc9" /><rect x="530" y="530" width="312" height="312" rx="60" fill="#5a7ea8" /></g><rect width="1024" height="1024" fill="url(#sphologramdashboard)" /><path d="M766 116 L908 116 L908 258 Z" fill="#ffffff" opacity=".62" /><path d="M 160 400 Q 400 380 640 410 T 900 400" stroke="#ffffff" stroke-width="2" fill="none" opacity=".45" /><path d="M 116 116 L 116 220 L 210 116 Z" fill="#ffffff" opacity=".58" /></g></svg></g><g transform="rotate(4 836 224)"><svg xmlns="http://www.w3.org/2000/svg" viewBox="0 0 1024 1024" width="560" height="560" x="556" y="-56" aria-hidden="true"><defs><clipPath id="sq"><path d="M 350.06 0 L 673.94 0 C 774.74 0 825.13 0 879.39 17.15 L 879.39 17.15 C 938.62 38.71 985.29 85.38 1006.85 144.61 C 1024 198.87 1024 249.26 1024 350.06 L 1024 673.94 C 1024 774.74 1024 825.13 1006.85 879.39 L 1006.85 879.39 C 985.29 938.62 938.62 985.29 879.39 1006.85 C 825.13 1024 774.74 1024 673.94 1024 L 350.06 1024 C 249.26 1024 198.87 1024 144.61 1006.85 L 144.61 1006.85 C 85.38 985.29 38.71 938.62 17.15 879.39 C 0 825.13 0 774.74 0 673.94 L 0 350.06 C 0 249.26 0 198.87 17.15 144.61 L 17.15 144.61 C 38.71 85.38 85.38 38.71 144.61 17.15 C 198.87 0 249.26 0 350.06 0 Z" /></clipPath><linearGradient id="bghologramposts" x1="0" y1="0" x2="1" y2="1"><stop offset="0" stop-color="#c8e7ff" /><stop offset="1" stop-color="#ffd1f5" /></linearGradient><radialGradient id="sphologramposts" cx="0.28" cy="0.22" r="0.6"><stop offset="0" stop-color="#ffffff" stop-opacity=".40" /><stop offset="1" stop-color="#ffffff" stop-opacity="0" /></radialGradient></defs><g clip-path="url(#sq)"><rect width="1024" height="1024" fill="url(#bghologramposts)" /><path d="M86 778 L778 86 H938 V246 L246 938 H86 Z" fill="#ffffff" opacity=".22" /><g transform="rotate(-8 512 512)"><path d="M 310 182 L 772 182 L 772 182 L 772 784 Q 772 842 714 842 L 310 842 Q 252 842 252 784 L 252 240 Q 252 182 310 182 Z" fill="#5a7ea8" /><rect x="332" y="302" width="360" height="42" rx="21" fill="#d45fc9" /><rect x="332" y="402" width="310" height="42" rx="21" fill="#d45fc9" /><rect x="332" y="502" width="360" height="42" rx="21" fill="#d45fc9" /><rect x="332" y="602" width="250" height="42" rx="21" fill="#d45fc9" /><rect x="332" y="702" width="330" height="42" rx="21" fill="#d45fc9" /></g><rect width="1024" height="1024" fill="url(#sphologramposts)" /><path d="M766 116 L908 116 L908 258 Z" fill="#ffffff" opacity=".62" /><path d="M 160 480 Q 400 460 640 490 T 900 480" stroke="#ffffff" stroke-width="2" fill="none" opacity=".45" /><path d="M 908 908 L 908 824 L 830 908 Z" fill="#ffffff" opacity=".56" /></g></svg></g><g transform="rotate(4 188 832)"><svg xmlns="http://www.w3.org/2000/svg" viewBox="0 0 1024 1024" width="560" height="560" x="-92" y="552" aria-hidden="true"><defs><clipPath id="sq"><path d="M 350.06 0 L 673.94 0 C 774.74 0 825.13 0 879.39 17.15 L 879.39 17.15 C 938.62 38.71 985.29 85.38 1006.85 144.61 C 1024 198.87 1024 249.26 1024 350.06 L 1024 673.94 C 1024 774.74 1024 825.13 1006.85 879.39 L 1006.85 879.39 C 985.29 938.62 938.62 985.29 879.39 1006.85 C 825.13 1024 774.74 1024 673.94 1024 L 350.06 1024 C 249.26 1024 198.87 1024 144.61 1006.85 L 144.61 1006.85 C 85.38 985.29 38.71 938.62 17.15 879.39 C 0 825.13 0 774.74 0 673.94 L 0 350.06 C 0 249.26 0 198.87 17.15 144.61 L 17.15 144.61 C 38.71 85.38 85.38 38.71 144.61 17.15 C 198.87 0 249.26 0 350.06 0 Z" /></clipPath><linearGradient id="bghologrampages" x1="0" y1="0" x2="1" y2="1"><stop offset="0" stop-color="#c8e7ff" /><stop offset="1" stop-color="#ffd1f5" /></linearGradient><radialGradient id="sphologrampages" cx="0.28" cy="0.22" r="0.6"><stop offset="0" stop-color="#ffffff" stop-opacity=".40" /><stop offset="1" stop-color="#ffffff" stop-opacity="0" /></radialGradient></defs><g clip-path="url(#sq)"><rect width="1024" height="1024" fill="url(#bghologrampages)" /><path d="M86 778 L778 86 H938 V246 L246 938 H86 Z" fill="#ffffff" opacity=".22" /><g transform="rotate(-8 512 512)"><path d="M 310 182 L 630 182 L 772 324 L 772 784 Q 772 842 714 842 L 310 842 Q 252 842 252 784 L 252 240 Q 252 182 310 182 Z" fill="#5a7ea8" /><path d="M 630 182 L 772 324 L 630 324 Z" fill="#d45fc9" opacity=".62" /><rect x="332" y="362" width="360" height="38" rx="19" fill="#d45fc9" opacity=".78" /><rect x="332" y="462" width="330" height="38" rx="19" fill="#d45fc9" opacity=".78" /><rect x="332" y="562" width="280" height="38" rx="19" fill="#d45fc9" opacity=".78" /></g><rect width="1024" height="1024" fill="url(#sphologrampages)" /><path d="M766 116 L908 116 L908 258 Z" fill="#ffffff" opacity=".62" /><path d="M 160 400 Q 400 380 640 410 T 900 400" stroke="#ffffff" stroke-width="2" fill="none" opacity=".45" /><path d="M 116 116 L 116 220 L 210 116 Z" fill="#ffffff" opacity=".58" /></g></svg></g><g transform="rotate(-5 836 832)"><svg xmlns="http://www.w3.org/2000/svg" viewBox="0 0 1024 1024" width="560" height="560" x="556" y="552" aria-hidden="true"><defs><clipPath id="sq"><path d="M 350.06 0 L 673.94 0 C 774.74 0 825.13 0 879.39 17.15 L 879.39 17.15 C 938.62 38.71 985.29 85.38 1006.85 144.61 C 1024 198.87 1024 249.26 1024 350.06 L 1024 673.94 C 1024 774.74 1024 825.13 1006.85 879.39 L 1006.85 879.39 C 985.29 938.62 938.62 985.29 879.39 1006.85 C 825.13 1024 774.74 1024 673.94 1024 L 350.06 1024 C 249.26 1024 198.87 1024 144.61 1006.85 L 144.61 1006.85 C 85.38 985.29 38.71 938.62 17.15 879.39 C 0 825.13 0 774.74 0 673.94 L 0 350.06 C 0 249.26 0 198.87 17.15 144.61 L 17.15 144.61 C 38.71 85.38 85.38 38.71 144.61 17.15 C 198.87 0 249.26 0 350.06 0 Z" /></clipPath><linearGradient id="bghologrammedia" x1="0" y1="0" x2="1" y2="1"><stop offset="0" stop-color="#c8e7ff" /><stop offset="1" stop-color="#ffd1f5" /></linearGradient><radialGradient id="sphologrammedia" cx="0.28" cy="0.22" r="0.6"><stop offset="0" stop-color="#ffffff" stop-opacity=".40" /><stop offset="1" stop-color="#ffffff" stop-opacity="0" /></radialGradient></defs><g clip-path="url(#sq)"><rect width="1024" height="1024" fill="url(#bghologrammedia)" /><path d="M86 778 L778 86 H938 V246 L246 938 H86 Z" fill="#ffffff" opacity=".22" /><g transform="rotate(-8 512 512)"><rect x="182" y="242" width="660" height="540" rx="68" fill="#5a7ea8" /><rect x="220" y="280" width="584" height="464" rx="44" fill="#d45fc9" opacity=".30" /><circle cx="664" cy="392" r="54" fill="#9fd0ff" /><path d="M 248 716 L 440 484 L 542 564 L 564 444 L 776 716 Z" fill="#d45fc9" /></g><rect width="1024" height="1024" fill="url(#sphologrammedia)" /><path d="M766 116 L908 116 L908 258 Z" fill="#ffffff" opacity=".62" /><path d="M 160 240 Q 400 220 640 250 T 900 240" stroke="#ffffff" stroke-width="2" fill="none" opacity=".45" /><path d="M 116 116 L 116 220 L 210 116 Z" fill="#ffffff" opacity=".58" /></g></svg></g></svg>
