<svg xmlns="http://www.w3.org/2000/svg" viewBox="0 0 1024 1024" width="1024" height="1024" role="img" aria-label="Blueprint icon set preview"><defs><linearGradient id="bgblueprint" x1="0" y1="0" x2="1" y2="1"><stop offset="0" stop-color="#d8ebff"/><stop offset="1" stop-color="#3f81cd"/></linearGradient></defs><rect width="1024" height="1024" fill="url(#bgblueprint)"/><circle cx="128" cy="120" r="210" fill="#fff" opacity=".24"/><circle cx="918" cy="884" r="260" fill="#4da3ff" opacity=".20"/><g transform="rotate(-5 188 224)"><svg xmlns="http://www.w3.org/2000/svg" viewBox="0 0 1024 1024" width="560" height="560" x="-92" y="-56" aria-hidden="true"><defs><clipPath id="sq"><path d="M 350.06 0 L 673.94 0 C 774.74 0 825.13 0 879.39 17.15 L 879.39 17.15 C 938.62 38.71 985.29 85.38 1006.85 144.61 C 1024 198.87 1024 249.26 1024 350.06 L 1024 673.94 C 1024 774.74 1024 825.13 1006.85 879.39 L 1006.85 879.39 C 985.29 938.62 938.62 985.29 879.39 1006.85 C 825.13 1024 774.74 1024 673.94 1024 L 350.06 1024 C 249.26 1024 198.87 1024 144.61 1006.85 L 144.61 1006.85 C 85.38 985.29 38.71 938.62 17.15 879.39 C 0 825.13 0 774.74 0 673.94 L 0 350.06 C 0 249.26 0 198.87 17.15 144.61 L 17.15 144.61 C 38.71 85.38 85.38 38.71 144.61 17.15 C 198.87 0 249.26 0 350.06 0 Z" /></clipPath><linearGradient id="bgblueprintdashboard" x1="0" y1="0" x2="0" y2="1"><stop offset="0" stop-color="#0b3763" /><stop offset="1" stop-color="#04182c" /></linearGradient></defs><g clip-path="url(#sq)"><rect width="1024" height="1024" fill="url(#bgblueprintdashboard)" /><path d="M 0 0 V 1024 M 0 0 H 1024" stroke="#74d7ff" stroke-width="4" opacity=".16" /><path d="M 86 0 V 1024 M 0 86 H 1024" stroke="#74d7ff" stroke-width="4" opacity=".16" /><path d="M 172 0 V 1024 M 0 172 H 1024" stroke="#74d7ff" stroke-width="4" opacity=".16" /><path d="M 258 0 V 1024 M 0 258 H 1024" stroke="#74d7ff" stroke-width="4" opacity=".16" /><path d="M 344 0 V 1024 M 0 344 H 1024" stroke="#74d7ff" stroke-width="4" opacity=".16" /><path d="M 430 0 V 1024 M 0 430 H 1024" stroke="#74d7ff" stroke-width="4" opacity=".16" /><path d="M 516 0 V 1024 M 0 516 H 1024" stroke="#74d7ff" stroke-width="4" opacity=".16" /><path d="M 602 0 V 1024 M 0 602 H 1024" stroke="#74d7ff" stroke-width="4" opacity=".16" /><path d="M 688 0 V 1024 M 0 688 H 1024" stroke="#74d7ff" stroke-width="4" opacity=".16" /><path d="M 774 0 V 1024 M 0 774 H 1024" stroke="#74d7ff" stroke-width="4" opacity=".16" /><path d="M 860 0 V 1024 M 0 860 H 1024" stroke="#74d7ff" stroke-width="4" opacity=".16" /><path d="M 946 0 V 1024 M 0 946 H 1024" stroke="#74d7ff" stroke-width="4" opacity=".16" /><path d="M96 830 H928 M190 96 V928" stroke="#f0c96a" stroke-width="8" opacity=".55" /><g fill="none" stroke="#7ee4ff" stroke-width="26" stroke-linecap="round" stroke-linejoin="round" stroke-dasharray="12 18"><rect x="182" y="182" width="312" height="312" rx="60" fill="none" /><rect x="530" y="182" width="312" height="312" rx="60" fill="none" /><rect x="182" y="530" width="312" height="312" rx="60" fill="none" /><rect x="530" y="530" width="312" height="312" rx="60" fill="none" /></g><circle cx="820" cy="210" r="34" fill="#f0c96a" /><path d="M116 116 H252 M116 116 V252" stroke="#f0c96a" stroke-width="10" stroke-linecap="round" /><line x1="260" y1="116" x2="260" y2="140" stroke="#f0c96a" stroke-width="4" opacity=".55" /><line x1="330" y1="116" x2="330" y2="148" stroke="#f0c96a" stroke-width="4" opacity=".55" /><line x1="400" y1="116" x2="400" y2="156" stroke="#f0c96a" stroke-width="4" opacity=".55" /><line x1="470" y1="116" x2="470" y2="140" stroke="#f0c96a" stroke-width="4" opacity=".55" /><line x1="540" y1="116" x2="540" y2="148" stroke="#f0c96a" stroke-width="4" opacity=".55" /><line x1="610" y1="116" x2="610" y2="156" stroke="#f0c96a" stroke-width="4" opacity=".55" /><line x1="680" y1="116" x2="680" y2="140" stroke="#f0c96a" stroke-width="4" opacity=".55" /><line x1="750" y1="116" x2="750" y2="148" stroke="#f0c96a" stroke-width="4" opacity=".55" /><line x1="820" y1="116" x2="820" y2="156" stroke="#f0c96a" stroke-width="4" opacity=".55" /><line x1="890" y1="116" x2="890" y2="140" stroke="#f0c96a" stroke-width="4" opacity=".55" /><circle cx="812" cy="856" r="52" fill="none" stroke="#c9a24a" stroke-width="6" opacity=".42" /><circle cx="812" cy="856" r="40" fill="none" stroke="#c9a24a" stroke-width="3" opacity=".30" /></g></svg></g><g transform="rotate(4 836 224)"><svg xmlns="http://www.w3.org/2000/svg" viewBox="0 0 1024 1024" width="560" height="560" x="556" y="-56" aria-hidden="true"><defs><clipPath id="sq"><path d="M 350.06 0 L 673.94 0 C 774.74 0 825.13 0 879.39 17.15 L 879.39 17.15 C 938.62 38.71 985.29 85.38 1006.85 144.61 C 1024 198.87 1024 249.26 1024 350.06 L 1024 673.94 C 1024 774.74 1024 825.13 1006.85 879.39 L 1006.85 879.39 C 985.29 938.62 938.62 985.29 879.39 1006.85 C 825.13 1024 774.74 1024 673.94 1024 L 350.06 1024 C 249.26 1024 198.87 1024 144.61 1006.85 L 144.61 1006.85 C 85.38 985.29 38.71 938.62 17.15 879.39 C 0 825.13 0 774.74 0 673.94 L 0 350.06 C 0 249.26 0 198.87 17.15 144.61 L 17.15 144.61 C 38.71 85.38 85.38 38.71 144.61 17.15 C 198.87 0 249.26 0 350.06 0 Z" /></clipPath><linearGradient id="bgblueprintposts" x1="0" y1="0" x2="0" y2="1"><stop offset="0" stop-color="#0b3763" /><stop offset="1" stop-color="#04182c" /></linearGradient></defs><g clip-path="url(#sq)"><rect width="1024" height="1024" fill="url(#bgblueprintposts)" /><path d="M 0 0 V 1024 M 0 0 H 1024" stroke="#74d7ff" stroke-width="4" opacity=".16" /><path d="M 86 0 V 1024 M 0 86 H 1024" stroke="#74d7ff" stroke-width="4" opacity=".16" /><path d="M 172 0 V 1024 M 0 172 H 1024" stroke="#74d7ff" stroke-width="4" opacity=".16" /><path d="M 258 0 V 1024 M 0 258 H 1024" stroke="#74d7ff" stroke-width="4" opacity=".16" /><path d="M 344 0 V 1024 M 0 344 H 1024" stroke="#74d7ff" stroke-width="4" opacity=".16" /><path d="M 430 0 V 1024 M 0 430 H 1024" stroke="#74d7ff" stroke-width="4" opacity=".16" /><path d="M 516 0 V 1024 M 0 516 H 1024" stroke="#74d7ff" stroke-width="4" opacity=".16" /><path d="M 602 0 V 1024 M 0 602 H 1024" stroke="#74d7ff" stroke-width="4" opacity=".16" /><path d="M 688 0 V 1024 M 0 688 H 1024" stroke="#74d7ff" stroke-width="4" opacity=".16" /><path d="M 774 0 V 1024 M 0 774 H 1024" stroke="#74d7ff" stroke-width="4" opacity=".16" /><path d="M 860 0 V 1024 M 0 860 H 1024" stroke="#74d7ff" stroke-width="4" opacity=".16" /><path d="M 946 0 V 1024 M 0 946 H 1024" stroke="#74d7ff" stroke-width="4" opacity=".16" /><path d="M96 830 H928 M190 96 V928" stroke="#f0c96a" stroke-width="8" opacity=".55" /><g fill="none" stroke="#7ee4ff" stroke-width="26" stroke-linecap="round" stroke-linejoin="round" stroke-dasharray="12 18"><path d="M 310 182 L 772 182 L 772 182 L 772 784 Q 772 842 714 842 L 310 842 Q 252 842 252 784 L 252 240 Q 252 182 310 182 Z" fill="none" /><rect x="332" y="302" width="360" height="42" rx="21" fill="none" /><rect x="332" y="402" width="310" height="42" rx="21" fill="none" /><rect x="332" y="502" width="360" height="42" rx="21" fill="none" /><rect x="332" y="602" width="250" height="42" rx="21" fill="none" /><rect x="332" y="702" width="330" height="42" rx="21" fill="none" /></g><circle cx="820" cy="210" r="34" fill="#f0c96a" /><path d="M116 116 H252 M116 116 V252" stroke="#f0c96a" stroke-width="10" stroke-linecap="round" /><line x1="116" y1="260" x2="140" y2="260" stroke="#f0c96a" stroke-width="4" opacity=".55" /><line x1="116" y1="330" x2="148" y2="330" stroke="#f0c96a" stroke-width="4" opacity=".55" /><line x1="116" y1="400" x2="156" y2="400" stroke="#f0c96a" stroke-width="4" opacity=".55" /><line x1="116" y1="470" x2="140" y2="470" stroke="#f0c96a" stroke-width="4" opacity=".55" /><line x1="116" y1="540" x2="148" y2="540" stroke="#f0c96a" stroke-width="4" opacity=".55" /><line x1="116" y1="610" x2="156" y2="610" stroke="#f0c96a" stroke-width="4" opacity=".55" /><line x1="116" y1="680" x2="140" y2="680" stroke="#f0c96a" stroke-width="4" opacity=".55" /><line x1="116" y1="750" x2="148" y2="750" stroke="#f0c96a" stroke-width="4" opacity=".55" /><line x1="116" y1="820" x2="156" y2="820" stroke="#f0c96a" stroke-width="4" opacity=".55" /><line x1="116" y1="890" x2="140" y2="890" stroke="#f0c96a" stroke-width="4" opacity=".55" /></g></svg></g><g transform="rotate(4 188 832)"><svg xmlns="http://www.w3.org/2000/svg" viewBox="0 0 1024 1024" width="560" height="560" x="-92" y="552" aria-hidden="true"><defs><clipPath id="sq"><path d="M 350.06 0 L 673.94 0 C 774.74 0 825.13 0 879.39 17.15 L 879.39 17.15 C 938.62 38.71 985.29 85.38 1006.85 144.61 C 1024 198.87 1024 249.26 1024 350.06 L 1024 673.94 C 1024 774.74 1024 825.13 1006.85 879.39 L 1006.85 879.39 C 985.29 938.62 938.62 985.29 879.39 1006.85 C 825.13 1024 774.74 1024 673.94 1024 L 350.06 1024 C 249.26 1024 198.87 1024 144.61 1006.85 L 144.61 1006.85 C 85.38 985.29 38.71 938.62 17.15 879.39 C 0 825.13 0 774.74 0 673.94 L 0 350.06 C 0 249.26 0 198.87 17.15 144.61 L 17.15 144.61 C 38.71 85.38 85.38 38.71 144.61 17.15 C 198.87 0 249.26 0 350.06 0 Z" /></clipPath><linearGradient id="bgblueprintpages" x1="0" y1="0" x2="0" y2="1"><stop offset="0" stop-color="#0b3763" /><stop offset="1" stop-color="#04182c" /></linearGradient></defs><g clip-path="url(#sq)"><rect width="1024" height="1024" fill="url(#bgblueprintpages)" /><path d="M 0 0 V 1024 M 0 0 H 1024" stroke="#74d7ff" stroke-width="4" opacity=".16" /><path d="M 86 0 V 1024 M 0 86 H 1024" stroke="#74d7ff" stroke-width="4" opacity=".16" /><path d="M 172 0 V 1024 M 0 172 H 1024" stroke="#74d7ff" stroke-width="4" opacity=".16" /><path d="M 258 0 V 1024 M 0 258 H 1024" stroke="#74d7ff" stroke-width="4" opacity=".16" /><path d="M 344 0 V 1024 M 0 344 H 1024" stroke="#74d7ff" stroke-width="4" opacity=".16" /><path d="M 430 0 V 1024 M 0 430 H 1024" stroke="#74d7ff" stroke-width="4" opacity=".16" /><path d="M 516 0 V 1024 M 0 516 H 1024" stroke="#74d7ff" stroke-width="4" opacity=".16" /><path d="M 602 0 V 1024 M 0 602 H 1024" stroke="#74d7ff" stroke-width="4" opacity=".16" /><path d="M 688 0 V 1024 M 0 688 H 1024" stroke="#74d7ff" stroke-width="4" opacity=".16" /><path d="M 774 0 V 1024 M 0 774 H 1024" stroke="#74d7ff" stroke-width="4" opacity=".16" /><path d="M 860 0 V 1024 M 0 860 H 1024" stroke="#74d7ff" stroke-width="4" opacity=".16" /><path d="M 946 0 V 1024 M 0 946 H 1024" stroke="#74d7ff" stroke-width="4" opacity=".16" /><path d="M96 830 H928 M190 96 V928" stroke="#f0c96a" stroke-width="8" opacity=".55" /><g fill="none" stroke="#7ee4ff" stroke-width="26" stroke-linecap="round" stroke-linejoin="round" stroke-dasharray="12 18"><path d="M 310 182 L 630 182 L 772 324 L 772 784 Q 772 842 714 842 L 310 842 Q 252 842 252 784 L 252 240 Q 252 182 310 182 Z" fill="none" /><path d="M 630 182 L 772 324 L 630 324 Z" fill="none" opacity=".62" /><rect x="332" y="362" width="360" height="38" rx="19" fill="none" opacity=".78" /><rect x="332" y="462" width="330" height="38" rx="19" fill="none" opacity=".78" /><rect x="332" y="562" width="280" height="38" rx="19" fill="none" opacity=".78" /></g><circle cx="820" cy="210" r="34" fill="#f0c96a" /><path d="M116 116 H252 M116 116 V252" stroke="#f0c96a" stroke-width="10" stroke-linecap="round" /><line x1="260" y1="116" x2="260" y2="140" stroke="#f0c96a" stroke-width="4" opacity=".55" /><line x1="330" y1="116" x2="330" y2="148" stroke="#f0c96a" stroke-width="4" opacity=".55" /><line x1="400" y1="116" x2="400" y2="156" stroke="#f0c96a" stroke-width="4" opacity=".55" /><line x1="470" y1="116" x2="470" y2="140" stroke="#f0c96a" stroke-width="4" opacity=".55" /><line x1="540" y1="116" x2="540" y2="148" stroke="#f0c96a" stroke-width="4" opacity=".55" /><line x1="610" y1="116" x2="610" y2="156" stroke="#f0c96a" stroke-width="4" opacity=".55" /><line x1="680" y1="116" x2="680" y2="140" stroke="#f0c96a" stroke-width="4" opacity=".55" /><line x1="750" y1="116" x2="750" y2="148" stroke="#f0c96a" stroke-width="4" opacity=".55" /><line x1="820" y1="116" x2="820" y2="156" stroke="#f0c96a" stroke-width="4" opacity=".55" /><line x1="890" y1="116" x2="890" y2="140" stroke="#f0c96a" stroke-width="4" opacity=".55" /></g></svg></g><g transform="rotate(-5 836 832)"><svg xmlns="http://www.w3.org/2000/svg" viewBox="0 0 1024 1024" width="560" height="560" x="556" y="552" aria-hidden="true"><defs><clipPath id="sq"><path d="M 350.06 0 L 673.94 0 C 774.74 0 825.13 0 879.39 17.15 L 879.39 17.15 C 938.62 38.71 985.29 85.38 1006.85 144.61 C 1024 198.87 1024 249.26 1024 350.06 L 1024 673.94 C 1024 774.74 1024 825.13 1006.85 879.39 L 1006.85 879.39 C 985.29 938.62 938.62 985.29 879.39 1006.85 C 825.13 1024 774.74 1024 673.94 1024 L 350.06 1024 C 249.26 1024 198.87 1024 144.61 1006.85 L 144.61 1006.85 C 85.38 985.29 38.71 938.62 17.15 879.39 C 0 825.13 0 774.74 0 673.94 L 0 350.06 C 0 249.26 0 198.87 17.15 144.61 L 17.15 144.61 C 38.71 85.38 85.38 38.71 144.61 17.15 C 198.87 0 249.26 0 350.06 0 Z" /></clipPath><linearGradient id="bgblueprintmedia" x1="0" y1="0" x2="0" y2="1"><stop offset="0" stop-color="#0b3763" /><stop offset="1" stop-color="#04182c" /></linearGradient></defs><g clip-path="url(#sq)"><rect width="1024" height="1024" fill="url(#bgblueprintmedia)" /><path d="M 0 0 V 1024 M 0 0 H 1024" stroke="#74d7ff" stroke-width="4" opacity=".16" /><path d="M 86 0 V 1024 M 0 86 H 1024" stroke="#74d7ff" stroke-width="4" opacity=".16" /><path d="M 172 0 V 1024 M 0 172 H 1024" stroke="#74d7ff" stroke-width="4" opacity=".16" /><path d="M 258 0 V 1024 M 0 258 H 1024" stroke="#74d7ff" stroke-width="4" opacity=".16" /><path d="M 344 0 V 1024 M 0 344 H 1024" stroke="#74d7ff" stroke-width="4" opacity=".16" /><path d="M 430 0 V 1024 M 0 430 H 1024" stroke="#74d7ff" stroke-width="4" opacity=".16" /><path d="M 516 0 V 1024 M 0 516 H 1024" stroke="#74d7ff" stroke-width="4" opacity=".16" /><path d="M 602 0 V 1024 M 0 602 H 1024" stroke="#74d7ff" stroke-width="4" opacity=".16" /><path d="M 688 0 V 1024 M 0 688 H 1024" stroke="#74d7ff" stroke-width="4" opacity=".16" /><path d="M 774 0 V 1024 M 0 774 H 1024" stroke="#74d7ff" stroke-width="4" opacity=".16" /><path d="M 860 0 V 1024 M 0 860 H 1024" stroke="#74d7ff" stroke-width="4" opacity=".16" /><path d="M 946 0 V 1024 M 0 946 H 1024" stroke="#74d7ff" stroke-width="4" opacity=".16" /><path d="M96 830 H928 M190 96 V928" stroke="#f0c96a" stroke-width="8" opacity=".55" /><g fill="none" stroke="#7ee4ff" stroke-width="26" stroke-linecap="round" stroke-linejoin="round" stroke-dasharray="12 18"><rect x="182" y="242" width="660" height="540" rx="68" fill="none" /><rect x="220" y="280" width="584" height="464" rx="44" fill="none" opacity=".30" /><circle cx="664" cy="392" r="54" fill="none" /><path d="M 248 716 L 440 484 L 542 564 L 564 444 L 776 716 Z" fill="none" /></g><circle cx="820" cy="210" r="34" fill="#f0c96a" /><path d="M116 116 H252 M116 116 V252" stroke="#f0c96a" stroke-width="10" stroke-linecap="round" /><line x1="260" y1="116" x2="260" y2="140" stroke="#f0c96a" stroke-width="4" opacity=".55" /><line x1="330" y1="116" x2="330" y2="148" stroke="#f0c96a" stroke-width="4" opacity=".55" /><line x1="400" y1="116" x2="400" y2="156" stroke="#f0c96a" stroke-width="4" opacity=".55" /><line x1="470" y1="116" x2="470" y2="140" stroke="#f0c96a" stroke-width="4" opacity=".55" /><line x1="540" y1="116" x2="540" y2="148" stroke="#f0c96a" stroke-width="4" opacity=".55" /><line x1="610" y1="116" x2="610" y2="156" stroke="#f0c96a" stroke-width="4" opacity=".55" /><line x1="680" y1="116" x2="680" y2="140" stroke="#f0c96a" stroke-width="4" opacity=".55" /><line x1="750" y1="116" x2="750" y2="148" stroke="#f0c96a" stroke-width="4" opacity=".55" /><line x1="820" y1="116" x2="820" y2="156" stroke="#f0c96a" stroke-width="4" opacity=".55" /><line x1="890" y1="116" x2="890" y2="140" stroke="#f0c96a" stroke-width="4" opacity=".55" /></g></svg></g></svg>
