<svg xmlns="http://www.w3.org/2000/svg" viewBox="0 0 1024 1024" width="1024" height="1024" role="img" aria-label="Oddlings icon set preview"><defs><radialGradient id="glowoddlings" cx=".28" cy=".18" r=".72"><stop offset="0" stop-color="#5cecff" stop-opacity=".32"/><stop offset=".58" stop-color="#38e8ff" stop-opacity=".08"/><stop offset="1" stop-color="#38e8ff" stop-opacity="0"/></radialGradient><filter id="liftoddlings" x="-30%" y="-30%" width="160%" height="160%"><feDropShadow dx="0" dy="20" stdDeviation="24" flood-color="#000" flood-opacity=".52"/><feDropShadow dx="0" dy="0" stdDeviation="10" flood-color="#fff" flood-opacity=".13"/></filter></defs><rect width="1024" height="1024" fill="#080511"/><rect width="1024" height="1024" fill="url(#glowoddlings)"/><g filter="url(#liftoddlings)"><g transform="rotate(-5 188 188)"><svg xmlns="http://www.w3.org/2000/svg" viewBox="0 0 1024 1024" width="560" height="560" x="-92" y="-92" aria-hidden="true"><defs><clipPath id="sq"><path d="M 350.06 0 L 673.94 0 C 774.74 0 825.13 0 879.39 17.15 L 879.39 17.15 C 938.62 38.71 985.29 85.38 1006.85 144.61 C 1024 198.87 1024 249.26 1024 350.06 L 1024 673.94 C 1024 774.74 1024 825.13 1006.85 879.39 L 1006.85 879.39 C 985.29 938.62 938.62 985.29 879.39 1006.85 C 825.13 1024 774.74 1024 673.94 1024 L 350.06 1024 C 249.26 1024 198.87 1024 144.61 1006.85 L 144.61 1006.85 C 85.38 985.29 38.71 938.62 17.15 879.39 C 0 825.13 0 774.74 0 673.94 L 0 350.06 C 0 249.26 0 198.87 17.15 144.61 L 17.15 144.61 C 38.71 85.38 85.38 38.71 144.61 17.15 C 198.87 0 249.26 0 350.06 0 Z" /></clipPath><linearGradient id="bgoddlingsdashboard" x1="0" y1="0" x2="0" y2="1"><stop offset="0" stop-color="#22123d" /><stop offset="1" stop-color="#080212" /></linearGradient><radialGradient id="spoddlingsdashboard" cx=".3" cy=".22" r=".65"><stop offset="0" stop-color="#ffffff" stop-opacity=".22" /><stop offset="1" stop-color="#ffffff" stop-opacity="0" /></radialGradient><radialGradient id="gloddlingsdashboard" cx=".5" cy=".5" r=".6"><stop offset="0" stop-color="#38e8ff" stop-opacity=".9" /><stop offset="1" stop-color="#38e8ff" stop-opacity="0" /></radialGradient><filter id="shoddlingsdashboard" x="-20%" y="-20%" width="140%" height="140%"><feDropShadow dx="0" dy="14" stdDeviation="18" flood-color="#000" flood-opacity=".45" /></filter></defs><g clip-path="url(#sq)"><g filter="url(#shoddlingsdashboard)"><rect x="192" y="192" width="304" height="304" rx="64" fill="#38e8ff" /><rect x="528" y="192" width="304" height="304" rx="64" fill="#ffd84a" opacity=".85" /><rect x="192" y="528" width="304" height="304" rx="64" fill="#ffd84a" opacity=".85" /><rect x="528" y="528" width="304" height="304" rx="64" fill="#38e8ff" /></g><path d="M 220 240 Q 300 200 380 250" stroke="#fff" stroke-width="18" stroke-linecap="round" opacity=".45" fill="none" /><path d="M 556 576 Q 636 540 716 590" stroke="#fff" stroke-width="18" stroke-linecap="round" opacity=".35" fill="none" /><g><circle cx="672" cy="348" r="46" fill="#fff7ea" /><circle cx="672" cy="348" r="26" fill="#0a2a33" /><circle cx="672" cy="348" r="12" fill="#140420" /><circle cx="656" cy="332" r="7" fill="#fff" /></g></g></svg></g><g transform="rotate(4 836 188)"><svg xmlns="http://www.w3.org/2000/svg" viewBox="0 0 1024 1024" width="560" height="560" x="556" y="-92" aria-hidden="true"><defs><clipPath id="sq"><path d="M 350.06 0 L 673.94 0 C 774.74 0 825.13 0 879.39 17.15 L 879.39 17.15 C 938.62 38.71 985.29 85.38 1006.85 144.61 C 1024 198.87 1024 249.26 1024 350.06 L 1024 673.94 C 1024 774.74 1024 825.13 1006.85 879.39 L 1006.85 879.39 C 985.29 938.62 938.62 985.29 879.39 1006.85 C 825.13 1024 774.74 1024 673.94 1024 L 350.06 1024 C 249.26 1024 198.87 1024 144.61 1006.85 L 144.61 1006.85 C 85.38 985.29 38.71 938.62 17.15 879.39 C 0 825.13 0 774.74 0 673.94 L 0 350.06 C 0 249.26 0 198.87 17.15 144.61 L 17.15 144.61 C 38.71 85.38 85.38 38.71 144.61 17.15 C 198.87 0 249.26 0 350.06 0 Z" /></clipPath><linearGradient id="bgoddlingsposts" x1="0" y1="0" x2="0" y2="1"><stop offset="0" stop-color="#22123d" /><stop offset="1" stop-color="#080212" /></linearGradient><radialGradient id="spoddlingsposts" cx=".3" cy=".22" r=".65"><stop offset="0" stop-color="#ffffff" stop-opacity=".22" /><stop offset="1" stop-color="#ffffff" stop-opacity="0" /></radialGradient><radialGradient id="gloddlingsposts" cx=".5" cy=".5" r=".6"><stop offset="0" stop-color="#ff5fa8" stop-opacity=".9" /><stop offset="1" stop-color="#ff5fa8" stop-opacity="0" /></radialGradient><filter id="shoddlingsposts" x="-20%" y="-20%" width="140%" height="140%"><feDropShadow dx="0" dy="14" stdDeviation="18" flood-color="#000" flood-opacity=".45" /></filter></defs><g clip-path="url(#sq)"><g filter="url(#shoddlingsposts)"><rect x="268" y="240" width="512" height="624" rx="32" fill="#ffe26a" opacity=".55" /><rect x="232" y="200" width="512" height="624" rx="32" fill="#ffe26a" opacity=".75" /><rect x="192" y="160" width="512" height="624" rx="36" fill="#ff5fa8" /></g><g stroke="#3a0820" stroke-width="28" stroke-linecap="round"><line x1="260" y1="300" x2="620" y2="300" /><line x1="260" y1="380" x2="580" y2="380" /><line x1="260" y1="460" x2="636" y2="460" /><line x1="260" y1="540" x2="520" y2="540" /></g><g fill="#ff5fa8"><polygon points="220,784 260,820 300,784" /><polygon points="320,784 360,820 400,784" /><polygon points="420,784 460,820 500,784" /><polygon points="520,784 560,820 600,784" /><polygon points="620,784 660,820 700,784" /></g><g><circle cx="604" cy="640" r="38" fill="#fff7ea" /><circle cx="604" cy="640" r="22" fill="#3a0820" /><circle cx="604" cy="640" r="10" fill="#140420" /><circle cx="591" cy="627" r="6" fill="#fff" /></g></g></svg></g><g transform="rotate(4 188 836)"><svg xmlns="http://www.w3.org/2000/svg" viewBox="0 0 1024 1024" width="560" height="560" x="-92" y="556" aria-hidden="true"><defs><clipPath id="sq"><path d="M 350.06 0 L 673.94 0 C 774.74 0 825.13 0 879.39 17.15 L 879.39 17.15 C 938.62 38.71 985.29 85.38 1006.85 144.61 C 1024 198.87 1024 249.26 1024 350.06 L 1024 673.94 C 1024 774.74 1024 825.13 1006.85 879.39 L 1006.85 879.39 C 985.29 938.62 938.62 985.29 879.39 1006.85 C 825.13 1024 774.74 1024 673.94 1024 L 350.06 1024 C 249.26 1024 198.87 1024 144.61 1006.85 L 144.61 1006.85 C 85.38 985.29 38.71 938.62 17.15 879.39 C 0 825.13 0 774.74 0 673.94 L 0 350.06 C 0 249.26 0 198.87 17.15 144.61 L 17.15 144.61 C 38.71 85.38 85.38 38.71 144.61 17.15 C 198.87 0 249.26 0 350.06 0 Z" /></clipPath><linearGradient id="bgoddlingspages" x1="0" y1="0" x2="0" y2="1"><stop offset="0" stop-color="#22123d" /><stop offset="1" stop-color="#080212" /></linearGradient><radialGradient id="spoddlingspages" cx=".3" cy=".22" r=".65"><stop offset="0" stop-color="#ffffff" stop-opacity=".22" /><stop offset="1" stop-color="#ffffff" stop-opacity="0" /></radialGradient><radialGradient id="gloddlingspages" cx=".5" cy=".5" r=".6"><stop offset="0" stop-color="#b8ff5a" stop-opacity=".9" /><stop offset="1" stop-color="#b8ff5a" stop-opacity="0" /></radialGradient><filter id="shoddlingspages" x="-20%" y="-20%" width="140%" height="140%"><feDropShadow dx="0" dy="14" stdDeviation="18" flood-color="#000" flood-opacity=".45" /></filter></defs><g clip-path="url(#sq)"><g filter="url(#shoddlingspages)"><path d="M 240 180 L 720 180 L 840 300 L 840 844 Q 840 884 800 884 L 280 884 Q 240 884 240 844 Z" fill="#b8ff5a" /><path d="M 720 180 L 840 300 L 720 300 Z" fill="#11240a" opacity=".6" /></g><g stroke="#38e8ff" stroke-width="14" stroke-linecap="round" fill="none"><path d="M 360 180 Q 340 120 300 100" /><path d="M 620 180 Q 640 120 680 100" /></g><circle cx="300" cy="100" r="18" fill="#38e8ff" /><circle cx="680" cy="100" r="18" fill="#38e8ff" /><g stroke="#11240a" stroke-width="26" stroke-linecap="round" opacity=".85"><line x1="300" y1="400" x2="760" y2="400" /><line x1="300" y1="480" x2="700" y2="480" /><line x1="300" y1="560" x2="740" y2="560" /></g><g><circle cx="540" cy="720" r="50" fill="#fff7ea" /><circle cx="540" cy="720" r="28" fill="#11240a" /><circle cx="540" cy="720" r="14" fill="#140420" /><circle cx="523" cy="703" r="8" fill="#fff" /></g></g></svg></g><g transform="rotate(-5 836 836)"><svg xmlns="http://www.w3.org/2000/svg" viewBox="0 0 1024 1024" width="560" height="560" x="556" y="556" aria-hidden="true"><defs><clipPath id="sq"><path d="M 350.06 0 L 673.94 0 C 774.74 0 825.13 0 879.39 17.15 L 879.39 17.15 C 938.62 38.71 985.29 85.38 1006.85 144.61 C 1024 198.87 1024 249.26 1024 350.06 L 1024 673.94 C 1024 774.74 1024 825.13 1006.85 879.39 L 1006.85 879.39 C 985.29 938.62 938.62 985.29 879.39 1006.85 C 825.13 1024 774.74 1024 673.94 1024 L 350.06 1024 C 249.26 1024 198.87 1024 144.61 1006.85 L 144.61 1006.85 C 85.38 985.29 38.71 938.62 17.15 879.39 C 0 825.13 0 774.74 0 673.94 L 0 350.06 C 0 249.26 0 198.87 17.15 144.61 L 17.15 144.61 C 38.71 85.38 85.38 38.71 144.61 17.15 C 198.87 0 249.26 0 350.06 0 Z" /></clipPath><linearGradient id="bgoddlingsmedia" x1="0" y1="0" x2="0" y2="1"><stop offset="0" stop-color="#22123d" /><stop offset="1" stop-color="#080212" /></linearGradient><radialGradient id="spoddlingsmedia" cx=".3" cy=".22" r=".65"><stop offset="0" stop-color="#ffffff" stop-opacity=".22" /><stop offset="1" stop-color="#ffffff" stop-opacity="0" /></radialGradient><radialGradient id="gloddlingsmedia" cx=".5" cy=".5" r=".6"><stop offset="0" stop-color="#ffd84a" stop-opacity=".9" /><stop offset="1" stop-color="#ffd84a" stop-opacity="0" /></radialGradient><filter id="shoddlingsmedia" x="-20%" y="-20%" width="140%" height="140%"><feDropShadow dx="0" dy="14" stdDeviation="18" flood-color="#000" flood-opacity=".45" /></filter></defs><g clip-path="url(#sq)"><g filter="url(#shoddlingsmedia)"><rect x="168" y="240" width="688" height="544" rx="52" fill="#ffd84a" /><rect x="240" y="312" width="544" height="400" rx="24" fill="#2c1d00" /></g><g fill="#ff5fa8"><circle cx="360" cy="440" r="60" /><polygon points="260,680 440,480 560,620 680,500 780,680" /></g><g><circle cx="240" cy="272" r="22" fill="#fff7ea" /><circle cx="240" cy="272" r="12" fill="#2c1d00" /><circle cx="240" cy="272" r="6" fill="#140420" /><circle cx="233" cy="265" r="3" fill="#fff" /></g><g><circle cx="376" cy="272" r="22" fill="#fff7ea" /><circle cx="376" cy="272" r="12" fill="#2c1d00" /><circle cx="376" cy="272" r="6" fill="#140420" /><circle cx="369" cy="265" r="3" fill="#fff" /></g><g><circle cx="512" cy="272" r="22" fill="#fff7ea" /><circle cx="512" cy="272" r="12" fill="#2c1d00" /><circle cx="512" cy="272" r="6" fill="#140420" /><circle cx="505" cy="265" r="3" fill="#fff" /></g><g><circle cx="648" cy="272" r="22" fill="#fff7ea" /><circle cx="648" cy="272" r="12" fill="#2c1d00" /><circle cx="648" cy="272" r="6" fill="#140420" /><circle cx="641" cy="265" r="3" fill="#fff" /></g><g><circle cx="784" cy="272" r="22" fill="#fff7ea" /><circle cx="784" cy="272" r="12" fill="#2c1d00" /><circle cx="784" cy="272" r="6" fill="#140420" /><circle cx="777" cy="265" r="3" fill="#fff" /></g><g><circle cx="240" cy="752" r="22" fill="#fff7ea" /><circle cx="240" cy="752" r="12" fill="#2c1d00" /><circle cx="240" cy="752" r="6" fill="#140420" /><circle cx="233" cy="745" r="3" fill="#fff" /></g><g><circle cx="376" cy="752" r="22" fill="#fff7ea" /><circle cx="376" cy="752" r="12" fill="#2c1d00" /><circle cx="376" cy="752" r="6" fill="#140420" /><circle cx="369" cy="745" r="3" fill="#fff" /></g><g><circle cx="512" cy="752" r="22" fill="#fff7ea" /><circle cx="512" cy="752" r="12" fill="#2c1d00" /><circle cx="512" cy="752" r="6" fill="#140420" /><circle cx="505" cy="745" r="3" fill="#fff" /></g><g><circle cx="648" cy="752" r="22" fill="#fff7ea" /><circle cx="648" cy="752" r="12" fill="#2c1d00" /><circle cx="648" cy="752" r="6" fill="#140420" /><circle cx="641" cy="745" r="3" fill="#fff" /></g><g><circle cx="784" cy="752" r="22" fill="#fff7ea" /><circle cx="784" cy="752" r="12" fill="#2c1d00" /><circle cx="784" cy="752" r="6" fill="#140420" /><circle cx="777" cy="745" r="3" fill="#fff" /></g></g></svg></g></g></svg>
