<svg xmlns="http://www.w3.org/2000/svg" viewBox="0 0 1024 1024" width="1024" height="1024" role="img" aria-label="Risograph icon set preview"><defs><radialGradient id="glowrisograph" cx=".28" cy=".18" r=".72"><stop offset="0" stop-color="#ff6fb8" stop-opacity=".32"/><stop offset=".58" stop-color="#ff4fa8" stop-opacity=".08"/><stop offset="1" stop-color="#ff4fa8" stop-opacity="0"/></radialGradient><filter id="liftrisograph" x="-30%" y="-30%" width="160%" height="160%"><feDropShadow dx="0" dy="20" stdDeviation="24" flood-color="#000" flood-opacity=".52"/><feDropShadow dx="0" dy="0" stdDeviation="10" flood-color="#fff" flood-opacity=".13"/></filter></defs><rect width="1024" height="1024" fill="#080511"/><rect width="1024" height="1024" fill="url(#glowrisograph)"/><g filter="url(#liftrisograph)"><g transform="rotate(-5 188 188)"><svg xmlns="http://www.w3.org/2000/svg" viewBox="0 0 1024 1024" width="560" height="560" x="-92" y="-92" aria-hidden="true"><defs><clipPath id="sq"><path d="M 350.06 0 L 673.94 0 C 774.74 0 825.13 0 879.39 17.15 L 879.39 17.15 C 938.62 38.71 985.29 85.38 1006.85 144.61 C 1024 198.87 1024 249.26 1024 350.06 L 1024 673.94 C 1024 774.74 1024 825.13 1006.85 879.39 L 1006.85 879.39 C 985.29 938.62 938.62 985.29 879.39 1006.85 C 825.13 1024 774.74 1024 673.94 1024 L 350.06 1024 C 249.26 1024 198.87 1024 144.61 1006.85 L 144.61 1006.85 C 85.38 985.29 38.71 938.62 17.15 879.39 C 0 825.13 0 774.74 0 673.94 L 0 350.06 C 0 249.26 0 198.87 17.15 144.61 L 17.15 144.61 C 38.71 85.38 85.38 38.71 144.61 17.15 C 198.87 0 249.26 0 350.06 0 Z" /></clipPath></defs><g clip-path="url(#sq)"><g transform="translate(-16 12)" opacity=".84"><rect x="182" y="182" width="312" height="312" rx="60" fill="#14a6cc" /><rect x="530" y="182" width="312" height="312" rx="60" fill="#14a6cc" /><rect x="182" y="530" width="312" height="312" rx="60" fill="#14a6cc" /><rect x="530" y="530" width="312" height="312" rx="60" fill="#14a6cc" /></g><g transform="translate(18 -14)" opacity=".86"><rect x="182" y="182" width="312" height="312" rx="60" fill="#ff4fa8" /><rect x="530" y="182" width="312" height="312" rx="60" fill="#ff4fa8" /><rect x="182" y="530" width="312" height="312" rx="60" fill="#ff4fa8" /><rect x="530" y="530" width="312" height="312" rx="60" fill="#ff4fa8" /></g><circle cx="96" cy="96" r="3" fill="#111111" opacity=".18" /><circle cx="96" cy="200" r="3" fill="#111111" opacity=".18" /><circle cx="96" cy="304" r="3" fill="#111111" opacity=".18" /><circle cx="96" cy="408" r="3" fill="#111111" opacity=".18" /><circle cx="96" cy="512" r="3" fill="#111111" opacity=".18" /><circle cx="96" cy="616" r="3" fill="#111111" opacity=".18" /><circle cx="96" cy="720" r="3" fill="#111111" opacity=".18" /><circle cx="96" cy="824" r="3" fill="#111111" opacity=".18" /><circle cx="96" cy="928" r="3" fill="#111111" opacity=".18" /><circle cx="200" cy="96" r="5" fill="#111111" opacity=".18" /><circle cx="200" cy="200" r="5" fill="#111111" opacity=".18" /><circle cx="200" cy="304" r="5" fill="#111111" opacity=".18" /><circle cx="200" cy="408" r="5" fill="#111111" opacity=".18" /><circle cx="200" cy="512" r="5" fill="#111111" opacity=".18" /><circle cx="200" cy="616" r="5" fill="#111111" opacity=".18" /><circle cx="200" cy="720" r="5" fill="#111111" opacity=".18" /><circle cx="200" cy="824" r="5" fill="#111111" opacity=".18" /><circle cx="200" cy="928" r="5" fill="#111111" opacity=".18" /><circle cx="304" cy="96" r="7" fill="#111111" opacity=".18" /><circle cx="304" cy="200" r="7" fill="#111111" opacity=".18" /><circle cx="304" cy="304" r="7" fill="#111111" opacity=".18" /><circle cx="304" cy="408" r="7" fill="#111111" opacity=".18" /><circle cx="304" cy="512" r="7" fill="#111111" opacity=".18" /><circle cx="304" cy="616" r="7" fill="#111111" opacity=".18" /><circle cx="304" cy="720" r="7" fill="#111111" opacity=".18" /><circle cx="304" cy="824" r="7" fill="#111111" opacity=".18" /><circle cx="304" cy="928" r="7" fill="#111111" opacity=".18" /><circle cx="408" cy="96" r="4" fill="#111111" opacity=".18" /><circle cx="408" cy="200" r="4" fill="#111111" opacity=".18" /><circle cx="408" cy="304" r="4" fill="#111111" opacity=".18" /><circle cx="408" cy="408" r="4" fill="#111111" opacity=".18" /><circle cx="408" cy="512" r="4" fill="#111111" opacity=".18" /><circle cx="408" cy="616" r="4" fill="#111111" opacity=".18" /><circle cx="408" cy="720" r="4" fill="#111111" opacity=".18" /><circle cx="408" cy="824" r="4" fill="#111111" opacity=".18" /><circle cx="408" cy="928" r="4" fill="#111111" opacity=".18" /><circle cx="512" cy="96" r="6" fill="#111111" opacity=".18" /><circle cx="512" cy="200" r="6" fill="#111111" opacity=".18" /><circle cx="512" cy="304" r="6" fill="#111111" opacity=".18" /><circle cx="512" cy="408" r="6" fill="#111111" opacity=".18" /><circle cx="512" cy="512" r="6" fill="#111111" opacity=".18" /><circle cx="512" cy="616" r="6" fill="#111111" opacity=".18" /><circle cx="512" cy="720" r="6" fill="#111111" opacity=".18" /><circle cx="512" cy="824" r="6" fill="#111111" opacity=".18" /><circle cx="512" cy="928" r="6" fill="#111111" opacity=".18" /><circle cx="616" cy="96" r="3" fill="#111111" opacity=".18" /><circle cx="616" cy="200" r="3" fill="#111111" opacity=".18" /><circle cx="616" cy="304" r="3" fill="#111111" opacity=".18" /><circle cx="616" cy="408" r="3" fill="#111111" opacity=".18" /><circle cx="616" cy="512" r="3" fill="#111111" opacity=".18" /><circle cx="616" cy="616" r="3" fill="#111111" opacity=".18" /><circle cx="616" cy="720" r="3" fill="#111111" opacity=".18" /><circle cx="616" cy="824" r="3" fill="#111111" opacity=".18" /><circle cx="616" cy="928" r="3" fill="#111111" opacity=".18" /><circle cx="720" cy="96" r="5" fill="#111111" opacity=".18" /><circle cx="720" cy="200" r="5" fill="#111111" opacity=".18" /><circle cx="720" cy="304" r="5" fill="#111111" opacity=".18" /><circle cx="720" cy="408" r="5" fill="#111111" opacity=".18" /><circle cx="720" cy="512" r="5" fill="#111111" opacity=".18" /><circle cx="720" cy="616" r="5" fill="#111111" opacity=".18" /><circle cx="720" cy="720" r="5" fill="#111111" opacity=".18" /><circle cx="720" cy="824" r="5" fill="#111111" opacity=".18" /><circle cx="720" cy="928" r="5" fill="#111111" opacity=".18" /><circle cx="824" cy="96" r="7" fill="#111111" opacity=".18" /><circle cx="824" cy="200" r="7" fill="#111111" opacity=".18" /><circle cx="824" cy="304" r="7" fill="#111111" opacity=".18" /><circle cx="824" cy="408" r="7" fill="#111111" opacity=".18" /><circle cx="824" cy="512" r="7" fill="#111111" opacity=".18" /><circle cx="824" cy="616" r="7" fill="#111111" opacity=".18" /><circle cx="824" cy="720" r="7" fill="#111111" opacity=".18" /><circle cx="824" cy="824" r="7" fill="#111111" opacity=".18" /><circle cx="824" cy="928" r="7" fill="#111111" opacity=".18" /><circle cx="928" cy="96" r="4" fill="#111111" opacity=".18" /><circle cx="928" cy="200" r="4" fill="#111111" opacity=".18" /><circle cx="928" cy="304" r="4" fill="#111111" opacity=".18" /><circle cx="928" cy="408" r="4" fill="#111111" opacity=".18" /><circle cx="928" cy="512" r="4" fill="#111111" opacity=".18" /><circle cx="928" cy="616" r="4" fill="#111111" opacity=".18" /><circle cx="928" cy="720" r="4" fill="#111111" opacity=".18" /><circle cx="928" cy="824" r="4" fill="#111111" opacity=".18" /><circle cx="928" cy="928" r="4" fill="#111111" opacity=".18" /></g></svg></g><g transform="rotate(4 836 188)"><svg xmlns="http://www.w3.org/2000/svg" viewBox="0 0 1024 1024" width="560" height="560" x="556" y="-92" aria-hidden="true"><defs><clipPath id="sq"><path d="M 350.06 0 L 673.94 0 C 774.74 0 825.13 0 879.39 17.15 L 879.39 17.15 C 938.62 38.71 985.29 85.38 1006.85 144.61 C 1024 198.87 1024 249.26 1024 350.06 L 1024 673.94 C 1024 774.74 1024 825.13 1006.85 879.39 L 1006.85 879.39 C 985.29 938.62 938.62 985.29 879.39 1006.85 C 825.13 1024 774.74 1024 673.94 1024 L 350.06 1024 C 249.26 1024 198.87 1024 144.61 1006.85 L 144.61 1006.85 C 85.38 985.29 38.71 938.62 17.15 879.39 C 0 825.13 0 774.74 0 673.94 L 0 350.06 C 0 249.26 0 198.87 17.15 144.61 L 17.15 144.61 C 38.71 85.38 85.38 38.71 144.61 17.15 C 198.87 0 249.26 0 350.06 0 Z" /></clipPath></defs><g clip-path="url(#sq)"><g transform="translate(-16 12)" opacity=".84"><path d="M 310 182 L 772 182 L 772 182 L 772 784 Q 772 842 714 842 L 310 842 Q 252 842 252 784 L 252 240 Q 252 182 310 182 Z" fill="#14a6cc" /><rect x="332" y="302" width="360" height="42" rx="21" fill="#14a6cc" /><rect x="332" y="402" width="310" height="42" rx="21" fill="#14a6cc" /><rect x="332" y="502" width="360" height="42" rx="21" fill="#14a6cc" /><rect x="332" y="602" width="250" height="42" rx="21" fill="#14a6cc" /><rect x="332" y="702" width="330" height="42" rx="21" fill="#14a6cc" /></g><g transform="translate(18 -14)" opacity=".86"><path d="M 310 182 L 772 182 L 772 182 L 772 784 Q 772 842 714 842 L 310 842 Q 252 842 252 784 L 252 240 Q 252 182 310 182 Z" fill="#ff4fa8" /><rect x="332" y="302" width="360" height="42" rx="21" fill="#ff4fa8" /><rect x="332" y="402" width="310" height="42" rx="21" fill="#ff4fa8" /><rect x="332" y="502" width="360" height="42" rx="21" fill="#ff4fa8" /><rect x="332" y="602" width="250" height="42" rx="21" fill="#ff4fa8" /><rect x="332" y="702" width="330" height="42" rx="21" fill="#ff4fa8" /></g><circle cx="96" cy="96" r="3" fill="#111111" opacity=".18" /><circle cx="96" cy="200" r="3" fill="#111111" opacity=".18" /><circle cx="96" cy="304" r="3" fill="#111111" opacity=".18" /><circle cx="96" cy="408" r="3" fill="#111111" opacity=".18" /><circle cx="96" cy="512" r="3" fill="#111111" opacity=".18" /><circle cx="96" cy="616" r="3" fill="#111111" opacity=".18" /><circle cx="96" cy="720" r="3" fill="#111111" opacity=".18" /><circle cx="96" cy="824" r="3" fill="#111111" opacity=".18" /><circle cx="96" cy="928" r="3" fill="#111111" opacity=".18" /><circle cx="200" cy="96" r="5" fill="#111111" opacity=".18" /><circle cx="200" cy="200" r="5" fill="#111111" opacity=".18" /><circle cx="200" cy="304" r="5" fill="#111111" opacity=".18" /><circle cx="200" cy="408" r="5" fill="#111111" opacity=".18" /><circle cx="200" cy="512" r="5" fill="#111111" opacity=".18" /><circle cx="200" cy="616" r="5" fill="#111111" opacity=".18" /><circle cx="200" cy="720" r="5" fill="#111111" opacity=".18" /><circle cx="200" cy="824" r="5" fill="#111111" opacity=".18" /><circle cx="200" cy="928" r="5" fill="#111111" opacity=".18" /><circle cx="304" cy="96" r="7" fill="#111111" opacity=".18" /><circle cx="304" cy="200" r="7" fill="#111111" opacity=".18" /><circle cx="304" cy="304" r="7" fill="#111111" opacity=".18" /><circle cx="304" cy="408" r="7" fill="#111111" opacity=".18" /><circle cx="304" cy="512" r="7" fill="#111111" opacity=".18" /><circle cx="304" cy="616" r="7" fill="#111111" opacity=".18" /><circle cx="304" cy="720" r="7" fill="#111111" opacity=".18" /><circle cx="304" cy="824" r="7" fill="#111111" opacity=".18" /><circle cx="304" cy="928" r="7" fill="#111111" opacity=".18" /><circle cx="408" cy="96" r="4" fill="#111111" opacity=".18" /><circle cx="408" cy="200" r="4" fill="#111111" opacity=".18" /><circle cx="408" cy="304" r="4" fill="#111111" opacity=".18" /><circle cx="408" cy="408" r="4" fill="#111111" opacity=".18" /><circle cx="408" cy="512" r="4" fill="#111111" opacity=".18" /><circle cx="408" cy="616" r="4" fill="#111111" opacity=".18" /><circle cx="408" cy="720" r="4" fill="#111111" opacity=".18" /><circle cx="408" cy="824" r="4" fill="#111111" opacity=".18" /><circle cx="408" cy="928" r="4" fill="#111111" opacity=".18" /><circle cx="512" cy="96" r="6" fill="#111111" opacity=".18" /><circle cx="512" cy="200" r="6" fill="#111111" opacity=".18" /><circle cx="512" cy="304" r="6" fill="#111111" opacity=".18" /><circle cx="512" cy="408" r="6" fill="#111111" opacity=".18" /><circle cx="512" cy="512" r="6" fill="#111111" opacity=".18" /><circle cx="512" cy="616" r="6" fill="#111111" opacity=".18" /><circle cx="512" cy="720" r="6" fill="#111111" opacity=".18" /><circle cx="512" cy="824" r="6" fill="#111111" opacity=".18" /><circle cx="512" cy="928" r="6" fill="#111111" opacity=".18" /><circle cx="616" cy="96" r="3" fill="#111111" opacity=".18" /><circle cx="616" cy="200" r="3" fill="#111111" opacity=".18" /><circle cx="616" cy="304" r="3" fill="#111111" opacity=".18" /><circle cx="616" cy="408" r="3" fill="#111111" opacity=".18" /><circle cx="616" cy="512" r="3" fill="#111111" opacity=".18" /><circle cx="616" cy="616" r="3" fill="#111111" opacity=".18" /><circle cx="616" cy="720" r="3" fill="#111111" opacity=".18" /><circle cx="616" cy="824" r="3" fill="#111111" opacity=".18" /><circle cx="616" cy="928" r="3" fill="#111111" opacity=".18" /><circle cx="720" cy="96" r="5" fill="#111111" opacity=".18" /><circle cx="720" cy="200" r="5" fill="#111111" opacity=".18" /><circle cx="720" cy="304" r="5" fill="#111111" opacity=".18" /><circle cx="720" cy="408" r="5" fill="#111111" opacity=".18" /><circle cx="720" cy="512" r="5" fill="#111111" opacity=".18" /><circle cx="720" cy="616" r="5" fill="#111111" opacity=".18" /><circle cx="720" cy="720" r="5" fill="#111111" opacity=".18" /><circle cx="720" cy="824" r="5" fill="#111111" opacity=".18" /><circle cx="720" cy="928" r="5" fill="#111111" opacity=".18" /><circle cx="824" cy="96" r="7" fill="#111111" opacity=".18" /><circle cx="824" cy="200" r="7" fill="#111111" opacity=".18" /><circle cx="824" cy="304" r="7" fill="#111111" opacity=".18" /><circle cx="824" cy="408" r="7" fill="#111111" opacity=".18" /><circle cx="824" cy="512" r="7" fill="#111111" opacity=".18" /><circle cx="824" cy="616" r="7" fill="#111111" opacity=".18" /><circle cx="824" cy="720" r="7" fill="#111111" opacity=".18" /><circle cx="824" cy="824" r="7" fill="#111111" opacity=".18" /><circle cx="824" cy="928" r="7" fill="#111111" opacity=".18" /><circle cx="928" cy="96" r="4" fill="#111111" opacity=".18" /><circle cx="928" cy="200" r="4" fill="#111111" opacity=".18" /><circle cx="928" cy="304" r="4" fill="#111111" opacity=".18" /><circle cx="928" cy="408" r="4" fill="#111111" opacity=".18" /><circle cx="928" cy="512" r="4" fill="#111111" opacity=".18" /><circle cx="928" cy="616" r="4" fill="#111111" opacity=".18" /><circle cx="928" cy="720" r="4" fill="#111111" opacity=".18" /><circle cx="928" cy="824" r="4" fill="#111111" opacity=".18" /><circle cx="928" cy="928" r="4" fill="#111111" opacity=".18" /></g></svg></g><g transform="rotate(4 188 836)"><svg xmlns="http://www.w3.org/2000/svg" viewBox="0 0 1024 1024" width="560" height="560" x="-92" y="556" aria-hidden="true"><defs><clipPath id="sq"><path d="M 350.06 0 L 673.94 0 C 774.74 0 825.13 0 879.39 17.15 L 879.39 17.15 C 938.62 38.71 985.29 85.38 1006.85 144.61 C 1024 198.87 1024 249.26 1024 350.06 L 1024 673.94 C 1024 774.74 1024 825.13 1006.85 879.39 L 1006.85 879.39 C 985.29 938.62 938.62 985.29 879.39 1006.85 C 825.13 1024 774.74 1024 673.94 1024 L 350.06 1024 C 249.26 1024 198.87 1024 144.61 1006.85 L 144.61 1006.85 C 85.38 985.29 38.71 938.62 17.15 879.39 C 0 825.13 0 774.74 0 673.94 L 0 350.06 C 0 249.26 0 198.87 17.15 144.61 L 17.15 144.61 C 38.71 85.38 85.38 38.71 144.61 17.15 C 198.87 0 249.26 0 350.06 0 Z" /></clipPath></defs><g clip-path="url(#sq)"><g transform="translate(-16 12)" opacity=".84"><path d="M 310 182 L 630 182 L 772 324 L 772 784 Q 772 842 714 842 L 310 842 Q 252 842 252 784 L 252 240 Q 252 182 310 182 Z" fill="#14a6cc" /><path d="M 630 182 L 772 324 L 630 324 Z" fill="#14a6cc" opacity=".62" /><rect x="332" y="362" width="360" height="38" rx="19" fill="#14a6cc" opacity=".78" /><rect x="332" y="462" width="330" height="38" rx="19" fill="#14a6cc" opacity=".78" /><rect x="332" y="562" width="280" height="38" rx="19" fill="#14a6cc" opacity=".78" /></g><g transform="translate(18 -14)" opacity=".86"><path d="M 310 182 L 630 182 L 772 324 L 772 784 Q 772 842 714 842 L 310 842 Q 252 842 252 784 L 252 240 Q 252 182 310 182 Z" fill="#ff4fa8" /><path d="M 630 182 L 772 324 L 630 324 Z" fill="#ff4fa8" opacity=".62" /><rect x="332" y="362" width="360" height="38" rx="19" fill="#ff4fa8" opacity=".78" /><rect x="332" y="462" width="330" height="38" rx="19" fill="#ff4fa8" opacity=".78" /><rect x="332" y="562" width="280" height="38" rx="19" fill="#ff4fa8" opacity=".78" /></g><circle cx="96" cy="96" r="3" fill="#111111" opacity=".18" /><circle cx="96" cy="200" r="3" fill="#111111" opacity=".18" /><circle cx="96" cy="304" r="3" fill="#111111" opacity=".18" /><circle cx="96" cy="408" r="3" fill="#111111" opacity=".18" /><circle cx="96" cy="512" r="3" fill="#111111" opacity=".18" /><circle cx="96" cy="616" r="3" fill="#111111" opacity=".18" /><circle cx="96" cy="720" r="3" fill="#111111" opacity=".18" /><circle cx="96" cy="824" r="3" fill="#111111" opacity=".18" /><circle cx="96" cy="928" r="3" fill="#111111" opacity=".18" /><circle cx="200" cy="96" r="5" fill="#111111" opacity=".18" /><circle cx="200" cy="200" r="5" fill="#111111" opacity=".18" /><circle cx="200" cy="304" r="5" fill="#111111" opacity=".18" /><circle cx="200" cy="408" r="5" fill="#111111" opacity=".18" /><circle cx="200" cy="512" r="5" fill="#111111" opacity=".18" /><circle cx="200" cy="616" r="5" fill="#111111" opacity=".18" /><circle cx="200" cy="720" r="5" fill="#111111" opacity=".18" /><circle cx="200" cy="824" r="5" fill="#111111" opacity=".18" /><circle cx="200" cy="928" r="5" fill="#111111" opacity=".18" /><circle cx="304" cy="96" r="7" fill="#111111" opacity=".18" /><circle cx="304" cy="200" r="7" fill="#111111" opacity=".18" /><circle cx="304" cy="304" r="7" fill="#111111" opacity=".18" /><circle cx="304" cy="408" r="7" fill="#111111" opacity=".18" /><circle cx="304" cy="512" r="7" fill="#111111" opacity=".18" /><circle cx="304" cy="616" r="7" fill="#111111" opacity=".18" /><circle cx="304" cy="720" r="7" fill="#111111" opacity=".18" /><circle cx="304" cy="824" r="7" fill="#111111" opacity=".18" /><circle cx="304" cy="928" r="7" fill="#111111" opacity=".18" /><circle cx="408" cy="96" r="4" fill="#111111" opacity=".18" /><circle cx="408" cy="200" r="4" fill="#111111" opacity=".18" /><circle cx="408" cy="304" r="4" fill="#111111" opacity=".18" /><circle cx="408" cy="408" r="4" fill="#111111" opacity=".18" /><circle cx="408" cy="512" r="4" fill="#111111" opacity=".18" /><circle cx="408" cy="616" r="4" fill="#111111" opacity=".18" /><circle cx="408" cy="720" r="4" fill="#111111" opacity=".18" /><circle cx="408" cy="824" r="4" fill="#111111" opacity=".18" /><circle cx="408" cy="928" r="4" fill="#111111" opacity=".18" /><circle cx="512" cy="96" r="6" fill="#111111" opacity=".18" /><circle cx="512" cy="200" r="6" fill="#111111" opacity=".18" /><circle cx="512" cy="304" r="6" fill="#111111" opacity=".18" /><circle cx="512" cy="408" r="6" fill="#111111" opacity=".18" /><circle cx="512" cy="512" r="6" fill="#111111" opacity=".18" /><circle cx="512" cy="616" r="6" fill="#111111" opacity=".18" /><circle cx="512" cy="720" r="6" fill="#111111" opacity=".18" /><circle cx="512" cy="824" r="6" fill="#111111" opacity=".18" /><circle cx="512" cy="928" r="6" fill="#111111" opacity=".18" /><circle cx="616" cy="96" r="3" fill="#111111" opacity=".18" /><circle cx="616" cy="200" r="3" fill="#111111" opacity=".18" /><circle cx="616" cy="304" r="3" fill="#111111" opacity=".18" /><circle cx="616" cy="408" r="3" fill="#111111" opacity=".18" /><circle cx="616" cy="512" r="3" fill="#111111" opacity=".18" /><circle cx="616" cy="616" r="3" fill="#111111" opacity=".18" /><circle cx="616" cy="720" r="3" fill="#111111" opacity=".18" /><circle cx="616" cy="824" r="3" fill="#111111" opacity=".18" /><circle cx="616" cy="928" r="3" fill="#111111" opacity=".18" /><circle cx="720" cy="96" r="5" fill="#111111" opacity=".18" /><circle cx="720" cy="200" r="5" fill="#111111" opacity=".18" /><circle cx="720" cy="304" r="5" fill="#111111" opacity=".18" /><circle cx="720" cy="408" r="5" fill="#111111" opacity=".18" /><circle cx="720" cy="512" r="5" fill="#111111" opacity=".18" /><circle cx="720" cy="616" r="5" fill="#111111" opacity=".18" /><circle cx="720" cy="720" r="5" fill="#111111" opacity=".18" /><circle cx="720" cy="824" r="5" fill="#111111" opacity=".18" /><circle cx="720" cy="928" r="5" fill="#111111" opacity=".18" /><circle cx="824" cy="96" r="7" fill="#111111" opacity=".18" /><circle cx="824" cy="200" r="7" fill="#111111" opacity=".18" /><circle cx="824" cy="304" r="7" fill="#111111" opacity=".18" /><circle cx="824" cy="408" r="7" fill="#111111" opacity=".18" /><circle cx="824" cy="512" r="7" fill="#111111" opacity=".18" /><circle cx="824" cy="616" r="7" fill="#111111" opacity=".18" /><circle cx="824" cy="720" r="7" fill="#111111" opacity=".18" /><circle cx="824" cy="824" r="7" fill="#111111" opacity=".18" /><circle cx="824" cy="928" r="7" fill="#111111" opacity=".18" /><circle cx="928" cy="96" r="4" fill="#111111" opacity=".18" /><circle cx="928" cy="200" r="4" fill="#111111" opacity=".18" /><circle cx="928" cy="304" r="4" fill="#111111" opacity=".18" /><circle cx="928" cy="408" r="4" fill="#111111" opacity=".18" /><circle cx="928" cy="512" r="4" fill="#111111" opacity=".18" /><circle cx="928" cy="616" r="4" fill="#111111" opacity=".18" /><circle cx="928" cy="720" r="4" fill="#111111" opacity=".18" /><circle cx="928" cy="824" r="4" fill="#111111" opacity=".18" /><circle cx="928" cy="928" r="4" fill="#111111" opacity=".18" /></g></svg></g><g transform="rotate(-5 836 836)"><svg xmlns="http://www.w3.org/2000/svg" viewBox="0 0 1024 1024" width="560" height="560" x="556" y="556" aria-hidden="true"><defs><clipPath id="sq"><path d="M 350.06 0 L 673.94 0 C 774.74 0 825.13 0 879.39 17.15 L 879.39 17.15 C 938.62 38.71 985.29 85.38 1006.85 144.61 C 1024 198.87 1024 249.26 1024 350.06 L 1024 673.94 C 1024 774.74 1024 825.13 1006.85 879.39 L 1006.85 879.39 C 985.29 938.62 938.62 985.29 879.39 1006.85 C 825.13 1024 774.74 1024 673.94 1024 L 350.06 1024 C 249.26 1024 198.87 1024 144.61 1006.85 L 144.61 1006.85 C 85.38 985.29 38.71 938.62 17.15 879.39 C 0 825.13 0 774.74 0 673.94 L 0 350.06 C 0 249.26 0 198.87 17.15 144.61 L 17.15 144.61 C 38.71 85.38 85.38 38.71 144.61 17.15 C 198.87 0 249.26 0 350.06 0 Z" /></clipPath></defs><g clip-path="url(#sq)"><g transform="translate(-16 12)" opacity=".84"><rect x="182" y="242" width="660" height="540" rx="68" fill="#14a6cc" /><rect x="220" y="280" width="584" height="464" rx="44" fill="#14a6cc" opacity=".30" /><circle cx="664" cy="392" r="54" fill="#14a6cc" /><path d="M 248 716 L 440 484 L 542 564 L 564 444 L 776 716 Z" fill="#14a6cc" /></g><g transform="translate(18 -14)" opacity=".86"><rect x="182" y="242" width="660" height="540" rx="68" fill="#ff4fa8" /><rect x="220" y="280" width="584" height="464" rx="44" fill="#ff4fa8" opacity=".30" /><circle cx="664" cy="392" r="54" fill="#ff4fa8" /><path d="M 248 716 L 440 484 L 542 564 L 564 444 L 776 716 Z" fill="#ff4fa8" /></g><circle cx="96" cy="96" r="3" fill="#111111" opacity=".18" /><circle cx="96" cy="200" r="3" fill="#111111" opacity=".18" /><circle cx="96" cy="304" r="3" fill="#111111" opacity=".18" /><circle cx="96" cy="408" r="3" fill="#111111" opacity=".18" /><circle cx="96" cy="512" r="3" fill="#111111" opacity=".18" /><circle cx="96" cy="616" r="3" fill="#111111" opacity=".18" /><circle cx="96" cy="720" r="3" fill="#111111" opacity=".18" /><circle cx="96" cy="824" r="3" fill="#111111" opacity=".18" /><circle cx="96" cy="928" r="3" fill="#111111" opacity=".18" /><circle cx="200" cy="96" r="5" fill="#111111" opacity=".18" /><circle cx="200" cy="200" r="5" fill="#111111" opacity=".18" /><circle cx="200" cy="304" r="5" fill="#111111" opacity=".18" /><circle cx="200" cy="408" r="5" fill="#111111" opacity=".18" /><circle cx="200" cy="512" r="5" fill="#111111" opacity=".18" /><circle cx="200" cy="616" r="5" fill="#111111" opacity=".18" /><circle cx="200" cy="720" r="5" fill="#111111" opacity=".18" /><circle cx="200" cy="824" r="5" fill="#111111" opacity=".18" /><circle cx="200" cy="928" r="5" fill="#111111" opacity=".18" /><circle cx="304" cy="96" r="7" fill="#111111" opacity=".18" /><circle cx="304" cy="200" r="7" fill="#111111" opacity=".18" /><circle cx="304" cy="304" r="7" fill="#111111" opacity=".18" /><circle cx="304" cy="408" r="7" fill="#111111" opacity=".18" /><circle cx="304" cy="512" r="7" fill="#111111" opacity=".18" /><circle cx="304" cy="616" r="7" fill="#111111" opacity=".18" /><circle cx="304" cy="720" r="7" fill="#111111" opacity=".18" /><circle cx="304" cy="824" r="7" fill="#111111" opacity=".18" /><circle cx="304" cy="928" r="7" fill="#111111" opacity=".18" /><circle cx="408" cy="96" r="4" fill="#111111" opacity=".18" /><circle cx="408" cy="200" r="4" fill="#111111" opacity=".18" /><circle cx="408" cy="304" r="4" fill="#111111" opacity=".18" /><circle cx="408" cy="408" r="4" fill="#111111" opacity=".18" /><circle cx="408" cy="512" r="4" fill="#111111" opacity=".18" /><circle cx="408" cy="616" r="4" fill="#111111" opacity=".18" /><circle cx="408" cy="720" r="4" fill="#111111" opacity=".18" /><circle cx="408" cy="824" r="4" fill="#111111" opacity=".18" /><circle cx="408" cy="928" r="4" fill="#111111" opacity=".18" /><circle cx="512" cy="96" r="6" fill="#111111" opacity=".18" /><circle cx="512" cy="200" r="6" fill="#111111" opacity=".18" /><circle cx="512" cy="304" r="6" fill="#111111" opacity=".18" /><circle cx="512" cy="408" r="6" fill="#111111" opacity=".18" /><circle cx="512" cy="512" r="6" fill="#111111" opacity=".18" /><circle cx="512" cy="616" r="6" fill="#111111" opacity=".18" /><circle cx="512" cy="720" r="6" fill="#111111" opacity=".18" /><circle cx="512" cy="824" r="6" fill="#111111" opacity=".18" /><circle cx="512" cy="928" r="6" fill="#111111" opacity=".18" /><circle cx="616" cy="96" r="3" fill="#111111" opacity=".18" /><circle cx="616" cy="200" r="3" fill="#111111" opacity=".18" /><circle cx="616" cy="304" r="3" fill="#111111" opacity=".18" /><circle cx="616" cy="408" r="3" fill="#111111" opacity=".18" /><circle cx="616" cy="512" r="3" fill="#111111" opacity=".18" /><circle cx="616" cy="616" r="3" fill="#111111" opacity=".18" /><circle cx="616" cy="720" r="3" fill="#111111" opacity=".18" /><circle cx="616" cy="824" r="3" fill="#111111" opacity=".18" /><circle cx="616" cy="928" r="3" fill="#111111" opacity=".18" /><circle cx="720" cy="96" r="5" fill="#111111" opacity=".18" /><circle cx="720" cy="200" r="5" fill="#111111" opacity=".18" /><circle cx="720" cy="304" r="5" fill="#111111" opacity=".18" /><circle cx="720" cy="408" r="5" fill="#111111" opacity=".18" /><circle cx="720" cy="512" r="5" fill="#111111" opacity=".18" /><circle cx="720" cy="616" r="5" fill="#111111" opacity=".18" /><circle cx="720" cy="720" r="5" fill="#111111" opacity=".18" /><circle cx="720" cy="824" r="5" fill="#111111" opacity=".18" /><circle cx="720" cy="928" r="5" fill="#111111" opacity=".18" /><circle cx="824" cy="96" r="7" fill="#111111" opacity=".18" /><circle cx="824" cy="200" r="7" fill="#111111" opacity=".18" /><circle cx="824" cy="304" r="7" fill="#111111" opacity=".18" /><circle cx="824" cy="408" r="7" fill="#111111" opacity=".18" /><circle cx="824" cy="512" r="7" fill="#111111" opacity=".18" /><circle cx="824" cy="616" r="7" fill="#111111" opacity=".18" /><circle cx="824" cy="720" r="7" fill="#111111" opacity=".18" /><circle cx="824" cy="824" r="7" fill="#111111" opacity=".18" /><circle cx="824" cy="928" r="7" fill="#111111" opacity=".18" /><circle cx="928" cy="96" r="4" fill="#111111" opacity=".18" /><circle cx="928" cy="200" r="4" fill="#111111" opacity=".18" /><circle cx="928" cy="304" r="4" fill="#111111" opacity=".18" /><circle cx="928" cy="408" r="4" fill="#111111" opacity=".18" /><circle cx="928" cy="512" r="4" fill="#111111" opacity=".18" /><circle cx="928" cy="616" r="4" fill="#111111" opacity=".18" /><circle cx="928" cy="720" r="4" fill="#111111" opacity=".18" /><circle cx="928" cy="824" r="4" fill="#111111" opacity=".18" /><circle cx="928" cy="928" r="4" fill="#111111" opacity=".18" /></g></svg></g></g></svg>
