<svg xmlns="http://www.w3.org/2000/svg" viewBox="0 0 1024 1024" width="1024" height="1024" role="img" aria-label="Stadium icon set preview"><defs><linearGradient id="bgstadium" x1="0" y1="0" x2="1" y2="1"><stop offset="0" stop-color="#f6d4d4"/><stop offset="1" stop-color="#aa2f34"/></linearGradient></defs><rect width="1024" height="1024" fill="url(#bgstadium)"/><circle cx="128" cy="120" r="210" fill="#fff" opacity=".24"/><circle cx="918" cy="884" r="260" fill="#d73a3a" opacity=".20"/><g transform="rotate(-5 188 224)"><svg xmlns="http://www.w3.org/2000/svg" viewBox="0 0 1024 1024" width="560" height="560" x="-92" y="-56" aria-hidden="true"><defs><clipPath id="sq"><path d="M 350.06 0 L 673.94 0 C 774.74 0 825.13 0 879.39 17.15 L 879.39 17.15 C 938.62 38.71 985.29 85.38 1006.85 144.61 C 1024 198.87 1024 249.26 1024 350.06 L 1024 673.94 C 1024 774.74 1024 825.13 1006.85 879.39 L 1006.85 879.39 C 985.29 938.62 938.62 985.29 879.39 1006.85 C 825.13 1024 774.74 1024 673.94 1024 L 350.06 1024 C 249.26 1024 198.87 1024 144.61 1006.85 L 144.61 1006.85 C 85.38 985.29 38.71 938.62 17.15 879.39 C 0 825.13 0 774.74 0 673.94 L 0 350.06 C 0 249.26 0 198.87 17.15 144.61 L 17.15 144.61 C 38.71 85.38 85.38 38.71 144.61 17.15 C 198.87 0 249.26 0 350.06 0 Z" /></clipPath><linearGradient id="bgstadiumdashboard" x1="0" y1="0" x2="0" y2="1"><stop offset="0" stop-color="#a62632" /><stop offset="1" stop-color="#610911" /></linearGradient><filter id="shstadiumdashboard" x="-20%" y="-20%" width="140%" height="140%"><feDropShadow dx="0" dy="12" stdDeviation="10" flood-color="#000" flood-opacity=".25" /></filter></defs><g clip-path="url(#sq)"><rect width="1024" height="1024" fill="url(#bgstadiumdashboard)" /><path d="M0 768 H1024 V1024 H0 Z" fill="#ffffff" opacity=".08" /><g filter="url(#shstadiumdashboard)"><rect x="182" y="182" width="312" height="312" rx="60" fill="#ffd86a" /><rect x="530" y="182" width="312" height="312" rx="60" fill="#ffffff" /><rect x="182" y="530" width="312" height="312" rx="60" fill="#ffffff" /><rect x="530" y="530" width="312" height="312" rx="60" fill="#ffd86a" /></g><rect x="116" y="116" width="792" height="792" rx="116" fill="none" stroke="#ffffff" stroke-width="18" opacity=".56" stroke-dasharray="22 22" /><path d="M 130 470 Q 260 460 380 476 Q 460 488 540 474" stroke="#ffd86a" stroke-width="5" fill="none" opacity=".75" stroke-linecap="round" /><circle cx="540" cy="474" r="6" fill="#ffd86a" /><g stroke="#ffffff" stroke-width="5" stroke-linecap="round" opacity=".52"><path d="M 908 116 l 18 -22" /><path d="M 908 136 l 34 -10" /><path d="M 908 158 l 30 2" /></g></g></svg></g><g transform="rotate(4 836 224)"><svg xmlns="http://www.w3.org/2000/svg" viewBox="0 0 1024 1024" width="560" height="560" x="556" y="-56" aria-hidden="true"><defs><clipPath id="sq"><path d="M 350.06 0 L 673.94 0 C 774.74 0 825.13 0 879.39 17.15 L 879.39 17.15 C 938.62 38.71 985.29 85.38 1006.85 144.61 C 1024 198.87 1024 249.26 1024 350.06 L 1024 673.94 C 1024 774.74 1024 825.13 1006.85 879.39 L 1006.85 879.39 C 985.29 938.62 938.62 985.29 879.39 1006.85 C 825.13 1024 774.74 1024 673.94 1024 L 350.06 1024 C 249.26 1024 198.87 1024 144.61 1006.85 L 144.61 1006.85 C 85.38 985.29 38.71 938.62 17.15 879.39 C 0 825.13 0 774.74 0 673.94 L 0 350.06 C 0 249.26 0 198.87 17.15 144.61 L 17.15 144.61 C 38.71 85.38 85.38 38.71 144.61 17.15 C 198.87 0 249.26 0 350.06 0 Z" /></clipPath><linearGradient id="bgstadiumposts" x1="0" y1="0" x2="0" y2="1"><stop offset="0" stop-color="#a62632" /><stop offset="1" stop-color="#610911" /></linearGradient><filter id="shstadiumposts" x="-20%" y="-20%" width="140%" height="140%"><feDropShadow dx="0" dy="12" stdDeviation="10" flood-color="#000" flood-opacity=".25" /></filter></defs><g clip-path="url(#sq)"><rect width="1024" height="1024" fill="url(#bgstadiumposts)" /><path d="M0 768 H1024 V1024 H0 Z" fill="#ffffff" opacity=".08" /><g filter="url(#shstadiumposts)"><path d="M 310 182 L 772 182 L 772 182 L 772 784 Q 772 842 714 842 L 310 842 Q 252 842 252 784 L 252 240 Q 252 182 310 182 Z" fill="#ffd86a" /><rect x="332" y="302" width="360" height="42" rx="21" fill="#ffffff" /><rect x="332" y="402" width="310" height="42" rx="21" fill="#ffffff" /><rect x="332" y="502" width="360" height="42" rx="21" fill="#ffffff" /><rect x="332" y="602" width="250" height="42" rx="21" fill="#ffffff" /><rect x="332" y="702" width="330" height="42" rx="21" fill="#ffffff" /></g><rect x="116" y="116" width="792" height="792" rx="116" fill="none" stroke="#ffffff" stroke-width="18" opacity=".56" stroke-dasharray="22 22" /><path d="M 130 470 Q 260 460 380 476 Q 460 488 540 474" stroke="#ffd86a" stroke-width="5" fill="none" opacity=".75" stroke-linecap="round" /><circle cx="540" cy="474" r="6" fill="#ffd86a" /><g stroke="#ffffff" stroke-width="5" stroke-linecap="round" opacity=".52"><path d="M 908 116 l 18 -22" /><path d="M 908 136 l 34 -10" /><path d="M 908 158 l 30 2" /></g></g></svg></g><g transform="rotate(4 188 832)"><svg xmlns="http://www.w3.org/2000/svg" viewBox="0 0 1024 1024" width="560" height="560" x="-92" y="552" aria-hidden="true"><defs><clipPath id="sq"><path d="M 350.06 0 L 673.94 0 C 774.74 0 825.13 0 879.39 17.15 L 879.39 17.15 C 938.62 38.71 985.29 85.38 1006.85 144.61 C 1024 198.87 1024 249.26 1024 350.06 L 1024 673.94 C 1024 774.74 1024 825.13 1006.85 879.39 L 1006.85 879.39 C 985.29 938.62 938.62 985.29 879.39 1006.85 C 825.13 1024 774.74 1024 673.94 1024 L 350.06 1024 C 249.26 1024 198.87 1024 144.61 1006.85 L 144.61 1006.85 C 85.38 985.29 38.71 938.62 17.15 879.39 C 0 825.13 0 774.74 0 673.94 L 0 350.06 C 0 249.26 0 198.87 17.15 144.61 L 17.15 144.61 C 38.71 85.38 85.38 38.71 144.61 17.15 C 198.87 0 249.26 0 350.06 0 Z" /></clipPath><linearGradient id="bgstadiumpages" x1="0" y1="0" x2="0" y2="1"><stop offset="0" stop-color="#a62632" /><stop offset="1" stop-color="#610911" /></linearGradient><filter id="shstadiumpages" x="-20%" y="-20%" width="140%" height="140%"><feDropShadow dx="0" dy="12" stdDeviation="10" flood-color="#000" flood-opacity=".25" /></filter></defs><g clip-path="url(#sq)"><rect width="1024" height="1024" fill="url(#bgstadiumpages)" /><path d="M0 768 H1024 V1024 H0 Z" fill="#ffffff" opacity=".08" /><g filter="url(#shstadiumpages)"><path d="M 310 182 L 630 182 L 772 324 L 772 784 Q 772 842 714 842 L 310 842 Q 252 842 252 784 L 252 240 Q 252 182 310 182 Z" fill="#ffd86a" /><path d="M 630 182 L 772 324 L 630 324 Z" fill="#ffffff" opacity=".62" /><rect x="332" y="362" width="360" height="38" rx="19" fill="#ffffff" opacity=".78" /><rect x="332" y="462" width="330" height="38" rx="19" fill="#ffffff" opacity=".78" /><rect x="332" y="562" width="280" height="38" rx="19" fill="#ffffff" opacity=".78" /></g><rect x="116" y="116" width="792" height="792" rx="116" fill="none" stroke="#ffffff" stroke-width="18" opacity=".56" stroke-dasharray="22 22" /><path d="M 130 470 Q 260 460 380 476 Q 460 488 540 474" stroke="#ffd86a" stroke-width="5" fill="none" opacity=".75" stroke-linecap="round" /><circle cx="540" cy="474" r="6" fill="#ffd86a" /><g stroke="#ffffff" stroke-width="5" stroke-linecap="round" opacity=".52"><path d="M 908 116 l 18 -22" /><path d="M 908 136 l 34 -10" /><path d="M 908 158 l 30 2" /></g></g></svg></g><g transform="rotate(-5 836 832)"><svg xmlns="http://www.w3.org/2000/svg" viewBox="0 0 1024 1024" width="560" height="560" x="556" y="552" aria-hidden="true"><defs><clipPath id="sq"><path d="M 350.06 0 L 673.94 0 C 774.74 0 825.13 0 879.39 17.15 L 879.39 17.15 C 938.62 38.71 985.29 85.38 1006.85 144.61 C 1024 198.87 1024 249.26 1024 350.06 L 1024 673.94 C 1024 774.74 1024 825.13 1006.85 879.39 L 1006.85 879.39 C 985.29 938.62 938.62 985.29 879.39 1006.85 C 825.13 1024 774.74 1024 673.94 1024 L 350.06 1024 C 249.26 1024 198.87 1024 144.61 1006.85 L 144.61 1006.85 C 85.38 985.29 38.71 938.62 17.15 879.39 C 0 825.13 0 774.74 0 673.94 L 0 350.06 C 0 249.26 0 198.87 17.15 144.61 L 17.15 144.61 C 38.71 85.38 85.38 38.71 144.61 17.15 C 198.87 0 249.26 0 350.06 0 Z" /></clipPath><linearGradient id="bgstadiummedia" x1="0" y1="0" x2="0" y2="1"><stop offset="0" stop-color="#a62632" /><stop offset="1" stop-color="#610911" /></linearGradient><filter id="shstadiummedia" x="-20%" y="-20%" width="140%" height="140%"><feDropShadow dx="0" dy="12" stdDeviation="10" flood-color="#000" flood-opacity=".25" /></filter></defs><g clip-path="url(#sq)"><rect width="1024" height="1024" fill="url(#bgstadiummedia)" /><path d="M0 768 H1024 V1024 H0 Z" fill="#ffffff" opacity=".08" /><g filter="url(#shstadiummedia)"><rect x="182" y="242" width="660" height="540" rx="68" fill="#ffd86a" /><rect x="220" y="280" width="584" height="464" rx="44" fill="#ffffff" opacity=".30" /><circle cx="664" cy="392" r="54" fill="#ffffff" /><path d="M 248 716 L 440 484 L 542 564 L 564 444 L 776 716 Z" fill="#ffffff" /></g><rect x="116" y="116" width="792" height="792" rx="116" fill="none" stroke="#ffffff" stroke-width="18" opacity=".56" stroke-dasharray="22 22" /><path d="M 130 470 Q 260 460 380 476 Q 460 488 540 474" stroke="#ffd86a" stroke-width="5" fill="none" opacity=".75" stroke-linecap="round" /><circle cx="540" cy="474" r="6" fill="#ffd86a" /><g stroke="#ffffff" stroke-width="5" stroke-linecap="round" opacity=".52"><path d="M 908 116 l 18 -22" /><path d="M 908 136 l 34 -10" /><path d="M 908 158 l 30 2" /></g></g></svg></g></svg>
