<svg xmlns="http://www.w3.org/2000/svg" viewBox="0 0 64 64" role="img" aria-labelledby="title">
  <title>Board app icon</title>
  <defs>
    <linearGradient id="bg" x1="0" y1="0" x2="1" y2="1">
      <stop offset="0" stop-color="#ff4fa8"/>
      <stop offset="0.55" stop-color="#b04be1"/>
      <stop offset="1" stop-color="#5a35d6"/>
    </linearGradient>
    <radialGradient id="iris" cx="38%" cy="32%" r="78%">
      <stop offset="0" stop-color="#7cf7b5"/>
      <stop offset="0.58" stop-color="#ffb15c"/>
      <stop offset="1" stop-color="#1e3a8a"/>
    </radialGradient>
  </defs>
  <rect x="2" y="2" width="60" height="60" rx="14" fill="url(#bg)"/>
  <ellipse cx="32" cy="50" rx="18" ry="3" fill="#2a0b52" opacity="0.28"/>
  <g filter="drop-shadow(0 3px 5px rgba(9,4,22,.35))">
    <rect x="15" y="15" width="34" height="34" rx="6" fill="#fdfaf2" opacity="0.96"/><path d="M26 17v30M38 17v30" stroke="#130826" stroke-width="1.8" opacity="0.55"/><rect x="18" y="21" width="8" height="10" rx="2" fill="#ffb15c"/><rect x="30" y="28" width="8" height="12" rx="2" fill="#7cf7b5"/><rect x="40" y="21" width="6" height="18" rx="2" fill="#5a35d6"/><circle cx="23" cy="42" r="4.5" fill="url(#iris)"/><circle cx="23" cy="42" r="1.6" fill="#091425"/>
  </g>
  <path d="M50 9q5-4 8-8" fill="none" stroke="#1a0d32" stroke-width="2.4" stroke-linecap="round" opacity="0.8"/>
  <path d="M50 48l1.2 2.8 2.8.8-2.8.8L50 55.2l-1.2-2.8-2.8-.8 2.8-.8z" fill="#ffe9a8" opacity="0.95"/>
</svg>
