<svg xmlns="http://www.w3.org/2000/svg" viewBox="0 0 64 64" role="img" aria-labelledby="title">
  <title>Mosaic app icon</title>
  <defs>
    <linearGradient id="bg" x1="0" y1="0" x2="1" y2="1">
      <stop offset="0" stop-color="#ff4fa8"/>
      <stop offset="0.55" stop-color="#b04be1"/>
      <stop offset="1" stop-color="#5a35d6"/>
    </linearGradient>
    <radialGradient id="iris" cx="38%" cy="32%" r="78%">
      <stop offset="0" stop-color="#64f4ff"/>
      <stop offset="0.58" stop-color="#ff7ad9"/>
      <stop offset="1" stop-color="#1e3a8a"/>
    </radialGradient>
  </defs>
  <rect x="2" y="2" width="60" height="60" rx="14" fill="url(#bg)"/>
  <ellipse cx="32" cy="50" rx="18" ry="3" fill="#2a0b52" opacity="0.28"/>
  <g filter="drop-shadow(0 3px 5px rgba(9,4,22,.35))">
    <rect x="18" y="18" width="7" height="7" rx="1.4" fill="#ff7ad9" opacity="0.95"/><rect x="27" y="18" width="7" height="7" rx="1.4" fill="#64f4ff" opacity="0.95"/><rect x="36" y="18" width="7" height="7" rx="1.4" fill="#fdfaf2" opacity="0.95"/><rect x="18" y="27" width="7" height="7" rx="1.4" fill="#64f4ff" opacity="0.95"/><rect x="27" y="27" width="7" height="7" rx="1.4" fill="#fdfaf2" opacity="0.95"/><rect x="36" y="27" width="7" height="7" rx="1.4" fill="#5a35d6" opacity="0.95"/><rect x="18" y="36" width="7" height="7" rx="1.4" fill="#fdfaf2" opacity="0.95"/><rect x="27" y="36" width="7" height="7" rx="1.4" fill="#5a35d6" opacity="0.95"/><rect x="36" y="36" width="7" height="7" rx="1.4" fill="#ff7ad9" opacity="0.95"/><circle cx="43" cy="43" r="7" fill="#fdfaf2"/><circle cx="43" cy="43" r="3.6" fill="url(#iris)"/><circle cx="43" cy="43" r="1.5" fill="#091425"/>
  </g>
  <path d="M50 9q5-4 8-8" fill="none" stroke="#1a0d32" stroke-width="2.4" stroke-linecap="round" opacity="0.8"/>
  <path d="M50 48l1.2 2.8 2.8.8-2.8.8L50 55.2l-1.2-2.8-2.8-.8 2.8-.8z" fill="#ffe9a8" opacity="0.95"/>
</svg>
