<svg xmlns="http://www.w3.org/2000/svg" viewBox="0 0 64 64" role="img" aria-label="Rainfall">
  <defs>
    <linearGradient id="sky" x1="0" y1="0" x2="0" y2="1">
      <stop offset="0%" stop-color="#1b2744"/>
      <stop offset="100%" stop-color="#0a1020"/>
    </linearGradient>
  </defs>
  <rect x="0" y="0" width="64" height="64" rx="14" ry="14" fill="url(#sky)"/>
  <ellipse cx="20" cy="20" rx="14" ry="7" fill="#3a4a78"/>
  <ellipse cx="34" cy="22" rx="18" ry="8" fill="#4a5e92"/>
  <ellipse cx="46" cy="18" rx="10" ry="6" fill="#3a4a78"/>
  <g stroke="#9ad4ff" stroke-width="1.4" stroke-linecap="round" opacity=".9">
    <line x1="14" y1="32" x2="11" y2="42"/>
    <line x1="22" y1="30" x2="19" y2="40"/>
    <line x1="30" y1="34" x2="27" y2="44"/>
    <line x1="38" y1="30" x2="35" y2="40"/>
    <line x1="46" y1="34" x2="43" y2="44"/>
    <line x1="54" y1="30" x2="51" y2="40"/>
    <line x1="18" y1="44" x2="15" y2="54"/>
    <line x1="34" y1="46" x2="31" y2="56"/>
    <line x1="50" y1="44" x2="47" y2="54"/>
  </g>
  <path d="M4 58 L60 58" stroke="#5aa7ff" stroke-width="2" stroke-linecap="round" opacity=".6"/>
</svg>
