<svg xmlns="http://www.w3.org/2000/svg" viewBox="0 0 64 64" role="img" aria-labelledby="title">
  <title>Sine app icon</title>
  <defs>
    <linearGradient id="bg" x1="0" y1="0" x2="1" y2="1">
      <stop offset="0" stop-color="#ff4fa8"/>
      <stop offset="0.55" stop-color="#b04be1"/>
      <stop offset="1" stop-color="#5a35d6"/>
    </linearGradient>
    <radialGradient id="iris" cx="38%" cy="32%" r="78%">
      <stop offset="0" stop-color="#70f5ff"/>
      <stop offset="0.58" stop-color="#9b7cff"/>
      <stop offset="1" stop-color="#1e3a8a"/>
    </radialGradient>
  </defs>
  <rect x="2" y="2" width="60" height="60" rx="14" fill="url(#bg)"/>
  <ellipse cx="32" cy="50" rx="18" ry="3" fill="#2a0b52" opacity="0.28"/>
  <g filter="drop-shadow(0 3px 5px rgba(9,4,22,.35))">
    <rect x="13" y="18" width="38" height="28" rx="8" fill="#fdfaf2" opacity="0.96"/><path d="M18 32c4-12 8-12 12 0s8 12 16 0" fill="none" stroke="url(#iris)" stroke-width="4" stroke-linecap="round"/><circle cx="46" cy="23" r="4" fill="#9b7cff"/><circle cx="20" cy="42" r="3" fill="#70f5ff"/>
  </g>
  <path d="M50 9q5-4 8-8" fill="none" stroke="#1a0d32" stroke-width="2.4" stroke-linecap="round" opacity="0.8"/>
  <path d="M50 48l1.2 2.8 2.8.8-2.8.8L50 55.2l-1.2-2.8-2.8-.8 2.8-.8z" fill="#ffe9a8" opacity="0.95"/>
</svg>
