<svg xmlns="http://www.w3.org/2000/svg" viewBox="0 0 64 64" role="img" aria-label="Confetti widget">
  <rect x="0" y="0" width="64" height="64" rx="14" ry="14" fill="#1a0b2e"/>
  <g>
    <rect x="10" y="14" width="6" height="10" rx="1.5" fill="#ff70a6" transform="rotate(-18 13 19)"/>
    <rect x="22" y="10" width="5" height="9" rx="1.2" fill="#ffd166" transform="rotate(12 24 14)"/>
    <rect x="34" y="12" width="6" height="10" rx="1.5" fill="#7cf3c0" transform="rotate(-22 37 17)"/>
    <rect x="46" y="10" width="5" height="9" rx="1.2" fill="#8a5cff" transform="rotate(18 48 14)"/>
    <rect x="12" y="30" width="5" height="9" rx="1.2" fill="#5aa7ff" transform="rotate(24 14 34)"/>
    <rect x="26" y="28" width="6" height="10" rx="1.5" fill="#ff70a6" transform="rotate(-14 29 33)"/>
    <rect x="40" y="30" width="5" height="9" rx="1.2" fill="#ffd166" transform="rotate(20 42 34)"/>
    <rect x="50" y="28" width="6" height="10" rx="1.5" fill="#7cf3c0" transform="rotate(-16 53 33)"/>
  </g>
  <rect x="14" y="42" width="36" height="14" rx="7" fill="url(#btn)" />
  <defs>
    <linearGradient id="btn" x1="0" y1="0" x2="1" y2="0">
      <stop offset="0%" stop-color="#ffd166"/>
      <stop offset="50%" stop-color="#ff70a6"/>
      <stop offset="100%" stop-color="#8a5cff"/>
    </linearGradient>
  </defs>
</svg>
