<svg xmlns="http://www.w3.org/2000/svg" viewBox="0 0 1024 1024" width="1024" height="1024" role="img" aria-label="Lemonade Stand Appearance"><defs><clipPath id="sq"><path d="M 350.06 0 L 673.94 0 C 774.74 0 825.13 0 879.39 17.15 L 879.39 17.15 C 938.62 38.71 985.29 85.38 1006.85 144.61 C 1024 198.87 1024 249.26 1024 350.06 L 1024 673.94 C 1024 774.74 1024 825.13 1006.85 879.39 L 1006.85 879.39 C 985.29 938.62 938.62 985.29 879.39 1006.85 C 825.13 1024 774.74 1024 673.94 1024 L 350.06 1024 C 249.26 1024 198.87 1024 144.61 1006.85 L 144.61 1006.85 C 85.38 985.29 38.71 938.62 17.15 879.39 C 0 825.13 0 774.74 0 673.94 L 0 350.06 C 0 249.26 0 198.87 17.15 144.61 L 17.15 144.61 C 38.71 85.38 85.38 38.71 144.61 17.15 C 198.87 0 249.26 0 350.06 0 Z"/></clipPath><linearGradient id="bglemonadestandappearance" x1="0" y1="0" x2="0" y2="1"><stop offset="0" stop-color="#fff174"/><stop offset="1" stop-color="#ffbd38"/></linearGradient></defs><g clip-path="url(#sq)"><rect width="1024" height="1024" fill="url(#bglemonadestandappearance)"/><rect x="0" y="0" width="42" height="1024" fill="#fff" opacity=".12"/><rect x="0" y="0" width="1024" height="42" fill="#fff" opacity=".12"/><rect x="126" y="0" width="42" height="1024" fill="#fff" opacity=".12"/><rect x="0" y="126" width="1024" height="42" fill="#fff" opacity=".12"/><rect x="252" y="0" width="42" height="1024" fill="#fff" opacity=".12"/><rect x="0" y="252" width="1024" height="42" fill="#fff" opacity=".12"/><rect x="378" y="0" width="42" height="1024" fill="#fff" opacity=".12"/><rect x="0" y="378" width="1024" height="42" fill="#fff" opacity=".12"/><rect x="504" y="0" width="42" height="1024" fill="#fff" opacity=".12"/><rect x="0" y="504" width="1024" height="42" fill="#fff" opacity=".12"/><rect x="630" y="0" width="42" height="1024" fill="#fff" opacity=".12"/><rect x="0" y="630" width="1024" height="42" fill="#fff" opacity=".12"/><rect x="756" y="0" width="42" height="1024" fill="#fff" opacity=".12"/><rect x="0" y="756" width="1024" height="42" fill="#fff" opacity=".12"/><rect x="882" y="0" width="42" height="1024" fill="#fff" opacity=".12"/><rect x="0" y="882" width="1024" height="42" fill="#fff" opacity=".12"/><rect x="1008" y="0" width="42" height="1024" fill="#fff" opacity=".12"/><rect x="0" y="1008" width="1024" height="42" fill="#fff" opacity=".12"/><g transform="rotate(-3 512 512)"><g fill="none" stroke="#7a3a0f" stroke-width="36" stroke-linecap="round" stroke-linejoin="round"><g transform="rotate(-35 512 512)"><rect x="462" y="430" width="100" height="350" rx="50" fill="none"/><rect x="410" y="306" width="204" height="144" rx="36" fill="none"/><path d="M 414 306 C 424 210 468 136 512 122 C 556 136 600 210 610 306 Z" fill="none"/><path d="M 512 170 C 490 216 480 254 478 306" fill="none" stroke="#e84a2a" stroke-width="32" stroke-linecap="round" opacity=".62"/></g></g><circle cx="820" cy="210" r="34" fill="#e84a2a"/></g><circle cx="96" cy="96" r="3" fill="#e84a2a" opacity=".16"/><circle cx="96" cy="246" r="3" fill="#e84a2a" opacity=".16"/><circle cx="96" cy="396" r="3" fill="#e84a2a" opacity=".16"/><circle cx="96" cy="546" r="3" fill="#e84a2a" opacity=".16"/><circle cx="96" cy="696" r="3" fill="#e84a2a" opacity=".16"/><circle cx="96" cy="846" r="3" fill="#e84a2a" opacity=".16"/><circle cx="246" cy="96" r="5" fill="#e84a2a" opacity=".16"/><circle cx="246" cy="246" r="5" fill="#e84a2a" opacity=".16"/><circle cx="246" cy="396" r="5" fill="#e84a2a" opacity=".16"/><circle cx="246" cy="546" r="5" fill="#e84a2a" opacity=".16"/><circle cx="246" cy="696" r="5" fill="#e84a2a" opacity=".16"/><circle cx="246" cy="846" r="5" fill="#e84a2a" opacity=".16"/><circle cx="396" cy="96" r="7" fill="#e84a2a" opacity=".16"/><circle cx="396" cy="246" r="7" fill="#e84a2a" opacity=".16"/><circle cx="396" cy="396" r="7" fill="#e84a2a" opacity=".16"/><circle cx="396" cy="546" r="7" fill="#e84a2a" opacity=".16"/><circle cx="396" cy="696" r="7" fill="#e84a2a" opacity=".16"/><circle cx="396" cy="846" r="7" fill="#e84a2a" opacity=".16"/><circle cx="546" cy="96" r="4" fill="#e84a2a" opacity=".16"/><circle cx="546" cy="246" r="4" fill="#e84a2a" opacity=".16"/><circle cx="546" cy="396" r="4" fill="#e84a2a" opacity=".16"/><circle cx="546" cy="546" r="4" fill="#e84a2a" opacity=".16"/><circle cx="546" cy="696" r="4" fill="#e84a2a" opacity=".16"/><circle cx="546" cy="846" r="4" fill="#e84a2a" opacity=".16"/><circle cx="696" cy="96" r="6" fill="#e84a2a" opacity=".16"/><circle cx="696" cy="246" r="6" fill="#e84a2a" opacity=".16"/><circle cx="696" cy="396" r="6" fill="#e84a2a" opacity=".16"/><circle cx="696" cy="546" r="6" fill="#e84a2a" opacity=".16"/><circle cx="696" cy="696" r="6" fill="#e84a2a" opacity=".16"/><circle cx="696" cy="846" r="6" fill="#e84a2a" opacity=".16"/><circle cx="846" cy="96" r="3" fill="#e84a2a" opacity=".16"/><circle cx="846" cy="246" r="3" fill="#e84a2a" opacity=".16"/><circle cx="846" cy="396" r="3" fill="#e84a2a" opacity=".16"/><circle cx="846" cy="546" r="3" fill="#e84a2a" opacity=".16"/><circle cx="846" cy="696" r="3" fill="#e84a2a" opacity=".16"/><circle cx="846" cy="846" r="3" fill="#e84a2a" opacity=".16"/></g></svg>
