<svg xmlns="http://www.w3.org/2000/svg" viewBox="0 0 64 64">
  <rect x="0" y="0" width="64" height="64" fill="#fff4b8" />
  <rect x="0" y="0" width="3" height="64" fill="#ffde57" opacity="0.5" /><rect x="0" y="0" width="64" height="3" fill="#ffde57" opacity="0.4" /><rect x="6" y="0" width="3" height="64" fill="#ffde57" opacity="0.5" /><rect x="0" y="6" width="64" height="3" fill="#ffde57" opacity="0.4" /><rect x="12" y="0" width="3" height="64" fill="#ffde57" opacity="0.5" /><rect x="0" y="12" width="64" height="3" fill="#ffde57" opacity="0.4" /><rect x="18" y="0" width="3" height="64" fill="#ffde57" opacity="0.5" /><rect x="0" y="18" width="64" height="3" fill="#ffde57" opacity="0.4" /><rect x="24" y="0" width="3" height="64" fill="#ffde57" opacity="0.5" /><rect x="0" y="24" width="64" height="3" fill="#ffde57" opacity="0.4" /><rect x="30" y="0" width="3" height="64" fill="#ffde57" opacity="0.5" /><rect x="0" y="30" width="64" height="3" fill="#ffde57" opacity="0.4" /><rect x="36" y="0" width="3" height="64" fill="#ffde57" opacity="0.5" /><rect x="0" y="36" width="64" height="3" fill="#ffde57" opacity="0.4" /><rect x="42" y="0" width="3" height="64" fill="#ffde57" opacity="0.5" /><rect x="0" y="42" width="64" height="3" fill="#ffde57" opacity="0.4" /><rect x="48" y="0" width="3" height="64" fill="#ffde57" opacity="0.5" /><rect x="0" y="48" width="64" height="3" fill="#ffde57" opacity="0.4" /><rect x="54" y="0" width="3" height="64" fill="#ffde57" opacity="0.5" /><rect x="0" y="54" width="64" height="3" fill="#ffde57" opacity="0.4" /><rect x="60" y="0" width="3" height="64" fill="#ffde57" opacity="0.5" /><rect x="0" y="60" width="64" height="3" fill="#ffde57" opacity="0.4" />
  <polygon points="16 12 42 12 52 22 52 52 16 52" fill="none" stroke="#ffb400" stroke-width="5" stroke-linecap="round" stroke-linejoin="round" opacity="0.35" />
  <polygon points="42 12 42 22 52 22" fill="none" stroke="#ffb400" stroke-width="5" stroke-linecap="round" stroke-linejoin="round" opacity="0.35" />
  <line x1="22" y1="30" x2="44" y2="30" stroke="#ffb400" stroke-width="5" stroke-linecap="round" stroke-linejoin="round" opacity="0.35" />
  <line x1="22" y1="38" x2="44" y2="38" stroke="#ffb400" stroke-width="5" stroke-linecap="round" stroke-linejoin="round" opacity="0.35" />
  <line x1="22" y1="46" x2="38" y2="46" stroke="#ffb400" stroke-width="5" stroke-linecap="round" stroke-linejoin="round" opacity="0.35" />
  <polygon points="16 12 42 12 52 22 52 52 16 52" fill="none" stroke="#d05b1a" stroke-width="3" stroke-linecap="round" stroke-linejoin="round" opacity="0.94" />
  <polygon points="42 12 42 22 52 22" fill="none" stroke="#d05b1a" stroke-width="3" stroke-linecap="round" stroke-linejoin="round" opacity="0.94" />
  <line x1="22" y1="30" x2="44" y2="30" stroke="#d05b1a" stroke-width="3" stroke-linecap="round" stroke-linejoin="round" opacity="0.94" />
  <line x1="22" y1="38" x2="44" y2="38" stroke="#d05b1a" stroke-width="3" stroke-linecap="round" stroke-linejoin="round" opacity="0.94" />
  <line x1="22" y1="46" x2="38" y2="46" stroke="#d05b1a" stroke-width="3" stroke-linecap="round" stroke-linejoin="round" opacity="0.94" />
</svg>
