<svg xmlns="http://www.w3.org/2000/svg" viewBox="0 0 64 64">
  <rect x="0" y="0" width="64" height="64" fill="#fff4b8" />
  <rect x="0" y="0" width="3" height="64" fill="#ffde57" opacity="0.5" /><rect x="0" y="0" width="64" height="3" fill="#ffde57" opacity="0.4" /><rect x="6" y="0" width="3" height="64" fill="#ffde57" opacity="0.5" /><rect x="0" y="6" width="64" height="3" fill="#ffde57" opacity="0.4" /><rect x="12" y="0" width="3" height="64" fill="#ffde57" opacity="0.5" /><rect x="0" y="12" width="64" height="3" fill="#ffde57" opacity="0.4" /><rect x="18" y="0" width="3" height="64" fill="#ffde57" opacity="0.5" /><rect x="0" y="18" width="64" height="3" fill="#ffde57" opacity="0.4" /><rect x="24" y="0" width="3" height="64" fill="#ffde57" opacity="0.5" /><rect x="0" y="24" width="64" height="3" fill="#ffde57" opacity="0.4" /><rect x="30" y="0" width="3" height="64" fill="#ffde57" opacity="0.5" /><rect x="0" y="30" width="64" height="3" fill="#ffde57" opacity="0.4" /><rect x="36" y="0" width="3" height="64" fill="#ffde57" opacity="0.5" /><rect x="0" y="36" width="64" height="3" fill="#ffde57" opacity="0.4" /><rect x="42" y="0" width="3" height="64" fill="#ffde57" opacity="0.5" /><rect x="0" y="42" width="64" height="3" fill="#ffde57" opacity="0.4" /><rect x="48" y="0" width="3" height="64" fill="#ffde57" opacity="0.5" /><rect x="0" y="48" width="64" height="3" fill="#ffde57" opacity="0.4" /><rect x="54" y="0" width="3" height="64" fill="#ffde57" opacity="0.5" /><rect x="0" y="54" width="64" height="3" fill="#ffde57" opacity="0.4" /><rect x="60" y="0" width="3" height="64" fill="#ffde57" opacity="0.5" /><rect x="0" y="60" width="64" height="3" fill="#ffde57" opacity="0.4" />
  <rect x="20.0" y="12" width="24" height="18" rx="2" fill="none" stroke="#ffb400" stroke-width="5" stroke-linecap="round" stroke-linejoin="round" opacity="0.35" />
  <line x1="26.0" y1="8" x2="26.0" y2="14" stroke="#ffb400" stroke-width="5" stroke-linecap="round" stroke-linejoin="round" opacity="0.35" />
  <line x1="38.0" y1="8" x2="38.0" y2="14" stroke="#ffb400" stroke-width="5" stroke-linecap="round" stroke-linejoin="round" opacity="0.35" />
  <rect x="24.0" y="30" width="16" height="10" rx="2" fill="none" stroke="#ffb400" stroke-width="5" stroke-linecap="round" stroke-linejoin="round" opacity="0.35" />
  <line x1="32.0" y1="40" x2="32.0" y2="52" stroke="#ffb400" stroke-width="5" stroke-linecap="round" stroke-linejoin="round" opacity="0.35" />
  <rect x="20.0" y="12" width="24" height="18" rx="2" fill="none" stroke="#d05b1a" stroke-width="3" stroke-linecap="round" stroke-linejoin="round" opacity="0.94" />
  <line x1="26.0" y1="8" x2="26.0" y2="14" stroke="#d05b1a" stroke-width="3" stroke-linecap="round" stroke-linejoin="round" opacity="0.94" />
  <line x1="38.0" y1="8" x2="38.0" y2="14" stroke="#d05b1a" stroke-width="3" stroke-linecap="round" stroke-linejoin="round" opacity="0.94" />
  <rect x="24.0" y="30" width="16" height="10" rx="2" fill="none" stroke="#d05b1a" stroke-width="3" stroke-linecap="round" stroke-linejoin="round" opacity="0.94" />
  <line x1="32.0" y1="40" x2="32.0" y2="52" stroke="#d05b1a" stroke-width="3" stroke-linecap="round" stroke-linejoin="round" opacity="0.94" />
</svg>
