<svg xmlns="http://www.w3.org/2000/svg" viewBox="0 0 1024 1024" width="1024" height="1024" role="img" aria-label="Lemonade Stand Posts"><defs><clipPath id="sq"><path d="M 350.06 0 L 673.94 0 C 774.74 0 825.13 0 879.39 17.15 L 879.39 17.15 C 938.62 38.71 985.29 85.38 1006.85 144.61 C 1024 198.87 1024 249.26 1024 350.06 L 1024 673.94 C 1024 774.74 1024 825.13 1006.85 879.39 L 1006.85 879.39 C 985.29 938.62 938.62 985.29 879.39 1006.85 C 825.13 1024 774.74 1024 673.94 1024 L 350.06 1024 C 249.26 1024 198.87 1024 144.61 1006.85 L 144.61 1006.85 C 85.38 985.29 38.71 938.62 17.15 879.39 C 0 825.13 0 774.74 0 673.94 L 0 350.06 C 0 249.26 0 198.87 17.15 144.61 L 17.15 144.61 C 38.71 85.38 85.38 38.71 144.61 17.15 C 198.87 0 249.26 0 350.06 0 Z"/></clipPath><linearGradient id="bglemonadestandposts" x1="0" y1="0" x2="0" y2="1"><stop offset="0" stop-color="#fff174"/><stop offset="1" stop-color="#ffbd38"/></linearGradient></defs><g clip-path="url(#sq)"><rect width="1024" height="1024" fill="url(#bglemonadestandposts)"/><rect x="0" y="0" width="42" height="1024" fill="#fff" opacity=".12"/><rect x="0" y="0" width="1024" height="42" fill="#fff" opacity=".12"/><rect x="126" y="0" width="42" height="1024" fill="#fff" opacity=".12"/><rect x="0" y="126" width="1024" height="42" fill="#fff" opacity=".12"/><rect x="252" y="0" width="42" height="1024" fill="#fff" opacity=".12"/><rect x="0" y="252" width="1024" height="42" fill="#fff" opacity=".12"/><rect x="378" y="0" width="42" height="1024" fill="#fff" opacity=".12"/><rect x="0" y="378" width="1024" height="42" fill="#fff" opacity=".12"/><rect x="504" y="0" width="42" height="1024" fill="#fff" opacity=".12"/><rect x="0" y="504" width="1024" height="42" fill="#fff" opacity=".12"/><rect x="630" y="0" width="42" height="1024" fill="#fff" opacity=".12"/><rect x="0" y="630" width="1024" height="42" fill="#fff" opacity=".12"/><rect x="756" y="0" width="42" height="1024" fill="#fff" opacity=".12"/><rect x="0" y="756" width="1024" height="42" fill="#fff" opacity=".12"/><rect x="882" y="0" width="42" height="1024" fill="#fff" opacity=".12"/><rect x="0" y="882" width="1024" height="42" fill="#fff" opacity=".12"/><rect x="1008" y="0" width="42" height="1024" fill="#fff" opacity=".12"/><rect x="0" y="1008" width="1024" height="42" fill="#fff" opacity=".12"/><g transform="rotate(-3 512 512)"><g fill="none" stroke="#7a3a0f" stroke-width="36" stroke-linecap="round" stroke-linejoin="round"><path d="M 310 182 L 772 182 L 772 182 L 772 784 Q 772 842 714 842 L 310 842 Q 252 842 252 784 L 252 240 Q 252 182 310 182 Z" fill="none"/><rect x="332" y="302" width="360" height="42" rx="21" fill="none"/><rect x="332" y="402" width="310" height="42" rx="21" fill="none"/><rect x="332" y="502" width="360" height="42" rx="21" fill="none"/><rect x="332" y="602" width="250" height="42" rx="21" fill="none"/><rect x="332" y="702" width="330" height="42" rx="21" fill="none"/></g><circle cx="820" cy="210" r="34" fill="#e84a2a"/></g><circle cx="96" cy="96" r="3" fill="#e84a2a" opacity=".16"/><circle cx="96" cy="246" r="3" fill="#e84a2a" opacity=".16"/><circle cx="96" cy="396" r="3" fill="#e84a2a" opacity=".16"/><circle cx="96" cy="546" r="3" fill="#e84a2a" opacity=".16"/><circle cx="96" cy="696" r="3" fill="#e84a2a" opacity=".16"/><circle cx="96" cy="846" r="3" fill="#e84a2a" opacity=".16"/><circle cx="246" cy="96" r="5" fill="#e84a2a" opacity=".16"/><circle cx="246" cy="246" r="5" fill="#e84a2a" opacity=".16"/><circle cx="246" cy="396" r="5" fill="#e84a2a" opacity=".16"/><circle cx="246" cy="546" r="5" fill="#e84a2a" opacity=".16"/><circle cx="246" cy="696" r="5" fill="#e84a2a" opacity=".16"/><circle cx="246" cy="846" r="5" fill="#e84a2a" opacity=".16"/><circle cx="396" cy="96" r="7" fill="#e84a2a" opacity=".16"/><circle cx="396" cy="246" r="7" fill="#e84a2a" opacity=".16"/><circle cx="396" cy="396" r="7" fill="#e84a2a" opacity=".16"/><circle cx="396" cy="546" r="7" fill="#e84a2a" opacity=".16"/><circle cx="396" cy="696" r="7" fill="#e84a2a" opacity=".16"/><circle cx="396" cy="846" r="7" fill="#e84a2a" opacity=".16"/><circle cx="546" cy="96" r="4" fill="#e84a2a" opacity=".16"/><circle cx="546" cy="246" r="4" fill="#e84a2a" opacity=".16"/><circle cx="546" cy="396" r="4" fill="#e84a2a" opacity=".16"/><circle cx="546" cy="546" r="4" fill="#e84a2a" opacity=".16"/><circle cx="546" cy="696" r="4" fill="#e84a2a" opacity=".16"/><circle cx="546" cy="846" r="4" fill="#e84a2a" opacity=".16"/><circle cx="696" cy="96" r="6" fill="#e84a2a" opacity=".16"/><circle cx="696" cy="246" r="6" fill="#e84a2a" opacity=".16"/><circle cx="696" cy="396" r="6" fill="#e84a2a" opacity=".16"/><circle cx="696" cy="546" r="6" fill="#e84a2a" opacity=".16"/><circle cx="696" cy="696" r="6" fill="#e84a2a" opacity=".16"/><circle cx="696" cy="846" r="6" fill="#e84a2a" opacity=".16"/><circle cx="846" cy="96" r="3" fill="#e84a2a" opacity=".16"/><circle cx="846" cy="246" r="3" fill="#e84a2a" opacity=".16"/><circle cx="846" cy="396" r="3" fill="#e84a2a" opacity=".16"/><circle cx="846" cy="546" r="3" fill="#e84a2a" opacity=".16"/><circle cx="846" cy="696" r="3" fill="#e84a2a" opacity=".16"/><circle cx="846" cy="846" r="3" fill="#e84a2a" opacity=".16"/><path d="M 480 720 Q 488 820 474 900 Q 490 940 480 970" stroke="#e84a2a" stroke-width="10" fill="none" opacity=".65" stroke-linecap="round"/><g transform="translate(884 884)"><path d="M -60 0 A 60 60 0 0 1 60 0 Z" fill="#fff4a8"/><path d="M -60 0 L 60 0" stroke="#e8a418" stroke-width="4"/><path d="M 0 -48 L 0 -4 M -40 -22 L -4 -2 M 40 -22 L 4 -2" stroke="#e8a418" stroke-width="3"/></g></g></svg>
