<svg xmlns="http://www.w3.org/2000/svg" viewBox="0 0 1024 1024" width="1024" height="1024" role="img" aria-label="Lemonade Stand Profile"><defs><clipPath id="sq"><path d="M 350.06 0 L 673.94 0 C 774.74 0 825.13 0 879.39 17.15 L 879.39 17.15 C 938.62 38.71 985.29 85.38 1006.85 144.61 C 1024 198.87 1024 249.26 1024 350.06 L 1024 673.94 C 1024 774.74 1024 825.13 1006.85 879.39 L 1006.85 879.39 C 985.29 938.62 938.62 985.29 879.39 1006.85 C 825.13 1024 774.74 1024 673.94 1024 L 350.06 1024 C 249.26 1024 198.87 1024 144.61 1006.85 L 144.61 1006.85 C 85.38 985.29 38.71 938.62 17.15 879.39 C 0 825.13 0 774.74 0 673.94 L 0 350.06 C 0 249.26 0 198.87 17.15 144.61 L 17.15 144.61 C 38.71 85.38 85.38 38.71 144.61 17.15 C 198.87 0 249.26 0 350.06 0 Z"/></clipPath><filter id="shlemonadestandprofile" x="-20%" y="-20%" width="140%" height="140%"><feDropShadow dx="0" dy="12" stdDeviation="8" flood-color="#000" flood-opacity=".16"/></filter></defs><g clip-path="url(#sq)"><g filter="url(#shlemonadestandprofile)" transform="rotate(-3 512 512)"><g fill="none" stroke="#e46a54" stroke-width="24" stroke-linecap="round" stroke-linejoin="round"><circle cx="512" cy="520" r="282" fill="none"/><circle cx="512" cy="440" r="96" fill="none"/><path d="M 312 802 Q 312 560 512 560 Q 712 560 712 802 Z" fill="none"/></g><circle cx="512" cy="520" r="282" fill="#ffd529"/><circle cx="512" cy="440" r="96" fill="#79cbb8"/><path d="M 312 802 Q 312 560 512 560 Q 712 560 712 802 Z" fill="#79cbb8"/></g><circle cx="790" cy="248" r="46" fill="#ffd529"/><path d="M790 202 V294 M744 248 H836" stroke="#fff4a2" stroke-width="10" opacity=".72"/></g></svg>
