<svg xmlns="http://www.w3.org/2000/svg" viewBox="0 0 1024 1024" width="1024" height="1024" role="img" aria-label="Lemonade Stand Settings"><defs><clipPath id="sq"><path d="M 350.06 0 L 673.94 0 C 774.74 0 825.13 0 879.39 17.15 L 879.39 17.15 C 938.62 38.71 985.29 85.38 1006.85 144.61 C 1024 198.87 1024 249.26 1024 350.06 L 1024 673.94 C 1024 774.74 1024 825.13 1006.85 879.39 L 1006.85 879.39 C 985.29 938.62 938.62 985.29 879.39 1006.85 C 825.13 1024 774.74 1024 673.94 1024 L 350.06 1024 C 249.26 1024 198.87 1024 144.61 1006.85 L 144.61 1006.85 C 85.38 985.29 38.71 938.62 17.15 879.39 C 0 825.13 0 774.74 0 673.94 L 0 350.06 C 0 249.26 0 198.87 17.15 144.61 L 17.15 144.61 C 38.71 85.38 85.38 38.71 144.61 17.15 C 198.87 0 249.26 0 350.06 0 Z"/></clipPath><linearGradient id="bglemonadestandsettings" x1="0" y1="0" x2="0" y2="1"><stop offset="0" stop-color="#fff174"/><stop offset="1" stop-color="#ffbd38"/></linearGradient></defs><g clip-path="url(#sq)"><rect width="1024" height="1024" fill="url(#bglemonadestandsettings)"/><rect x="0" y="0" width="42" height="1024" fill="#fff" opacity=".12"/><rect x="0" y="0" width="1024" height="42" fill="#fff" opacity=".12"/><rect x="126" y="0" width="42" height="1024" fill="#fff" opacity=".12"/><rect x="0" y="126" width="1024" height="42" fill="#fff" opacity=".12"/><rect x="252" y="0" width="42" height="1024" fill="#fff" opacity=".12"/><rect x="0" y="252" width="1024" height="42" fill="#fff" opacity=".12"/><rect x="378" y="0" width="42" height="1024" fill="#fff" opacity=".12"/><rect x="0" y="378" width="1024" height="42" fill="#fff" opacity=".12"/><rect x="504" y="0" width="42" height="1024" fill="#fff" opacity=".12"/><rect x="0" y="504" width="1024" height="42" fill="#fff" opacity=".12"/><rect x="630" y="0" width="42" height="1024" fill="#fff" opacity=".12"/><rect x="0" y="630" width="1024" height="42" fill="#fff" opacity=".12"/><rect x="756" y="0" width="42" height="1024" fill="#fff" opacity=".12"/><rect x="0" y="756" width="1024" height="42" fill="#fff" opacity=".12"/><rect x="882" y="0" width="42" height="1024" fill="#fff" opacity=".12"/><rect x="0" y="882" width="1024" height="42" fill="#fff" opacity=".12"/><rect x="1008" y="0" width="42" height="1024" fill="#fff" opacity=".12"/><rect x="0" y="1008" width="1024" height="42" fill="#fff" opacity=".12"/><g transform="rotate(-3 512 512)"><g fill="none" stroke="#7a3a0f" stroke-width="36" stroke-linecap="round" stroke-linejoin="round"><path d="M 678.30 443.12 L 691.55 499.29 L 771.35 493.64 L 771.35 530.36 L 691.55 524.71 L 678.30 580.88 L 678.30 580.88 L 647.95 629.97 L 708.37 682.40 L 682.40 708.37 L 629.97 647.95 L 580.88 678.30 L 580.88 678.30 L 524.71 691.55 L 530.36 771.35 L 493.64 771.35 L 499.29 691.55 L 443.12 678.30 L 443.12 678.30 L 394.03 647.95 L 341.60 708.37 L 315.63 682.40 L 376.05 629.97 L 345.70 580.88 L 345.70 580.88 L 332.45 524.71 L 252.65 530.36 L 252.65 493.64 L 332.45 499.29 L 345.70 443.12 L 345.70 443.12 L 376.05 394.03 L 315.63 341.60 L 341.60 315.63 L 394.03 376.05 L 443.12 345.70 L 443.12 345.70 L 499.29 332.45 L 493.64 252.65 L 530.36 252.65 L 524.71 332.45 L 580.88 345.70 L 580.88 345.70 L 629.97 376.05 L 682.40 315.63 L 708.37 341.60 L 647.95 394.03 L 678.30 443.12 Z" fill="none"/><circle cx="512" cy="512" r="86" fill="none"/></g><circle cx="820" cy="210" r="34" fill="#e84a2a"/></g><circle cx="96" cy="96" r="3" fill="#e84a2a" opacity=".16"/><circle cx="96" cy="246" r="3" fill="#e84a2a" opacity=".16"/><circle cx="96" cy="396" r="3" fill="#e84a2a" opacity=".16"/><circle cx="96" cy="546" r="3" fill="#e84a2a" opacity=".16"/><circle cx="96" cy="696" r="3" fill="#e84a2a" opacity=".16"/><circle cx="96" cy="846" r="3" fill="#e84a2a" opacity=".16"/><circle cx="246" cy="96" r="5" fill="#e84a2a" opacity=".16"/><circle cx="246" cy="246" r="5" fill="#e84a2a" opacity=".16"/><circle cx="246" cy="396" r="5" fill="#e84a2a" opacity=".16"/><circle cx="246" cy="546" r="5" fill="#e84a2a" opacity=".16"/><circle cx="246" cy="696" r="5" fill="#e84a2a" opacity=".16"/><circle cx="246" cy="846" r="5" fill="#e84a2a" opacity=".16"/><circle cx="396" cy="96" r="7" fill="#e84a2a" opacity=".16"/><circle cx="396" cy="246" r="7" fill="#e84a2a" opacity=".16"/><circle cx="396" cy="396" r="7" fill="#e84a2a" opacity=".16"/><circle cx="396" cy="546" r="7" fill="#e84a2a" opacity=".16"/><circle cx="396" cy="696" r="7" fill="#e84a2a" opacity=".16"/><circle cx="396" cy="846" r="7" fill="#e84a2a" opacity=".16"/><circle cx="546" cy="96" r="4" fill="#e84a2a" opacity=".16"/><circle cx="546" cy="246" r="4" fill="#e84a2a" opacity=".16"/><circle cx="546" cy="396" r="4" fill="#e84a2a" opacity=".16"/><circle cx="546" cy="546" r="4" fill="#e84a2a" opacity=".16"/><circle cx="546" cy="696" r="4" fill="#e84a2a" opacity=".16"/><circle cx="546" cy="846" r="4" fill="#e84a2a" opacity=".16"/><circle cx="696" cy="96" r="6" fill="#e84a2a" opacity=".16"/><circle cx="696" cy="246" r="6" fill="#e84a2a" opacity=".16"/><circle cx="696" cy="396" r="6" fill="#e84a2a" opacity=".16"/><circle cx="696" cy="546" r="6" fill="#e84a2a" opacity=".16"/><circle cx="696" cy="696" r="6" fill="#e84a2a" opacity=".16"/><circle cx="696" cy="846" r="6" fill="#e84a2a" opacity=".16"/><circle cx="846" cy="96" r="3" fill="#e84a2a" opacity=".16"/><circle cx="846" cy="246" r="3" fill="#e84a2a" opacity=".16"/><circle cx="846" cy="396" r="3" fill="#e84a2a" opacity=".16"/><circle cx="846" cy="546" r="3" fill="#e84a2a" opacity=".16"/><circle cx="846" cy="696" r="3" fill="#e84a2a" opacity=".16"/><circle cx="846" cy="846" r="3" fill="#e84a2a" opacity=".16"/><path d="M 370 720 Q 378 820 364 900 Q 380 940 370 970" stroke="#e84a2a" stroke-width="10" fill="none" opacity=".65" stroke-linecap="round"/><g transform="translate(884 884)"><path d="M -60 0 A 60 60 0 0 1 60 0 Z" fill="#fff4a8"/><path d="M -60 0 L 60 0" stroke="#e8a418" stroke-width="4"/><path d="M 0 -48 L 0 -4 M -40 -22 L -4 -2 M 40 -22 L 4 -2" stroke="#e8a418" stroke-width="3"/></g></g></svg>
