<svg xmlns="http://www.w3.org/2000/svg" viewBox="0 0 64 64">
  <defs>
    <radialGradient id="i" cx="50%" cy="50%" r="55%">
      <stop offset="0" stop-color="#ffdd4d"/>
      <stop offset="0.4" stop-color="#d946ef"/>
      <stop offset="1" stop-color="#2b3dff"/>
    </radialGradient>
  </defs>
  <g stroke="#130826" stroke-width="1.4" stroke-linejoin="round">
    <path d="M 32 6 L 36 10 L 42 8 L 44 14 L 50 14 L 50 20 L 56 22 L 54 28 L 58 32 L 54 36 L 56 42 L 50 44 L 50 50 L 44 50 L 42 56 L 36 54 L 32 58 L 28 54 L 22 56 L 20 50 L 14 50 L 14 44 L 8 42 L 10 36 L 6 32 L 10 28 L 8 22 L 14 20 L 14 14 L 20 14 L 22 8 L 28 10 Z" fill="#fdfaf2"/>
    <circle cx="32" cy="32" r="12" fill="url(#i)" stroke="none"/>
    <circle cx="32" cy="32" r="5" fill="#0a0416" stroke="none"/>
    <ellipse cx="29" cy="29" rx="1.6" ry="1.2" fill="#ffffff" stroke="none" opacity="0.9"/>
  </g>
</svg>
