<svg xmlns="http://www.w3.org/2000/svg" viewBox="0 0 64 64" width="64" height="64" role="img" aria-label="Eyeball Avenue Tools">
<title>Eyeball Avenue Tools</title>
<defs>
  <linearGradient id="bg-eyeball-avenue-tools" x1="10" y1="8" x2="58" y2="60" gradientUnits="userSpaceOnUse"><stop offset="0" stop-color="#ff80bf"/><stop offset="0.46" stop-color="#6637d6"/><stop offset="1" stop-color="#16051f"/></linearGradient>
  <radialGradient id="glow-eyeball-avenue-tools" cx="22" cy="16" r="44" gradientUnits="userSpaceOnUse"><stop offset="0" stop-color="#fff7f2" stop-opacity="0.85"/><stop offset="0.52" stop-color="#b35cff" stop-opacity="0.35"/><stop offset="1" stop-color="#16051f" stop-opacity="0"/></radialGradient>
  <linearGradient id="glyph-eyeball-avenue-tools" x1="14" y1="14" x2="50" y2="54" gradientUnits="userSpaceOnUse"><stop offset="0" stop-color="#fff7f2"/><stop offset="0.48" stop-color="#b35cff"/><stop offset="1" stop-color="#34f5c5"/></linearGradient>
  <filter id="shadow-eyeball-avenue-tools" x="-20%" y="-20%" width="140%" height="150%"><feDropShadow dx="0" dy="3" stdDeviation="3" flood-color="#000" flood-opacity="0.45"/></filter>
</defs>
<rect x="4" y="4" width="56" height="56" rx="16" fill="url(#bg-eyeball-avenue-tools)"/>
<circle cx="20" cy="16" r="30" fill="url(#glow-eyeball-avenue-tools)"/>
<path d="M10 50 C20 58 42 58 54 42 L54 56 L10 56 Z" fill="#000" opacity="0.18"/>
<path d="M12 10 H42 C50 10 54 15 54 23" fill="none" stroke="#fff" stroke-opacity="0.30" stroke-width="1.4" stroke-linecap="round"/>
<circle cx="51" cy="13" r="3" fill="#34f5c5" opacity="0.95"/>
<circle cx="13" cy="51" r="2.4" fill="#b35cff" opacity="0.85"/>
<g filter="url(#shadow-eyeball-avenue-tools)"><path d="M42 13l8 8-9 9-5-5z" fill="#34f5c5"/><path d="M16 48l20-23 5 5-20 23z" fill="#fff7f2"/><path d="M19 14a11 11 0 0 0 12 14L47 44a6 6 0 1 1-8 8L23 36A11 11 0 0 0 9 24l8 2 4-4z" fill="#b35cff"/></g>
<g filter="url(#shadow-eyeball-avenue-tools)"><ellipse cx="32" cy="32" rx="18" ry="11" fill="#fff8ef"/><circle cx="32" cy="32" r="8" fill="#b35cff"/><circle cx="32" cy="32" r="4" fill="#070711"/><circle cx="29" cy="29" r="2" fill="#fff"/></g>
</svg>
